M48
METRIC,LZ,000.000
;FILE_FORMAT=3:3
;TYPE=PLATED
;Layer: PTH_Through
;EasyEDA v6.5.54, 2026-05-30 19:05:59
;b713acd6552c46cc8e75d456f680c5e3,b6031369c6ef4286a022563aaf79ab08,10
;Gerber Generator version 0.2
;Holesize 1 = 0.301 mm
T01C0.301
;Holesize 2 = 0.600 mm
T02C0.600
;Holesize 3 = 1.101 mm
T03C1.101
%
G05
G90
T01
X-029652Y029174
X-021891Y046352
X008923Y040579
X-023100Y042156
X-030319Y038918
X-032075Y029274
X-022609Y030571
X-023526Y035224
X026704Y042861
X028396Y038696
X063454Y029497
X069850Y039036
X067793Y033837
X-004961Y037001
X022863Y033863
X006691Y031295
X014380Y044771
X014915Y037816
X-013383Y033994
X-007329Y041379
X-010975Y036574
X008470Y030924
X-005275Y043638
X-014671Y037360
X-007228Y045120
X001299Y046534
X045233Y042913
X050138Y038898
X-004264Y045700
X005804Y043579
X009926Y041658
X-025026Y045109
X-033183Y029788
X024184Y042495
X065538Y036059
X064783Y033049
X001266Y029699
X002116Y029699
X-023556Y029258
X-019713Y043884
X-022922Y044931
X-031396Y027089
X-030253Y039922
X-032394Y038342
X009161Y030593
X013409Y035985
X012244Y036272
X006712Y042553
X066284Y037590
X023614Y037709
X013503Y028151
X-016401Y042449
X-005040Y042378
X-002533Y047020
X-002688Y045250
X-018008Y044004
X054929Y042194
X-005723Y040870
X-000567Y043647
X064952Y032020
X067326Y039203
X029035Y040116
X009341Y039977
X-003835Y043651
X050750Y032633
X029700Y039225
X060765Y039378
X023630Y039208
X012555Y027907
X-001010Y045226
X057632Y040335
X-004617Y043647
X008846Y037480
X003422Y031304
X011138Y039020
X043862Y039728
X061946Y038215
X067162Y037215
X053969Y039818
X024400Y037100
T02
X-025524Y041402G85X-025530Y041402
X-028064Y041402G85X-028070Y041402
X-011427Y029972G85X-011433Y029972
X-013967Y029972G85X-013973Y029972
X-035991Y033272G85X-034891Y033272
X-039921Y033272G85X-039321Y033272
X-039921Y041912G85X-039321Y041912
X-035991Y041912G85X-034891Y041912
T03
X041275Y030480
X038735Y030480
X036195Y030480
X033655Y030480
M30
