G04 Layer: TopLayer*
G04 EasyEDA v6.5.54, 2026-05-30 19:05:59*
G04 b713acd6552c46cc8e75d456f680c5e3,b6031369c6ef4286a022563aaf79ab08,10*
G04 Gerber Generator version 0.2*
G04 Scale: 100 percent, Rotated: No, Reflected: No *
G04 Dimensions in millimeters *
G04 leading zeros omitted , absolute positions ,4 integer and 5 decimal *
%FSLAX45Y45*%
%MOMM*%

%AMMACRO1*21,1,$1,$2,0,0,$3*%
%ADD10C,0.3500*%
%ADD11C,0.2000*%
%ADD12R,1.2000X1.0000*%
%ADD13R,0.9000X0.8000*%
%ADD14R,0.8000X0.9000*%
%ADD15R,1.2960X1.5000*%
%ADD16R,0.0105X1.5000*%
%ADD17R,0.4000X0.9000*%
%ADD18MACRO1,0.864X0.8065X0.0000*%
%ADD19R,0.8640X0.8065*%
%ADD20MACRO1,0.324X0.3685X0.0000*%
%ADD21R,0.3240X0.3684*%
%ADD22R,1.5000X1.2960*%
%ADD23R,0.8640X0.8000*%
%ADD24R,0.8999X1.0000*%
%ADD25R,1.5000X2.5000*%
%ADD26MACRO1,0.864X0.8065X90.0000*%
%ADD27MACRO1,0.864X0.8065X-90.0000*%
%ADD28R,2.0000X1.0500*%
%ADD29R,0.4000X0.8000*%
%ADD30R,0.8000X0.4000*%
%ADD31R,0.8000X0.8000*%
%ADD32R,1.2000X1.2000*%
%ADD33R,1.1000X0.6000*%
%ADD34R,0.6750X0.2800*%
%ADD35R,0.2800X0.6750*%
%ADD36R,0.4900X1.1570*%
%ADD37R,0.4900X1.1750*%
%ADD38R,1.3000X0.3000*%
%ADD39R,0.4500X0.2500*%
%ADD40R,0.2500X0.4500*%
%ADD41R,1.2000X1.4000*%
%ADD42R,1.3000X0.6000*%
%ADD43C,1.8000*%
%ADD44R,1.8000X1.8000*%
%ADD45O,2.099996X0.999998*%
%ADD46O,1.599997X0.999998*%
%ADD47C,0.6000*%
%ADD48C,0.5000*%

%LPD*%
G36*
X-3799687Y2625902D02*
G01*
X-3821887Y2626817D01*
X-3843274Y2629357D01*
X-3864356Y2633624D01*
X-3885082Y2639466D01*
X-3905250Y2646934D01*
X-3924757Y2655976D01*
X-3943502Y2666542D01*
X-3961384Y2678531D01*
X-3978300Y2691841D01*
X-3994048Y2706471D01*
X-4008628Y2722321D01*
X-4021937Y2739237D01*
X-4033875Y2757119D01*
X-4044340Y2775915D01*
X-4053332Y2795473D01*
X-4060748Y2815691D01*
X-4066590Y2836418D01*
X-4070756Y2857500D01*
X-4073245Y2878886D01*
X-4074058Y2900680D01*
X-4074058Y3280206D01*
X-4073194Y3284372D01*
X-4070654Y3287826D01*
X-4066895Y3289909D01*
X-4062679Y3290265D01*
X-4058615Y3288893D01*
X-4055516Y3285947D01*
X-4051401Y3279901D01*
X-4043679Y3271570D01*
X-4034840Y3264509D01*
X-4024985Y3258820D01*
X-4014470Y3254705D01*
X-4008424Y3253333D01*
X-4008424Y3295853D01*
X-4063898Y3295853D01*
X-4067810Y3296615D01*
X-4071112Y3298799D01*
X-4073296Y3302101D01*
X-4074058Y3306013D01*
X-4074058Y3348380D01*
X-4073296Y3352292D01*
X-4071112Y3355594D01*
X-4067810Y3357778D01*
X-4063898Y3358540D01*
X-4008424Y3358540D01*
X-4008424Y3401060D01*
X-4014470Y3399688D01*
X-4024985Y3395573D01*
X-4034840Y3389884D01*
X-4043679Y3382822D01*
X-4051401Y3374491D01*
X-4055516Y3368446D01*
X-4058615Y3365500D01*
X-4062679Y3364128D01*
X-4066895Y3364484D01*
X-4070654Y3366566D01*
X-4073194Y3370021D01*
X-4074058Y3374186D01*
X-4074058Y4144213D01*
X-4073194Y4148378D01*
X-4070654Y4151833D01*
X-4066895Y4153915D01*
X-4062679Y4154271D01*
X-4058615Y4152849D01*
X-4055516Y4149902D01*
X-4051401Y4143857D01*
X-4043679Y4135577D01*
X-4034840Y4128515D01*
X-4024985Y4122826D01*
X-4014470Y4118660D01*
X-4008424Y4117289D01*
X-4008424Y4159859D01*
X-4063898Y4159859D01*
X-4067810Y4160621D01*
X-4071112Y4162806D01*
X-4073296Y4166108D01*
X-4074058Y4170019D01*
X-4074058Y4212386D01*
X-4073296Y4216247D01*
X-4071112Y4219549D01*
X-4067810Y4221784D01*
X-4063898Y4222546D01*
X-4008424Y4222546D01*
X-4008424Y4265066D01*
X-4014470Y4263694D01*
X-4024985Y4259580D01*
X-4034840Y4253890D01*
X-4043679Y4246829D01*
X-4051401Y4238498D01*
X-4055516Y4232452D01*
X-4058615Y4229506D01*
X-4062679Y4228084D01*
X-4066895Y4228490D01*
X-4070654Y4230573D01*
X-4073194Y4234027D01*
X-4074058Y4238193D01*
X-4074058Y4499305D01*
X-4073194Y4521911D01*
X-4070604Y4543247D01*
X-4066387Y4564380D01*
X-4060494Y4585055D01*
X-4053027Y4605223D01*
X-4043984Y4624781D01*
X-4033469Y4643526D01*
X-4021480Y4661408D01*
X-4008120Y4678273D01*
X-3993489Y4694072D01*
X-3977690Y4708652D01*
X-3960774Y4721961D01*
X-3942842Y4733848D01*
X-3924046Y4744364D01*
X-3904487Y4753356D01*
X-3884320Y4760772D01*
X-3863594Y4766564D01*
X-3842461Y4770729D01*
X-3821074Y4773218D01*
X-3799179Y4774082D01*
X7281316Y4774082D01*
X7303871Y4773168D01*
X7325258Y4770628D01*
X7346340Y4766360D01*
X7367066Y4760518D01*
X7387234Y4753051D01*
X7406741Y4744008D01*
X7425537Y4733442D01*
X7443368Y4721453D01*
X7460284Y4708144D01*
X7476032Y4693513D01*
X7490663Y4677664D01*
X7503922Y4660747D01*
X7515859Y4642866D01*
X7526375Y4624070D01*
X7535316Y4604512D01*
X7542733Y4584293D01*
X7548575Y4563567D01*
X7552740Y4542485D01*
X7555230Y4521098D01*
X7556093Y4499610D01*
X7556550Y4495698D01*
X7556550Y2900680D01*
X7555687Y2878124D01*
X7553096Y2856738D01*
X7548880Y2835656D01*
X7542987Y2814929D01*
X7535519Y2794762D01*
X7526477Y2775254D01*
X7515961Y2756458D01*
X7503972Y2738577D01*
X7490612Y2721711D01*
X7475981Y2705912D01*
X7460183Y2691333D01*
X7443266Y2678074D01*
X7425334Y2666136D01*
X7406538Y2655620D01*
X7386980Y2646680D01*
X7366812Y2639263D01*
X7346086Y2633421D01*
X7324953Y2629255D01*
X7303566Y2626766D01*
X7281773Y2625902D01*
G37*

%LPC*%
G36*
X-3139592Y2653080D02*
G01*
X-3129889Y2653893D01*
X-3120491Y2656433D01*
X-3111652Y2660548D01*
X-3107182Y2663698D01*
X-3104388Y2665069D01*
X-3101340Y2665526D01*
X-2031441Y2665577D01*
X-2023160Y2666746D01*
X-2015591Y2669286D01*
X-2008479Y2673197D01*
X-2003755Y2676956D01*
X-1998065Y2682646D01*
X-1993138Y2689199D01*
X-1989531Y2696362D01*
X-1987346Y2704185D01*
X-1986686Y2710078D01*
X-1985568Y2713583D01*
X-1983333Y2716530D01*
X-1980184Y2718409D01*
X-1976577Y2719070D01*
X-1955546Y2719070D01*
X-1949246Y2719781D01*
X-1943760Y2721711D01*
X-1938883Y2724810D01*
X-1934768Y2728874D01*
X-1931720Y2733802D01*
X-1929790Y2739237D01*
X-1929079Y2745587D01*
X-1929079Y2994406D01*
X-1929790Y3000756D01*
X-1931720Y3006191D01*
X-1934768Y3011119D01*
X-1938883Y3015183D01*
X-1943760Y3018282D01*
X-1949246Y3020212D01*
X-1955546Y3020923D01*
X-2104440Y3020923D01*
X-2110740Y3020212D01*
X-2116226Y3018282D01*
X-2121103Y3015183D01*
X-2122830Y3013506D01*
X-2126132Y3011271D01*
X-2129993Y3010509D01*
X-2133904Y3011271D01*
X-2137156Y3013506D01*
X-2138883Y3015183D01*
X-2143760Y3018282D01*
X-2149246Y3020212D01*
X-2155545Y3020923D01*
X-2304440Y3020923D01*
X-2310739Y3020212D01*
X-2316226Y3018282D01*
X-2321102Y3015183D01*
X-2325217Y3011119D01*
X-2328265Y3006191D01*
X-2330196Y3000756D01*
X-2330907Y2994406D01*
X-2330907Y2990037D01*
X-2331567Y2986430D01*
X-2333498Y2983280D01*
X-2336444Y2980994D01*
X-2340000Y2979978D01*
X-2343708Y2980232D01*
X-2345944Y2980842D01*
X-2355646Y2981706D01*
X-2365349Y2980842D01*
X-2374747Y2978353D01*
X-2383586Y2974187D01*
X-2391562Y2968650D01*
X-2398420Y2961741D01*
X-2404008Y2953766D01*
X-2408123Y2944926D01*
X-2410663Y2935528D01*
X-2411526Y2925826D01*
X-2410663Y2916123D01*
X-2408123Y2906725D01*
X-2404008Y2897886D01*
X-2398420Y2889910D01*
X-2391562Y2883052D01*
X-2383586Y2877464D01*
X-2374747Y2873349D01*
X-2365349Y2870809D01*
X-2355646Y2869946D01*
X-2345944Y2870809D01*
X-2343708Y2871419D01*
X-2340000Y2871724D01*
X-2336444Y2870657D01*
X-2333498Y2868371D01*
X-2331567Y2865221D01*
X-2330907Y2861614D01*
X-2330907Y2762504D01*
X-2331669Y2758643D01*
X-2333904Y2755341D01*
X-2337155Y2753106D01*
X-2341067Y2752344D01*
X-2501595Y2752344D01*
X-2505506Y2753106D01*
X-2508808Y2755341D01*
X-2510993Y2758643D01*
X-2511755Y2762504D01*
X-2511755Y2767939D01*
X-2568803Y2767939D01*
X-2568803Y2762504D01*
X-2569616Y2758643D01*
X-2571800Y2755341D01*
X-2575102Y2753106D01*
X-2578963Y2752344D01*
X-2646375Y2752344D01*
X-2650236Y2753106D01*
X-2653538Y2755341D01*
X-2655773Y2758643D01*
X-2656535Y2762504D01*
X-2656535Y2767939D01*
X-2713583Y2767939D01*
X-2713583Y2762504D01*
X-2714345Y2758643D01*
X-2716580Y2755341D01*
X-2719832Y2753106D01*
X-2723743Y2752344D01*
X-2838856Y2752344D01*
X-2842768Y2753106D01*
X-2846019Y2755341D01*
X-2848254Y2758643D01*
X-2849016Y2762504D01*
X-2849016Y2870911D01*
X-2849727Y2877261D01*
X-2851658Y2882696D01*
X-2854706Y2887624D01*
X-2858820Y2891688D01*
X-2863697Y2894787D01*
X-2869184Y2896717D01*
X-2875483Y2897428D01*
X-2896565Y2897428D01*
X-2900222Y2898089D01*
X-2903423Y2900019D01*
X-2905658Y2902966D01*
X-2906674Y2906522D01*
X-2907334Y2912618D01*
X-2909773Y2921711D01*
X-2910230Y2927146D01*
X-2912770Y2936544D01*
X-2916123Y2943758D01*
X-2917037Y2947568D01*
X-2916478Y2951429D01*
X-2914294Y2957677D01*
X-2913583Y2963976D01*
X-2913583Y3008630D01*
X-2912821Y3012490D01*
X-2910636Y3015792D01*
X-2841040Y3085338D01*
X-2837789Y3087573D01*
X-2833878Y3088335D01*
X-2794660Y3088335D01*
X-2794660Y3105251D01*
X-2793898Y3109163D01*
X-2791663Y3112414D01*
X-2788361Y3114649D01*
X-2784500Y3115411D01*
X-2727299Y3115411D01*
X-2723438Y3114649D01*
X-2720136Y3112414D01*
X-2717901Y3109163D01*
X-2717139Y3105251D01*
X-2717139Y3088335D01*
X-2665171Y3088335D01*
X-2665171Y3105251D01*
X-2664409Y3109163D01*
X-2662224Y3112414D01*
X-2658922Y3114649D01*
X-2655011Y3115411D01*
X-1750364Y3115462D01*
X-1742084Y3116630D01*
X-1734515Y3119170D01*
X-1727504Y3123031D01*
X-1721002Y3128467D01*
X-1694484Y3154934D01*
X-1691182Y3157169D01*
X-1687322Y3157931D01*
X-1683410Y3157169D01*
X-1679295Y3154121D01*
X-1674418Y3151073D01*
X-1668932Y3149142D01*
X-1662633Y3148431D01*
X-1577390Y3148431D01*
X-1571040Y3149142D01*
X-1565605Y3151073D01*
X-1560677Y3154121D01*
X-1556613Y3158236D01*
X-1553514Y3163112D01*
X-1551584Y3168599D01*
X-1550873Y3174898D01*
X-1550873Y3218180D01*
X-1550111Y3222040D01*
X-1547926Y3225342D01*
X-1413560Y3359759D01*
X-1410411Y3361893D01*
X-1406702Y3362706D01*
X-1403400Y3362807D01*
X-1399641Y3363315D01*
X-1393291Y3365042D01*
X-1389583Y3365347D01*
X-1386027Y3364280D01*
X-1383080Y3361994D01*
X-1381150Y3358845D01*
X-1380490Y3355238D01*
X-1380490Y3270250D01*
X-1379778Y3263950D01*
X-1377899Y3258464D01*
X-1374800Y3253587D01*
X-1370685Y3249472D01*
X-1365808Y3246424D01*
X-1360322Y3244494D01*
X-1354023Y3243783D01*
X-1275181Y3243783D01*
X-1268831Y3244494D01*
X-1263396Y3246424D01*
X-1258468Y3249472D01*
X-1254404Y3253587D01*
X-1253185Y3255467D01*
X-1250391Y3258413D01*
X-1246632Y3260039D01*
X-1242568Y3260039D01*
X-1238808Y3258413D01*
X-1236014Y3255467D01*
X-1234795Y3253587D01*
X-1230731Y3249472D01*
X-1225804Y3246424D01*
X-1220368Y3244494D01*
X-1214018Y3243783D01*
X-1200962Y3243783D01*
X-1200962Y3285845D01*
X-1238504Y3285845D01*
X-1242415Y3286607D01*
X-1245717Y3288842D01*
X-1247902Y3292144D01*
X-1248664Y3296005D01*
X-1248664Y3327400D01*
X-1248410Y3329736D01*
X-1247597Y3331972D01*
X-1244498Y3338017D01*
X-1242263Y3340963D01*
X-1239113Y3342894D01*
X-1235456Y3343554D01*
X-1200962Y3343554D01*
X-1200962Y3385616D01*
X-1214018Y3385616D01*
X-1220368Y3384905D01*
X-1230071Y3381400D01*
X-1234338Y3381756D01*
X-1238097Y3383787D01*
X-1240688Y3387242D01*
X-1241602Y3391458D01*
X-1241602Y3402939D01*
X-1240790Y3406800D01*
X-1238605Y3410102D01*
X-1235303Y3412286D01*
X-1231442Y3413099D01*
X-1228852Y3413099D01*
X-1228852Y3458362D01*
X-1230884Y3461562D01*
X-1231595Y3465322D01*
X-1231595Y3502660D01*
X-1230884Y3506419D01*
X-1228852Y3509619D01*
X-1228852Y3554882D01*
X-1231900Y3554882D01*
X-1238250Y3554171D01*
X-1241653Y3553002D01*
X-1245006Y3552444D01*
X-1248359Y3553002D01*
X-1251712Y3554171D01*
X-1258062Y3554882D01*
X-1294688Y3554882D01*
X-1298600Y3555695D01*
X-1301902Y3557879D01*
X-1304086Y3561181D01*
X-1304848Y3565042D01*
X-1304086Y3568954D01*
X-1301902Y3572256D01*
X-1247140Y3627018D01*
X-1243228Y3631742D01*
X-1240129Y3634282D01*
X-1236370Y3635400D01*
X-1232408Y3634994D01*
X-1228953Y3633165D01*
X-1221841Y3627323D01*
X-1215186Y3623970D01*
X-1207820Y3621989D01*
X-1201978Y3621532D01*
X-1137310Y3621532D01*
X-1133957Y3620922D01*
X-1130960Y3619296D01*
X-1125575Y3614978D01*
X-1117549Y3610660D01*
X-1108862Y3607815D01*
X-1099820Y3606596D01*
X-1090726Y3607003D01*
X-1081836Y3609035D01*
X-1073404Y3612642D01*
X-1071727Y3613759D01*
X-1067663Y3615334D01*
X-1063345Y3615029D01*
X-1059484Y3612997D01*
X-1056894Y3609543D01*
X-1055979Y3605276D01*
X-1055979Y3576878D01*
X-1055268Y3570528D01*
X-1053338Y3565093D01*
X-1050239Y3560165D01*
X-1046175Y3556101D01*
X-1041247Y3553002D01*
X-1035812Y3551123D01*
X-1029462Y3550412D01*
X-949960Y3550412D01*
X-943660Y3551123D01*
X-938174Y3553002D01*
X-933297Y3556101D01*
X-929182Y3560165D01*
X-926134Y3565093D01*
X-924001Y3571138D01*
X-921867Y3574694D01*
X-918464Y3577132D01*
X-914400Y3577945D01*
X-910336Y3577132D01*
X-906932Y3574694D01*
X-904798Y3571138D01*
X-902665Y3565093D01*
X-899617Y3560165D01*
X-895502Y3556101D01*
X-890625Y3553002D01*
X-885139Y3551123D01*
X-878840Y3550412D01*
X-799338Y3550412D01*
X-792988Y3551123D01*
X-787552Y3553002D01*
X-782624Y3556101D01*
X-778560Y3560165D01*
X-775462Y3565093D01*
X-773531Y3570528D01*
X-772871Y3576523D01*
X-771753Y3580231D01*
X-769315Y3583178D01*
X-765911Y3585057D01*
X-760730Y3586734D01*
X-754126Y3590544D01*
X-749655Y3594404D01*
X-734263Y3609797D01*
X-730758Y3612032D01*
X-726694Y3612743D01*
X-722680Y3611727D01*
X-719378Y3609238D01*
X-717346Y3605580D01*
X-716991Y3601465D01*
X-717600Y3595928D01*
X-717600Y3557066D01*
X-716889Y3550767D01*
X-714959Y3545281D01*
X-711250Y3539388D01*
X-709879Y3535883D01*
X-709930Y3532073D01*
X-711301Y3528568D01*
X-714959Y3522726D01*
X-716889Y3517239D01*
X-717600Y3510940D01*
X-717600Y3472078D01*
X-716889Y3465728D01*
X-714959Y3460292D01*
X-711250Y3454400D01*
X-709879Y3450894D01*
X-709930Y3447084D01*
X-711301Y3443579D01*
X-714959Y3437737D01*
X-716889Y3432251D01*
X-717600Y3425951D01*
X-717600Y3387090D01*
X-716889Y3380740D01*
X-714959Y3375304D01*
X-711250Y3369360D01*
X-709879Y3365855D01*
X-709930Y3362096D01*
X-711301Y3358591D01*
X-714959Y3352698D01*
X-716889Y3347262D01*
X-717600Y3340912D01*
X-717600Y3302050D01*
X-716889Y3295751D01*
X-714959Y3290265D01*
X-711250Y3284372D01*
X-709879Y3280867D01*
X-709930Y3277108D01*
X-711301Y3273602D01*
X-714959Y3267710D01*
X-716889Y3262274D01*
X-717600Y3255924D01*
X-717600Y3217062D01*
X-716889Y3210763D01*
X-714959Y3205276D01*
X-711250Y3199384D01*
X-709879Y3195878D01*
X-709930Y3192119D01*
X-711301Y3188563D01*
X-714959Y3182721D01*
X-716889Y3177235D01*
X-717600Y3170936D01*
X-717600Y3132074D01*
X-716889Y3125774D01*
X-714959Y3120288D01*
X-711911Y3115411D01*
X-709168Y3111855D01*
X-708253Y3108604D01*
X-708456Y3105200D01*
X-709726Y3102051D01*
X-712470Y3097733D01*
X-714400Y3092246D01*
X-715111Y3085947D01*
X-715111Y3072841D01*
X-675538Y3072841D01*
X-675538Y3095447D01*
X-674776Y3099308D01*
X-672541Y3102610D01*
X-669290Y3104845D01*
X-665378Y3105607D01*
X-633018Y3105607D01*
X-629107Y3104845D01*
X-625805Y3102610D01*
X-623620Y3099308D01*
X-622858Y3095447D01*
X-622858Y3072841D01*
X-600252Y3072841D01*
X-596392Y3072079D01*
X-593090Y3069894D01*
X-590854Y3066592D01*
X-590092Y3062681D01*
X-590092Y3030321D01*
X-590854Y3026410D01*
X-593090Y3023108D01*
X-596392Y3020923D01*
X-600252Y3020161D01*
X-622858Y3020161D01*
X-622858Y2980588D01*
X-609752Y2980588D01*
X-603453Y2981299D01*
X-597966Y2983230D01*
X-595680Y2984652D01*
X-591616Y2986125D01*
X-587349Y2985770D01*
X-583590Y2983738D01*
X-580999Y2980283D01*
X-580085Y2976067D01*
X-580085Y2936748D01*
X-580898Y2932887D01*
X-583082Y2929585D01*
X-586384Y2927400D01*
X-590245Y2926588D01*
X-648462Y2926588D01*
X-654812Y2925876D01*
X-660247Y2923997D01*
X-665175Y2920898D01*
X-669239Y2916834D01*
X-672338Y2911906D01*
X-674268Y2906471D01*
X-674979Y2900121D01*
X-674979Y2814878D01*
X-674268Y2808528D01*
X-672338Y2803093D01*
X-669239Y2798165D01*
X-665175Y2794101D01*
X-660247Y2791002D01*
X-654812Y2789123D01*
X-648462Y2788412D01*
X-568960Y2788412D01*
X-562660Y2789123D01*
X-557174Y2791002D01*
X-552297Y2794101D01*
X-548182Y2798165D01*
X-545134Y2803093D01*
X-543001Y2809138D01*
X-540867Y2812694D01*
X-537464Y2815132D01*
X-533400Y2815945D01*
X-529336Y2815132D01*
X-525932Y2812694D01*
X-523798Y2809138D01*
X-521665Y2803093D01*
X-518617Y2798165D01*
X-514502Y2794101D01*
X-509625Y2791002D01*
X-504139Y2789123D01*
X-497840Y2788412D01*
X-418338Y2788412D01*
X-413766Y2788920D01*
X-410768Y2788767D01*
X-407873Y2787802D01*
X-405434Y2785973D01*
X-385165Y2765704D01*
X-378917Y2760624D01*
X-372211Y2757220D01*
X-364845Y2755239D01*
X-359003Y2754782D01*
X1215745Y2754782D01*
X1219098Y2754223D01*
X1222095Y2752598D01*
X1227480Y2748229D01*
X1235506Y2743911D01*
X1244193Y2741117D01*
X1253236Y2739898D01*
X1262329Y2740304D01*
X1271219Y2742336D01*
X1279652Y2745892D01*
X1287221Y2750921D01*
X1293825Y2757220D01*
X1299210Y2764586D01*
X1302867Y2772206D01*
X1305001Y2775153D01*
X1307998Y2777134D01*
X1311554Y2777947D01*
X1315161Y2777490D01*
X1318361Y2775762D01*
X1322273Y2772613D01*
X1330299Y2768295D01*
X1338986Y2765501D01*
X1348028Y2764282D01*
X1357122Y2764688D01*
X1366012Y2766720D01*
X1374394Y2770276D01*
X1382014Y2775305D01*
X1388618Y2781604D01*
X1393952Y2788970D01*
X1397914Y2797200D01*
X1400352Y2805988D01*
X1401165Y2815082D01*
X1400352Y2824175D01*
X1397914Y2832963D01*
X1393952Y2841193D01*
X1386027Y2852115D01*
X1385163Y2856026D01*
X1385925Y2859938D01*
X1388110Y2863291D01*
X1391412Y2865526D01*
X1395323Y2866339D01*
X2011680Y2866339D01*
X2019655Y2867152D01*
X2026767Y2869488D01*
X2033371Y2873298D01*
X2037842Y2877108D01*
X2043430Y2882696D01*
X2046427Y2884779D01*
X2049932Y2885643D01*
X2053539Y2885236D01*
X2056790Y2883611D01*
X2059584Y2880309D01*
X2063699Y2876194D01*
X2068575Y2873095D01*
X2074062Y2871216D01*
X2080361Y2870504D01*
X2169210Y2870504D01*
X2175560Y2871216D01*
X2180996Y2873095D01*
X2185924Y2876194D01*
X2189988Y2880309D01*
X2193086Y2885186D01*
X2195017Y2890672D01*
X2195728Y2896971D01*
X2195728Y2995828D01*
X2195017Y3002178D01*
X2193086Y3007614D01*
X2189988Y3012541D01*
X2185924Y3016605D01*
X2180996Y3019704D01*
X2175560Y3021584D01*
X2169210Y3022295D01*
X2080361Y3022295D01*
X2074062Y3021584D01*
X2068575Y3019704D01*
X2063699Y3016605D01*
X2059584Y3012541D01*
X2056536Y3007614D01*
X2054606Y3002178D01*
X2053894Y2995828D01*
X2053894Y2990494D01*
X2053031Y2986328D01*
X2050542Y2982925D01*
X2046884Y2980791D01*
X2041753Y2979166D01*
X2035149Y2975356D01*
X2030679Y2971495D01*
X2000300Y2941116D01*
X1996998Y2938932D01*
X1993087Y2938119D01*
X1865630Y2938119D01*
X1861718Y2938932D01*
X1858416Y2941116D01*
X1856232Y2944418D01*
X1855470Y2948279D01*
X1856232Y2952191D01*
X1858416Y2955493D01*
X2027529Y3124555D01*
X2030831Y3126790D01*
X2034692Y3127552D01*
X3239414Y3127552D01*
X3243326Y3126790D01*
X3246628Y3124555D01*
X3248812Y3121304D01*
X3249574Y3117392D01*
X3249574Y3099358D01*
X3314141Y3099358D01*
X3314141Y3117392D01*
X3314903Y3121304D01*
X3317138Y3124555D01*
X3320440Y3126790D01*
X3324301Y3127552D01*
X3406698Y3127552D01*
X3410559Y3126790D01*
X3413861Y3124555D01*
X3416096Y3121304D01*
X3416858Y3117392D01*
X3416858Y3099358D01*
X3481425Y3099358D01*
X3481425Y3117392D01*
X3482187Y3121304D01*
X3484372Y3124555D01*
X3487674Y3126790D01*
X3491585Y3127552D01*
X3514547Y3127552D01*
X3518712Y3126638D01*
X3522167Y3124047D01*
X3524250Y3120288D01*
X3524605Y3115970D01*
X3523081Y3111957D01*
X3517950Y3103829D01*
X3511753Y3090672D01*
X3507232Y3076803D01*
X3504539Y3062528D01*
X3503625Y3048000D01*
X3504539Y3033471D01*
X3507232Y3019196D01*
X3511753Y3005328D01*
X3517950Y2992170D01*
X3525723Y2979877D01*
X3535019Y2968650D01*
X3545636Y2958693D01*
X3557422Y2950159D01*
X3570173Y2943148D01*
X3583686Y2937764D01*
X3597808Y2934157D01*
X3612235Y2932328D01*
X3626764Y2932328D01*
X3641191Y2934157D01*
X3655314Y2937764D01*
X3668826Y2943148D01*
X3681577Y2950159D01*
X3693363Y2958693D01*
X3703980Y2968650D01*
X3713276Y2979877D01*
X3721049Y2992170D01*
X3727246Y3005328D01*
X3731768Y3019196D01*
X3734460Y3033471D01*
X3735374Y3048000D01*
X3734460Y3062528D01*
X3731768Y3076803D01*
X3727246Y3090672D01*
X3721049Y3103829D01*
X3715918Y3111957D01*
X3714394Y3115970D01*
X3714750Y3120288D01*
X3716832Y3124047D01*
X3720287Y3126638D01*
X3724452Y3127552D01*
X3768547Y3127552D01*
X3772712Y3126638D01*
X3776167Y3124047D01*
X3778250Y3120288D01*
X3778605Y3115970D01*
X3777081Y3111957D01*
X3771950Y3103829D01*
X3765753Y3090672D01*
X3761232Y3076803D01*
X3758539Y3062528D01*
X3757625Y3048000D01*
X3758539Y3033471D01*
X3761232Y3019196D01*
X3765753Y3005328D01*
X3771950Y2992170D01*
X3779723Y2979877D01*
X3789019Y2968650D01*
X3799636Y2958693D01*
X3811422Y2950159D01*
X3824173Y2943148D01*
X3837686Y2937764D01*
X3851808Y2934157D01*
X3866235Y2932328D01*
X3880764Y2932328D01*
X3895191Y2934157D01*
X3909314Y2937764D01*
X3922826Y2943148D01*
X3935577Y2950159D01*
X3947363Y2958693D01*
X3957980Y2968650D01*
X3967276Y2979877D01*
X3975049Y2992170D01*
X3981246Y3005328D01*
X3985768Y3019196D01*
X3988460Y3033471D01*
X3989374Y3048000D01*
X3988460Y3062528D01*
X3985768Y3076803D01*
X3981246Y3090672D01*
X3975049Y3103829D01*
X3969918Y3111957D01*
X3968394Y3115970D01*
X3968750Y3120288D01*
X3970832Y3124047D01*
X3974287Y3126638D01*
X3978452Y3127552D01*
X4022547Y3127552D01*
X4026712Y3126638D01*
X4030167Y3124047D01*
X4032250Y3120288D01*
X4032605Y3115970D01*
X4031081Y3111957D01*
X4025950Y3103829D01*
X4019753Y3090672D01*
X4015232Y3076803D01*
X4012539Y3062528D01*
X4011625Y3048000D01*
X4012539Y3033471D01*
X4015232Y3019196D01*
X4019753Y3005328D01*
X4025950Y2992170D01*
X4033723Y2979877D01*
X4043019Y2968650D01*
X4053636Y2958693D01*
X4065422Y2950159D01*
X4078173Y2943148D01*
X4091686Y2937764D01*
X4105808Y2934157D01*
X4120235Y2932328D01*
X4134764Y2932328D01*
X4149191Y2934157D01*
X4163314Y2937764D01*
X4176826Y2943148D01*
X4189577Y2950159D01*
X4201363Y2958693D01*
X4211980Y2968650D01*
X4221276Y2979877D01*
X4229049Y2992170D01*
X4235246Y3005328D01*
X4239768Y3019196D01*
X4242460Y3033471D01*
X4243374Y3048000D01*
X4242460Y3062528D01*
X4239768Y3076803D01*
X4235246Y3090672D01*
X4229049Y3103829D01*
X4223918Y3111957D01*
X4222394Y3115970D01*
X4222750Y3120288D01*
X4224832Y3124047D01*
X4228287Y3126638D01*
X4232452Y3127552D01*
X4397603Y3127552D01*
X4401515Y3126790D01*
X4404817Y3124555D01*
X4407001Y3121304D01*
X4407763Y3117392D01*
X4407001Y3113532D01*
X4403699Y3109112D01*
X4400600Y3104235D01*
X4398721Y3098749D01*
X4398010Y3092450D01*
X4398010Y3076854D01*
X4437583Y3076854D01*
X4437583Y3117392D01*
X4438345Y3121304D01*
X4440529Y3124555D01*
X4443831Y3126790D01*
X4447743Y3127552D01*
X4480102Y3127552D01*
X4483963Y3126790D01*
X4487265Y3124555D01*
X4489500Y3121304D01*
X4490262Y3117392D01*
X4490262Y3076854D01*
X4527804Y3076854D01*
X4531715Y3076092D01*
X4535017Y3073857D01*
X4537202Y3070555D01*
X4537964Y3066694D01*
X4537964Y3029305D01*
X4537202Y3025444D01*
X4535017Y3022142D01*
X4531715Y3019907D01*
X4527804Y3019145D01*
X4490262Y3019145D01*
X4490262Y2977083D01*
X4503318Y2977083D01*
X4509668Y2977794D01*
X4515104Y2979724D01*
X4520031Y2982772D01*
X4524095Y2986887D01*
X4525314Y2988767D01*
X4528108Y2991713D01*
X4531868Y2993339D01*
X4535932Y2993339D01*
X4539691Y2991713D01*
X4542485Y2988767D01*
X4543704Y2986887D01*
X4547768Y2982772D01*
X4552696Y2979724D01*
X4558131Y2977794D01*
X4564481Y2977083D01*
X4643323Y2977083D01*
X4649622Y2977794D01*
X4655108Y2979724D01*
X4659985Y2982772D01*
X4664100Y2986887D01*
X4667199Y2991764D01*
X4669282Y2997860D01*
X4671161Y3001111D01*
X4674057Y3003448D01*
X4677562Y3004566D01*
X4686858Y3005785D01*
X4694377Y3008325D01*
X4701489Y3012287D01*
X4706061Y3015945D01*
X4709058Y3017570D01*
X4712411Y3018180D01*
X4749444Y3018180D01*
X4753508Y3017316D01*
X4756912Y3014929D01*
X4759502Y3010052D01*
X4762601Y3005124D01*
X4766665Y3001060D01*
X4771593Y2997962D01*
X4777028Y2996031D01*
X4783378Y2995320D01*
X4868621Y2995320D01*
X4874971Y2996031D01*
X4880406Y2997962D01*
X4885334Y3001060D01*
X4889398Y3005124D01*
X4892497Y3010052D01*
X4894376Y3015488D01*
X4895088Y3021838D01*
X4895088Y3087370D01*
X4895748Y3090875D01*
X4897577Y3093974D01*
X4900320Y3096209D01*
X4905451Y3099104D01*
X4912004Y3104489D01*
X5030216Y3222701D01*
X5033213Y3224784D01*
X5036820Y3225647D01*
X5040477Y3225190D01*
X5043728Y3223463D01*
X5046980Y3220872D01*
X5055006Y3216554D01*
X5063693Y3213709D01*
X5072735Y3212490D01*
X5081828Y3212896D01*
X5090718Y3214928D01*
X5099100Y3218535D01*
X5106720Y3223564D01*
X5111038Y3226663D01*
X5114848Y3227425D01*
X6004052Y3227425D01*
X6007912Y3226612D01*
X6011214Y3224428D01*
X6013399Y3221126D01*
X6014212Y3217265D01*
X6014212Y3159760D01*
X6014923Y3153460D01*
X6016802Y3147974D01*
X6019901Y3143097D01*
X6023965Y3138982D01*
X6028893Y3135934D01*
X6034938Y3133801D01*
X6038494Y3131667D01*
X6040932Y3128264D01*
X6041745Y3124200D01*
X6040932Y3120136D01*
X6038494Y3116783D01*
X6034938Y3114598D01*
X6028893Y3112516D01*
X6023965Y3109417D01*
X6019901Y3105302D01*
X6016802Y3100425D01*
X6014923Y3094939D01*
X6014212Y3088640D01*
X6014212Y3009138D01*
X6014923Y3002838D01*
X6016802Y2997352D01*
X6019901Y2992475D01*
X6023965Y2988360D01*
X6028893Y2985262D01*
X6034328Y2983382D01*
X6040678Y2982671D01*
X6125921Y2982671D01*
X6132271Y2983382D01*
X6137706Y2985262D01*
X6142634Y2988360D01*
X6146698Y2992475D01*
X6149797Y2997352D01*
X6152388Y3002229D01*
X6155791Y3004616D01*
X6159855Y3005480D01*
X6248298Y3005480D01*
X6256274Y3006242D01*
X6263386Y3008274D01*
X6266992Y3008630D01*
X6270447Y3007715D01*
X6273393Y3005683D01*
X6277965Y3001060D01*
X6282893Y2997962D01*
X6288328Y2996082D01*
X6294678Y2995371D01*
X6379921Y2995371D01*
X6386271Y2996082D01*
X6391706Y2997962D01*
X6396634Y3001060D01*
X6400698Y3005175D01*
X6403797Y3010052D01*
X6406388Y3014929D01*
X6409791Y3017316D01*
X6413855Y3018180D01*
X6445300Y3018231D01*
X6453530Y3019399D01*
X6461150Y3021939D01*
X6468110Y3025800D01*
X6474663Y3031236D01*
X6597650Y3154222D01*
X6600952Y3156407D01*
X6604812Y3157220D01*
X6790181Y3157220D01*
X6798411Y3158388D01*
X6806031Y3160928D01*
X6812991Y3164840D01*
X6819544Y3170224D01*
X6864705Y3215436D01*
X6868007Y3217621D01*
X6871868Y3218383D01*
X6916623Y3218383D01*
X6922922Y3219094D01*
X6928408Y3221024D01*
X6933285Y3224072D01*
X6937400Y3228187D01*
X6940499Y3233064D01*
X6942378Y3238550D01*
X6943090Y3244850D01*
X6943090Y3333750D01*
X6942378Y3340049D01*
X6940499Y3345535D01*
X6937400Y3350412D01*
X6933285Y3354527D01*
X6928408Y3357575D01*
X6923836Y3360064D01*
X6921449Y3363468D01*
X6920636Y3367532D01*
X6920636Y3401720D01*
X6919874Y3409696D01*
X6917740Y3417062D01*
X6917385Y3420618D01*
X6918299Y3424123D01*
X6920331Y3427018D01*
X6924700Y3431387D01*
X6927799Y3436264D01*
X6929678Y3441750D01*
X6930390Y3448050D01*
X6930390Y3536950D01*
X6929678Y3543249D01*
X6927799Y3548735D01*
X6924700Y3553612D01*
X6920585Y3557727D01*
X6915708Y3560775D01*
X6911136Y3563264D01*
X6908749Y3566668D01*
X6907936Y3570732D01*
X6907936Y3607968D01*
X6908800Y3612184D01*
X6911390Y3615588D01*
X6915150Y3617671D01*
X6919417Y3618026D01*
X6923481Y3616553D01*
X6928764Y3613200D01*
X6934250Y3611321D01*
X6940550Y3610610D01*
X7029450Y3610610D01*
X7035749Y3611321D01*
X7041235Y3613200D01*
X7046112Y3616299D01*
X7050227Y3620414D01*
X7053275Y3625291D01*
X7055205Y3630777D01*
X7055916Y3637076D01*
X7055916Y3715918D01*
X7055205Y3722268D01*
X7053275Y3727704D01*
X7050227Y3732631D01*
X7046112Y3736695D01*
X7044232Y3737914D01*
X7041286Y3740708D01*
X7039660Y3744468D01*
X7039660Y3748532D01*
X7041286Y3752291D01*
X7044232Y3755085D01*
X7046112Y3756304D01*
X7050227Y3760368D01*
X7053275Y3765296D01*
X7055205Y3770731D01*
X7055916Y3777081D01*
X7055916Y3790137D01*
X7013854Y3790137D01*
X7013854Y3752596D01*
X7013092Y3748684D01*
X7010857Y3745382D01*
X7007555Y3743198D01*
X7003694Y3742436D01*
X6966305Y3742436D01*
X6962444Y3743198D01*
X6959142Y3745382D01*
X6956907Y3748684D01*
X6956145Y3752596D01*
X6956145Y3790137D01*
X6914083Y3790137D01*
X6914083Y3777081D01*
X6914794Y3770731D01*
X6916724Y3765296D01*
X6919772Y3760368D01*
X6923887Y3756304D01*
X6925767Y3755085D01*
X6928713Y3752291D01*
X6930339Y3748532D01*
X6930339Y3744468D01*
X6928713Y3740708D01*
X6925767Y3737914D01*
X6923887Y3736695D01*
X6919772Y3732631D01*
X6916724Y3727704D01*
X6914235Y3723182D01*
X6910933Y3720795D01*
X6906920Y3719880D01*
X6905345Y3719880D01*
X6896963Y3718712D01*
X6891274Y3716934D01*
X6888784Y3715816D01*
X6884619Y3714902D01*
X6876186Y3714902D01*
X6872325Y3715664D01*
X6869023Y3717899D01*
X6866839Y3721201D01*
X6866026Y3725062D01*
X6866026Y3734917D01*
X6865315Y3741267D01*
X6864096Y3746500D01*
X6865315Y3751732D01*
X6866026Y3758082D01*
X6866026Y3784955D01*
X6865315Y3791254D01*
X6864096Y3796487D01*
X6865315Y3801770D01*
X6866026Y3808171D01*
X6854901Y3808171D01*
X6851548Y3808729D01*
X6845909Y3810711D01*
X6839559Y3811422D01*
X6780275Y3811422D01*
X6776364Y3812184D01*
X6773062Y3814368D01*
X6770878Y3817670D01*
X6770116Y3821582D01*
X6770116Y3824681D01*
X6770878Y3828592D01*
X6773062Y3831894D01*
X6776364Y3834079D01*
X6780275Y3834841D01*
X6783171Y3834841D01*
X6783171Y3861409D01*
X6780275Y3861409D01*
X6776364Y3862171D01*
X6773113Y3864356D01*
X6770878Y3867607D01*
X6770116Y3871468D01*
X6770014Y3882237D01*
X6770471Y3885437D01*
X6771944Y3888282D01*
X6776262Y3894226D01*
X6780174Y3902456D01*
X6782612Y3911244D01*
X6783425Y3920337D01*
X6782612Y3929379D01*
X6780174Y3938168D01*
X6776262Y3946398D01*
X6770878Y3953764D01*
X6764274Y3960063D01*
X6756704Y3965092D01*
X6748272Y3968699D01*
X6739381Y3970731D01*
X6730288Y3971137D01*
X6721246Y3969918D01*
X6712559Y3967073D01*
X6704533Y3962755D01*
X6697421Y3957065D01*
X6691426Y3950208D01*
X6686753Y3942384D01*
X6683552Y3933850D01*
X6681927Y3924655D01*
X6680962Y3920337D01*
X6678269Y3916832D01*
X6674358Y3914800D01*
X6669989Y3914648D01*
X6665925Y3916324D01*
X6662928Y3919575D01*
X6659168Y3926128D01*
X6655308Y3930599D01*
X6623151Y3962806D01*
X6616903Y3967835D01*
X6610197Y3971239D01*
X6602831Y3973220D01*
X6596989Y3973677D01*
X6116320Y3973677D01*
X6112560Y3974439D01*
X6100622Y3982567D01*
X6092190Y3986174D01*
X6083300Y3988206D01*
X6074206Y3988612D01*
X6065164Y3987393D01*
X6056477Y3984548D01*
X6048451Y3980230D01*
X6041339Y3974541D01*
X6039358Y3972306D01*
X6036106Y3969816D01*
X6032093Y3968851D01*
X6027978Y3969562D01*
X6024524Y3971798D01*
X5937808Y4058564D01*
X5931560Y4063593D01*
X5924854Y4066997D01*
X5917488Y4068978D01*
X5911646Y4069435D01*
X5803036Y4069435D01*
X5799277Y4070197D01*
X5787339Y4078325D01*
X5778906Y4081932D01*
X5770016Y4083964D01*
X5760923Y4084370D01*
X5751880Y4083151D01*
X5743194Y4080306D01*
X5735167Y4075988D01*
X5730849Y4072585D01*
X5727547Y4070807D01*
X5723788Y4070350D01*
X5720181Y4071315D01*
X5717133Y4073550D01*
X5712866Y4078071D01*
X5710072Y4080357D01*
X5706922Y4082389D01*
X5703773Y4084015D01*
X5698286Y4085844D01*
X5694934Y4087723D01*
X5692546Y4090720D01*
X5691428Y4094327D01*
X5690717Y4100271D01*
X5688838Y4105706D01*
X5685739Y4110634D01*
X5681675Y4114698D01*
X5676747Y4117797D01*
X5671312Y4119727D01*
X5668314Y4120032D01*
X5664352Y4121353D01*
X5661202Y4124198D01*
X5658002Y4132529D01*
X5656275Y4135882D01*
X5654243Y4139031D01*
X5651906Y4141978D01*
X5649214Y4144619D01*
X5646318Y4147007D01*
X5643168Y4149039D01*
X5639816Y4150766D01*
X5636310Y4152087D01*
X5632653Y4153052D01*
X5628944Y4153662D01*
X5624931Y4153865D01*
X5613450Y4153865D01*
X5609539Y4154627D01*
X5606237Y4156811D01*
X5546394Y4216654D01*
X5544413Y4219549D01*
X5543499Y4222953D01*
X5542991Y4228439D01*
X5540552Y4237228D01*
X5536590Y4245457D01*
X5531256Y4252823D01*
X5524652Y4259122D01*
X5517032Y4264152D01*
X5508650Y4267758D01*
X5499760Y4269790D01*
X5490667Y4270197D01*
X5481624Y4268978D01*
X5472938Y4266133D01*
X5464911Y4261815D01*
X5457799Y4256125D01*
X5455818Y4253890D01*
X5452516Y4251401D01*
X5448503Y4250436D01*
X5444439Y4251147D01*
X5440984Y4253382D01*
X4967376Y4726990D01*
X4961128Y4732020D01*
X4954473Y4735423D01*
X4947107Y4737404D01*
X4941214Y4737862D01*
X-213512Y4737862D01*
X-217271Y4738624D01*
X-229209Y4746752D01*
X-237642Y4750358D01*
X-246532Y4752390D01*
X-255625Y4752797D01*
X-264668Y4751578D01*
X-273354Y4748733D01*
X-281381Y4744415D01*
X-288493Y4738725D01*
X-294487Y4731867D01*
X-299161Y4724044D01*
X-302361Y4715510D01*
X-303987Y4706518D01*
X-303987Y4697425D01*
X-302361Y4688433D01*
X-299161Y4679899D01*
X-294487Y4672076D01*
X-288493Y4665218D01*
X-281381Y4659528D01*
X-273354Y4655210D01*
X-264668Y4652365D01*
X-255625Y4651146D01*
X-246532Y4651552D01*
X-237642Y4653584D01*
X-229209Y4657191D01*
X-217271Y4665319D01*
X-213512Y4666081D01*
X69138Y4666081D01*
X72999Y4665268D01*
X76301Y4663084D01*
X78486Y4659782D01*
X79298Y4655921D01*
X79298Y4648809D01*
X80924Y4639868D01*
X84124Y4631334D01*
X88798Y4623460D01*
X94792Y4616602D01*
X96469Y4615281D01*
X99161Y4612030D01*
X100279Y4607915D01*
X99618Y4603750D01*
X97282Y4600143D01*
X60502Y4563364D01*
X57353Y4561230D01*
X53644Y4560417D01*
X46736Y4560163D01*
X42875Y4559655D01*
X38963Y4558741D01*
X35153Y4557471D01*
X31495Y4555845D01*
X27990Y4553864D01*
X24688Y4551629D01*
X21590Y4549038D01*
X18745Y4546244D01*
X16205Y4543145D01*
X13919Y4539843D01*
X11988Y4536338D01*
X10363Y4532680D01*
X9093Y4528870D01*
X8178Y4524959D01*
X7620Y4520996D01*
X7467Y4517491D01*
X6604Y4513834D01*
X4470Y4510735D01*
X1320Y4508601D01*
X-2336Y4507788D01*
X-6045Y4508347D01*
X-8432Y4509211D01*
X-14782Y4509922D01*
X-40182Y4509922D01*
X-44297Y4510786D01*
X-47701Y4513224D01*
X-49834Y4516831D01*
X-50342Y4520996D01*
X-50190Y4522622D01*
X-51003Y4531715D01*
X-53441Y4540504D01*
X-57353Y4548733D01*
X-62738Y4556099D01*
X-69342Y4562398D01*
X-76911Y4567428D01*
X-85344Y4570984D01*
X-94234Y4573016D01*
X-103327Y4573422D01*
X-112369Y4572203D01*
X-121056Y4569409D01*
X-129082Y4565091D01*
X-136194Y4559401D01*
X-142189Y4552543D01*
X-146862Y4544720D01*
X-150063Y4536135D01*
X-151688Y4527194D01*
X-151688Y4524349D01*
X-152501Y4520387D01*
X-154279Y4514900D01*
X-154686Y4512513D01*
X-156057Y4508754D01*
X-158750Y4505858D01*
X-162407Y4504182D01*
X-166370Y4504080D01*
X-170129Y4505502D01*
X-172974Y4507280D01*
X-178460Y4509211D01*
X-184759Y4509922D01*
X-208178Y4509922D01*
X-212293Y4510786D01*
X-215696Y4513224D01*
X-217830Y4516831D01*
X-218287Y4520996D01*
X-217932Y4525010D01*
X-218744Y4534052D01*
X-221183Y4542840D01*
X-225145Y4551070D01*
X-230479Y4558436D01*
X-237083Y4564735D01*
X-244703Y4569764D01*
X-253085Y4573371D01*
X-261975Y4575403D01*
X-271068Y4575810D01*
X-280111Y4574590D01*
X-288798Y4571746D01*
X-296824Y4567428D01*
X-303936Y4561738D01*
X-309981Y4554880D01*
X-314655Y4547057D01*
X-317855Y4538522D01*
X-319735Y4526686D01*
X-322630Y4520387D01*
X-324866Y4511548D01*
X-326491Y4508144D01*
X-329285Y4505553D01*
X-332790Y4504131D01*
X-336600Y4504131D01*
X-340106Y4505502D01*
X-342950Y4507280D01*
X-348437Y4509211D01*
X-354736Y4509922D01*
X-383286Y4509922D01*
X-387146Y4510684D01*
X-390448Y4512868D01*
X-392633Y4516170D01*
X-393446Y4520082D01*
X-392633Y4523943D01*
X-390448Y4527245D01*
X-383641Y4534103D01*
X-378053Y4542078D01*
X-373938Y4550867D01*
X-371398Y4560316D01*
X-370535Y4570018D01*
X-371398Y4579721D01*
X-373938Y4589119D01*
X-378053Y4597908D01*
X-383641Y4605883D01*
X-390499Y4612792D01*
X-398475Y4618380D01*
X-407314Y4622495D01*
X-416712Y4625035D01*
X-426415Y4625848D01*
X-436118Y4625035D01*
X-445516Y4622495D01*
X-454355Y4618380D01*
X-458825Y4615230D01*
X-461619Y4613859D01*
X-464667Y4613402D01*
X-761796Y4613402D01*
X-765860Y4614265D01*
X-769213Y4616653D01*
X-771702Y4621174D01*
X-774801Y4626102D01*
X-778865Y4630166D01*
X-783793Y4633264D01*
X-789228Y4635195D01*
X-795578Y4635906D01*
X-884428Y4635906D01*
X-890727Y4635195D01*
X-896213Y4633264D01*
X-901090Y4630166D01*
X-905205Y4626102D01*
X-908303Y4621174D01*
X-910793Y4616653D01*
X-914146Y4614265D01*
X-918210Y4613402D01*
X-961796Y4613402D01*
X-965860Y4614265D01*
X-969213Y4616653D01*
X-971702Y4621174D01*
X-974801Y4626102D01*
X-978865Y4630166D01*
X-983792Y4633264D01*
X-989228Y4635195D01*
X-995578Y4635906D01*
X-1084427Y4635906D01*
X-1090726Y4635195D01*
X-1096213Y4633264D01*
X-1101090Y4630166D01*
X-1105204Y4626102D01*
X-1108303Y4621174D01*
X-1110742Y4616653D01*
X-1114094Y4614265D01*
X-1118057Y4613402D01*
X-1119632Y4613351D01*
X-1127861Y4612233D01*
X-1135481Y4609642D01*
X-1142441Y4605782D01*
X-1148994Y4600346D01*
X-1172159Y4577181D01*
X-1175410Y4574997D01*
X-1179322Y4574235D01*
X-1183182Y4574997D01*
X-1186484Y4577181D01*
X-1195476Y4586071D01*
X-1202080Y4591050D01*
X-1209243Y4594656D01*
X-1216914Y4596841D01*
X-1225346Y4597603D01*
X-1633982Y4597552D01*
X-1642211Y4596434D01*
X-1649831Y4593844D01*
X-1656791Y4589983D01*
X-1663344Y4584547D01*
X-1694586Y4553305D01*
X-1697888Y4551070D01*
X-1701800Y4550308D01*
X-1729079Y4550257D01*
X-1735226Y4549546D01*
X-1739798Y4548276D01*
X-1742541Y4547920D01*
X-1815236Y4547870D01*
X-1823466Y4546701D01*
X-1831086Y4544161D01*
X-1838045Y4540250D01*
X-1844598Y4534865D01*
X-1883918Y4495495D01*
X-1887220Y4493310D01*
X-1891080Y4492548D01*
X-1894992Y4493310D01*
X-1898294Y4495495D01*
X-1990750Y4587900D01*
X-1997405Y4592929D01*
X-2004568Y4596536D01*
X-2012289Y4598720D01*
X-2020722Y4599482D01*
X-2128367Y4599482D01*
X-2132380Y4600295D01*
X-2135682Y4602581D01*
X-2137867Y4605985D01*
X-2138527Y4609998D01*
X-2137613Y4613960D01*
X-2136597Y4616145D01*
X-2134057Y4625543D01*
X-2133193Y4635246D01*
X-2134057Y4644948D01*
X-2136597Y4654346D01*
X-2140712Y4663186D01*
X-2146300Y4671161D01*
X-2153158Y4678070D01*
X-2161133Y4683607D01*
X-2169972Y4687773D01*
X-2179370Y4690262D01*
X-2189073Y4691126D01*
X-2198776Y4690262D01*
X-2207006Y4688078D01*
X-2210917Y4687824D01*
X-2215591Y4688382D01*
X-2219807Y4689906D01*
X-2222957Y4693107D01*
X-2224430Y4697323D01*
X-2224786Y4700727D01*
X-2226716Y4706213D01*
X-2229815Y4711090D01*
X-2233879Y4715205D01*
X-2238806Y4718304D01*
X-2244242Y4720183D01*
X-2250541Y4720894D01*
X-2369413Y4720894D01*
X-2375763Y4720183D01*
X-2381199Y4718304D01*
X-2386126Y4715205D01*
X-2393391Y4707940D01*
X-2397658Y4706467D01*
X-2402128Y4706975D01*
X-2405938Y4709363D01*
X-2430475Y4733848D01*
X-2437130Y4738878D01*
X-2444292Y4742434D01*
X-2452014Y4744618D01*
X-2460447Y4745431D01*
X-3726942Y4745431D01*
X-3731209Y4745228D01*
X-3735171Y4744669D01*
X-3739083Y4743754D01*
X-3742893Y4742484D01*
X-3746550Y4740859D01*
X-3750056Y4738878D01*
X-3753358Y4736642D01*
X-3756456Y4734052D01*
X-3759250Y4731258D01*
X-3761841Y4728159D01*
X-3764076Y4724857D01*
X-3766058Y4721352D01*
X-3767683Y4717694D01*
X-3768953Y4713884D01*
X-3769868Y4709972D01*
X-3770426Y4706010D01*
X-3770579Y4690160D01*
X-3770985Y4687316D01*
X-3772154Y4684725D01*
X-3774998Y4680254D01*
X-3776878Y4674768D01*
X-3777589Y4668469D01*
X-3777589Y4553915D01*
X-3776878Y4547565D01*
X-3774998Y4542129D01*
X-3771900Y4537202D01*
X-3767836Y4533138D01*
X-3762908Y4530039D01*
X-3757472Y4528108D01*
X-3751122Y4527397D01*
X-3703269Y4527397D01*
X-3696970Y4528108D01*
X-3691483Y4530039D01*
X-3685641Y4533747D01*
X-3683050Y4534865D01*
X-3679190Y4535271D01*
X-3676396Y4534865D01*
X-3673805Y4533747D01*
X-3667912Y4530039D01*
X-3662426Y4528108D01*
X-3656126Y4527397D01*
X-3650792Y4527397D01*
X-3650792Y4575911D01*
X-3666642Y4575911D01*
X-3670503Y4576673D01*
X-3673805Y4578858D01*
X-3676040Y4582160D01*
X-3676802Y4586071D01*
X-3676802Y4636312D01*
X-3676040Y4640173D01*
X-3673805Y4643475D01*
X-3670503Y4645660D01*
X-3666642Y4646472D01*
X-3650792Y4646472D01*
X-3650792Y4648454D01*
X-3650030Y4652314D01*
X-3647846Y4655616D01*
X-3644544Y4657801D01*
X-3640632Y4658614D01*
X-3623767Y4658614D01*
X-3619855Y4657801D01*
X-3616553Y4655616D01*
X-3614369Y4652314D01*
X-3613607Y4648454D01*
X-3613607Y4646472D01*
X-3597757Y4646472D01*
X-3593896Y4645660D01*
X-3590594Y4643475D01*
X-3588359Y4640173D01*
X-3587597Y4636312D01*
X-3587597Y4586071D01*
X-3588359Y4582160D01*
X-3590594Y4578858D01*
X-3593896Y4576673D01*
X-3597757Y4575911D01*
X-3613607Y4575911D01*
X-3613607Y4527397D01*
X-3608273Y4527397D01*
X-3601974Y4528108D01*
X-3596487Y4530039D01*
X-3590594Y4533747D01*
X-3588004Y4534865D01*
X-3584194Y4535271D01*
X-3581349Y4534865D01*
X-3578758Y4533747D01*
X-3572916Y4530039D01*
X-3567429Y4528108D01*
X-3561130Y4527397D01*
X-3513277Y4527397D01*
X-3506927Y4528108D01*
X-3501491Y4530039D01*
X-3496564Y4533138D01*
X-3492500Y4537202D01*
X-3489401Y4542129D01*
X-3487521Y4547565D01*
X-3486810Y4553915D01*
X-3486810Y4565091D01*
X-3485997Y4569002D01*
X-3483813Y4572304D01*
X-3480511Y4574489D01*
X-3476650Y4575251D01*
X-3437483Y4575251D01*
X-3433622Y4574489D01*
X-3430320Y4572304D01*
X-3354222Y4496206D01*
X-3347872Y4491024D01*
X-3343148Y4488484D01*
X-3337915Y4486808D01*
X-3334258Y4484674D01*
X-3331768Y4481271D01*
X-3330905Y4477156D01*
X-3330905Y4471771D01*
X-3330194Y4465421D01*
X-3328314Y4459986D01*
X-3325215Y4455058D01*
X-3321100Y4450994D01*
X-3316224Y4447895D01*
X-3310737Y4446016D01*
X-3304438Y4445304D01*
X-3215589Y4445304D01*
X-3209239Y4446016D01*
X-3203803Y4447895D01*
X-3198876Y4450994D01*
X-3194812Y4455058D01*
X-3191713Y4459986D01*
X-3189833Y4465421D01*
X-3189122Y4471771D01*
X-3189122Y4570628D01*
X-3189833Y4576927D01*
X-3191713Y4582414D01*
X-3194812Y4587290D01*
X-3198876Y4591405D01*
X-3203803Y4594504D01*
X-3209239Y4596384D01*
X-3215589Y4597095D01*
X-3304438Y4597095D01*
X-3310737Y4596384D01*
X-3316224Y4594504D01*
X-3321100Y4591405D01*
X-3328060Y4584039D01*
X-3331260Y4582363D01*
X-3334867Y4581956D01*
X-3338372Y4582871D01*
X-3341370Y4584903D01*
X-3392627Y4636160D01*
X-3398012Y4640529D01*
X-3400653Y4643729D01*
X-3401771Y4647742D01*
X-3401212Y4651806D01*
X-3399028Y4655362D01*
X-3395675Y4657750D01*
X-3391611Y4658614D01*
X-2482138Y4658614D01*
X-2478278Y4657801D01*
X-2474976Y4655616D01*
X-2436164Y4616805D01*
X-2433980Y4613554D01*
X-2433218Y4609642D01*
X-2433980Y4605782D01*
X-2436164Y4602480D01*
X-2439466Y4600244D01*
X-2443327Y4599482D01*
X-2459228Y4599432D01*
X-2467406Y4598314D01*
X-2474976Y4595723D01*
X-2481986Y4591862D01*
X-2488488Y4586427D01*
X-2506065Y4568901D01*
X-2508910Y4566869D01*
X-2521712Y4563465D01*
X-2530551Y4559300D01*
X-2535021Y4556201D01*
X-2537815Y4554829D01*
X-2540863Y4554372D01*
X-2588666Y4554372D01*
X-2591714Y4554829D01*
X-2594559Y4556252D01*
X-2597048Y4558030D01*
X-2604312Y4561636D01*
X-2612034Y4563821D01*
X-2619552Y4564532D01*
X-2623210Y4565650D01*
X-2626258Y4567986D01*
X-2628138Y4571288D01*
X-2629662Y4575606D01*
X-2632760Y4580534D01*
X-2636824Y4584598D01*
X-2641752Y4587697D01*
X-2647188Y4589576D01*
X-2653538Y4590288D01*
X-2733040Y4590288D01*
X-2739339Y4589576D01*
X-2744825Y4587697D01*
X-2749702Y4584598D01*
X-2753817Y4580534D01*
X-2756865Y4575606D01*
X-2758998Y4569561D01*
X-2761132Y4566005D01*
X-2764536Y4563567D01*
X-2768600Y4562754D01*
X-2772664Y4563567D01*
X-2776067Y4566005D01*
X-2778201Y4569561D01*
X-2780334Y4575606D01*
X-2783382Y4580534D01*
X-2787497Y4584598D01*
X-2792374Y4587697D01*
X-2797860Y4589576D01*
X-2804160Y4590288D01*
X-2883662Y4590288D01*
X-2890012Y4589576D01*
X-2895447Y4587697D01*
X-2900375Y4584598D01*
X-2904439Y4580534D01*
X-2907538Y4575606D01*
X-2909468Y4570171D01*
X-2909874Y4566158D01*
X-2910941Y4562602D01*
X-2913227Y4559706D01*
X-2916377Y4557776D01*
X-2919984Y4557115D01*
X-3008934Y4557115D01*
X-3012846Y4557877D01*
X-3016148Y4560062D01*
X-3018332Y4563364D01*
X-3019094Y4567275D01*
X-3019094Y4570628D01*
X-3019806Y4576927D01*
X-3021736Y4582414D01*
X-3024784Y4587290D01*
X-3028899Y4591405D01*
X-3033776Y4594504D01*
X-3039262Y4596384D01*
X-3045561Y4597095D01*
X-3134410Y4597095D01*
X-3140760Y4596384D01*
X-3146196Y4594504D01*
X-3151124Y4591405D01*
X-3155188Y4587290D01*
X-3158286Y4582414D01*
X-3160217Y4576927D01*
X-3160928Y4570628D01*
X-3160928Y4471771D01*
X-3160217Y4465421D01*
X-3158286Y4459986D01*
X-3155188Y4455058D01*
X-3151124Y4450994D01*
X-3146196Y4447895D01*
X-3140760Y4446016D01*
X-3134410Y4445304D01*
X-3045561Y4445304D01*
X-3039262Y4446016D01*
X-3033776Y4447895D01*
X-3028899Y4450994D01*
X-3024784Y4455058D01*
X-3021736Y4459986D01*
X-3019806Y4465421D01*
X-3019094Y4471771D01*
X-3019094Y4475124D01*
X-3018332Y4479036D01*
X-3016148Y4482338D01*
X-3012846Y4484522D01*
X-3008934Y4485284D01*
X-2919984Y4485284D01*
X-2916377Y4484624D01*
X-2913227Y4482693D01*
X-2910941Y4479798D01*
X-2909874Y4476292D01*
X-2909468Y4472228D01*
X-2907538Y4466793D01*
X-2904439Y4461865D01*
X-2900375Y4457801D01*
X-2895447Y4454702D01*
X-2890012Y4452823D01*
X-2883662Y4452112D01*
X-2804160Y4452112D01*
X-2797860Y4452823D01*
X-2792374Y4454702D01*
X-2787497Y4457801D01*
X-2783382Y4461865D01*
X-2780334Y4466793D01*
X-2778201Y4472838D01*
X-2776067Y4476394D01*
X-2772664Y4478832D01*
X-2768600Y4479645D01*
X-2764536Y4478832D01*
X-2761132Y4476394D01*
X-2758998Y4472838D01*
X-2756865Y4466793D01*
X-2753817Y4461865D01*
X-2749702Y4457801D01*
X-2744825Y4454702D01*
X-2739339Y4452823D01*
X-2733040Y4452112D01*
X-2653538Y4452112D01*
X-2647188Y4452823D01*
X-2641752Y4454702D01*
X-2636824Y4457801D01*
X-2632760Y4461865D01*
X-2631186Y4464405D01*
X-2628290Y4467402D01*
X-2624429Y4468977D01*
X-2620264Y4468876D01*
X-2617927Y4468317D01*
X-2609240Y4467555D01*
X-2540863Y4467555D01*
X-2537815Y4467047D01*
X-2535021Y4465675D01*
X-2530551Y4462576D01*
X-2521712Y4458462D01*
X-2512314Y4455922D01*
X-2502611Y4455058D01*
X-2492908Y4455922D01*
X-2483510Y4458462D01*
X-2474671Y4462576D01*
X-2466695Y4468164D01*
X-2459837Y4475022D01*
X-2454249Y4482998D01*
X-2450134Y4491837D01*
X-2446680Y4504639D01*
X-2444648Y4507484D01*
X-2442464Y4509668D01*
X-2439162Y4511903D01*
X-2435301Y4512665D01*
X-2357424Y4512665D01*
X-2353310Y4511802D01*
X-2349906Y4509363D01*
X-2347772Y4505756D01*
X-2347315Y4501642D01*
X-2348026Y4493107D01*
X-2347214Y4483404D01*
X-2344674Y4474006D01*
X-2340559Y4465167D01*
X-2334971Y4457192D01*
X-2328062Y4450334D01*
X-2320086Y4444746D01*
X-2311298Y4440631D01*
X-2298496Y4437176D01*
X-2295652Y4435195D01*
X-2288489Y4428083D01*
X-2281885Y4423105D01*
X-2274722Y4419549D01*
X-2267000Y4417364D01*
X-2258568Y4416552D01*
X-2176780Y4416552D01*
X-2172817Y4415790D01*
X-2169464Y4413504D01*
X-2167280Y4410100D01*
X-2166620Y4406087D01*
X-2167534Y4402175D01*
X-2169922Y4398873D01*
X-2173427Y4396841D01*
X-2181606Y4393438D01*
X-2184400Y4393082D01*
X-2192832Y4393082D01*
X-2192121Y4386173D01*
X-2191207Y4381906D01*
X-2192121Y4377639D01*
X-2192832Y4371340D01*
X-2192832Y4342485D01*
X-2192121Y4336135D01*
X-2191207Y4331868D01*
X-2192070Y4327652D01*
X-2192782Y4321302D01*
X-2192782Y4292447D01*
X-2192070Y4286148D01*
X-2190191Y4280662D01*
X-2187092Y4275785D01*
X-2182977Y4271670D01*
X-2178100Y4268622D01*
X-2172614Y4266692D01*
X-2166315Y4265980D01*
X-2117344Y4265980D01*
X-2114600Y4265574D01*
X-2109876Y4264253D01*
X-2101443Y4263491D01*
X-1962150Y4263491D01*
X-1953869Y4264660D01*
X-1946300Y4267200D01*
X-1939289Y4271111D01*
X-1932787Y4276496D01*
X-1859280Y4350054D01*
X-1854200Y4356811D01*
X-1852066Y4360926D01*
X-1849221Y4364329D01*
X-1845157Y4366209D01*
X-1840687Y4366158D01*
X-1836724Y4364228D01*
X-1828850Y4357928D01*
X-1820824Y4353610D01*
X-1812137Y4350816D01*
X-1803095Y4349597D01*
X-1794002Y4350004D01*
X-1785112Y4352036D01*
X-1776730Y4355592D01*
X-1772157Y4358640D01*
X-1768093Y4360164D01*
X-1763775Y4359910D01*
X-1759966Y4357878D01*
X-1757324Y4354372D01*
X-1756410Y4350156D01*
X-1756410Y4267200D01*
X-1755546Y4259224D01*
X-1753260Y4252061D01*
X-1749450Y4245457D01*
X-1745589Y4240987D01*
X-1724507Y4219905D01*
X-1718259Y4214876D01*
X-1711604Y4211472D01*
X-1704238Y4209491D01*
X-1698345Y4209034D01*
X-1679854Y4209034D01*
X-1676501Y4208424D01*
X-1673504Y4206798D01*
X-1668068Y4202480D01*
X-1665224Y4200956D01*
X-1662430Y4198670D01*
X-1660550Y4195572D01*
X-1659889Y4192015D01*
X-1659889Y4108450D01*
X-1659178Y4102150D01*
X-1657299Y4096664D01*
X-1654200Y4091787D01*
X-1650085Y4087672D01*
X-1645208Y4084624D01*
X-1639722Y4082694D01*
X-1633423Y4081983D01*
X-1554581Y4081983D01*
X-1548231Y4082694D01*
X-1542796Y4084624D01*
X-1537868Y4087672D01*
X-1533804Y4091787D01*
X-1532585Y4093667D01*
X-1529791Y4096613D01*
X-1526032Y4098239D01*
X-1521968Y4098239D01*
X-1518208Y4096613D01*
X-1515414Y4093667D01*
X-1514195Y4091787D01*
X-1510131Y4087672D01*
X-1505204Y4084624D01*
X-1499768Y4082694D01*
X-1493418Y4081983D01*
X-1480362Y4081983D01*
X-1480362Y4124045D01*
X-1517904Y4124045D01*
X-1521815Y4124807D01*
X-1525117Y4127042D01*
X-1527302Y4130344D01*
X-1528064Y4134205D01*
X-1528064Y4171594D01*
X-1527302Y4175455D01*
X-1525117Y4178757D01*
X-1521815Y4180992D01*
X-1517904Y4181754D01*
X-1480362Y4181754D01*
X-1480362Y4223816D01*
X-1493418Y4223816D01*
X-1499768Y4223105D01*
X-1505204Y4221175D01*
X-1510131Y4218127D01*
X-1514195Y4214012D01*
X-1515414Y4212132D01*
X-1518208Y4209186D01*
X-1521968Y4207560D01*
X-1526032Y4207560D01*
X-1529791Y4209186D01*
X-1532585Y4212132D01*
X-1537208Y4218533D01*
X-1537970Y4222394D01*
X-1537208Y4226306D01*
X-1534972Y4229608D01*
X-1518462Y4246118D01*
X-1513382Y4252366D01*
X-1509979Y4259072D01*
X-1508607Y4264152D01*
X-1507083Y4267403D01*
X-1504543Y4269892D01*
X-1501241Y4271365D01*
X-1497685Y4271619D01*
X-1492250Y4271010D01*
X-1476654Y4271010D01*
X-1476654Y4310583D01*
X-1499514Y4310583D01*
X-1503527Y4311396D01*
X-1506880Y4313682D01*
X-1509064Y4317136D01*
X-1510690Y4321556D01*
X-1512366Y4324858D01*
X-1514398Y4328007D01*
X-1516786Y4330903D01*
X-1519428Y4333595D01*
X-1522374Y4335932D01*
X-1525524Y4337964D01*
X-1528724Y4339640D01*
X-1534210Y4341571D01*
X-1537766Y4343704D01*
X-1540154Y4347108D01*
X-1540967Y4351172D01*
X-1540967Y4371340D01*
X-1541678Y4377639D01*
X-1542592Y4381855D01*
X-1541678Y4386122D01*
X-1540967Y4392472D01*
X-1540967Y4421327D01*
X-1541678Y4427626D01*
X-1542592Y4431893D01*
X-1541678Y4436160D01*
X-1540967Y4443069D01*
X-1549349Y4443069D01*
X-1552194Y4443425D01*
X-1555648Y4445152D01*
X-1561795Y4447336D01*
X-1565351Y4449470D01*
X-1567738Y4452823D01*
X-1568602Y4456887D01*
X-1567738Y4460951D01*
X-1565351Y4464354D01*
X-1561795Y4466488D01*
X-1555699Y4468622D01*
X-1552194Y4470349D01*
X-1549400Y4470755D01*
X-1540967Y4470755D01*
X-1541678Y4477664D01*
X-1542592Y4481931D01*
X-1541729Y4486148D01*
X-1541018Y4492498D01*
X-1541018Y4500626D01*
X-1540205Y4504537D01*
X-1538020Y4507788D01*
X-1534718Y4510024D01*
X-1530858Y4510786D01*
X-1528876Y4510786D01*
X-1524965Y4510024D01*
X-1521663Y4507788D01*
X-1519478Y4504537D01*
X-1518716Y4500626D01*
X-1518716Y4437481D01*
X-1518005Y4431131D01*
X-1516075Y4425696D01*
X-1513027Y4420768D01*
X-1508912Y4416704D01*
X-1507032Y4415485D01*
X-1504086Y4412691D01*
X-1502460Y4408932D01*
X-1502460Y4404868D01*
X-1504086Y4401108D01*
X-1507032Y4398314D01*
X-1508912Y4397095D01*
X-1513027Y4393031D01*
X-1516075Y4388104D01*
X-1518005Y4382668D01*
X-1518716Y4376318D01*
X-1518716Y4363262D01*
X-1476654Y4363262D01*
X-1476654Y4400804D01*
X-1475892Y4404715D01*
X-1473657Y4408017D01*
X-1470355Y4410202D01*
X-1466494Y4410964D01*
X-1429105Y4410964D01*
X-1425244Y4410202D01*
X-1421942Y4408017D01*
X-1419707Y4404715D01*
X-1418945Y4400804D01*
X-1418945Y4363262D01*
X-1376883Y4363262D01*
X-1376883Y4376318D01*
X-1377594Y4382668D01*
X-1379524Y4388104D01*
X-1382572Y4393031D01*
X-1386687Y4397095D01*
X-1388567Y4398314D01*
X-1391513Y4401108D01*
X-1393139Y4404868D01*
X-1393139Y4408932D01*
X-1391513Y4412691D01*
X-1388567Y4415485D01*
X-1386687Y4416704D01*
X-1382572Y4420768D01*
X-1379524Y4425696D01*
X-1377035Y4430268D01*
X-1373632Y4432655D01*
X-1369568Y4433519D01*
X-1335532Y4433519D01*
X-1331468Y4432655D01*
X-1328064Y4430268D01*
X-1325575Y4425696D01*
X-1322527Y4420768D01*
X-1318412Y4416704D01*
X-1316532Y4415485D01*
X-1313586Y4412691D01*
X-1311960Y4408932D01*
X-1311960Y4404868D01*
X-1313586Y4401108D01*
X-1316532Y4398314D01*
X-1318412Y4397095D01*
X-1322527Y4393031D01*
X-1325575Y4388104D01*
X-1327505Y4382668D01*
X-1328216Y4376318D01*
X-1328216Y4363262D01*
X-1286154Y4363262D01*
X-1286154Y4400804D01*
X-1285392Y4404715D01*
X-1283157Y4408017D01*
X-1279855Y4410202D01*
X-1275994Y4410964D01*
X-1238605Y4410964D01*
X-1234744Y4410202D01*
X-1231442Y4408017D01*
X-1229207Y4404715D01*
X-1228445Y4400804D01*
X-1228445Y4363262D01*
X-1186383Y4363262D01*
X-1186383Y4376318D01*
X-1187094Y4382668D01*
X-1189024Y4388104D01*
X-1192072Y4393031D01*
X-1196187Y4397095D01*
X-1198067Y4398314D01*
X-1201013Y4401108D01*
X-1202639Y4404868D01*
X-1202639Y4408932D01*
X-1201013Y4412691D01*
X-1198067Y4415485D01*
X-1196187Y4416704D01*
X-1192072Y4420768D01*
X-1189024Y4425696D01*
X-1186586Y4430166D01*
X-1183386Y4432554D01*
X-1179525Y4433519D01*
X-1175308Y4433671D01*
X-1171346Y4434230D01*
X-1167434Y4435144D01*
X-1163624Y4436414D01*
X-1159967Y4438040D01*
X-1156462Y4440021D01*
X-1153160Y4442256D01*
X-1150061Y4444847D01*
X-1147267Y4447692D01*
X-1144676Y4450740D01*
X-1142441Y4454042D01*
X-1140460Y4457547D01*
X-1138834Y4461205D01*
X-1137564Y4465015D01*
X-1136650Y4468926D01*
X-1136091Y4472889D01*
X-1135888Y4477156D01*
X-1135888Y4486452D01*
X-1135126Y4490313D01*
X-1132941Y4493615D01*
X-1116126Y4510430D01*
X-1112824Y4512614D01*
X-1108964Y4513427D01*
X-1105052Y4512614D01*
X-1099210Y4508601D01*
X-1096264Y4505756D01*
X-1094689Y4502048D01*
X-1094689Y4497933D01*
X-1096264Y4494225D01*
X-1099210Y4491380D01*
X-1101090Y4490212D01*
X-1105204Y4486097D01*
X-1108303Y4481220D01*
X-1110183Y4475734D01*
X-1110894Y4469434D01*
X-1110894Y4456328D01*
X-1068832Y4456328D01*
X-1068832Y4493920D01*
X-1068070Y4497781D01*
X-1065885Y4501083D01*
X-1062583Y4503318D01*
X-1058672Y4504080D01*
X-1021283Y4504080D01*
X-1017422Y4503318D01*
X-1014120Y4501083D01*
X-1011936Y4497781D01*
X-1011123Y4493920D01*
X-1011123Y4456328D01*
X-969111Y4456328D01*
X-969111Y4469434D01*
X-969822Y4475734D01*
X-971702Y4481220D01*
X-974801Y4486097D01*
X-978865Y4490212D01*
X-980744Y4491380D01*
X-983691Y4494225D01*
X-985316Y4497933D01*
X-985316Y4502048D01*
X-983691Y4505756D01*
X-980744Y4508601D01*
X-978865Y4509770D01*
X-974801Y4513884D01*
X-971702Y4518761D01*
X-969213Y4523333D01*
X-965809Y4525721D01*
X-961745Y4526584D01*
X-918210Y4526584D01*
X-914146Y4525721D01*
X-910793Y4523333D01*
X-908303Y4518761D01*
X-905205Y4513884D01*
X-901090Y4509770D01*
X-899210Y4508601D01*
X-896264Y4505756D01*
X-894689Y4502048D01*
X-894689Y4497933D01*
X-896264Y4494225D01*
X-899210Y4491380D01*
X-901090Y4490212D01*
X-905205Y4486097D01*
X-908303Y4481220D01*
X-910183Y4475734D01*
X-910894Y4469434D01*
X-910894Y4456328D01*
X-868832Y4456328D01*
X-868832Y4493920D01*
X-868070Y4497781D01*
X-865886Y4501083D01*
X-862584Y4503318D01*
X-858672Y4504080D01*
X-821283Y4504080D01*
X-817422Y4503318D01*
X-814120Y4501083D01*
X-811936Y4497781D01*
X-811123Y4493920D01*
X-811123Y4456328D01*
X-769112Y4456328D01*
X-769112Y4462983D01*
X-768400Y4466691D01*
X-766368Y4469892D01*
X-763320Y4472127D01*
X-759714Y4473143D01*
X-755954Y4472686D01*
X-752602Y4470958D01*
X-750824Y4469536D01*
X-742797Y4465218D01*
X-734161Y4462373D01*
X-724814Y4461154D01*
X-715975Y4461560D01*
X-707085Y4463592D01*
X-698703Y4467199D01*
X-692658Y4471162D01*
X-690016Y4472432D01*
X-687070Y4472838D01*
X-672795Y4472838D01*
X-669442Y4475226D01*
X-665378Y4476089D01*
X-633018Y4476089D01*
X-628954Y4475226D01*
X-625551Y4472838D01*
X-600252Y4472838D01*
X-596392Y4472076D01*
X-593090Y4469892D01*
X-590854Y4466590D01*
X-590092Y4462678D01*
X-590092Y4430318D01*
X-590854Y4426407D01*
X-593090Y4423105D01*
X-596392Y4420920D01*
X-600252Y4420158D01*
X-622858Y4420158D01*
X-622858Y4397552D01*
X-623620Y4393692D01*
X-625805Y4390390D01*
X-629107Y4388205D01*
X-633018Y4387392D01*
X-665378Y4387392D01*
X-669290Y4388205D01*
X-672541Y4390390D01*
X-674776Y4393692D01*
X-675538Y4397552D01*
X-675538Y4420158D01*
X-715111Y4420158D01*
X-715111Y4407052D01*
X-714400Y4400753D01*
X-712470Y4395266D01*
X-710742Y4392523D01*
X-709320Y4388713D01*
X-709472Y4384598D01*
X-711301Y4380941D01*
X-714400Y4378248D01*
X-718261Y4377029D01*
X-722579Y4376572D01*
X-729742Y4374235D01*
X-736346Y4370425D01*
X-740816Y4366615D01*
X-757936Y4349496D01*
X-762965Y4343247D01*
X-766368Y4336542D01*
X-768350Y4329176D01*
X-768807Y4323334D01*
X-768807Y4177588D01*
X-769467Y4174032D01*
X-771347Y4170934D01*
X-774090Y4167784D01*
X-778764Y4159961D01*
X-781964Y4151426D01*
X-783590Y4142435D01*
X-783590Y4133342D01*
X-781964Y4124350D01*
X-778764Y4115815D01*
X-774090Y4107992D01*
X-768045Y4101134D01*
X-760933Y4095445D01*
X-752906Y4091127D01*
X-744220Y4088282D01*
X-735177Y4087063D01*
X-728218Y4087368D01*
X-724204Y4086758D01*
X-720750Y4084574D01*
X-718413Y4081221D01*
X-717600Y4077258D01*
X-717600Y4067048D01*
X-716889Y4060748D01*
X-714959Y4055262D01*
X-711250Y4049369D01*
X-709879Y4045864D01*
X-709930Y4042105D01*
X-711301Y4038600D01*
X-714959Y4032707D01*
X-716889Y4027271D01*
X-717600Y4020921D01*
X-717600Y3982059D01*
X-716889Y3975760D01*
X-714959Y3970274D01*
X-711250Y3964381D01*
X-709879Y3960876D01*
X-709930Y3957116D01*
X-711301Y3953560D01*
X-714959Y3947718D01*
X-716889Y3942232D01*
X-717600Y3935933D01*
X-717600Y3897071D01*
X-716889Y3890772D01*
X-714959Y3885285D01*
X-711250Y3879392D01*
X-709879Y3875887D01*
X-709930Y3872077D01*
X-711301Y3868572D01*
X-714959Y3862730D01*
X-716889Y3857244D01*
X-717600Y3850944D01*
X-717600Y3812082D01*
X-716889Y3805732D01*
X-716076Y3803497D01*
X-715518Y3799636D01*
X-716432Y3795877D01*
X-718718Y3792728D01*
X-722020Y3790645D01*
X-725830Y3789984D01*
X-729640Y3790746D01*
X-732840Y3792931D01*
X-749554Y3809593D01*
X-755904Y3814775D01*
X-760577Y3817315D01*
X-765911Y3819042D01*
X-769315Y3820922D01*
X-771753Y3823868D01*
X-772871Y3827576D01*
X-773531Y3833571D01*
X-775462Y3839006D01*
X-778560Y3843934D01*
X-782624Y3847998D01*
X-787552Y3851097D01*
X-792988Y3852976D01*
X-799338Y3853687D01*
X-878840Y3853687D01*
X-885139Y3852976D01*
X-890625Y3851097D01*
X-895502Y3847998D01*
X-899617Y3843934D01*
X-902665Y3839006D01*
X-904798Y3832961D01*
X-906932Y3829405D01*
X-910336Y3826967D01*
X-914400Y3826154D01*
X-918464Y3826967D01*
X-921867Y3829405D01*
X-924001Y3832961D01*
X-926134Y3839006D01*
X-929182Y3843934D01*
X-933297Y3847998D01*
X-938174Y3851097D01*
X-943660Y3852976D01*
X-949960Y3853687D01*
X-1029462Y3853687D01*
X-1035812Y3852976D01*
X-1041247Y3851097D01*
X-1046175Y3847998D01*
X-1048969Y3845204D01*
X-1052271Y3843020D01*
X-1056132Y3842258D01*
X-1060043Y3843020D01*
X-1063345Y3845204D01*
X-1091488Y3873347D01*
X-1097737Y3878427D01*
X-1104392Y3881831D01*
X-1111758Y3883812D01*
X-1117650Y3884269D01*
X-2474315Y3884269D01*
X-2478176Y3885031D01*
X-2481478Y3887215D01*
X-2601214Y4006951D01*
X-2603093Y4009542D01*
X-2604058Y4012539D01*
X-2604058Y4088841D01*
X-2668625Y4088841D01*
X-2668625Y4050792D01*
X-2667914Y4044442D01*
X-2666898Y4041597D01*
X-2666339Y4037787D01*
X-2667254Y4034078D01*
X-2669489Y4030929D01*
X-2672689Y4028846D01*
X-2676499Y4028084D01*
X-2732938Y4028084D01*
X-2737053Y4028998D01*
X-2740507Y4031487D01*
X-2742590Y4035145D01*
X-2743047Y4039311D01*
X-2741726Y4043324D01*
X-2738932Y4046474D01*
X-2732836Y4050893D01*
X-2722219Y4060850D01*
X-2712923Y4072077D01*
X-2705150Y4084370D01*
X-2698953Y4097528D01*
X-2694432Y4111396D01*
X-2691739Y4125671D01*
X-2690825Y4140200D01*
X-2691739Y4154728D01*
X-2694432Y4169003D01*
X-2698953Y4182872D01*
X-2705150Y4196029D01*
X-2712923Y4208322D01*
X-2722219Y4219549D01*
X-2732836Y4229506D01*
X-2744622Y4238040D01*
X-2757373Y4245051D01*
X-2770886Y4250436D01*
X-2785008Y4254042D01*
X-2799435Y4255871D01*
X-2813964Y4255871D01*
X-2828391Y4254042D01*
X-2842514Y4250436D01*
X-2856026Y4245051D01*
X-2868777Y4238040D01*
X-2880563Y4229506D01*
X-2891180Y4219549D01*
X-2900476Y4208322D01*
X-2908249Y4196029D01*
X-2914446Y4182872D01*
X-2918968Y4169003D01*
X-2921660Y4154728D01*
X-2922574Y4140200D01*
X-2921660Y4125671D01*
X-2918968Y4111396D01*
X-2914446Y4097528D01*
X-2908249Y4084370D01*
X-2900476Y4072077D01*
X-2891180Y4060850D01*
X-2880563Y4050893D01*
X-2874467Y4046474D01*
X-2871673Y4043324D01*
X-2870352Y4039311D01*
X-2870809Y4035145D01*
X-2872892Y4031487D01*
X-2876346Y4028998D01*
X-2880461Y4028084D01*
X-2985516Y4028084D01*
X-2989275Y4028846D01*
X-3001213Y4036974D01*
X-3009646Y4040581D01*
X-3018536Y4042613D01*
X-3027629Y4043019D01*
X-3036671Y4041800D01*
X-3043174Y4039666D01*
X-3047034Y4039209D01*
X-3050844Y4040225D01*
X-3053943Y4042613D01*
X-3055924Y4045965D01*
X-3057702Y4051147D01*
X-3060801Y4056075D01*
X-3064865Y4060139D01*
X-3069793Y4063237D01*
X-3075228Y4065168D01*
X-3081578Y4065879D01*
X-3096260Y4065879D01*
X-3096260Y4026154D01*
X-3081375Y4026154D01*
X-3077565Y4025392D01*
X-3074314Y4023258D01*
X-3072079Y4020058D01*
X-3071215Y4016248D01*
X-3071876Y4012387D01*
X-3074365Y4005732D01*
X-3075990Y3996740D01*
X-3075990Y3987647D01*
X-3075533Y3985107D01*
X-3075736Y3980687D01*
X-3077718Y3976776D01*
X-3081223Y3974084D01*
X-3085541Y3973118D01*
X-3096260Y3973118D01*
X-3096260Y3925366D01*
X-3097022Y3921455D01*
X-3099206Y3918204D01*
X-3102508Y3915968D01*
X-3106420Y3915206D01*
X-3141980Y3915206D01*
X-3145891Y3915968D01*
X-3149193Y3918204D01*
X-3151378Y3921455D01*
X-3152140Y3925366D01*
X-3152140Y3973118D01*
X-3193288Y3973118D01*
X-3193288Y3959860D01*
X-3192576Y3953560D01*
X-3190697Y3948074D01*
X-3187598Y3943197D01*
X-3183534Y3939082D01*
X-3178606Y3936034D01*
X-3172561Y3933901D01*
X-3169005Y3931767D01*
X-3166567Y3928364D01*
X-3165754Y3924300D01*
X-3166567Y3920236D01*
X-3169005Y3916832D01*
X-3172561Y3914698D01*
X-3178606Y3912565D01*
X-3182213Y3910329D01*
X-3186125Y3908856D01*
X-3190341Y3909110D01*
X-3194050Y3911041D01*
X-3198063Y3914241D01*
X-3204718Y3917645D01*
X-3212084Y3919626D01*
X-3217976Y3920083D01*
X-3379063Y3920083D01*
X-3382924Y3920896D01*
X-3386226Y3923080D01*
X-3388410Y3926382D01*
X-3389223Y3930243D01*
X-3389223Y3948633D01*
X-3389934Y3954932D01*
X-3390798Y3959199D01*
X-3389934Y3963466D01*
X-3389223Y3969765D01*
X-3389223Y4028643D01*
X-3389934Y4034942D01*
X-3390798Y4039209D01*
X-3389934Y4043426D01*
X-3389223Y4049776D01*
X-3389223Y4057853D01*
X-3444494Y4057853D01*
X-3447694Y4055821D01*
X-3451402Y4055110D01*
X-3508806Y4055110D01*
X-3512515Y4055821D01*
X-3515715Y4057853D01*
X-3528669Y4057853D01*
X-3532987Y4058818D01*
X-3536492Y4061510D01*
X-3538474Y4065422D01*
X-3539083Y4067657D01*
X-3543147Y4076649D01*
X-3548583Y4084675D01*
X-3550158Y4088739D01*
X-3549954Y4093108D01*
X-3548938Y4094987D01*
X-3556152Y4094987D01*
X-3559352Y4095496D01*
X-3563518Y4097883D01*
X-3572357Y4102354D01*
X-3581806Y4105249D01*
X-3592322Y4106468D01*
X-3596335Y4107129D01*
X-3599789Y4109313D01*
X-3602075Y4112666D01*
X-3602888Y4116628D01*
X-3602888Y4159859D01*
X-3673601Y4159859D01*
X-3677513Y4160621D01*
X-3680815Y4162806D01*
X-3683000Y4166108D01*
X-3683762Y4170019D01*
X-3683762Y4212386D01*
X-3683000Y4216247D01*
X-3680815Y4219549D01*
X-3677513Y4221784D01*
X-3673601Y4222546D01*
X-3602888Y4222546D01*
X-3602888Y4266793D01*
X-3610356Y4266234D01*
X-3621430Y4263694D01*
X-3631996Y4259580D01*
X-3641801Y4253890D01*
X-3650691Y4246829D01*
X-3658362Y4238498D01*
X-3665220Y4228439D01*
X-3668318Y4225493D01*
X-3672382Y4224070D01*
X-3676599Y4224426D01*
X-3680358Y4226560D01*
X-3682898Y4229963D01*
X-3683762Y4234180D01*
X-3683762Y4300575D01*
X-3683406Y4303369D01*
X-3682237Y4305960D01*
X-3679393Y4310481D01*
X-3677513Y4315917D01*
X-3676802Y4322267D01*
X-3676802Y4438599D01*
X-3677513Y4444949D01*
X-3679393Y4450384D01*
X-3682492Y4455312D01*
X-3686606Y4459376D01*
X-3691483Y4462475D01*
X-3696970Y4464354D01*
X-3703269Y4465066D01*
X-3751122Y4465066D01*
X-3757472Y4464354D01*
X-3762908Y4462475D01*
X-3767836Y4459376D01*
X-3771900Y4455312D01*
X-3774998Y4450384D01*
X-3776878Y4444949D01*
X-3777589Y4438599D01*
X-3777589Y4322267D01*
X-3776878Y4315917D01*
X-3774998Y4310481D01*
X-3772154Y4305960D01*
X-3770985Y4303369D01*
X-3770579Y4300575D01*
X-3770579Y4081932D01*
X-3769410Y4073651D01*
X-3766870Y4066082D01*
X-3762959Y4059072D01*
X-3757574Y4052570D01*
X-3672179Y3967175D01*
X-3669944Y3963873D01*
X-3669182Y3959961D01*
X-3669131Y3595014D01*
X-3667963Y3586734D01*
X-3665423Y3579164D01*
X-3661562Y3572154D01*
X-3656126Y3565651D01*
X-3624783Y3534308D01*
X-3622751Y3531311D01*
X-3621836Y3527755D01*
X-3622294Y3524148D01*
X-3623970Y3520897D01*
X-3626662Y3518458D01*
X-3628847Y3517137D01*
X-3636264Y3510584D01*
X-3642461Y3502863D01*
X-3647338Y3494227D01*
X-3650589Y3484930D01*
X-3652265Y3475126D01*
X-3652265Y3465271D01*
X-3650589Y3455466D01*
X-3647338Y3446170D01*
X-3642461Y3437534D01*
X-3636264Y3429812D01*
X-3628847Y3423259D01*
X-3619906Y3417773D01*
X-3616706Y3414674D01*
X-3615182Y3410458D01*
X-3615588Y3406038D01*
X-3617823Y3402177D01*
X-3621532Y3399688D01*
X-3631996Y3395573D01*
X-3641801Y3389884D01*
X-3650691Y3382822D01*
X-3658412Y3374491D01*
X-3664762Y3365144D01*
X-3667963Y3358540D01*
X-3602939Y3358540D01*
X-3602939Y3401771D01*
X-3602126Y3405733D01*
X-3599789Y3409086D01*
X-3596335Y3411270D01*
X-3581806Y3413150D01*
X-3572357Y3416046D01*
X-3563518Y3420516D01*
X-3559403Y3422904D01*
X-3556203Y3423412D01*
X-3549243Y3423412D01*
X-3550259Y3426866D01*
X-3550056Y3430422D01*
X-3548583Y3433673D01*
X-3543147Y3441750D01*
X-3539083Y3450742D01*
X-3538524Y3452926D01*
X-3536492Y3456889D01*
X-3532987Y3459581D01*
X-3528669Y3460546D01*
X-3515715Y3460546D01*
X-3512515Y3462578D01*
X-3508806Y3463290D01*
X-3451402Y3463290D01*
X-3447694Y3462578D01*
X-3444494Y3460546D01*
X-3389172Y3460546D01*
X-3389172Y3465779D01*
X-3388563Y3469335D01*
X-3386683Y3472434D01*
X-3383889Y3474720D01*
X-3380435Y3475837D01*
X-3372205Y3477006D01*
X-3364636Y3479546D01*
X-3357524Y3483457D01*
X-3352749Y3487267D01*
X-3350006Y3489909D01*
X-3346754Y3492042D01*
X-3342944Y3492804D01*
X-3214014Y3492855D01*
X-3205734Y3494024D01*
X-3198164Y3496564D01*
X-3191103Y3500475D01*
X-3185515Y3504946D01*
X-3182569Y3506622D01*
X-3179165Y3507181D01*
X-3150463Y3507181D01*
X-3148228Y3509619D01*
X-3145282Y3511194D01*
X-3141980Y3511753D01*
X-3106420Y3511753D01*
X-3103118Y3511194D01*
X-3100171Y3509619D01*
X-3097936Y3507181D01*
X-3053435Y3507181D01*
X-3051149Y3509619D01*
X-3048203Y3511194D01*
X-3044952Y3511753D01*
X-2815793Y3511753D01*
X-2812389Y3511194D01*
X-2809443Y3509518D01*
X-2807157Y3506978D01*
X-2805176Y3503879D01*
X-2802280Y3500932D01*
X-2800096Y3497681D01*
X-2799283Y3492804D01*
X-2800096Y3488893D01*
X-2802280Y3485591D01*
X-2805582Y3483406D01*
X-2809443Y3482644D01*
X-2820111Y3482644D01*
X-2826461Y3481933D01*
X-2831896Y3480003D01*
X-2836824Y3476955D01*
X-2840888Y3472840D01*
X-2843987Y3467963D01*
X-2845917Y3462477D01*
X-2846628Y3456178D01*
X-2846628Y3307283D01*
X-2846882Y3301949D01*
X-2849016Y3298240D01*
X-2852420Y3295751D01*
X-2856585Y3294887D01*
X-3103270Y3294837D01*
X-3111550Y3293668D01*
X-3119120Y3291128D01*
X-3126130Y3287217D01*
X-3132632Y3281832D01*
X-3161792Y3252673D01*
X-3165094Y3250488D01*
X-3168954Y3249676D01*
X-3213709Y3249676D01*
X-3220059Y3248964D01*
X-3225495Y3247085D01*
X-3230422Y3243986D01*
X-3234486Y3239922D01*
X-3237585Y3234994D01*
X-3239516Y3229559D01*
X-3240227Y3223209D01*
X-3240227Y3164382D01*
X-3239516Y3158032D01*
X-3237585Y3152597D01*
X-3235655Y3148177D01*
X-3235655Y3144418D01*
X-3237585Y3139998D01*
X-3239516Y3134563D01*
X-3240227Y3128213D01*
X-3240227Y3120136D01*
X-3193135Y3120136D01*
X-3193135Y3127705D01*
X-3192373Y3131616D01*
X-3190189Y3134918D01*
X-3186887Y3137103D01*
X-3182975Y3137865D01*
X-3135630Y3137865D01*
X-3131718Y3137103D01*
X-3128416Y3134918D01*
X-3126232Y3131616D01*
X-3125470Y3127705D01*
X-3125470Y3120136D01*
X-3078378Y3120136D01*
X-3078378Y3128213D01*
X-3079089Y3134563D01*
X-3081020Y3139998D01*
X-3082950Y3144418D01*
X-3082950Y3148177D01*
X-3081020Y3152597D01*
X-3079089Y3158032D01*
X-3078378Y3164382D01*
X-3078378Y3197910D01*
X-3077616Y3201771D01*
X-3075432Y3205073D01*
X-3072130Y3207258D01*
X-3068218Y3208070D01*
X-3062376Y3208070D01*
X-3058617Y3207308D01*
X-3055366Y3205226D01*
X-3053130Y3202076D01*
X-3052267Y3198368D01*
X-3052826Y3194507D01*
X-3054705Y3189122D01*
X-3055416Y3182823D01*
X-3055416Y3169716D01*
X-3013354Y3169716D01*
X-3013354Y3197910D01*
X-3012592Y3201771D01*
X-3010357Y3205073D01*
X-3007055Y3207258D01*
X-3003194Y3208070D01*
X-2965805Y3208070D01*
X-2961944Y3207258D01*
X-2958642Y3205073D01*
X-2956407Y3201771D01*
X-2955645Y3197910D01*
X-2955645Y3169716D01*
X-2913583Y3169716D01*
X-2913583Y3182823D01*
X-2914294Y3189122D01*
X-2916174Y3194507D01*
X-2916732Y3198368D01*
X-2915869Y3202076D01*
X-2913634Y3205226D01*
X-2910382Y3207308D01*
X-2906623Y3208070D01*
X-2865424Y3208070D01*
X-2861411Y3207207D01*
X-2858008Y3204870D01*
X-2855874Y3201314D01*
X-2855264Y3197250D01*
X-2856382Y3193288D01*
X-2859989Y3189173D01*
X-2929178Y3120034D01*
X-2932480Y3117799D01*
X-2936341Y3117037D01*
X-2955645Y3117037D01*
X-2955645Y3097733D01*
X-2956407Y3093872D01*
X-2958642Y3090570D01*
X-2966567Y3082594D01*
X-2969869Y3080410D01*
X-2973781Y3079648D01*
X-3003194Y3079648D01*
X-3007055Y3080410D01*
X-3010357Y3082594D01*
X-3012592Y3085896D01*
X-3013354Y3089808D01*
X-3013354Y3117037D01*
X-3055416Y3117037D01*
X-3055416Y3103981D01*
X-3054705Y3097631D01*
X-3052775Y3092196D01*
X-3051657Y3090367D01*
X-3050184Y3086506D01*
X-3050387Y3082442D01*
X-3052165Y3078734D01*
X-3055315Y3076041D01*
X-3063290Y3071622D01*
X-3067608Y3070352D01*
X-3072028Y3071063D01*
X-3075686Y3073552D01*
X-3077921Y3077464D01*
X-3125470Y3077464D01*
X-3125470Y3069844D01*
X-3126232Y3065983D01*
X-3128416Y3062681D01*
X-3131718Y3060496D01*
X-3135630Y3059684D01*
X-3182975Y3059684D01*
X-3186887Y3060496D01*
X-3190189Y3062681D01*
X-3192373Y3065983D01*
X-3193135Y3069844D01*
X-3193135Y3077464D01*
X-3240227Y3077464D01*
X-3240227Y3069386D01*
X-3239516Y3063036D01*
X-3238652Y3060700D01*
X-3238093Y3056991D01*
X-3238957Y3053283D01*
X-3241040Y3050184D01*
X-3244138Y3048050D01*
X-3247796Y3047187D01*
X-3255213Y3046476D01*
X-3259124Y3045561D01*
X-3262934Y3044291D01*
X-3266592Y3042666D01*
X-3270097Y3040684D01*
X-3273399Y3038449D01*
X-3276498Y3035858D01*
X-3280918Y3031134D01*
X-3284423Y3028391D01*
X-3288741Y3027426D01*
X-3293059Y3028391D01*
X-3299206Y3031286D01*
X-3312007Y3034690D01*
X-3314852Y3036671D01*
X-3326231Y3048000D01*
X-3332835Y3052978D01*
X-3339998Y3056534D01*
X-3347821Y3058769D01*
X-3353815Y3059430D01*
X-3364890Y3059734D01*
X-3473754Y3059734D01*
X-3476244Y3059531D01*
X-3515868Y3059531D01*
X-3519932Y3060344D01*
X-3523335Y3062782D01*
X-3525824Y3067304D01*
X-3528872Y3072231D01*
X-3532987Y3076295D01*
X-3534867Y3077514D01*
X-3537813Y3080308D01*
X-3539439Y3084068D01*
X-3539439Y3088132D01*
X-3537813Y3091891D01*
X-3534867Y3094685D01*
X-3532987Y3095904D01*
X-3528872Y3099968D01*
X-3525824Y3104896D01*
X-3523894Y3110331D01*
X-3523183Y3116681D01*
X-3523183Y3129737D01*
X-3565245Y3129737D01*
X-3565245Y3092196D01*
X-3566007Y3088284D01*
X-3568242Y3084982D01*
X-3571544Y3082798D01*
X-3575405Y3082036D01*
X-3612794Y3082036D01*
X-3616655Y3082798D01*
X-3619957Y3084982D01*
X-3622192Y3088284D01*
X-3622954Y3092196D01*
X-3622954Y3129737D01*
X-3665016Y3129737D01*
X-3665016Y3116681D01*
X-3664305Y3110331D01*
X-3662375Y3104896D01*
X-3659327Y3099968D01*
X-3655212Y3095904D01*
X-3653332Y3094685D01*
X-3650386Y3091891D01*
X-3648760Y3088132D01*
X-3648760Y3084068D01*
X-3650386Y3080308D01*
X-3653332Y3077514D01*
X-3655212Y3076295D01*
X-3659327Y3072231D01*
X-3662375Y3067304D01*
X-3664305Y3061868D01*
X-3665016Y3055518D01*
X-3665016Y2976676D01*
X-3664305Y2970377D01*
X-3662375Y2964891D01*
X-3659327Y2960014D01*
X-3655212Y2955899D01*
X-3650335Y2952800D01*
X-3644849Y2950921D01*
X-3638550Y2950210D01*
X-3549650Y2950210D01*
X-3543350Y2950921D01*
X-3537864Y2952800D01*
X-3532987Y2955899D01*
X-3529329Y2959557D01*
X-3526536Y2961538D01*
X-3523234Y2962452D01*
X-3519779Y2962249D01*
X-3515207Y2961132D01*
X-3511296Y2960573D01*
X-3501440Y2960420D01*
X-3497529Y2959608D01*
X-3494227Y2957423D01*
X-3490417Y2953613D01*
X-3485540Y2950514D01*
X-3480054Y2948635D01*
X-3473754Y2947924D01*
X-3369919Y2947924D01*
X-3366719Y2947416D01*
X-3363874Y2945892D01*
X-3354222Y2935986D01*
X-3346246Y2930398D01*
X-3337407Y2926283D01*
X-3328009Y2923743D01*
X-3318306Y2922879D01*
X-3308604Y2923743D01*
X-3299206Y2926283D01*
X-3296513Y2927502D01*
X-3292856Y2928467D01*
X-3289096Y2927959D01*
X-3285744Y2926181D01*
X-3277615Y2916224D01*
X-3256838Y2895498D01*
X-3251911Y2891586D01*
X-3247339Y2888488D01*
X-3243427Y2884627D01*
X-3235452Y2879039D01*
X-3226663Y2874924D01*
X-3217214Y2872384D01*
X-3207512Y2871520D01*
X-3197860Y2872384D01*
X-3188411Y2874924D01*
X-3179622Y2879039D01*
X-3171647Y2884627D01*
X-3164738Y2891485D01*
X-3159150Y2899460D01*
X-3155035Y2908300D01*
X-3152495Y2917698D01*
X-3151682Y2927400D01*
X-3152495Y2936849D01*
X-3151987Y2941015D01*
X-3149854Y2944622D01*
X-3146450Y2947009D01*
X-3142386Y2947873D01*
X-3104896Y2947873D01*
X-3098546Y2948584D01*
X-3093110Y2950514D01*
X-3088182Y2953613D01*
X-3084372Y2957423D01*
X-3081070Y2959608D01*
X-3077210Y2960420D01*
X-3070809Y2960370D01*
X-3062782Y2959963D01*
X-3059633Y2959303D01*
X-3056839Y2957677D01*
X-3054705Y2955239D01*
X-3049727Y2947314D01*
X-3045612Y2943199D01*
X-3040735Y2940100D01*
X-3035249Y2938221D01*
X-3029305Y2937560D01*
X-3025597Y2936392D01*
X-3022600Y2933903D01*
X-3020720Y2930448D01*
X-3020314Y2926588D01*
X-3021126Y2917444D01*
X-3020263Y2907842D01*
X-3020669Y2903982D01*
X-3022549Y2900527D01*
X-3025546Y2898038D01*
X-3030677Y2896717D01*
X-3036163Y2894787D01*
X-3041040Y2891688D01*
X-3045155Y2887624D01*
X-3048203Y2882696D01*
X-3050133Y2877261D01*
X-3050844Y2870911D01*
X-3050844Y2762504D01*
X-3051606Y2758643D01*
X-3053791Y2755341D01*
X-3057093Y2753106D01*
X-3061004Y2752344D01*
X-3101340Y2752344D01*
X-3104388Y2752801D01*
X-3107182Y2754172D01*
X-3111652Y2757322D01*
X-3120491Y2761437D01*
X-3129889Y2763977D01*
X-3139592Y2764790D01*
X-3149295Y2763977D01*
X-3158693Y2761437D01*
X-3167532Y2757322D01*
X-3175508Y2751734D01*
X-3182366Y2744825D01*
X-3187954Y2736850D01*
X-3192068Y2728061D01*
X-3194608Y2718663D01*
X-3195472Y2708960D01*
X-3194608Y2699258D01*
X-3192068Y2689809D01*
X-3187954Y2681020D01*
X-3182366Y2673045D01*
X-3175508Y2666136D01*
X-3167532Y2660548D01*
X-3158693Y2656433D01*
X-3149295Y2653893D01*
G37*
G36*
X-2713583Y2845460D02*
G01*
X-2656535Y2845460D01*
X-2656535Y2897428D01*
X-2687116Y2897428D01*
X-2693416Y2896717D01*
X-2698902Y2894787D01*
X-2703779Y2891688D01*
X-2707894Y2887624D01*
X-2710942Y2882696D01*
X-2712872Y2877261D01*
X-2713583Y2870911D01*
G37*
G36*
X-2568803Y2845460D02*
G01*
X-2511755Y2845460D01*
X-2511755Y2870911D01*
X-2512466Y2877261D01*
X-2514396Y2882696D01*
X-2517444Y2887624D01*
X-2521559Y2891688D01*
X-2526436Y2894787D01*
X-2531922Y2896717D01*
X-2538222Y2897428D01*
X-2568803Y2897428D01*
G37*
G36*
X2250389Y2870504D02*
G01*
X2339238Y2870504D01*
X2345537Y2871216D01*
X2351024Y2873095D01*
X2355900Y2876194D01*
X2360015Y2880309D01*
X2363114Y2885186D01*
X2364994Y2890672D01*
X2365705Y2896971D01*
X2365705Y2900324D01*
X2366467Y2904236D01*
X2368702Y2907538D01*
X2372004Y2909722D01*
X2375865Y2910484D01*
X2541016Y2910484D01*
X2544622Y2909824D01*
X2547772Y2907893D01*
X2550058Y2904998D01*
X2551125Y2901492D01*
X2551531Y2897428D01*
X2553462Y2891993D01*
X2556560Y2887065D01*
X2560624Y2883001D01*
X2565552Y2879902D01*
X2570988Y2878023D01*
X2577338Y2877312D01*
X2656840Y2877312D01*
X2663139Y2878023D01*
X2668625Y2879902D01*
X2673502Y2883001D01*
X2677617Y2887065D01*
X2680665Y2891993D01*
X2682798Y2898038D01*
X2684932Y2901594D01*
X2688336Y2904032D01*
X2692400Y2904845D01*
X2696464Y2904032D01*
X2699867Y2901594D01*
X2702001Y2898038D01*
X2704134Y2891993D01*
X2707182Y2887065D01*
X2711297Y2883001D01*
X2716174Y2879902D01*
X2721660Y2878023D01*
X2727960Y2877312D01*
X2741218Y2877312D01*
X2741218Y2918460D01*
X2693466Y2918460D01*
X2689555Y2919222D01*
X2686304Y2921406D01*
X2684068Y2924708D01*
X2683306Y2928620D01*
X2683306Y2964180D01*
X2684068Y2968091D01*
X2686304Y2971393D01*
X2689555Y2973578D01*
X2693466Y2974340D01*
X2741218Y2974340D01*
X2741218Y3015488D01*
X2727960Y3015488D01*
X2721660Y3014776D01*
X2716174Y3012897D01*
X2711297Y3009798D01*
X2707182Y3005734D01*
X2704134Y3000806D01*
X2702001Y2994761D01*
X2699867Y2991205D01*
X2696464Y2988767D01*
X2692400Y2987954D01*
X2688336Y2988767D01*
X2684932Y2991205D01*
X2682798Y2994761D01*
X2680665Y3000806D01*
X2677617Y3005734D01*
X2673502Y3009798D01*
X2668625Y3012897D01*
X2663139Y3014776D01*
X2656840Y3015488D01*
X2577338Y3015488D01*
X2570988Y3014776D01*
X2565552Y3012897D01*
X2560624Y3009798D01*
X2556560Y3005734D01*
X2553462Y3000806D01*
X2551531Y2995371D01*
X2551125Y2991358D01*
X2550058Y2987802D01*
X2547772Y2984906D01*
X2544622Y2982976D01*
X2541016Y2982315D01*
X2375865Y2982315D01*
X2372004Y2983077D01*
X2368702Y2985262D01*
X2366467Y2988564D01*
X2365705Y2992475D01*
X2365705Y2995828D01*
X2364994Y3002178D01*
X2363114Y3007614D01*
X2360015Y3012541D01*
X2355900Y3016605D01*
X2351024Y3019704D01*
X2345537Y3021584D01*
X2339238Y3022295D01*
X2250389Y3022295D01*
X2244039Y3021584D01*
X2238603Y3019704D01*
X2233676Y3016605D01*
X2229612Y3012541D01*
X2226513Y3007614D01*
X2224633Y3002178D01*
X2223922Y2995828D01*
X2223922Y2896971D01*
X2224633Y2890672D01*
X2226513Y2885186D01*
X2229612Y2880309D01*
X2233676Y2876194D01*
X2238603Y2873095D01*
X2244039Y2871216D01*
G37*
G36*
X2794254Y2877312D02*
G01*
X2807462Y2877312D01*
X2813812Y2878023D01*
X2819247Y2879902D01*
X2824175Y2883001D01*
X2828239Y2887065D01*
X2831338Y2891993D01*
X2833268Y2897428D01*
X2833979Y2903778D01*
X2833979Y2918460D01*
X2794254Y2918460D01*
G37*
G36*
X-1091641Y2881274D02*
G01*
X-1053592Y2881274D01*
X-1047242Y2881985D01*
X-1041806Y2883916D01*
X-1036878Y2887014D01*
X-1032814Y2891078D01*
X-1029716Y2896006D01*
X-1027785Y2901442D01*
X-1027074Y2907792D01*
X-1027074Y2945841D01*
X-1091641Y2945841D01*
G37*
G36*
X-1232408Y2881274D02*
G01*
X-1194358Y2881274D01*
X-1194358Y2945841D01*
X-1258925Y2945841D01*
X-1258925Y2907792D01*
X-1258214Y2901442D01*
X-1256284Y2896006D01*
X-1253185Y2891078D01*
X-1249121Y2887014D01*
X-1244193Y2883916D01*
X-1238758Y2881985D01*
G37*
G36*
X-1404264Y2881528D02*
G01*
X-1389735Y2881528D01*
X-1375308Y2883357D01*
X-1361186Y2886964D01*
X-1347673Y2892348D01*
X-1334922Y2899359D01*
X-1323136Y2907893D01*
X-1312519Y2917850D01*
X-1303223Y2929077D01*
X-1295450Y2941370D01*
X-1289253Y2954528D01*
X-1284732Y2968396D01*
X-1282039Y2982671D01*
X-1281125Y2997200D01*
X-1282039Y3011728D01*
X-1284732Y3026003D01*
X-1289253Y3039872D01*
X-1295450Y3053029D01*
X-1303223Y3065322D01*
X-1312519Y3076549D01*
X-1323136Y3086506D01*
X-1334922Y3095040D01*
X-1347673Y3102051D01*
X-1361186Y3107436D01*
X-1375308Y3111042D01*
X-1389735Y3112871D01*
X-1404264Y3112871D01*
X-1418691Y3111042D01*
X-1432814Y3107436D01*
X-1446326Y3102051D01*
X-1459077Y3095040D01*
X-1470863Y3086506D01*
X-1481480Y3076549D01*
X-1490776Y3065322D01*
X-1498549Y3053029D01*
X-1504746Y3039872D01*
X-1509268Y3026003D01*
X-1511960Y3011728D01*
X-1512874Y2997200D01*
X-1511960Y2982671D01*
X-1509268Y2968396D01*
X-1504746Y2954528D01*
X-1498549Y2941370D01*
X-1490776Y2929077D01*
X-1481480Y2917850D01*
X-1470863Y2907893D01*
X-1459077Y2899359D01*
X-1446326Y2892348D01*
X-1432814Y2886964D01*
X-1418691Y2883357D01*
G37*
G36*
X3276092Y2932074D02*
G01*
X3314141Y2932074D01*
X3314141Y2996641D01*
X3249574Y2996641D01*
X3249574Y2958592D01*
X3250285Y2952242D01*
X3252215Y2946806D01*
X3255314Y2941878D01*
X3259378Y2937814D01*
X3264306Y2934716D01*
X3269742Y2932785D01*
G37*
G36*
X3416858Y2932074D02*
G01*
X3454908Y2932074D01*
X3461258Y2932785D01*
X3466693Y2934716D01*
X3471621Y2937814D01*
X3475685Y2941878D01*
X3478784Y2946806D01*
X3480714Y2952242D01*
X3481425Y2958592D01*
X3481425Y2996641D01*
X3416858Y2996641D01*
G37*
G36*
X-2820111Y2943555D02*
G01*
X-2794660Y2943555D01*
X-2794660Y3000603D01*
X-2846628Y3000603D01*
X-2846628Y2970022D01*
X-2845917Y2963722D01*
X-2843987Y2958236D01*
X-2840888Y2953359D01*
X-2836824Y2949244D01*
X-2831896Y2946196D01*
X-2826461Y2944266D01*
G37*
G36*
X-2717139Y2943555D02*
G01*
X-2691688Y2943555D01*
X-2685338Y2944266D01*
X-2679903Y2946196D01*
X-2674975Y2949244D01*
X-2670911Y2953359D01*
X-2667812Y2958236D01*
X-2665882Y2963722D01*
X-2665171Y2970022D01*
X-2665171Y3000603D01*
X-2717139Y3000603D01*
G37*
G36*
X2794254Y2974340D02*
G01*
X2833979Y2974340D01*
X2833979Y2989021D01*
X2833268Y2995371D01*
X2831338Y3000806D01*
X2828239Y3005734D01*
X2824175Y3009798D01*
X2819247Y3012897D01*
X2813812Y3014776D01*
X2807462Y3015488D01*
X2794254Y3015488D01*
G37*
G36*
X4424476Y2977083D02*
G01*
X4437583Y2977083D01*
X4437583Y3019145D01*
X4398010Y3019145D01*
X4398010Y3003550D01*
X4398721Y2997250D01*
X4400600Y2991764D01*
X4403699Y2986887D01*
X4407814Y2982772D01*
X4412691Y2979724D01*
X4418177Y2977794D01*
G37*
G36*
X-688594Y2980588D02*
G01*
X-675538Y2980588D01*
X-675538Y3020161D01*
X-715111Y3020161D01*
X-715111Y3007055D01*
X-714400Y3000756D01*
X-712470Y2995269D01*
X-709371Y2990392D01*
X-705307Y2986278D01*
X-700379Y2983230D01*
X-694944Y2981299D01*
G37*
G36*
X-1091641Y3048558D02*
G01*
X-1027074Y3048558D01*
X-1027074Y3086608D01*
X-1027785Y3092958D01*
X-1029716Y3098393D01*
X-1032814Y3103321D01*
X-1036878Y3107385D01*
X-1041806Y3110484D01*
X-1047242Y3112414D01*
X-1053592Y3113125D01*
X-1091641Y3113125D01*
G37*
G36*
X-1258925Y3048558D02*
G01*
X-1194358Y3048558D01*
X-1194358Y3113125D01*
X-1232408Y3113125D01*
X-1238758Y3112414D01*
X-1244193Y3110484D01*
X-1249121Y3107385D01*
X-1253185Y3103321D01*
X-1256284Y3098393D01*
X-1258214Y3092958D01*
X-1258925Y3086608D01*
G37*
G36*
X-3473754Y3137916D02*
G01*
X-3364890Y3137916D01*
X-3358540Y3138627D01*
X-3353104Y3140506D01*
X-3348177Y3143605D01*
X-3344113Y3147720D01*
X-3341014Y3152597D01*
X-3339084Y3158032D01*
X-3338372Y3164382D01*
X-3338372Y3223260D01*
X-3339084Y3229559D01*
X-3341014Y3235045D01*
X-3344113Y3239922D01*
X-3348177Y3244037D01*
X-3353104Y3247085D01*
X-3358540Y3249015D01*
X-3364890Y3249726D01*
X-3435807Y3249726D01*
X-3439871Y3250539D01*
X-3443274Y3252978D01*
X-3445408Y3256534D01*
X-3445967Y3260648D01*
X-3444798Y3264611D01*
X-3442157Y3267811D01*
X-3437432Y3271570D01*
X-3429762Y3279901D01*
X-3423361Y3289249D01*
X-3420160Y3295853D01*
X-3485235Y3295853D01*
X-3485235Y3252876D01*
X-3485794Y3249523D01*
X-3487420Y3246577D01*
X-3490417Y3244037D01*
X-3494532Y3239922D01*
X-3497579Y3235045D01*
X-3499510Y3229559D01*
X-3500221Y3223260D01*
X-3500221Y3164382D01*
X-3499510Y3158032D01*
X-3497579Y3152597D01*
X-3494532Y3147720D01*
X-3490417Y3143605D01*
X-3485540Y3140506D01*
X-3480054Y3138627D01*
G37*
G36*
X-3565245Y3182416D02*
G01*
X-3523183Y3182416D01*
X-3523183Y3195523D01*
X-3523894Y3201822D01*
X-3525824Y3207308D01*
X-3528872Y3212185D01*
X-3532987Y3216300D01*
X-3537864Y3219399D01*
X-3543350Y3221278D01*
X-3549650Y3221990D01*
X-3565245Y3221990D01*
G37*
G36*
X-3665016Y3182416D02*
G01*
X-3622954Y3182416D01*
X-3622954Y3221990D01*
X-3638550Y3221990D01*
X-3644849Y3221278D01*
X-3650335Y3219399D01*
X-3655212Y3216300D01*
X-3659327Y3212185D01*
X-3662375Y3207308D01*
X-3664305Y3201822D01*
X-3665016Y3195523D01*
G37*
G36*
X-1148283Y3243783D02*
G01*
X-1135176Y3243783D01*
X-1128877Y3244494D01*
X-1123391Y3246424D01*
X-1118514Y3249472D01*
X-1114399Y3253587D01*
X-1111300Y3258464D01*
X-1109421Y3263950D01*
X-1108710Y3270250D01*
X-1108710Y3285845D01*
X-1148283Y3285845D01*
G37*
G36*
X-3602939Y3251606D02*
G01*
X-3602939Y3295853D01*
X-3667963Y3295853D01*
X-3664762Y3289249D01*
X-3658412Y3279901D01*
X-3650691Y3271570D01*
X-3641801Y3264509D01*
X-3631996Y3258820D01*
X-3621430Y3254705D01*
X-3610356Y3252165D01*
G37*
G36*
X-3915714Y3253333D02*
G01*
X-3909720Y3254705D01*
X-3899154Y3258820D01*
X-3889349Y3264509D01*
X-3880459Y3271570D01*
X-3872737Y3279901D01*
X-3866387Y3289249D01*
X-3863187Y3295853D01*
X-3915714Y3295853D01*
G37*
G36*
X-1148283Y3343554D02*
G01*
X-1108710Y3343554D01*
X-1108710Y3359150D01*
X-1109421Y3365449D01*
X-1111300Y3370935D01*
X-1114399Y3375812D01*
X-1118514Y3379927D01*
X-1123391Y3382975D01*
X-1128877Y3384905D01*
X-1135176Y3385616D01*
X-1148283Y3385616D01*
G37*
G36*
X-3915714Y3358540D02*
G01*
X-3863187Y3358540D01*
X-3866387Y3365144D01*
X-3872737Y3374491D01*
X-3880459Y3382822D01*
X-3889349Y3389884D01*
X-3899154Y3395573D01*
X-3909720Y3399688D01*
X-3915714Y3401060D01*
G37*
G36*
X-3485235Y3358540D02*
G01*
X-3420160Y3358540D01*
X-3423361Y3365144D01*
X-3424885Y3367430D01*
X-3426510Y3371291D01*
X-3426409Y3375456D01*
X-3424631Y3379266D01*
X-3421481Y3382010D01*
X-3417468Y3383229D01*
X-3409238Y3384042D01*
X-3403904Y3385921D01*
X-3398977Y3388969D01*
X-3394913Y3393084D01*
X-3391814Y3397961D01*
X-3389884Y3403447D01*
X-3389172Y3409746D01*
X-3389172Y3417824D01*
X-3441242Y3417824D01*
X-3441242Y3373120D01*
X-3442004Y3369259D01*
X-3444240Y3365957D01*
X-3447491Y3363722D01*
X-3451402Y3362960D01*
X-3485235Y3362960D01*
G37*
G36*
X-1196136Y3413099D02*
G01*
X-1193038Y3413099D01*
X-1186738Y3413810D01*
X-1181252Y3415690D01*
X-1176375Y3418789D01*
X-1172260Y3422853D01*
X-1169212Y3427780D01*
X-1167282Y3433216D01*
X-1166571Y3439566D01*
X-1166571Y3455162D01*
X-1196136Y3455162D01*
G37*
G36*
X-3166821Y3414420D02*
G01*
X-3152140Y3414420D01*
X-3152140Y3454146D01*
X-3193288Y3454146D01*
X-3193288Y3440937D01*
X-3192576Y3434587D01*
X-3190697Y3429152D01*
X-3187598Y3424224D01*
X-3183534Y3420160D01*
X-3178606Y3417062D01*
X-3173171Y3415131D01*
G37*
G36*
X-3096260Y3414420D02*
G01*
X-3081578Y3414420D01*
X-3075228Y3415131D01*
X-3069793Y3417062D01*
X-3064865Y3420160D01*
X-3060801Y3424224D01*
X-3057702Y3429152D01*
X-3055823Y3434587D01*
X-3055112Y3440937D01*
X-3055112Y3454146D01*
X-3096260Y3454146D01*
G37*
G36*
X-1196136Y3512820D02*
G01*
X-1166571Y3512820D01*
X-1166571Y3528415D01*
X-1167282Y3534714D01*
X-1169212Y3540201D01*
X-1172260Y3545078D01*
X-1176375Y3549192D01*
X-1181252Y3552291D01*
X-1186738Y3554171D01*
X-1193038Y3554882D01*
X-1196136Y3554882D01*
G37*
G36*
X6829602Y3834841D02*
G01*
X6866026Y3834841D01*
X6865315Y3841242D01*
X6863435Y3846728D01*
X6860336Y3851605D01*
X6856272Y3855720D01*
X6851345Y3858768D01*
X6845909Y3860698D01*
X6839559Y3861409D01*
X6829602Y3861409D01*
G37*
G36*
X6914083Y3842816D02*
G01*
X6956145Y3842816D01*
X6956145Y3882390D01*
X6940550Y3882390D01*
X6934250Y3881678D01*
X6928764Y3879799D01*
X6923887Y3876700D01*
X6919772Y3872585D01*
X6916724Y3867708D01*
X6914794Y3862222D01*
X6914083Y3855923D01*
G37*
G36*
X7013854Y3842816D02*
G01*
X7055916Y3842816D01*
X7055916Y3855923D01*
X7055205Y3862222D01*
X7053275Y3867708D01*
X7050227Y3872585D01*
X7046112Y3876700D01*
X7041235Y3879799D01*
X7035749Y3881678D01*
X7029450Y3882390D01*
X7013854Y3882390D01*
G37*
G36*
X-2501341Y4024274D02*
G01*
X-2463292Y4024274D01*
X-2456942Y4024985D01*
X-2451506Y4026915D01*
X-2446578Y4030014D01*
X-2442514Y4034078D01*
X-2439416Y4039006D01*
X-2437485Y4044442D01*
X-2436774Y4050792D01*
X-2436774Y4088841D01*
X-2501341Y4088841D01*
G37*
G36*
X-3193288Y4026154D02*
G01*
X-3152140Y4026154D01*
X-3152140Y4065879D01*
X-3166821Y4065879D01*
X-3173171Y4065168D01*
X-3178606Y4063237D01*
X-3183534Y4060139D01*
X-3187598Y4056075D01*
X-3190697Y4051147D01*
X-3192576Y4045712D01*
X-3193288Y4039362D01*
G37*
G36*
X-1427683Y4081983D02*
G01*
X-1414576Y4081983D01*
X-1408277Y4082694D01*
X-1402791Y4084624D01*
X-1397914Y4087672D01*
X-1393799Y4091787D01*
X-1390700Y4096664D01*
X-1388821Y4102150D01*
X-1388110Y4108450D01*
X-1388110Y4124045D01*
X-1427683Y4124045D01*
G37*
G36*
X-3441242Y4100525D02*
G01*
X-3389223Y4100525D01*
X-3389223Y4108602D01*
X-3389934Y4114952D01*
X-3391814Y4120387D01*
X-3394913Y4125315D01*
X-3398977Y4129379D01*
X-3403904Y4132478D01*
X-3409289Y4134358D01*
X-3417468Y4135170D01*
X-3421481Y4136390D01*
X-3424631Y4139133D01*
X-3426409Y4142943D01*
X-3426510Y4147108D01*
X-3424885Y4150969D01*
X-3423361Y4153255D01*
X-3420160Y4159859D01*
X-3485184Y4159859D01*
X-3485184Y4155440D01*
X-3451402Y4155440D01*
X-3447542Y4154627D01*
X-3444240Y4152442D01*
X-3442055Y4149140D01*
X-3441242Y4145279D01*
G37*
G36*
X-3915714Y4117289D02*
G01*
X-3909720Y4118660D01*
X-3899154Y4122826D01*
X-3889349Y4128515D01*
X-3880459Y4135577D01*
X-3872737Y4143857D01*
X-3866387Y4153255D01*
X-3863187Y4159859D01*
X-3915714Y4159859D01*
G37*
G36*
X-2309977Y4159758D02*
G01*
X-2300325Y4160621D01*
X-2290876Y4163161D01*
X-2282088Y4167276D01*
X-2274112Y4172864D01*
X-2267204Y4179722D01*
X-2261616Y4187698D01*
X-2257501Y4196537D01*
X-2254961Y4205935D01*
X-2254148Y4215638D01*
X-2254961Y4225340D01*
X-2255367Y4226763D01*
X-2255570Y4231132D01*
X-2253945Y4235145D01*
X-2250795Y4238142D01*
X-2246680Y4239514D01*
X-2244242Y4239768D01*
X-2238806Y4241698D01*
X-2233879Y4244797D01*
X-2229815Y4248861D01*
X-2226716Y4253788D01*
X-2224786Y4259224D01*
X-2224074Y4265574D01*
X-2224074Y4364431D01*
X-2224786Y4370730D01*
X-2226716Y4376216D01*
X-2229815Y4381093D01*
X-2233879Y4385208D01*
X-2238806Y4388256D01*
X-2244242Y4390186D01*
X-2250541Y4390898D01*
X-2369413Y4390898D01*
X-2375763Y4390186D01*
X-2381199Y4388256D01*
X-2386126Y4385208D01*
X-2390190Y4381093D01*
X-2393289Y4376216D01*
X-2395169Y4370730D01*
X-2395880Y4364431D01*
X-2395880Y4265574D01*
X-2395169Y4259224D01*
X-2393289Y4253788D01*
X-2390190Y4248861D01*
X-2386126Y4244797D01*
X-2381199Y4241698D01*
X-2375763Y4239768D01*
X-2373325Y4239514D01*
X-2369210Y4238142D01*
X-2366060Y4235145D01*
X-2364435Y4231132D01*
X-2364638Y4226763D01*
X-2365044Y4225340D01*
X-2365857Y4215638D01*
X-2365044Y4205935D01*
X-2362504Y4196537D01*
X-2358390Y4187698D01*
X-2352802Y4179722D01*
X-2345893Y4172864D01*
X-2337917Y4167276D01*
X-2329129Y4163161D01*
X-2319680Y4160621D01*
G37*
G36*
X-1427683Y4181754D02*
G01*
X-1388110Y4181754D01*
X-1388110Y4197350D01*
X-1388821Y4203649D01*
X-1390700Y4209135D01*
X-1393799Y4214012D01*
X-1397914Y4218127D01*
X-1402791Y4221175D01*
X-1408277Y4223105D01*
X-1414576Y4223816D01*
X-1427683Y4223816D01*
G37*
G36*
X-2501341Y4191558D02*
G01*
X-2436774Y4191558D01*
X-2436774Y4229608D01*
X-2437485Y4235958D01*
X-2439416Y4241393D01*
X-2442514Y4246321D01*
X-2446578Y4250385D01*
X-2451506Y4253484D01*
X-2456942Y4255414D01*
X-2463292Y4256125D01*
X-2501341Y4256125D01*
G37*
G36*
X-2668625Y4191558D02*
G01*
X-2604058Y4191558D01*
X-2604058Y4256125D01*
X-2642108Y4256125D01*
X-2648458Y4255414D01*
X-2653893Y4253484D01*
X-2658821Y4250385D01*
X-2662885Y4246321D01*
X-2665984Y4241393D01*
X-2667914Y4235958D01*
X-2668625Y4229608D01*
G37*
G36*
X-3915714Y4222546D02*
G01*
X-3863187Y4222546D01*
X-3866387Y4229150D01*
X-3872737Y4238498D01*
X-3880459Y4246829D01*
X-3889349Y4253890D01*
X-3899154Y4259580D01*
X-3909720Y4263694D01*
X-3915714Y4265066D01*
G37*
G36*
X-3485184Y4222546D02*
G01*
X-3420160Y4222546D01*
X-3423361Y4229150D01*
X-3429711Y4238498D01*
X-3435299Y4244543D01*
X-3437382Y4247845D01*
X-3438042Y4251706D01*
X-3437178Y4255516D01*
X-3434943Y4258716D01*
X-3431692Y4260850D01*
X-3427882Y4261612D01*
X-3362960Y4261612D01*
X-3356660Y4262323D01*
X-3351174Y4264202D01*
X-3346297Y4267301D01*
X-3342182Y4271365D01*
X-3339134Y4276293D01*
X-3337001Y4282338D01*
X-3334867Y4285894D01*
X-3331464Y4288332D01*
X-3327400Y4289145D01*
X-3323336Y4288332D01*
X-3319932Y4285894D01*
X-3317798Y4282338D01*
X-3315665Y4276293D01*
X-3312617Y4271365D01*
X-3308502Y4267301D01*
X-3303625Y4264202D01*
X-3298139Y4262323D01*
X-3291840Y4261612D01*
X-3278581Y4261612D01*
X-3278581Y4302760D01*
X-3326333Y4302760D01*
X-3330244Y4303522D01*
X-3333496Y4305706D01*
X-3335731Y4309008D01*
X-3336493Y4312920D01*
X-3336493Y4348480D01*
X-3335731Y4352391D01*
X-3333496Y4355693D01*
X-3330244Y4357878D01*
X-3326333Y4358640D01*
X-3278581Y4358640D01*
X-3278581Y4399788D01*
X-3291840Y4399788D01*
X-3298139Y4399076D01*
X-3303625Y4397197D01*
X-3308502Y4394098D01*
X-3312617Y4390034D01*
X-3315665Y4385106D01*
X-3317798Y4379061D01*
X-3319932Y4375505D01*
X-3323336Y4373067D01*
X-3327400Y4372254D01*
X-3331464Y4373067D01*
X-3334867Y4375505D01*
X-3337001Y4379061D01*
X-3339134Y4385106D01*
X-3342182Y4390034D01*
X-3346297Y4394098D01*
X-3351174Y4397197D01*
X-3356660Y4399076D01*
X-3362960Y4399788D01*
X-3442462Y4399788D01*
X-3448812Y4399076D01*
X-3454247Y4397197D01*
X-3459175Y4394098D01*
X-3463239Y4390034D01*
X-3466337Y4385106D01*
X-3467049Y4383074D01*
X-3469132Y4379620D01*
X-3472383Y4377232D01*
X-3476294Y4376267D01*
X-3480308Y4376978D01*
X-3483711Y4379163D01*
X-3485997Y4382465D01*
X-3486810Y4386427D01*
X-3486810Y4438599D01*
X-3487521Y4444949D01*
X-3489401Y4450384D01*
X-3492500Y4455312D01*
X-3496564Y4459376D01*
X-3501491Y4462475D01*
X-3506927Y4464354D01*
X-3513277Y4465066D01*
X-3561130Y4465066D01*
X-3567429Y4464354D01*
X-3572916Y4462475D01*
X-3577793Y4459376D01*
X-3581908Y4455312D01*
X-3585006Y4450384D01*
X-3586886Y4444949D01*
X-3587597Y4438599D01*
X-3587597Y4322267D01*
X-3586886Y4315917D01*
X-3585006Y4310481D01*
X-3581908Y4305554D01*
X-3574338Y4298188D01*
X-3572814Y4294124D01*
X-3572306Y4290720D01*
X-3571392Y4287418D01*
X-3568141Y4280052D01*
X-3566261Y4277156D01*
X-3563874Y4274210D01*
X-3561232Y4271568D01*
X-3558286Y4269181D01*
X-3555136Y4267149D01*
X-3551783Y4265472D01*
X-3548278Y4264101D01*
X-3544671Y4263136D01*
X-3540963Y4262526D01*
X-3536950Y4262323D01*
X-3499459Y4262323D01*
X-3496411Y4262678D01*
X-3492246Y4262221D01*
X-3488588Y4260088D01*
X-3486099Y4256684D01*
X-3485184Y4252569D01*
G37*
G36*
X-3225546Y4261612D02*
G01*
X-3212338Y4261612D01*
X-3205988Y4262323D01*
X-3200552Y4264202D01*
X-3195624Y4267301D01*
X-3191560Y4271365D01*
X-3188462Y4276293D01*
X-3186531Y4281728D01*
X-3185820Y4288078D01*
X-3185820Y4302760D01*
X-3225546Y4302760D01*
G37*
G36*
X-1418945Y4271010D02*
G01*
X-1403350Y4271010D01*
X-1397050Y4271721D01*
X-1391564Y4273600D01*
X-1386687Y4276699D01*
X-1382572Y4280814D01*
X-1379524Y4285691D01*
X-1377594Y4291177D01*
X-1376883Y4297476D01*
X-1376883Y4310583D01*
X-1418945Y4310583D01*
G37*
G36*
X-1228445Y4271010D02*
G01*
X-1212850Y4271010D01*
X-1206550Y4271721D01*
X-1201064Y4273600D01*
X-1196187Y4276699D01*
X-1192072Y4280814D01*
X-1189024Y4285691D01*
X-1187094Y4291177D01*
X-1186383Y4297476D01*
X-1186383Y4310583D01*
X-1228445Y4310583D01*
G37*
G36*
X-1301750Y4271010D02*
G01*
X-1286154Y4271010D01*
X-1286154Y4310583D01*
X-1328216Y4310583D01*
X-1328216Y4297476D01*
X-1327505Y4291177D01*
X-1325575Y4285691D01*
X-1322527Y4280814D01*
X-1318412Y4276699D01*
X-1313535Y4273600D01*
X-1308049Y4271721D01*
G37*
G36*
X-3225546Y4358640D02*
G01*
X-3185820Y4358640D01*
X-3185820Y4373321D01*
X-3186531Y4379671D01*
X-3188462Y4385106D01*
X-3191560Y4390034D01*
X-3195624Y4394098D01*
X-3200552Y4397197D01*
X-3205988Y4399076D01*
X-3212338Y4399788D01*
X-3225546Y4399788D01*
G37*
G36*
X-1084427Y4364075D02*
G01*
X-1068832Y4364075D01*
X-1068832Y4403648D01*
X-1110894Y4403648D01*
X-1110894Y4390593D01*
X-1110183Y4384243D01*
X-1108303Y4378807D01*
X-1105204Y4373880D01*
X-1101090Y4369816D01*
X-1096213Y4366717D01*
X-1090726Y4364786D01*
G37*
G36*
X-811123Y4364075D02*
G01*
X-795578Y4364075D01*
X-789228Y4364786D01*
X-783793Y4366717D01*
X-778865Y4369816D01*
X-774801Y4373880D01*
X-771702Y4378807D01*
X-769823Y4384243D01*
X-769112Y4390593D01*
X-769112Y4403648D01*
X-811123Y4403648D01*
G37*
G36*
X-884428Y4364075D02*
G01*
X-868832Y4364075D01*
X-868832Y4403648D01*
X-910894Y4403648D01*
X-910894Y4390593D01*
X-910183Y4384243D01*
X-908303Y4378807D01*
X-905205Y4373880D01*
X-901090Y4369816D01*
X-896213Y4366717D01*
X-890727Y4364786D01*
G37*
G36*
X-1011123Y4364075D02*
G01*
X-995578Y4364075D01*
X-989228Y4364786D01*
X-983792Y4366717D01*
X-978865Y4369816D01*
X-974801Y4373880D01*
X-971702Y4378807D01*
X-969822Y4384243D01*
X-969111Y4390593D01*
X-969111Y4403648D01*
X-1011123Y4403648D01*
G37*

%LPD*%
G36*
X614426Y4291177D02*
G01*
X610260Y4292041D01*
X606856Y4294581D01*
X604774Y4298289D01*
X604367Y4302506D01*
X605739Y4306519D01*
X608634Y4309668D01*
X616305Y4315053D01*
X623214Y4321962D01*
X628802Y4329938D01*
X632917Y4338726D01*
X635457Y4348175D01*
X636270Y4357878D01*
X635457Y4367580D01*
X632917Y4376978D01*
X630428Y4382312D01*
X629462Y4386630D01*
X629462Y4417669D01*
X574395Y4417669D01*
X571042Y4415282D01*
X566978Y4414469D01*
X554634Y4414469D01*
X550570Y4415282D01*
X547217Y4417669D01*
X531876Y4417669D01*
X528015Y4418431D01*
X524713Y4420616D01*
X522478Y4423918D01*
X521716Y4427829D01*
X521716Y4460189D01*
X522478Y4464100D01*
X524713Y4467352D01*
X528015Y4469587D01*
X531876Y4470349D01*
X544474Y4470349D01*
X544474Y4509922D01*
X541375Y4509922D01*
X535076Y4509211D01*
X529590Y4507280D01*
X523697Y4503572D01*
X520192Y4502200D01*
X516432Y4502200D01*
X512876Y4503623D01*
X507034Y4507280D01*
X501548Y4509211D01*
X495249Y4509922D01*
X456387Y4509922D01*
X450037Y4509211D01*
X444601Y4507280D01*
X438708Y4503572D01*
X435152Y4502200D01*
X431393Y4502200D01*
X427888Y4503623D01*
X422046Y4507280D01*
X416559Y4509211D01*
X410260Y4509922D01*
X371398Y4509922D01*
X365048Y4509211D01*
X359613Y4507280D01*
X353669Y4503572D01*
X350164Y4502200D01*
X346405Y4502200D01*
X342900Y4503623D01*
X337007Y4507280D01*
X331571Y4509211D01*
X325221Y4509922D01*
X286359Y4509922D01*
X280060Y4509211D01*
X274574Y4507280D01*
X268681Y4503572D01*
X265176Y4502200D01*
X261416Y4502200D01*
X257911Y4503623D01*
X252018Y4507280D01*
X246583Y4509211D01*
X240233Y4509922D01*
X201371Y4509922D01*
X195072Y4509211D01*
X189585Y4507280D01*
X183692Y4503572D01*
X180187Y4502200D01*
X176428Y4502200D01*
X172872Y4503623D01*
X167030Y4507280D01*
X161544Y4509211D01*
X154330Y4509922D01*
X150469Y4510684D01*
X147167Y4512868D01*
X144983Y4516170D01*
X144170Y4520082D01*
X144983Y4523943D01*
X147167Y4527245D01*
X173177Y4553254D01*
X176479Y4555490D01*
X180390Y4556252D01*
X688695Y4556252D01*
X692607Y4555490D01*
X695909Y4553204D01*
X698093Y4549902D01*
X698855Y4545939D01*
X698398Y4514443D01*
X697585Y4510633D01*
X695401Y4507433D01*
X691184Y4503978D01*
X687933Y4503064D01*
X684530Y4503267D01*
X681380Y4504537D01*
X677011Y4507280D01*
X671576Y4509211D01*
X665226Y4509922D01*
X662178Y4509922D01*
X662178Y4470349D01*
X668070Y4470349D01*
X671169Y4472228D01*
X674725Y4472838D01*
X687476Y4472838D01*
X691388Y4472076D01*
X694690Y4469841D01*
X696874Y4466488D01*
X697636Y4462526D01*
X697128Y4427677D01*
X696315Y4423816D01*
X694080Y4420565D01*
X690829Y4418431D01*
X686968Y4417669D01*
X662178Y4417669D01*
X662178Y4378096D01*
X665226Y4378096D01*
X671576Y4378807D01*
X675132Y4380026D01*
X679602Y4380585D01*
X683818Y4379112D01*
X687019Y4375962D01*
X688543Y4371746D01*
X687425Y4360926D01*
X687425Y4357725D01*
X690778Y4356506D01*
X693572Y4354220D01*
X695350Y4351070D01*
X695960Y4347565D01*
X695756Y4335170D01*
X695096Y4331716D01*
X693369Y4328718D01*
X690676Y4326483D01*
X687425Y4325315D01*
X687425Y4322064D01*
X687984Y4316984D01*
X687527Y4312666D01*
X685292Y4308906D01*
X681736Y4306417D01*
X677418Y4305706D01*
X668985Y4306062D01*
X659942Y4304842D01*
X651256Y4302048D01*
X643229Y4297730D01*
X637794Y4293412D01*
X634796Y4291736D01*
X631444Y4291177D01*
G37*

%LPC*%
G36*
X577138Y4470349D02*
G01*
X629462Y4470349D01*
X629462Y4509922D01*
X626364Y4509922D01*
X620064Y4509211D01*
X614578Y4507280D01*
X608685Y4503572D01*
X605180Y4502200D01*
X601421Y4502200D01*
X597916Y4503623D01*
X592023Y4507280D01*
X586587Y4509211D01*
X580237Y4509922D01*
X577138Y4509922D01*
G37*

%LPD*%
G36*
X1681022Y4209186D02*
G01*
X1677111Y4209948D01*
X1673809Y4212132D01*
X1671624Y4215434D01*
X1670862Y4219346D01*
X1670862Y4228490D01*
X1645157Y4228490D01*
X1641246Y4229303D01*
X1637995Y4231487D01*
X1635760Y4234789D01*
X1634998Y4238650D01*
X1634998Y4283557D01*
X1635760Y4287418D01*
X1637995Y4290720D01*
X1641246Y4292955D01*
X1645157Y4293717D01*
X1670862Y4293717D01*
X1670862Y4339539D01*
X1645157Y4339539D01*
X1641246Y4340301D01*
X1637995Y4342485D01*
X1635760Y4345787D01*
X1634998Y4349699D01*
X1634998Y4494834D01*
X1635760Y4498695D01*
X1637995Y4501997D01*
X1641246Y4504182D01*
X1645157Y4504994D01*
X1673656Y4504994D01*
X1677365Y4504283D01*
X1680565Y4502302D01*
X1682800Y4499254D01*
X1724406Y4499254D01*
X1726641Y4502302D01*
X1729841Y4504283D01*
X1733550Y4504994D01*
X1811426Y4504994D01*
X1815287Y4504182D01*
X1818589Y4501997D01*
X1850694Y4469942D01*
X1857044Y4464761D01*
X1861718Y4462221D01*
X1867407Y4460392D01*
X1870760Y4458512D01*
X1873199Y4455515D01*
X1874367Y4451858D01*
X1874723Y4448860D01*
X1876602Y4443374D01*
X1879701Y4438497D01*
X1883765Y4434382D01*
X1888693Y4431334D01*
X1894738Y4429201D01*
X1898294Y4427067D01*
X1900732Y4423664D01*
X1901545Y4419600D01*
X1900732Y4415536D01*
X1898294Y4412132D01*
X1894738Y4409998D01*
X1888693Y4407865D01*
X1883765Y4404817D01*
X1879701Y4400702D01*
X1876602Y4395825D01*
X1874723Y4390339D01*
X1874012Y4384040D01*
X1874012Y4304538D01*
X1874723Y4298188D01*
X1876602Y4292752D01*
X1879701Y4287824D01*
X1883765Y4283760D01*
X1888693Y4280662D01*
X1894128Y4278731D01*
X1900478Y4278020D01*
X1985721Y4278020D01*
X1992071Y4278731D01*
X1997506Y4280662D01*
X2002434Y4283760D01*
X2006498Y4287824D01*
X2009597Y4292752D01*
X2012188Y4297629D01*
X2015591Y4300016D01*
X2019655Y4300880D01*
X2028189Y4300880D01*
X2032101Y4300067D01*
X2035403Y4297883D01*
X2052574Y4280712D01*
X2054758Y4277410D01*
X2055520Y4273499D01*
X2054758Y4269638D01*
X2052574Y4266336D01*
X1998370Y4212132D01*
X1995068Y4209948D01*
X1991207Y4209186D01*
X1863293Y4209186D01*
X1859381Y4209948D01*
X1856079Y4212132D01*
X1853895Y4215434D01*
X1853133Y4219346D01*
X1853133Y4228490D01*
X1783537Y4228490D01*
X1783537Y4219346D01*
X1782775Y4215434D01*
X1780590Y4212132D01*
X1777288Y4209948D01*
X1773377Y4209186D01*
G37*

%LPC*%
G36*
X1783537Y4293717D02*
G01*
X1853133Y4293717D01*
X1853133Y4313021D01*
X1852371Y4319371D01*
X1850491Y4324807D01*
X1847392Y4329734D01*
X1843328Y4333798D01*
X1838401Y4336897D01*
X1832965Y4338828D01*
X1826615Y4339539D01*
X1783537Y4339539D01*
G37*
G36*
X1683816Y4399483D02*
G01*
X1696923Y4399483D01*
X1703222Y4400194D01*
X1708708Y4402124D01*
X1713585Y4405172D01*
X1717700Y4409287D01*
X1720799Y4414164D01*
X1722678Y4419650D01*
X1723389Y4425950D01*
X1723389Y4441545D01*
X1683816Y4441545D01*
G37*

%LPD*%
G36*
X2440330Y4177131D02*
G01*
X2436317Y4177944D01*
X2432964Y4180332D01*
X2430780Y4183837D01*
X2430221Y4187901D01*
X2431288Y4191863D01*
X2433828Y4195064D01*
X2437485Y4196994D01*
X2446324Y4201160D01*
X2454300Y4206748D01*
X2461158Y4213606D01*
X2466746Y4221581D01*
X2470861Y4230420D01*
X2472436Y4236212D01*
X2474366Y4239971D01*
X2477617Y4242612D01*
X2481732Y4243730D01*
X2485898Y4243070D01*
X2489454Y4240733D01*
X2491587Y4238599D01*
X2496464Y4235500D01*
X2501950Y4233621D01*
X2508250Y4232910D01*
X2523845Y4232910D01*
X2523845Y4272483D01*
X2475534Y4272483D01*
X2472385Y4272991D01*
X2469489Y4274464D01*
X2467254Y4276801D01*
X2461158Y4285437D01*
X2454300Y4292346D01*
X2446324Y4297883D01*
X2437485Y4302048D01*
X2428087Y4304538D01*
X2418384Y4305401D01*
X2408682Y4304538D01*
X2399284Y4302048D01*
X2390444Y4297883D01*
X2385974Y4294784D01*
X2383180Y4293412D01*
X2380132Y4292955D01*
X2319629Y4292955D01*
X2315768Y4293717D01*
X2312466Y4295902D01*
X2302713Y4305604D01*
X2296109Y4310583D01*
X2288946Y4314139D01*
X2281224Y4316323D01*
X2272588Y4317136D01*
X2268931Y4318203D01*
X2265883Y4320590D01*
X2263597Y4324908D01*
X2260498Y4329785D01*
X2256434Y4333900D01*
X2251506Y4336999D01*
X2246071Y4338878D01*
X2239721Y4339590D01*
X2154478Y4339590D01*
X2148179Y4338878D01*
X2142693Y4336999D01*
X2133854Y4331055D01*
X2129993Y4330293D01*
X2126081Y4331055D01*
X2122779Y4333240D01*
X2079904Y4376115D01*
X2073198Y4381144D01*
X2066036Y4384700D01*
X2058365Y4386884D01*
X2049932Y4387697D01*
X2019655Y4387697D01*
X2015591Y4388510D01*
X2012188Y4390948D01*
X2009597Y4395825D01*
X2006498Y4400702D01*
X2002434Y4404817D01*
X1997506Y4407865D01*
X1991461Y4409998D01*
X1987905Y4412132D01*
X1985467Y4415536D01*
X1984654Y4419600D01*
X1985467Y4423664D01*
X1987905Y4427067D01*
X1991461Y4429201D01*
X1997506Y4431334D01*
X2002434Y4434382D01*
X2006498Y4438497D01*
X2009597Y4443374D01*
X2011476Y4448860D01*
X2012188Y4455160D01*
X2012188Y4534662D01*
X2011476Y4541012D01*
X2010867Y4542739D01*
X2010308Y4546549D01*
X2011222Y4550308D01*
X2013457Y4553458D01*
X2016709Y4555540D01*
X2020468Y4556252D01*
X2447645Y4556252D01*
X2451506Y4555490D01*
X2454808Y4553254D01*
X2493314Y4514748D01*
X2495753Y4510938D01*
X2496261Y4506468D01*
X2494788Y4502200D01*
X2487472Y4494885D01*
X2484424Y4490008D01*
X2482494Y4484522D01*
X2481783Y4478223D01*
X2481783Y4399381D01*
X2482494Y4393031D01*
X2484424Y4387596D01*
X2487472Y4382668D01*
X2491587Y4378604D01*
X2493467Y4377385D01*
X2496413Y4374591D01*
X2498039Y4370832D01*
X2498039Y4366768D01*
X2496413Y4363008D01*
X2493467Y4360214D01*
X2491587Y4358995D01*
X2487472Y4354931D01*
X2484424Y4350004D01*
X2482494Y4344568D01*
X2481783Y4338218D01*
X2481783Y4325162D01*
X2523845Y4325162D01*
X2523845Y4362704D01*
X2524607Y4366615D01*
X2526842Y4369917D01*
X2530144Y4372102D01*
X2534005Y4372864D01*
X2571394Y4372864D01*
X2575255Y4372102D01*
X2578557Y4369917D01*
X2580792Y4366615D01*
X2581554Y4362704D01*
X2581554Y4325162D01*
X2623616Y4325162D01*
X2623616Y4338218D01*
X2622905Y4344568D01*
X2620975Y4350004D01*
X2617927Y4354931D01*
X2613812Y4358995D01*
X2611932Y4360214D01*
X2608986Y4363008D01*
X2607360Y4366768D01*
X2607360Y4370832D01*
X2608986Y4374591D01*
X2611932Y4377385D01*
X2613812Y4378604D01*
X2617927Y4382668D01*
X2620975Y4387596D01*
X2623464Y4392117D01*
X2626766Y4394555D01*
X2630779Y4395419D01*
X2638653Y4396181D01*
X2644597Y4397705D01*
X2648102Y4399076D01*
X2653538Y4401921D01*
X2658414Y4405426D01*
X2663901Y4410659D01*
X2667152Y4412691D01*
X2670911Y4413453D01*
X2692044Y4413453D01*
X2696108Y4412589D01*
X2699512Y4410202D01*
X2702102Y4405274D01*
X2705201Y4400397D01*
X2709265Y4396282D01*
X2714193Y4393234D01*
X2720238Y4391101D01*
X2723794Y4388967D01*
X2726232Y4385564D01*
X2727045Y4381500D01*
X2726232Y4377436D01*
X2723794Y4374032D01*
X2720238Y4371898D01*
X2714193Y4369765D01*
X2709265Y4366717D01*
X2705201Y4362602D01*
X2702102Y4357725D01*
X2700223Y4352239D01*
X2699512Y4345940D01*
X2699512Y4332681D01*
X2740660Y4332681D01*
X2740660Y4380433D01*
X2741422Y4384344D01*
X2743606Y4387596D01*
X2746908Y4389831D01*
X2750820Y4390593D01*
X2786380Y4390593D01*
X2790291Y4389831D01*
X2793593Y4387596D01*
X2795778Y4384344D01*
X2796540Y4380433D01*
X2796540Y4332681D01*
X2837688Y4332681D01*
X2837688Y4345940D01*
X2836976Y4352239D01*
X2835097Y4357725D01*
X2831998Y4362602D01*
X2827934Y4366717D01*
X2823006Y4369765D01*
X2816961Y4371898D01*
X2813405Y4374032D01*
X2810967Y4377436D01*
X2810154Y4381500D01*
X2810967Y4385564D01*
X2813405Y4388967D01*
X2816961Y4391101D01*
X2823006Y4393234D01*
X2827934Y4396282D01*
X2832049Y4399330D01*
X2835910Y4400092D01*
X2839821Y4399330D01*
X2843123Y4397095D01*
X2881680Y4358589D01*
X2888386Y4353560D01*
X2895650Y4349953D01*
X2901137Y4348226D01*
X2906623Y4347464D01*
X2910078Y4346346D01*
X2912872Y4344060D01*
X2914751Y4340961D01*
X2915412Y4337405D01*
X2915412Y4292803D01*
X2914751Y4289247D01*
X2912872Y4286148D01*
X2910078Y4283862D01*
X2906623Y4282744D01*
X2901238Y4281982D01*
X2893669Y4279442D01*
X2886659Y4275531D01*
X2880156Y4270146D01*
X2848864Y4238853D01*
X2845358Y4236567D01*
X2841701Y4235958D01*
X2841091Y4232300D01*
X2838805Y4228795D01*
X2790088Y4180078D01*
X2786786Y4177893D01*
X2782925Y4177131D01*
G37*

%LPC*%
G36*
X2581554Y4232910D02*
G01*
X2597150Y4232910D01*
X2603449Y4233621D01*
X2608935Y4235500D01*
X2613812Y4238599D01*
X2617927Y4242714D01*
X2620975Y4247591D01*
X2622905Y4253077D01*
X2623616Y4259376D01*
X2623616Y4272483D01*
X2581554Y4272483D01*
G37*
G36*
X2725978Y4239920D02*
G01*
X2740660Y4239920D01*
X2740660Y4279646D01*
X2699512Y4279646D01*
X2699512Y4266438D01*
X2700223Y4260088D01*
X2702102Y4254652D01*
X2705201Y4249724D01*
X2709265Y4245660D01*
X2714193Y4242562D01*
X2719628Y4240631D01*
G37*
G36*
X2796540Y4239920D02*
G01*
X2811221Y4239920D01*
X2817571Y4240631D01*
X2823006Y4242562D01*
X2826207Y4244594D01*
X2830169Y4246016D01*
X2831744Y4245914D01*
X2831642Y4247489D01*
X2833065Y4251452D01*
X2835097Y4254652D01*
X2836976Y4260088D01*
X2837688Y4266438D01*
X2837688Y4279646D01*
X2796540Y4279646D01*
G37*

%LPD*%
G36*
X2608478Y3784803D02*
G01*
X2604058Y3785412D01*
X2600350Y3787800D01*
X2598013Y3791559D01*
X2596896Y3796487D01*
X2598115Y3801770D01*
X2598826Y3808171D01*
X2587701Y3808171D01*
X2584348Y3808729D01*
X2578709Y3810711D01*
X2572359Y3811422D01*
X2513076Y3811422D01*
X2509164Y3812184D01*
X2505862Y3814368D01*
X2503678Y3817670D01*
X2502916Y3821582D01*
X2502916Y3824681D01*
X2503678Y3828592D01*
X2505862Y3831894D01*
X2509164Y3834079D01*
X2513076Y3834841D01*
X2515971Y3834841D01*
X2515971Y3861409D01*
X2513076Y3861409D01*
X2509164Y3862171D01*
X2505862Y3864406D01*
X2503678Y3867658D01*
X2502916Y3871569D01*
X2502916Y3878986D01*
X2503678Y3882847D01*
X2505862Y3886149D01*
X2509164Y3888333D01*
X2513076Y3889146D01*
X2625547Y3889146D01*
X2629357Y3888384D01*
X2632557Y3886301D01*
X2634792Y3883151D01*
X2635707Y3879443D01*
X2634894Y3874922D01*
X2634183Y3868623D01*
X2634183Y3855516D01*
X2676245Y3855516D01*
X2676245Y3878986D01*
X2677007Y3882847D01*
X2679242Y3886149D01*
X2682544Y3888333D01*
X2686405Y3889146D01*
X2723794Y3889146D01*
X2727655Y3888333D01*
X2730957Y3886149D01*
X2733192Y3882847D01*
X2733954Y3878986D01*
X2733954Y3855516D01*
X2776016Y3855516D01*
X2776016Y3868623D01*
X2774492Y3879443D01*
X2775407Y3883151D01*
X2777642Y3886301D01*
X2780842Y3888384D01*
X2784652Y3889146D01*
X2927299Y3889146D01*
X2931464Y3888232D01*
X2941980Y3880053D01*
X2950006Y3875735D01*
X2958693Y3872941D01*
X2967736Y3871722D01*
X2976829Y3872128D01*
X2985719Y3874160D01*
X2994152Y3877716D01*
X3001721Y3882745D01*
X3008325Y3889044D01*
X3013710Y3896410D01*
X3017621Y3904640D01*
X3020060Y3913428D01*
X3020872Y3922522D01*
X3020568Y3925824D01*
X3021076Y3929989D01*
X3023209Y3933596D01*
X3026613Y3936034D01*
X3030728Y3936898D01*
X4346397Y3936898D01*
X4349750Y3936339D01*
X4352747Y3934714D01*
X4358132Y3930345D01*
X4366158Y3926027D01*
X4374845Y3923233D01*
X4383887Y3922014D01*
X4392980Y3922420D01*
X4401870Y3924452D01*
X4410303Y3928008D01*
X4417872Y3933037D01*
X4424476Y3939336D01*
X4429861Y3946702D01*
X4433773Y3954932D01*
X4436211Y3963720D01*
X4437024Y3972814D01*
X4436211Y3981907D01*
X4433773Y3990695D01*
X4429861Y3998925D01*
X4424476Y4006291D01*
X4417872Y4012590D01*
X4410303Y4017619D01*
X4401870Y4021175D01*
X4392980Y4023207D01*
X4389475Y4023360D01*
X4385716Y4024274D01*
X4383836Y4025595D01*
X4382516Y4024325D01*
X4378553Y4022902D01*
X4374845Y4022394D01*
X4366158Y4019600D01*
X4358132Y4015282D01*
X4352747Y4010964D01*
X4349750Y4009288D01*
X4346397Y4008729D01*
X2963875Y4008729D01*
X2960217Y4009390D01*
X2957017Y4011371D01*
X2954782Y4014368D01*
X2953766Y4017975D01*
X2953512Y4020667D01*
X2951073Y4029456D01*
X2948330Y4035196D01*
X2947365Y4039158D01*
X2947974Y4043172D01*
X2950159Y4046626D01*
X2953512Y4048963D01*
X2957474Y4049776D01*
X2984246Y4049776D01*
X2988513Y4049979D01*
X2992475Y4050537D01*
X2996387Y4051452D01*
X3000197Y4052722D01*
X3003854Y4054348D01*
X3007360Y4056278D01*
X3010662Y4058564D01*
X3013760Y4061104D01*
X3016554Y4063949D01*
X3019145Y4067048D01*
X3021380Y4070350D01*
X3023362Y4073855D01*
X3024987Y4077512D01*
X3026257Y4081322D01*
X3027172Y4085234D01*
X3027781Y4092041D01*
X3028696Y4096004D01*
X3031083Y4099255D01*
X3034588Y4101337D01*
X3038906Y4102862D01*
X3043834Y4105960D01*
X3047898Y4110024D01*
X3050997Y4114952D01*
X3052876Y4120387D01*
X3053588Y4126737D01*
X3053588Y4186224D01*
X3054400Y4190085D01*
X3056585Y4193387D01*
X3059887Y4195572D01*
X3063748Y4196384D01*
X3939489Y4196384D01*
X3944010Y4195318D01*
X3948836Y4192930D01*
X3956507Y4190695D01*
X3964940Y4189933D01*
X4347667Y4189933D01*
X4351883Y4189018D01*
X4355338Y4186478D01*
X4357420Y4182719D01*
X4357776Y4178401D01*
X4356303Y4174388D01*
X4354728Y4171848D01*
X4352798Y4166412D01*
X4352086Y4160062D01*
X4351934Y4151020D01*
X4351020Y4146245D01*
X4351020Y4138218D01*
X4352086Y4131564D01*
X4352086Y4124350D01*
X4353001Y4115765D01*
X4352950Y4112666D01*
X4352086Y4105249D01*
X4352086Y4102963D01*
X4360011Y4102963D01*
X4362805Y4102557D01*
X4366768Y4100525D01*
X4372254Y4098594D01*
X4378553Y4097883D01*
X4409795Y4097883D01*
X4418533Y4098848D01*
X4484166Y4098848D01*
X4492904Y4097883D01*
X4524146Y4097883D01*
X4530445Y4098594D01*
X4535932Y4100525D01*
X4539894Y4102557D01*
X4542688Y4102963D01*
X4560773Y4102963D01*
X4564634Y4102150D01*
X4567936Y4099966D01*
X4570171Y4096664D01*
X4570933Y4092803D01*
X4570933Y4081983D01*
X4570171Y4078071D01*
X4567936Y4074769D01*
X4564634Y4072585D01*
X4560773Y4071823D01*
X4522927Y4071823D01*
X4522927Y4043070D01*
X4530445Y4043781D01*
X4535932Y4045661D01*
X4538167Y4047083D01*
X4538929Y4052570D01*
X4541164Y4055872D01*
X4544466Y4058056D01*
X4548327Y4058869D01*
X4608068Y4058869D01*
X4608068Y4113428D01*
X4584954Y4113428D01*
X4578654Y4112717D01*
X4573168Y4110786D01*
X4568088Y4107586D01*
X4566716Y4106316D01*
X4563414Y4104284D01*
X4559554Y4103674D01*
X4555794Y4104538D01*
X4552594Y4106722D01*
X4550460Y4110024D01*
X4549698Y4113834D01*
X4549749Y4116933D01*
X4550613Y4124350D01*
X4550613Y4131005D01*
X4551730Y4140352D01*
X4552950Y4144264D01*
X4555642Y4147413D01*
X4559300Y4149191D01*
X4563414Y4149394D01*
X4567275Y4147972D01*
X4573219Y4144213D01*
X4578654Y4142282D01*
X4584954Y4141571D01*
X4703826Y4141571D01*
X4710176Y4142282D01*
X4715611Y4144213D01*
X4719015Y4146346D01*
X4722520Y4147718D01*
X4726279Y4147718D01*
X4729784Y4146346D01*
X4733188Y4144213D01*
X4738624Y4142282D01*
X4744974Y4141571D01*
X4863846Y4141571D01*
X4870145Y4142282D01*
X4875631Y4144213D01*
X4880508Y4147312D01*
X4884623Y4151376D01*
X4887671Y4156303D01*
X4889601Y4161739D01*
X4890312Y4168089D01*
X4890312Y4183938D01*
X4891074Y4187850D01*
X4893259Y4191101D01*
X4896561Y4193336D01*
X4900472Y4194098D01*
X5192877Y4194098D01*
X5196789Y4193336D01*
X5200091Y4191101D01*
X5356098Y4035094D01*
X5358333Y4031792D01*
X5359095Y4027881D01*
X5358333Y4024020D01*
X5356098Y4020718D01*
X5352796Y4018534D01*
X5348935Y4017721D01*
X4941925Y4017721D01*
X4937607Y4018686D01*
X4934153Y4021378D01*
X4930749Y4025341D01*
X4913630Y4042511D01*
X4907280Y4047642D01*
X4902555Y4050182D01*
X4897323Y4051909D01*
X4893665Y4054043D01*
X4891176Y4057446D01*
X4890312Y4061561D01*
X4890312Y4086910D01*
X4889601Y4093260D01*
X4887671Y4098696D01*
X4884623Y4103624D01*
X4880508Y4107687D01*
X4875631Y4110786D01*
X4870145Y4112717D01*
X4863846Y4113428D01*
X4744974Y4113428D01*
X4738624Y4112717D01*
X4733188Y4110786D01*
X4729784Y4108653D01*
X4726279Y4107281D01*
X4722520Y4107281D01*
X4719015Y4108653D01*
X4715611Y4110786D01*
X4710176Y4112717D01*
X4703826Y4113428D01*
X4680762Y4113428D01*
X4680762Y4058869D01*
X4708347Y4058869D01*
X4712208Y4058056D01*
X4715510Y4055872D01*
X4717694Y4052570D01*
X4718507Y4048709D01*
X4718507Y3986326D01*
X4717694Y3982415D01*
X4715510Y3979113D01*
X4712208Y3976928D01*
X4708347Y3976166D01*
X4680762Y3976166D01*
X4680762Y3921607D01*
X4703826Y3921607D01*
X4710176Y3922318D01*
X4715611Y3924198D01*
X4719015Y3926332D01*
X4722520Y3927703D01*
X4726279Y3927703D01*
X4729784Y3926332D01*
X4733188Y3924198D01*
X4738624Y3922318D01*
X4744974Y3921607D01*
X4770120Y3921607D01*
X4774031Y3920794D01*
X4777333Y3918610D01*
X4779518Y3915308D01*
X4780280Y3911447D01*
X4779518Y3907536D01*
X4777333Y3904234D01*
X4666640Y3793540D01*
X4663338Y3791356D01*
X4659426Y3790594D01*
X2786176Y3790594D01*
X2782265Y3791356D01*
X2778963Y3793540D01*
X2776778Y3796842D01*
X2776016Y3800754D01*
X2776016Y3802837D01*
X2733954Y3802837D01*
X2733954Y3800754D01*
X2733192Y3796842D01*
X2730957Y3793540D01*
X2727655Y3791356D01*
X2723794Y3790594D01*
X2686405Y3790594D01*
X2682544Y3791356D01*
X2679242Y3793540D01*
X2677007Y3796842D01*
X2676245Y3800754D01*
X2676245Y3802837D01*
X2634183Y3802837D01*
X2634183Y3800144D01*
X2633522Y3796537D01*
X2631592Y3793388D01*
X2628646Y3791102D01*
X2625090Y3790086D01*
X2622092Y3789730D01*
X2614980Y3787444D01*
X2612694Y3786124D01*
G37*

%LPC*%
G36*
X2562402Y3834841D02*
G01*
X2598826Y3834841D01*
X2598115Y3841242D01*
X2596235Y3846728D01*
X2593136Y3851605D01*
X2589072Y3855720D01*
X2584145Y3858768D01*
X2578709Y3860698D01*
X2572359Y3861409D01*
X2562402Y3861409D01*
G37*
G36*
X4584954Y3921607D02*
G01*
X4608068Y3921607D01*
X4608068Y3976166D01*
X4558487Y3976166D01*
X4558487Y3948074D01*
X4559198Y3941775D01*
X4561128Y3936288D01*
X4564176Y3931412D01*
X4568291Y3927297D01*
X4573168Y3924198D01*
X4578654Y3922318D01*
G37*
G36*
X4379772Y4042613D02*
G01*
X4379772Y4071823D01*
X4352086Y4071823D01*
X4352086Y4069537D01*
X4352798Y4063187D01*
X4354728Y4057751D01*
X4357776Y4052824D01*
X4361891Y4048760D01*
X4366768Y4045661D01*
X4372254Y4043781D01*
X4378350Y4043070D01*
G37*
G36*
X4494072Y4043070D02*
G01*
X4494072Y4071823D01*
X4466386Y4071823D01*
X4466386Y4069537D01*
X4467098Y4063187D01*
X4469028Y4057751D01*
X4472076Y4052824D01*
X4476191Y4048760D01*
X4481068Y4045661D01*
X4486554Y4043781D01*
G37*
G36*
X4408627Y4043070D02*
G01*
X4416145Y4043781D01*
X4421632Y4045661D01*
X4426508Y4048760D01*
X4430623Y4052824D01*
X4433671Y4057751D01*
X4435602Y4063187D01*
X4436313Y4069537D01*
X4436313Y4071823D01*
X4408627Y4071823D01*
G37*

%LPD*%
G36*
X2459786Y3617976D02*
G01*
X2456688Y3618433D01*
X2453894Y3619855D01*
X2451658Y3622040D01*
X2416556Y3622040D01*
X2412695Y3622801D01*
X2409393Y3624986D01*
X2407208Y3628288D01*
X2406446Y3632200D01*
X2406446Y3644798D01*
X2405634Y3653231D01*
X2403297Y3661511D01*
X2402890Y3664254D01*
X2402840Y3679037D01*
X2402179Y3684778D01*
X2400198Y3690416D01*
X2399639Y3693769D01*
X2399538Y3704894D01*
X2393238Y3704183D01*
X2388311Y3702964D01*
X2385263Y3703320D01*
X2380945Y3704539D01*
X2377287Y3706418D01*
X2374646Y3709619D01*
X2373528Y3713632D01*
X2374087Y3717747D01*
X2376271Y3721303D01*
X2379675Y3723640D01*
X2385466Y3726129D01*
X2393086Y3731158D01*
X2395118Y3733139D01*
X2397760Y3734968D01*
X2407970Y3738168D01*
X2414574Y3741978D01*
X2419045Y3745839D01*
X2437993Y3764787D01*
X2443073Y3771036D01*
X2446477Y3777742D01*
X2447239Y3780536D01*
X2449271Y3784447D01*
X2452725Y3787140D01*
X2457043Y3788105D01*
X2469388Y3788105D01*
X2473248Y3787292D01*
X2476550Y3785108D01*
X2478735Y3781806D01*
X2479548Y3777945D01*
X2479548Y3758082D01*
X2480259Y3751732D01*
X2481478Y3746500D01*
X2480259Y3741267D01*
X2479548Y3734917D01*
X2479548Y3715054D01*
X2478684Y3711041D01*
X2476347Y3707688D01*
X2476347Y3665728D01*
X2478481Y3662832D01*
X2479497Y3659327D01*
X2480259Y3651707D01*
X2482138Y3646271D01*
X2485237Y3641394D01*
X2487269Y3639362D01*
X2489454Y3636060D01*
X2490216Y3632200D01*
X2489454Y3628288D01*
X2487269Y3624986D01*
X2483967Y3622801D01*
X2480056Y3622040D01*
X2474315Y3622040D01*
X2472080Y3619855D01*
X2469286Y3618433D01*
X2466187Y3617976D01*
G37*

%LPC*%
G36*
X2426360Y3668471D02*
G01*
X2449626Y3668471D01*
X2449626Y3704894D01*
X2443226Y3704183D01*
X2437993Y3702964D01*
X2432761Y3704183D01*
X2426360Y3704894D01*
G37*

%LPD*%
G36*
X5378450Y3450945D02*
G01*
X5374538Y3451707D01*
X5371236Y3453942D01*
X5206542Y3618636D01*
X5204307Y3621938D01*
X5203545Y3625850D01*
X5203545Y3650183D01*
X5201259Y3650183D01*
X5197348Y3650945D01*
X5194096Y3653129D01*
X5191861Y3656431D01*
X5191099Y3660343D01*
X5191099Y3692702D01*
X5191861Y3696614D01*
X5194096Y3699916D01*
X5197348Y3702100D01*
X5201259Y3702862D01*
X5203545Y3702862D01*
X5203545Y3722065D01*
X5204307Y3725926D01*
X5206542Y3729228D01*
X5224881Y3747617D01*
X5228183Y3749801D01*
X5232095Y3750614D01*
X5251094Y3750614D01*
X5254955Y3749801D01*
X5258257Y3747617D01*
X5260492Y3744315D01*
X5261254Y3740454D01*
X5261254Y3702862D01*
X5303316Y3702862D01*
X5303316Y3715969D01*
X5302605Y3722268D01*
X5300675Y3727754D01*
X5297627Y3732631D01*
X5293512Y3736746D01*
X5291632Y3737914D01*
X5288686Y3740708D01*
X5287060Y3744468D01*
X5287060Y3748532D01*
X5288686Y3752291D01*
X5291632Y3755136D01*
X5293512Y3756304D01*
X5297627Y3760368D01*
X5300675Y3765296D01*
X5303012Y3769664D01*
X5306110Y3772052D01*
X5309870Y3773068D01*
X5314086Y3773424D01*
X5318201Y3772865D01*
X5321757Y3770731D01*
X5324144Y3767328D01*
X5325008Y3763264D01*
X5325008Y3560978D01*
X5325973Y3560013D01*
X5416397Y3560013D01*
X5418429Y3559810D01*
X5422544Y3558438D01*
X5425694Y3555492D01*
X5427319Y3551478D01*
X5427167Y3547211D01*
X5421782Y3537559D01*
X5419953Y3531870D01*
X5418074Y3528517D01*
X5415076Y3526078D01*
X5411419Y3524910D01*
X5408777Y3524605D01*
X5403291Y3522675D01*
X5398414Y3519627D01*
X5394299Y3515512D01*
X5391200Y3510635D01*
X5389321Y3505149D01*
X5388610Y3498850D01*
X5388610Y3461105D01*
X5387848Y3457194D01*
X5385612Y3453942D01*
X5382310Y3451707D01*
G37*

%LPC*%
G36*
X5261254Y3610610D02*
G01*
X5276850Y3610610D01*
X5283149Y3611321D01*
X5288635Y3613251D01*
X5293512Y3616299D01*
X5297627Y3620414D01*
X5300675Y3625291D01*
X5302605Y3630777D01*
X5303316Y3637076D01*
X5303316Y3650183D01*
X5261254Y3650183D01*
G37*

%LPD*%
G36*
X-2655214Y3294887D02*
G01*
X-2659380Y3295751D01*
X-2662783Y3298240D01*
X-2664917Y3301949D01*
X-2665171Y3307283D01*
X-2665171Y3456178D01*
X-2665882Y3462477D01*
X-2667812Y3467963D01*
X-2670911Y3472840D01*
X-2674772Y3476751D01*
X-2677007Y3480003D01*
X-2677769Y3483914D01*
X-2677007Y3487826D01*
X-2674772Y3491077D01*
X-2671470Y3493312D01*
X-2667609Y3494074D01*
X-2665577Y3494074D01*
X-2659227Y3494786D01*
X-2653792Y3496716D01*
X-2648864Y3499764D01*
X-2644800Y3503879D01*
X-2641701Y3508756D01*
X-2639822Y3514242D01*
X-2639060Y3520541D01*
X-2639060Y3619398D01*
X-2639822Y3625748D01*
X-2641701Y3631184D01*
X-2644800Y3636111D01*
X-2648864Y3640175D01*
X-2653792Y3643274D01*
X-2659227Y3645154D01*
X-2665577Y3645865D01*
X-2784398Y3645865D01*
X-2790748Y3645154D01*
X-2796184Y3643274D01*
X-2801112Y3640175D01*
X-2805176Y3636111D01*
X-2808274Y3631184D01*
X-2810205Y3625748D01*
X-2810916Y3619398D01*
X-2810916Y3608730D01*
X-2811678Y3604869D01*
X-2813862Y3601567D01*
X-2817164Y3599332D01*
X-2821076Y3598570D01*
X-3044952Y3598570D01*
X-3048812Y3599332D01*
X-3052114Y3601567D01*
X-3054299Y3604869D01*
X-3055112Y3608730D01*
X-3055112Y3671062D01*
X-3055823Y3677412D01*
X-3057702Y3682847D01*
X-3060801Y3687775D01*
X-3064865Y3691839D01*
X-3069793Y3694937D01*
X-3075228Y3696868D01*
X-3081578Y3697579D01*
X-3166821Y3697579D01*
X-3173171Y3696868D01*
X-3178606Y3694937D01*
X-3183534Y3691839D01*
X-3187598Y3687775D01*
X-3190697Y3682847D01*
X-3192576Y3677412D01*
X-3192932Y3674414D01*
X-3194100Y3670757D01*
X-3196539Y3667760D01*
X-3199892Y3665880D01*
X-3205429Y3664102D01*
X-3212033Y3660292D01*
X-3216503Y3656431D01*
X-3249879Y3623056D01*
X-3253181Y3620871D01*
X-3257092Y3620109D01*
X-3379063Y3620109D01*
X-3382924Y3620871D01*
X-3386226Y3623056D01*
X-3388410Y3626358D01*
X-3389223Y3630269D01*
X-3389223Y3640124D01*
X-3388309Y3644239D01*
X-3385820Y3647694D01*
X-3382162Y3649776D01*
X-3377082Y3651453D01*
X-3370478Y3655263D01*
X-3366008Y3659073D01*
X-3359912Y3665169D01*
X-3354882Y3671417D01*
X-3351479Y3678072D01*
X-3349498Y3685438D01*
X-3349040Y3691331D01*
X-3349040Y3731412D01*
X-3348228Y3735273D01*
X-3346043Y3738575D01*
X-3342741Y3740759D01*
X-3338880Y3741572D01*
X-1769872Y3741572D01*
X-1761896Y3742385D01*
X-1754733Y3744722D01*
X-1748129Y3748532D01*
X-1743659Y3752342D01*
X-1725523Y3770477D01*
X-1722221Y3772662D01*
X-1718360Y3773474D01*
X-1682343Y3773474D01*
X-1678482Y3772662D01*
X-1675180Y3770477D01*
X-1672996Y3767175D01*
X-1672183Y3763314D01*
X-1672996Y3759403D01*
X-1678279Y3751173D01*
X-1680210Y3745737D01*
X-1680921Y3739387D01*
X-1680921Y3660546D01*
X-1680210Y3654247D01*
X-1678279Y3648760D01*
X-1675180Y3643884D01*
X-1671116Y3639769D01*
X-1669237Y3638600D01*
X-1666290Y3635756D01*
X-1664665Y3632047D01*
X-1664665Y3627932D01*
X-1666290Y3624224D01*
X-1669237Y3621379D01*
X-1671116Y3620211D01*
X-1675180Y3616096D01*
X-1678279Y3611219D01*
X-1680210Y3605733D01*
X-1680921Y3599434D01*
X-1680921Y3586327D01*
X-1638858Y3586327D01*
X-1638858Y3623919D01*
X-1638096Y3627780D01*
X-1635861Y3631082D01*
X-1632559Y3633317D01*
X-1628698Y3634079D01*
X-1591310Y3634079D01*
X-1587398Y3633317D01*
X-1584147Y3631082D01*
X-1581912Y3627780D01*
X-1581150Y3623919D01*
X-1581150Y3586327D01*
X-1539087Y3586327D01*
X-1539087Y3599434D01*
X-1539798Y3605733D01*
X-1541729Y3611219D01*
X-1544777Y3616096D01*
X-1548892Y3620211D01*
X-1550771Y3621379D01*
X-1553718Y3624224D01*
X-1555292Y3627932D01*
X-1555292Y3632047D01*
X-1553718Y3635756D01*
X-1550771Y3638600D01*
X-1544370Y3643172D01*
X-1540510Y3643934D01*
X-1536598Y3643172D01*
X-1533296Y3640988D01*
X-1532026Y3639667D01*
X-1525778Y3634638D01*
X-1519072Y3631234D01*
X-1511706Y3629253D01*
X-1505864Y3628796D01*
X-1464056Y3628796D01*
X-1460195Y3627983D01*
X-1456893Y3625799D01*
X-1454658Y3622497D01*
X-1453896Y3618636D01*
X-1454658Y3614724D01*
X-1456893Y3611422D01*
X-1531670Y3536645D01*
X-1534972Y3534410D01*
X-1538884Y3533648D01*
X-1581150Y3533648D01*
X-1581150Y3492195D01*
X-1581912Y3488283D01*
X-1584147Y3484981D01*
X-1587398Y3482797D01*
X-1591310Y3482035D01*
X-1619758Y3482035D01*
X-1623974Y3481832D01*
X-1627276Y3481374D01*
X-1631594Y3481679D01*
X-1635353Y3483762D01*
X-1637944Y3487216D01*
X-1638858Y3491433D01*
X-1638858Y3533648D01*
X-1680921Y3533648D01*
X-1680921Y3520592D01*
X-1680210Y3514242D01*
X-1678279Y3508806D01*
X-1675180Y3503879D01*
X-1671116Y3499815D01*
X-1666189Y3496716D01*
X-1660753Y3494786D01*
X-1654403Y3494074D01*
X-1648510Y3494074D01*
X-1644345Y3493211D01*
X-1640890Y3490671D01*
X-1638807Y3486962D01*
X-1638401Y3482695D01*
X-1639824Y3478631D01*
X-1642770Y3475532D01*
X-1646123Y3473246D01*
X-1649222Y3470656D01*
X-1652066Y3467862D01*
X-1654606Y3464763D01*
X-1656892Y3461461D01*
X-1658823Y3457956D01*
X-1660448Y3454298D01*
X-1661718Y3450488D01*
X-1662633Y3446576D01*
X-1663242Y3439769D01*
X-1664207Y3435807D01*
X-1666595Y3432505D01*
X-1670050Y3430422D01*
X-1674418Y3428949D01*
X-1679295Y3425850D01*
X-1683410Y3421735D01*
X-1686458Y3416858D01*
X-1688388Y3411372D01*
X-1689100Y3405073D01*
X-1689100Y3345027D01*
X-1689760Y3341471D01*
X-1691589Y3338372D01*
X-1694434Y3336086D01*
X-1697837Y3334969D01*
X-1703222Y3334258D01*
X-1710791Y3331667D01*
X-1717802Y3327806D01*
X-1724304Y3322370D01*
X-1748840Y3297834D01*
X-1752142Y3295650D01*
X-1756054Y3294887D01*
G37*

%LPD*%
G36*
X6604863Y3244037D02*
G01*
X6601002Y3244799D01*
X6597700Y3246983D01*
X6536283Y3308350D01*
X6534302Y3311245D01*
X6530848Y3324047D01*
X6526733Y3332835D01*
X6521145Y3340811D01*
X6514236Y3347720D01*
X6506260Y3353308D01*
X6497472Y3357422D01*
X6484670Y3360877D01*
X6481775Y3362858D01*
X6453479Y3391154D01*
X6446774Y3396183D01*
X6439611Y3399739D01*
X6431940Y3401923D01*
X6423507Y3402736D01*
X5670550Y3402736D01*
X5666689Y3403498D01*
X5663387Y3405682D01*
X5661152Y3408984D01*
X5660390Y3412896D01*
X5660390Y3425545D01*
X5620816Y3425545D01*
X5620816Y3412896D01*
X5620054Y3408984D01*
X5617870Y3405682D01*
X5614568Y3403498D01*
X5610656Y3402736D01*
X5578297Y3402736D01*
X5574385Y3403498D01*
X5571134Y3405682D01*
X5568899Y3408984D01*
X5568137Y3412896D01*
X5568137Y3425545D01*
X5530596Y3425545D01*
X5526684Y3426358D01*
X5523382Y3428542D01*
X5521198Y3431844D01*
X5520436Y3435705D01*
X5520436Y3473094D01*
X5521198Y3477006D01*
X5523382Y3480308D01*
X5526684Y3482492D01*
X5530596Y3483254D01*
X5568137Y3483254D01*
X5568137Y3525316D01*
X5555081Y3525316D01*
X5548731Y3524605D01*
X5543296Y3522675D01*
X5538368Y3519627D01*
X5534304Y3515512D01*
X5533085Y3513632D01*
X5530291Y3510686D01*
X5526532Y3509111D01*
X5522468Y3509111D01*
X5518708Y3510686D01*
X5515914Y3513632D01*
X5511292Y3519932D01*
X5510428Y3523538D01*
X5510885Y3527196D01*
X5512663Y3530447D01*
X5516880Y3535629D01*
X5520283Y3542334D01*
X5523331Y3553561D01*
X5525770Y3556660D01*
X5531713Y3559657D01*
X5534355Y3560013D01*
X5539232Y3560013D01*
X5543397Y3559098D01*
X5548731Y3559098D01*
X5557164Y3560013D01*
X5567578Y3559911D01*
X5574893Y3559098D01*
X5598718Y3559098D01*
X5607202Y3560013D01*
X5692292Y3560013D01*
X5696153Y3559200D01*
X5699455Y3557015D01*
X5724296Y3532174D01*
X5725007Y3532479D01*
X5725007Y3605276D01*
X5725769Y3609136D01*
X5727954Y3612438D01*
X5731256Y3614623D01*
X5735167Y3615436D01*
X5824880Y3615436D01*
X5829706Y3615080D01*
X5833465Y3614064D01*
X5836564Y3611676D01*
X5839002Y3606952D01*
X5842101Y3602075D01*
X5846165Y3597960D01*
X5851093Y3594862D01*
X5856528Y3592982D01*
X5862878Y3592271D01*
X5948121Y3592271D01*
X5954471Y3592982D01*
X5959906Y3594862D01*
X5964834Y3597960D01*
X5968949Y3600958D01*
X5972810Y3601770D01*
X5976721Y3600958D01*
X5980023Y3598773D01*
X6004712Y3574084D01*
X6011418Y3569055D01*
X6018580Y3565499D01*
X6026251Y3563315D01*
X6034684Y3562553D01*
X6515557Y3562553D01*
X6518605Y3562045D01*
X6521348Y3560673D01*
X6525869Y3557574D01*
X6534657Y3553460D01*
X6544106Y3550920D01*
X6553809Y3550056D01*
X6563461Y3550920D01*
X6572910Y3553460D01*
X6581698Y3557574D01*
X6593484Y3565804D01*
X6597345Y3566566D01*
X6633006Y3566566D01*
X6641439Y3567379D01*
X6649110Y3569563D01*
X6655358Y3572662D01*
X6659981Y3573627D01*
X6662064Y3577234D01*
X6667855Y3583432D01*
X6672275Y3590645D01*
X6673900Y3594862D01*
X6676034Y3598214D01*
X6679336Y3600500D01*
X6683248Y3601364D01*
X6687159Y3600602D01*
X6690512Y3598418D01*
X6692747Y3595115D01*
X6693560Y3591204D01*
X6693611Y3585616D01*
X6699961Y3586327D01*
X6705193Y3587546D01*
X6710425Y3586327D01*
X6716826Y3585616D01*
X6716826Y3622040D01*
X6690918Y3622040D01*
X6687616Y3619601D01*
X6683603Y3618636D01*
X6679539Y3619398D01*
X6676136Y3621684D01*
X6673900Y3625138D01*
X6670497Y3632962D01*
X6670090Y3635756D01*
X6670090Y3672433D01*
X6671056Y3676751D01*
X6673799Y3680256D01*
X6677761Y3682237D01*
X6682181Y3682390D01*
X6686245Y3680612D01*
X6689394Y3678326D01*
X6691630Y3676091D01*
X6693052Y3673246D01*
X6693560Y3668471D01*
X6719519Y3668471D01*
X6721906Y3670350D01*
X6724751Y3671468D01*
X6731101Y3672941D01*
X6734860Y3673094D01*
X6738416Y3671874D01*
X6741261Y3669436D01*
X6743039Y3666134D01*
X6745528Y3663086D01*
X6746697Y3659327D01*
X6747459Y3651707D01*
X6749338Y3646271D01*
X6752437Y3641394D01*
X6754469Y3639362D01*
X6756653Y3636060D01*
X6757416Y3632200D01*
X6756653Y3628288D01*
X6754469Y3624986D01*
X6751167Y3622801D01*
X6747256Y3622040D01*
X6743547Y3622040D01*
X6743547Y3585616D01*
X6749948Y3586327D01*
X6755384Y3588207D01*
X6760311Y3591306D01*
X6764375Y3595370D01*
X6767474Y3600297D01*
X6769404Y3605733D01*
X6770116Y3612083D01*
X6770116Y3621430D01*
X6770878Y3625342D01*
X6773062Y3628593D01*
X6776364Y3630828D01*
X6780275Y3631590D01*
X6787438Y3631590D01*
X6790232Y3631184D01*
X6798411Y3628847D01*
X6806844Y3628085D01*
X6810959Y3628085D01*
X6814820Y3627323D01*
X6818122Y3625087D01*
X6820306Y3621836D01*
X6821119Y3617925D01*
X6821119Y3570732D01*
X6820255Y3566668D01*
X6817868Y3563264D01*
X6813296Y3560775D01*
X6808368Y3557727D01*
X6804304Y3553612D01*
X6803085Y3551732D01*
X6800291Y3548786D01*
X6796531Y3547160D01*
X6792468Y3547160D01*
X6788708Y3548786D01*
X6785914Y3551732D01*
X6784695Y3553612D01*
X6780631Y3557727D01*
X6775703Y3560775D01*
X6770268Y3562705D01*
X6763918Y3563416D01*
X6750862Y3563416D01*
X6750862Y3521354D01*
X6788403Y3521354D01*
X6792315Y3520592D01*
X6795617Y3518357D01*
X6797802Y3515055D01*
X6798564Y3511194D01*
X6798564Y3473805D01*
X6797802Y3469944D01*
X6795617Y3466642D01*
X6792315Y3464407D01*
X6788403Y3463645D01*
X6750862Y3463645D01*
X6750862Y3421583D01*
X6763918Y3421583D01*
X6770268Y3422294D01*
X6775703Y3424224D01*
X6780631Y3427272D01*
X6784695Y3431387D01*
X6785914Y3433267D01*
X6788708Y3436213D01*
X6792468Y3437839D01*
X6796531Y3437839D01*
X6800291Y3436213D01*
X6803085Y3433267D01*
X6804304Y3431387D01*
X6808368Y3427272D01*
X6813296Y3424224D01*
X6817817Y3421735D01*
X6820204Y3418433D01*
X6821119Y3414420D01*
X6821119Y3412845D01*
X6822287Y3404615D01*
X6824878Y3396894D01*
X6827570Y3391814D01*
X6831736Y3386277D01*
X6833260Y3383381D01*
X6833819Y3380130D01*
X6833819Y3367532D01*
X6832955Y3363468D01*
X6830568Y3360064D01*
X6825996Y3357575D01*
X6821068Y3354527D01*
X6817004Y3350412D01*
X6815785Y3348532D01*
X6812991Y3345586D01*
X6809231Y3343960D01*
X6805168Y3343960D01*
X6801408Y3345586D01*
X6798614Y3348532D01*
X6797395Y3350412D01*
X6793331Y3354527D01*
X6788403Y3357575D01*
X6782968Y3359505D01*
X6776618Y3360216D01*
X6763562Y3360216D01*
X6763562Y3318154D01*
X6801103Y3318154D01*
X6805015Y3317392D01*
X6808317Y3315157D01*
X6810502Y3311855D01*
X6811264Y3307994D01*
X6811264Y3288995D01*
X6810502Y3285083D01*
X6808317Y3281781D01*
X6789928Y3263442D01*
X6786625Y3261207D01*
X6782765Y3260445D01*
X6763562Y3260445D01*
X6763562Y3254197D01*
X6762800Y3250285D01*
X6760565Y3246983D01*
X6757263Y3244799D01*
X6753402Y3244037D01*
X6721043Y3244037D01*
X6717131Y3244799D01*
X6713829Y3246983D01*
X6711645Y3250285D01*
X6710883Y3254197D01*
X6710883Y3260445D01*
X6671309Y3260445D01*
X6671309Y3254197D01*
X6670548Y3250285D01*
X6668312Y3246983D01*
X6665010Y3244799D01*
X6661150Y3244037D01*
G37*

%LPC*%
G36*
X6671309Y3318154D02*
G01*
X6710883Y3318154D01*
X6710883Y3360216D01*
X6697776Y3360216D01*
X6691477Y3359505D01*
X6685991Y3357575D01*
X6681114Y3354527D01*
X6676999Y3350412D01*
X6673900Y3345535D01*
X6672021Y3340049D01*
X6671309Y3333750D01*
G37*
G36*
X6685076Y3421583D02*
G01*
X6698183Y3421583D01*
X6698183Y3463645D01*
X6658609Y3463645D01*
X6658609Y3448050D01*
X6659321Y3441750D01*
X6661200Y3436264D01*
X6664299Y3431387D01*
X6668414Y3427272D01*
X6673291Y3424224D01*
X6678777Y3422294D01*
G37*
G36*
X5620816Y3483254D02*
G01*
X5660390Y3483254D01*
X5660390Y3498850D01*
X5659678Y3505149D01*
X5657748Y3510635D01*
X5654700Y3515512D01*
X5650585Y3519627D01*
X5645708Y3522675D01*
X5640222Y3524605D01*
X5633923Y3525316D01*
X5620816Y3525316D01*
G37*
G36*
X6658609Y3521354D02*
G01*
X6698183Y3521354D01*
X6698183Y3563416D01*
X6685076Y3563416D01*
X6678625Y3562705D01*
X6672681Y3560724D01*
X6669430Y3560419D01*
X6667093Y3556406D01*
X6664299Y3553612D01*
X6661200Y3548735D01*
X6659321Y3543249D01*
X6658609Y3536950D01*
G37*

%LPD*%
G36*
X1681022Y3115513D02*
G01*
X1677111Y3116275D01*
X1673809Y3118459D01*
X1671624Y3121761D01*
X1670862Y3125673D01*
X1670862Y3135782D01*
X1645157Y3135782D01*
X1641246Y3136544D01*
X1637995Y3138779D01*
X1635760Y3142081D01*
X1634998Y3145942D01*
X1634998Y3190849D01*
X1635760Y3194710D01*
X1637995Y3198012D01*
X1641246Y3200196D01*
X1645157Y3201009D01*
X1670862Y3201009D01*
X1670862Y3246780D01*
X1645157Y3246780D01*
X1641246Y3247593D01*
X1637995Y3249777D01*
X1635760Y3253079D01*
X1634998Y3256940D01*
X1634998Y3524859D01*
X1635760Y3528720D01*
X1637995Y3532022D01*
X1641246Y3534206D01*
X1645157Y3535019D01*
X1826615Y3535019D01*
X1832965Y3535730D01*
X1838401Y3537610D01*
X1843328Y3540709D01*
X1847392Y3544773D01*
X1850491Y3549700D01*
X1852371Y3555136D01*
X1853133Y3561486D01*
X1853133Y3625443D01*
X1853895Y3629304D01*
X1856079Y3632606D01*
X1859381Y3634790D01*
X1863293Y3635603D01*
X2236724Y3635603D01*
X2239365Y3635248D01*
X2247290Y3632301D01*
X2253589Y3631590D01*
X2309469Y3631590D01*
X2313330Y3630828D01*
X2316632Y3628593D01*
X2318816Y3625342D01*
X2319629Y3621430D01*
X2319629Y3610965D01*
X2318816Y3607104D01*
X2316632Y3603802D01*
X2313330Y3601567D01*
X2309469Y3600805D01*
X2205126Y3600754D01*
X2196846Y3599637D01*
X2189276Y3597046D01*
X2182266Y3593185D01*
X2175764Y3587750D01*
X2141677Y3553663D01*
X2138375Y3551478D01*
X2134463Y3550716D01*
X2100376Y3550716D01*
X2094077Y3550005D01*
X2088591Y3548075D01*
X2083714Y3545027D01*
X2079599Y3540912D01*
X2076500Y3536035D01*
X2074621Y3530549D01*
X2073910Y3524250D01*
X2073910Y3435350D01*
X2074621Y3429050D01*
X2076500Y3423564D01*
X2079599Y3418687D01*
X2083714Y3414572D01*
X2088591Y3411524D01*
X2094077Y3409594D01*
X2100376Y3408883D01*
X2179218Y3408883D01*
X2185568Y3409594D01*
X2191004Y3411524D01*
X2195931Y3414572D01*
X2199995Y3418687D01*
X2201214Y3420567D01*
X2204008Y3423513D01*
X2207768Y3425139D01*
X2211832Y3425139D01*
X2215591Y3423513D01*
X2218385Y3420567D01*
X2219604Y3418687D01*
X2223668Y3414572D01*
X2228596Y3411524D01*
X2234031Y3409594D01*
X2240381Y3408883D01*
X2253437Y3408883D01*
X2253437Y3450945D01*
X2215896Y3450945D01*
X2211984Y3451707D01*
X2208682Y3453942D01*
X2206498Y3457244D01*
X2205736Y3461105D01*
X2205736Y3490722D01*
X2206498Y3494633D01*
X2208682Y3497935D01*
X2216454Y3505657D01*
X2219756Y3507892D01*
X2223617Y3508654D01*
X2254656Y3508654D01*
X2256942Y3511499D01*
X2260041Y3513328D01*
X2263597Y3513988D01*
X2295956Y3513988D01*
X2299563Y3513328D01*
X2302662Y3511499D01*
X2304948Y3508654D01*
X2346807Y3508654D01*
X2348738Y3511245D01*
X2351379Y3513124D01*
X2354478Y3514090D01*
X2362301Y3515207D01*
X2369921Y3517747D01*
X2376982Y3521659D01*
X2381758Y3525469D01*
X2384653Y3528263D01*
X2387904Y3530396D01*
X2391765Y3531158D01*
X2393950Y3531158D01*
X2397760Y3530396D01*
X2401011Y3528314D01*
X2403246Y3525113D01*
X2404110Y3521354D01*
X2443683Y3521354D01*
X2444546Y3525113D01*
X2446782Y3528314D01*
X2450033Y3530396D01*
X2453843Y3531158D01*
X2486202Y3531158D01*
X2490012Y3530396D01*
X2493264Y3528314D01*
X2495499Y3525113D01*
X2496362Y3521354D01*
X2533904Y3521354D01*
X2537815Y3520592D01*
X2541117Y3518357D01*
X2543302Y3515055D01*
X2544064Y3511194D01*
X2544064Y3473805D01*
X2543302Y3469944D01*
X2541117Y3466642D01*
X2537815Y3464407D01*
X2533904Y3463645D01*
X2496362Y3463645D01*
X2496362Y3421583D01*
X2509418Y3421583D01*
X2515768Y3422294D01*
X2521204Y3424224D01*
X2526131Y3427272D01*
X2530195Y3431387D01*
X2531414Y3433267D01*
X2534208Y3436213D01*
X2537968Y3437839D01*
X2542032Y3437839D01*
X2545791Y3436213D01*
X2548585Y3433267D01*
X2549804Y3431387D01*
X2553868Y3427272D01*
X2558796Y3424224D01*
X2564231Y3422294D01*
X2570581Y3421583D01*
X2649423Y3421583D01*
X2655722Y3422294D01*
X2661208Y3424224D01*
X2666085Y3427272D01*
X2670200Y3431387D01*
X2673299Y3436264D01*
X2675178Y3441750D01*
X2675890Y3448050D01*
X2675890Y3536950D01*
X2675178Y3543249D01*
X2673299Y3548735D01*
X2670200Y3553612D01*
X2666085Y3557727D01*
X2661208Y3560775D01*
X2656687Y3563264D01*
X2654300Y3566566D01*
X2653385Y3570579D01*
X2653385Y3572154D01*
X2652217Y3580434D01*
X2649829Y3587597D01*
X2649321Y3590798D01*
X2649321Y3613200D01*
X2650185Y3617366D01*
X2652725Y3620770D01*
X2656382Y3622903D01*
X2660650Y3623310D01*
X2749550Y3623310D01*
X2755849Y3624021D01*
X2761335Y3625900D01*
X2766212Y3628999D01*
X2770327Y3633114D01*
X2773375Y3637991D01*
X2775864Y3642563D01*
X2779268Y3644950D01*
X2783332Y3645814D01*
X4918710Y3645814D01*
X4926939Y3646982D01*
X4934000Y3649370D01*
X4937810Y3649878D01*
X4941519Y3648913D01*
X4944618Y3646678D01*
X4946650Y3643477D01*
X4947412Y3639718D01*
X4947412Y3618737D01*
X4948123Y3612438D01*
X4950002Y3606952D01*
X4953101Y3602075D01*
X4957165Y3597960D01*
X4962093Y3594862D01*
X4966309Y3593388D01*
X4969865Y3591255D01*
X4972253Y3587902D01*
X4973116Y3583838D01*
X4973116Y3292601D01*
X4972304Y3288690D01*
X4970119Y3285388D01*
X4912461Y3227730D01*
X4909159Y3225546D01*
X4905248Y3224784D01*
X4901387Y3225546D01*
X4898085Y3227730D01*
X4895900Y3231032D01*
X4895088Y3234944D01*
X4895088Y3251962D01*
X4894376Y3258312D01*
X4892497Y3263747D01*
X4889398Y3268675D01*
X4885334Y3272739D01*
X4880406Y3275838D01*
X4874971Y3277768D01*
X4868621Y3278479D01*
X4783378Y3278479D01*
X4777028Y3277768D01*
X4771593Y3275838D01*
X4766665Y3272739D01*
X4761941Y3268014D01*
X4759045Y3265982D01*
X4755642Y3265068D01*
X4752136Y3265373D01*
X4745278Y3267202D01*
X4739436Y3267659D01*
X2007311Y3267659D01*
X1999335Y3266846D01*
X1992172Y3264509D01*
X1985568Y3260699D01*
X1981098Y3256889D01*
X1862988Y3138779D01*
X1859686Y3136544D01*
X1855825Y3135782D01*
X1783537Y3135782D01*
X1783537Y3125673D01*
X1782775Y3121761D01*
X1780590Y3118459D01*
X1777288Y3116275D01*
X1773377Y3115513D01*
G37*

%LPC*%
G36*
X1783537Y3201009D02*
G01*
X1853133Y3201009D01*
X1853133Y3220313D01*
X1852371Y3226663D01*
X1850491Y3232099D01*
X1847392Y3237026D01*
X1843328Y3241090D01*
X1838401Y3244189D01*
X1832965Y3246069D01*
X1826615Y3246780D01*
X1783537Y3246780D01*
G37*
G36*
X2306116Y3408883D02*
G01*
X2319223Y3408883D01*
X2325522Y3409594D01*
X2331008Y3411524D01*
X2335885Y3414572D01*
X2340000Y3418687D01*
X2343099Y3423564D01*
X2344978Y3429050D01*
X2345690Y3435350D01*
X2345690Y3450945D01*
X2306116Y3450945D01*
G37*
G36*
X2430576Y3421583D02*
G01*
X2443683Y3421583D01*
X2443683Y3463645D01*
X2404110Y3463645D01*
X2404110Y3448050D01*
X2404821Y3441750D01*
X2406700Y3436264D01*
X2409799Y3431387D01*
X2413914Y3427272D01*
X2418791Y3424224D01*
X2424277Y3422294D01*
G37*

%LPD*%
G36*
X-503580Y3107232D02*
G01*
X-507085Y3108604D01*
X-512978Y3112312D01*
X-518414Y3114192D01*
X-524764Y3114903D01*
X-563626Y3114903D01*
X-569925Y3114192D01*
X-573481Y3112973D01*
X-577951Y3112465D01*
X-582218Y3113887D01*
X-585419Y3117037D01*
X-586943Y3121253D01*
X-585774Y3132074D01*
X-585774Y3170936D01*
X-586486Y3177235D01*
X-588416Y3182721D01*
X-592074Y3188614D01*
X-593496Y3192119D01*
X-593445Y3195929D01*
X-592074Y3199434D01*
X-588416Y3205276D01*
X-586486Y3210763D01*
X-585774Y3217062D01*
X-585774Y3255924D01*
X-586486Y3262274D01*
X-588416Y3267710D01*
X-592124Y3273602D01*
X-593496Y3277158D01*
X-593445Y3280918D01*
X-592074Y3284423D01*
X-588416Y3290265D01*
X-586486Y3295751D01*
X-585774Y3302050D01*
X-585774Y3340912D01*
X-586486Y3347262D01*
X-588416Y3352698D01*
X-592124Y3358642D01*
X-593496Y3362147D01*
X-593445Y3365906D01*
X-592074Y3369411D01*
X-588416Y3375304D01*
X-586486Y3380740D01*
X-585774Y3387090D01*
X-585774Y3425951D01*
X-586486Y3432251D01*
X-588416Y3437737D01*
X-592074Y3443630D01*
X-593496Y3447135D01*
X-593445Y3450894D01*
X-592074Y3454400D01*
X-588416Y3460292D01*
X-586486Y3465728D01*
X-585774Y3472078D01*
X-585774Y3510940D01*
X-586486Y3517239D01*
X-588416Y3522726D01*
X-592124Y3528618D01*
X-593496Y3532124D01*
X-593445Y3535934D01*
X-592074Y3539439D01*
X-588416Y3545281D01*
X-586486Y3550767D01*
X-585774Y3557066D01*
X-585774Y3595928D01*
X-586486Y3602278D01*
X-588416Y3607714D01*
X-592074Y3613607D01*
X-593496Y3617112D01*
X-593445Y3620922D01*
X-592074Y3624427D01*
X-588416Y3630269D01*
X-586486Y3635756D01*
X-585774Y3642055D01*
X-585774Y3680917D01*
X-586486Y3687267D01*
X-588416Y3692702D01*
X-592124Y3698646D01*
X-593496Y3702151D01*
X-593445Y3705910D01*
X-592074Y3709415D01*
X-588416Y3715308D01*
X-586486Y3720744D01*
X-585774Y3727094D01*
X-585774Y3765956D01*
X-586486Y3772255D01*
X-588416Y3777742D01*
X-592074Y3783634D01*
X-593496Y3787140D01*
X-593445Y3790899D01*
X-592074Y3794404D01*
X-588416Y3800297D01*
X-586486Y3805732D01*
X-585774Y3812082D01*
X-585774Y3850944D01*
X-586486Y3857244D01*
X-588416Y3862730D01*
X-592124Y3868623D01*
X-593496Y3872128D01*
X-593445Y3875887D01*
X-592074Y3879443D01*
X-588416Y3885285D01*
X-586486Y3890772D01*
X-585774Y3897071D01*
X-585774Y3935933D01*
X-586486Y3942232D01*
X-588416Y3947718D01*
X-592124Y3953611D01*
X-593496Y3957116D01*
X-593445Y3960926D01*
X-592074Y3964432D01*
X-588416Y3970274D01*
X-586486Y3975760D01*
X-585774Y3982059D01*
X-585774Y4020921D01*
X-586232Y4024985D01*
X-585978Y4028643D01*
X-584454Y4031996D01*
X-581812Y4034536D01*
X-578459Y4036009D01*
X-565454Y4036568D01*
X-556564Y4038600D01*
X-548132Y4042156D01*
X-540562Y4047185D01*
X-536194Y4050334D01*
X-532434Y4051046D01*
X-498297Y4051046D01*
X-490321Y4051909D01*
X-483209Y4054195D01*
X-476605Y4058005D01*
X-472135Y4061866D01*
X-179171Y4354779D01*
X-174142Y4361027D01*
X-170738Y4367682D01*
X-168503Y4376420D01*
X-166878Y4379874D01*
X-164084Y4382465D01*
X-160578Y4383887D01*
X-156768Y4383887D01*
X-153263Y4382516D01*
X-150418Y4380738D01*
X-144932Y4378807D01*
X-138633Y4378096D01*
X-117500Y4378096D01*
X-113639Y4377334D01*
X-110337Y4375099D01*
X-108153Y4371797D01*
X-107340Y4367936D01*
X-107340Y4360113D01*
X-105714Y4351172D01*
X-102514Y4342638D01*
X-97840Y4334764D01*
X-91846Y4327906D01*
X-84734Y4322216D01*
X-76708Y4317898D01*
X-68021Y4315104D01*
X-58978Y4313885D01*
X-49885Y4314291D01*
X-40995Y4316323D01*
X-32562Y4319879D01*
X-24993Y4324908D01*
X-18389Y4331208D01*
X-13004Y4338574D01*
X-9093Y4346803D01*
X-6400Y4356506D01*
X-5232Y4359097D01*
X-1422Y4365955D01*
X-50Y4369460D01*
X1320Y4375505D01*
X2692Y4379214D01*
X5384Y4382160D01*
X9042Y4383786D01*
X13004Y4383938D01*
X16764Y4382516D01*
X19608Y4380738D01*
X25044Y4378807D01*
X31394Y4378096D01*
X70256Y4378096D01*
X76555Y4378807D01*
X82042Y4380738D01*
X87934Y4384395D01*
X91440Y4385767D01*
X95199Y4385767D01*
X98755Y4384395D01*
X104597Y4380738D01*
X110083Y4378807D01*
X116382Y4378096D01*
X155244Y4378096D01*
X161544Y4378807D01*
X167030Y4380738D01*
X172923Y4384395D01*
X176428Y4385767D01*
X180238Y4385767D01*
X183743Y4384395D01*
X189585Y4380738D01*
X195072Y4378807D01*
X201371Y4378096D01*
X240233Y4378096D01*
X246583Y4378807D01*
X252018Y4380738D01*
X257911Y4384395D01*
X261467Y4385767D01*
X265226Y4385767D01*
X268732Y4384395D01*
X274624Y4380738D01*
X280060Y4378807D01*
X286359Y4378096D01*
X325221Y4378096D01*
X331571Y4378807D01*
X337007Y4380738D01*
X340004Y4382617D01*
X343865Y4384040D01*
X347929Y4383836D01*
X351637Y4382058D01*
X354279Y4378960D01*
X355549Y4375048D01*
X355752Y4373118D01*
X358038Y4365955D01*
X361848Y4359351D01*
X365709Y4354880D01*
X490321Y4230268D01*
X496570Y4225188D01*
X503275Y4221784D01*
X510641Y4219803D01*
X516483Y4219346D01*
X631444Y4219346D01*
X634796Y4218787D01*
X637794Y4217162D01*
X643229Y4212793D01*
X651256Y4208475D01*
X659942Y4205681D01*
X668985Y4204462D01*
X677164Y4204817D01*
X681431Y4204055D01*
X685038Y4201617D01*
X687222Y4197858D01*
X687679Y4193540D01*
X687425Y4186986D01*
X690626Y4184700D01*
X692759Y4181398D01*
X693470Y4177537D01*
X693267Y4165142D01*
X692505Y4161485D01*
X690473Y4158284D01*
X687425Y4156100D01*
X687425Y4152087D01*
X688136Y4145737D01*
X690016Y4140301D01*
X692404Y4135678D01*
X692810Y4132783D01*
X692708Y4124706D01*
X692251Y4121962D01*
X690016Y4117695D01*
X688136Y4112260D01*
X687425Y4105910D01*
X687425Y4101337D01*
X690016Y4099001D01*
X691692Y4095953D01*
X692200Y4092549D01*
X692048Y4080154D01*
X691438Y4076903D01*
X689864Y4074007D01*
X687425Y4071772D01*
X687425Y4067048D01*
X688136Y4060748D01*
X690016Y4055262D01*
X691235Y4052620D01*
X691591Y4049725D01*
X691388Y4037685D01*
X691032Y4035145D01*
X688136Y4027271D01*
X687425Y4020921D01*
X687425Y4015435D01*
X690067Y4011879D01*
X690981Y4007561D01*
X690778Y3995165D01*
X689864Y3991101D01*
X687425Y3987749D01*
X687425Y3982059D01*
X688136Y3975760D01*
X689813Y3970883D01*
X690372Y3967378D01*
X690118Y3949547D01*
X689559Y3946347D01*
X688136Y3942232D01*
X687425Y3935933D01*
X687425Y3929176D01*
X689152Y3926078D01*
X689711Y3922522D01*
X689559Y3910177D01*
X688949Y3906926D01*
X687425Y3904081D01*
X687425Y3897071D01*
X688136Y3890772D01*
X689203Y3885793D01*
X688848Y3860850D01*
X688136Y3857244D01*
X687425Y3850944D01*
X687425Y3842258D01*
X688238Y3839972D01*
X688492Y3837533D01*
X688289Y3825138D01*
X687425Y3821125D01*
X687425Y3812082D01*
X688035Y3805834D01*
X679043Y3190240D01*
X678180Y3186277D01*
X675843Y3182975D01*
X672388Y3180842D01*
X668426Y3180232D01*
X666800Y3180283D01*
X657758Y3179064D01*
X649071Y3176270D01*
X641045Y3171952D01*
X633933Y3166262D01*
X627888Y3159404D01*
X623214Y3151581D01*
X620014Y3142996D01*
X619201Y3138424D01*
X617575Y3134461D01*
X614680Y3130296D01*
X613054Y3127044D01*
X611682Y3123539D01*
X610311Y3117494D01*
X608939Y3113786D01*
X606247Y3110839D01*
X602589Y3109214D01*
X598627Y3109061D01*
X594868Y3110484D01*
X592023Y3112312D01*
X586587Y3114192D01*
X580237Y3114903D01*
X541375Y3114903D01*
X535076Y3114192D01*
X529590Y3112262D01*
X523697Y3108604D01*
X520192Y3107232D01*
X516432Y3107232D01*
X512876Y3108604D01*
X507034Y3112312D01*
X501548Y3114192D01*
X495249Y3114903D01*
X456387Y3114903D01*
X450037Y3114192D01*
X444601Y3112262D01*
X438708Y3108604D01*
X435152Y3107232D01*
X431393Y3107232D01*
X427888Y3108604D01*
X422046Y3112312D01*
X416559Y3114192D01*
X410260Y3114903D01*
X402844Y3114903D01*
X398729Y3115767D01*
X395325Y3118205D01*
X393192Y3121812D01*
X392684Y3125978D01*
X393090Y3130448D01*
X392277Y3139541D01*
X389839Y3148330D01*
X385927Y3156559D01*
X380542Y3163925D01*
X373938Y3170224D01*
X366369Y3175254D01*
X357936Y3178810D01*
X349046Y3180842D01*
X339953Y3181248D01*
X330911Y3180029D01*
X322224Y3177235D01*
X314198Y3172917D01*
X308813Y3168599D01*
X305816Y3166922D01*
X302463Y3166364D01*
X-355650Y3166364D01*
X-363626Y3165500D01*
X-370789Y3163214D01*
X-377393Y3159404D01*
X-381863Y3155543D01*
X-399186Y3138220D01*
X-404266Y3131972D01*
X-407619Y3125317D01*
X-409905Y3116580D01*
X-411530Y3113125D01*
X-414274Y3110534D01*
X-417779Y3109112D01*
X-421589Y3109112D01*
X-425145Y3110484D01*
X-427990Y3112312D01*
X-433425Y3114192D01*
X-439775Y3114903D01*
X-478637Y3114903D01*
X-484936Y3114192D01*
X-490423Y3112262D01*
X-496316Y3108604D01*
X-499821Y3107232D01*
G37*

%LPC*%
G36*
X252171Y3495598D02*
G01*
X275234Y3495598D01*
X281584Y3496310D01*
X287020Y3498189D01*
X291947Y3501288D01*
X296011Y3505403D01*
X299110Y3510279D01*
X300990Y3515766D01*
X301701Y3522065D01*
X301701Y3545128D01*
X252171Y3545128D01*
G37*
G36*
X-173634Y3495598D02*
G01*
X-150520Y3495598D01*
X-150520Y3545128D01*
X-200101Y3545128D01*
X-200101Y3522065D01*
X-199390Y3515766D01*
X-197459Y3510279D01*
X-194411Y3505403D01*
X-190296Y3501288D01*
X-185420Y3498189D01*
X-179933Y3496310D01*
G37*
G36*
X87172Y3495598D02*
G01*
X110235Y3495598D01*
X116585Y3496310D01*
X122021Y3498240D01*
X127914Y3501898D01*
X131470Y3503269D01*
X135229Y3503269D01*
X138734Y3501898D01*
X144576Y3498189D01*
X150063Y3496310D01*
X156362Y3495598D01*
X179476Y3495598D01*
X179476Y3545128D01*
X87172Y3545128D01*
G37*
G36*
X-77825Y3495598D02*
G01*
X-54762Y3495598D01*
X-48412Y3496310D01*
X-42976Y3498240D01*
X-37084Y3501898D01*
X-33528Y3503269D01*
X-29768Y3503269D01*
X-26263Y3501898D01*
X-20421Y3498189D01*
X-14935Y3496310D01*
X-8636Y3495598D01*
X14478Y3495598D01*
X14478Y3545128D01*
X-77825Y3545128D01*
G37*
G36*
X252171Y3617823D02*
G01*
X301701Y3617823D01*
X301701Y3640937D01*
X300990Y3647236D01*
X299110Y3652723D01*
X295402Y3658615D01*
X294030Y3662121D01*
X294030Y3665931D01*
X295402Y3669436D01*
X299110Y3675278D01*
X300990Y3680764D01*
X301701Y3687064D01*
X301701Y3710127D01*
X252171Y3710127D01*
G37*
G36*
X-200101Y3617823D02*
G01*
X-150520Y3617823D01*
X-150520Y3710127D01*
X-200101Y3710127D01*
X-200101Y3687064D01*
X-199390Y3680764D01*
X-197459Y3675278D01*
X-193751Y3669385D01*
X-192379Y3665880D01*
X-192430Y3662070D01*
X-193802Y3658565D01*
X-197459Y3652723D01*
X-199390Y3647236D01*
X-200101Y3640937D01*
G37*
G36*
X87172Y3617823D02*
G01*
X179476Y3617823D01*
X179476Y3710127D01*
X87172Y3710127D01*
G37*
G36*
X-77825Y3617823D02*
G01*
X14478Y3617823D01*
X14478Y3710127D01*
X-77825Y3710127D01*
G37*
G36*
X252171Y3782872D02*
G01*
X301701Y3782872D01*
X301701Y3805936D01*
X300990Y3812235D01*
X299110Y3817721D01*
X295402Y3823614D01*
X294030Y3827119D01*
X294030Y3830929D01*
X295402Y3834434D01*
X299110Y3840276D01*
X300990Y3845763D01*
X301701Y3852062D01*
X301701Y3875125D01*
X252171Y3875125D01*
G37*
G36*
X-200101Y3782872D02*
G01*
X-150520Y3782872D01*
X-150520Y3875125D01*
X-200101Y3875125D01*
X-200101Y3852062D01*
X-199390Y3845763D01*
X-197459Y3840276D01*
X-193751Y3834384D01*
X-192379Y3830878D01*
X-192430Y3827068D01*
X-193802Y3823563D01*
X-197459Y3817721D01*
X-199390Y3812235D01*
X-200101Y3805936D01*
G37*
G36*
X87172Y3782872D02*
G01*
X179476Y3782872D01*
X179476Y3875125D01*
X87172Y3875125D01*
G37*
G36*
X-77825Y3782872D02*
G01*
X14478Y3782872D01*
X14478Y3875125D01*
X-77825Y3875125D01*
G37*
G36*
X-200101Y3947871D02*
G01*
X-150520Y3947871D01*
X-150520Y3997401D01*
X-173634Y3997401D01*
X-179933Y3996690D01*
X-185420Y3994810D01*
X-190296Y3991711D01*
X-194411Y3987596D01*
X-197459Y3982720D01*
X-199390Y3977233D01*
X-200101Y3970934D01*
G37*
G36*
X252171Y3947871D02*
G01*
X301701Y3947871D01*
X301701Y3970934D01*
X300990Y3977233D01*
X299110Y3982720D01*
X296011Y3987596D01*
X291947Y3991711D01*
X287020Y3994810D01*
X281584Y3996690D01*
X275234Y3997401D01*
X252171Y3997401D01*
G37*
G36*
X87172Y3947871D02*
G01*
X179476Y3947871D01*
X179476Y3997401D01*
X156362Y3997401D01*
X150063Y3996690D01*
X144576Y3994759D01*
X138684Y3991101D01*
X135178Y3989730D01*
X131419Y3989730D01*
X127914Y3991101D01*
X122021Y3994810D01*
X116585Y3996690D01*
X110235Y3997401D01*
X87172Y3997401D01*
G37*
G36*
X-77825Y3947871D02*
G01*
X14478Y3947871D01*
X14478Y3997401D01*
X-8636Y3997401D01*
X-14935Y3996690D01*
X-20421Y3994759D01*
X-26314Y3991101D01*
X-29819Y3989730D01*
X-33578Y3989730D01*
X-37084Y3991101D01*
X-42976Y3994810D01*
X-48412Y3996690D01*
X-54762Y3997401D01*
X-77825Y3997401D01*
G37*

%LPD*%
D10*
X2984500Y4093187D02*
G01*
X2903118Y4093187D01*
X2867812Y4057881D01*
X892327Y4057881D01*
X-2949930Y2904467D02*
G01*
X-2952267Y2904467D01*
X-2965246Y2917446D01*
X-2949930Y2806702D02*
G01*
X-2949930Y2904467D01*
X-2310003Y4645002D02*
G01*
X-2217038Y4645002D01*
X-2189073Y4635248D02*
G01*
X-2207285Y4635248D01*
X-2217038Y4645002D01*
X2984500Y4166466D02*
G01*
X2984500Y4093187D01*
X-2310003Y4645002D02*
G01*
X-2402967Y4645002D01*
X-3727195Y4611169D02*
G01*
X-3727195Y4701999D01*
X-3727195Y4701999D02*
G01*
X-2459964Y4701999D01*
X-2402967Y4645002D01*
X-2817952Y3899994D02*
G01*
X-2826130Y3891815D01*
X-3031870Y3891815D01*
X-2310003Y4215640D02*
G01*
X-2310003Y4315005D01*
X-3159277Y3003806D02*
G01*
X-3247262Y3003806D01*
X-3247262Y3003806D02*
G01*
X-3247262Y2947240D01*
X-3227425Y2927403D01*
X-3207537Y2927403D01*
X-2724988Y3899994D02*
G01*
X-2817952Y3899994D01*
X-1407490Y3483993D02*
G01*
X-1407490Y3406015D01*
X-1407490Y3406015D02*
G01*
X-1428648Y3406015D01*
X-1619986Y3214677D01*
X-1696161Y3214677D02*
G01*
X-1752015Y3158822D01*
X-2828975Y3158822D01*
X-2951581Y3036216D01*
X-3038094Y3036216D01*
X-3063697Y3010613D01*
X-3063697Y3003806D01*
X-3063697Y3003806D02*
G01*
X-3063290Y3003400D01*
X-2984500Y3003400D01*
X-3071317Y3003806D02*
G01*
X-3063697Y3003806D01*
X-1619986Y3214677D02*
G01*
X-1696161Y3214677D01*
X-3159277Y3003806D02*
G01*
X-3071317Y3003806D01*
X-3625773Y3982163D02*
G01*
X-3727195Y4083585D01*
X-3727195Y4380435D01*
X-3480104Y3999207D02*
G01*
X-3497148Y3982163D01*
X-3625773Y3982163D01*
X-3480104Y3519197D02*
G01*
X-3548303Y3519197D01*
X-3625773Y3596667D01*
X-3625773Y3982163D01*
X-2755900Y3555164D02*
G01*
X-3196717Y3555164D01*
X-3215665Y3536215D01*
X-3365119Y3536215D01*
X-3382137Y3519197D01*
X-2724988Y3569997D02*
G01*
X-2739821Y3555164D01*
X-2755900Y3555164D01*
X-2755900Y3489708D02*
G01*
X-2755900Y3555164D01*
X-3480104Y3519197D02*
G01*
X-3382137Y3519197D01*
X-2755900Y3381733D02*
G01*
X-2755900Y3489708D01*
X-1453997Y4152902D02*
G01*
X-1604594Y4002305D01*
X-2537764Y4002305D01*
X-2675661Y4140202D01*
X-1101623Y3128926D02*
G01*
X-1499387Y3128926D01*
X-1571218Y3057095D01*
X-2260904Y3057095D01*
X-2260904Y3057095D02*
G01*
X-2273528Y3044471D01*
X-2658135Y3044471D01*
X-1631899Y4456889D02*
G01*
X-1536471Y4456889D01*
X-1525396Y4403879D02*
G01*
X-1525396Y4445815D01*
X-1536471Y4456889D01*
X-1447800Y4336900D02*
G01*
X-1514779Y4403879D01*
X-1525396Y4403879D01*
X-1610004Y3559990D02*
G01*
X-1687956Y3559990D01*
X-2352649Y3522423D02*
G01*
X-1725523Y3522423D01*
X-1687956Y3559990D01*
X2630677Y4298800D02*
G01*
X2643377Y4286100D01*
X2670378Y4286100D01*
X2839618Y3849397D02*
G01*
X2839618Y3869565D01*
X2705100Y3829204D02*
G01*
X2819425Y3829204D01*
X2839618Y3849397D01*
X4597908Y4017495D02*
G01*
X4429810Y3849397D01*
X2839618Y3849397D01*
X753313Y3746502D02*
G01*
X826287Y3746502D01*
X753313Y3661514D02*
G01*
X826287Y3661514D01*
X4390923Y3048002D02*
G01*
X4489195Y2949729D01*
X6345351Y2949729D01*
X3242538Y3048002D02*
G01*
X3378530Y2912010D01*
X4254931Y2912010D01*
X4390923Y3048002D01*
X6737197Y3383688D02*
G01*
X6737197Y3401824D01*
X6724497Y3414524D01*
X6737197Y3289302D02*
G01*
X6737197Y3383688D01*
X6737197Y3383688D02*
G01*
X6779310Y3383688D01*
X6985000Y3816504D02*
G01*
X6985000Y3903626D01*
X6984974Y3903626D01*
X-114198Y3746502D02*
G01*
X-207162Y3746502D01*
X-496112Y3700071D02*
G01*
X-253593Y3700071D01*
X-207162Y3746502D01*
X1594230Y3168398D02*
G01*
X826287Y3168398D01*
X5594502Y3531491D02*
G01*
X5594502Y3532380D01*
X5594502Y3454402D02*
G01*
X5594502Y3531491D01*
X6724497Y3531491D02*
G01*
X5594502Y3531491D01*
X6724497Y3531491D02*
G01*
X6724497Y3570480D01*
X6724497Y3492502D02*
G01*
X6724497Y3531491D01*
X6730212Y3645258D02*
G01*
X6680200Y3645258D01*
X5232400Y3676525D02*
G01*
X5310377Y3676525D01*
X5436793Y3607513D02*
G01*
X5344871Y3607513D01*
X5310377Y3642006D01*
X5310377Y3676525D01*
X1727200Y3168398D02*
G01*
X1860169Y3168398D01*
X1860169Y3168398D02*
G01*
X2078075Y3386305D01*
X2286254Y3386305D01*
X-970737Y3046503D02*
G01*
X-970737Y3067128D01*
X-1032535Y3128926D01*
X-1101623Y3128926D01*
X-1101623Y3128926D02*
G01*
X-1101623Y3314702D01*
X-3594100Y3156104D02*
G01*
X-3516121Y3156104D01*
X-3516121Y3156104D02*
G01*
X-3458819Y3098802D01*
X-3159277Y3098802D01*
X-1453997Y4169056D02*
G01*
X-1453997Y4152902D01*
X-1453997Y4169056D02*
G01*
X-1453997Y4230880D01*
X-1040003Y4429991D02*
G01*
X-840003Y4429991D01*
X2469997Y3492502D02*
G01*
X2397023Y3492502D01*
X2279802Y3479802D02*
G01*
X2384323Y3479802D01*
X2397023Y3492502D01*
X2279802Y3479802D02*
G01*
X2279802Y3392756D01*
X2286254Y3386305D01*
X-1453997Y4230880D02*
G01*
X-1447800Y4237078D01*
X-1447800Y4336900D01*
X-1040003Y4429991D02*
G01*
X-1040003Y4357016D01*
X-1257300Y4336900D02*
G01*
X-1060119Y4336900D01*
X-1040003Y4357016D01*
X-1447800Y4336900D02*
G01*
X-1257300Y4336900D01*
X-1212494Y3483993D02*
G01*
X-1212494Y3406015D01*
X-1174597Y3314702D02*
G01*
X-1174597Y3392680D01*
X-1174597Y3392680D02*
G01*
X-1187932Y3406015D01*
X-1212494Y3406015D01*
X1660728Y4417875D02*
G01*
X1657502Y4421101D01*
X1657502Y4470402D01*
X2552700Y4298800D02*
G01*
X2433624Y4417875D01*
X1660728Y4417875D01*
X1660728Y4261106D02*
G01*
X1660728Y4417875D01*
X5536793Y3607513D02*
G01*
X5536793Y3552040D01*
X5594502Y3532380D02*
G01*
X5556453Y3532380D01*
X5536793Y3552040D01*
X6730212Y3585923D02*
G01*
X6724497Y3580208D01*
X6724497Y3570480D01*
X6730212Y3645258D02*
G01*
X6730212Y3585923D01*
X6724497Y3492502D02*
G01*
X6724497Y3414524D01*
X4597908Y4017495D02*
G01*
X4551425Y4017495D01*
X4644390Y4017495D02*
G01*
X4597908Y4017495D01*
X4394200Y4087370D02*
G01*
X4508500Y4087370D01*
X-2755900Y3044471D02*
G01*
X-2658135Y3044471D01*
X-2612669Y2806702D02*
G01*
X-2612669Y2904467D01*
X-2612669Y2904467D02*
G01*
X-2658135Y2949933D01*
X-2658135Y3044471D01*
X2767736Y2946402D02*
G01*
X3140938Y2946402D01*
X3242538Y3048002D01*
X4463897Y3048002D02*
G01*
X4390923Y3048002D01*
X-970737Y3046503D02*
G01*
X-1020038Y2997202D01*
X-649198Y3046503D02*
G01*
X-970737Y3046503D01*
X-3222548Y4330702D02*
G01*
X-3362045Y4191205D01*
X-3544087Y4191205D01*
X-3222548Y4330702D02*
G01*
X-3193034Y4330702D01*
X-3252063Y4330702D02*
G01*
X-3222548Y4330702D01*
X-1174597Y3314702D02*
G01*
X-1101623Y3314702D01*
X-3124200Y3480666D02*
G01*
X-3200374Y3480666D01*
X-3200374Y3480666D02*
G01*
X-3241827Y3439213D01*
X-3480104Y3439213D01*
X-3480104Y4079191D02*
G01*
X-3382137Y4079191D01*
X-3124200Y4072917D02*
G01*
X-3375863Y4072917D01*
X-3382137Y4079191D01*
X-3544087Y4191205D02*
G01*
X-3480104Y4127223D01*
X-3480104Y4079191D01*
X-3124200Y3999638D02*
G01*
X-3124200Y4072917D01*
X-2552700Y4140202D02*
G01*
X-2675661Y4140202D01*
X-3178784Y4330702D02*
G01*
X-2804693Y4330702D01*
X-2675661Y4201670D01*
X-2675661Y4140202D01*
X-3193034Y4330702D02*
G01*
X-3178784Y4330702D01*
X2552700Y4298800D02*
G01*
X2630677Y4298800D01*
X2768600Y4306166D02*
G01*
X2638043Y4306166D01*
X2630677Y4298800D01*
X3365500Y3048002D02*
G01*
X3242538Y3048002D01*
X1660728Y4261106D02*
G01*
X1594230Y4261106D01*
X1727200Y4261106D02*
G01*
X1660728Y4261106D01*
X826287Y4261106D02*
G01*
X826287Y4256509D01*
X826287Y4341497D02*
G01*
X826287Y4261106D01*
X826287Y4261106D02*
G01*
X1594230Y4261106D01*
X826287Y3168398D02*
G01*
X826287Y3151507D01*
X826287Y3236495D02*
G01*
X826287Y3168398D01*
X1727200Y3168398D02*
G01*
X1594230Y3168398D01*
X560806Y4444011D02*
G01*
X560806Y4516986D01*
X560806Y4516986D02*
G01*
X645820Y4516986D01*
X826287Y3406498D02*
G01*
X826287Y3491511D01*
X753313Y3151507D02*
G01*
X826287Y3151507D01*
X753313Y3236495D02*
G01*
X826287Y3236495D01*
X826287Y3321509D02*
G01*
X826287Y3236495D01*
X753313Y3321509D02*
G01*
X826287Y3321509D01*
X753313Y3406498D02*
G01*
X826287Y3406498D01*
X826287Y3406498D02*
G01*
X826287Y3321509D01*
X826287Y3661514D02*
G01*
X826287Y3746502D01*
X753313Y3491511D02*
G01*
X826287Y3491511D01*
X753313Y3576500D02*
G01*
X826287Y3576500D01*
X826287Y3576500D02*
G01*
X826287Y3491511D01*
X753313Y3661514D02*
G01*
X680338Y3661514D01*
X675335Y3581504D02*
G01*
X680338Y3576500D01*
X215823Y3581504D02*
G01*
X675335Y3581504D01*
X680338Y3661514D02*
G01*
X680338Y3618740D01*
X690549Y3608529D01*
X690575Y3608529D01*
X693115Y3605989D01*
X693115Y3601316D01*
X675335Y3583536D01*
X675335Y3581504D01*
X645820Y4444011D02*
G01*
X645820Y4371037D01*
X753313Y4341497D02*
G01*
X680338Y4341497D01*
X680338Y4341497D02*
G01*
X650798Y4371037D01*
X645820Y4371037D01*
X215823Y3746502D02*
G01*
X680338Y3746502D01*
X753313Y3746502D02*
G01*
X680338Y3746502D01*
X716838Y3831490D02*
G01*
X680338Y3794991D01*
X680338Y3746502D01*
X716838Y3831490D02*
G01*
X680338Y3831490D01*
X753313Y3831490D02*
G01*
X716838Y3831490D01*
X675335Y3911500D02*
G01*
X680338Y3916504D01*
X215823Y3911500D02*
G01*
X675335Y3911500D01*
X675335Y3911500D02*
G01*
X675335Y3909468D01*
X693115Y3891688D01*
X693115Y3887015D01*
X690575Y3884475D01*
X690549Y3884475D01*
X680338Y3874264D01*
X680338Y3831490D01*
X753313Y3916504D02*
G01*
X826287Y3916504D01*
X826287Y4001493D02*
G01*
X826287Y3916504D01*
X753313Y4001493D02*
G01*
X826287Y4001493D01*
X826287Y4086506D02*
G01*
X826287Y4001493D01*
X753313Y4086506D02*
G01*
X826287Y4086506D01*
X826287Y4171495D02*
G01*
X826287Y4086506D01*
X753313Y4171495D02*
G01*
X826287Y4171495D01*
X826287Y4256509D02*
G01*
X826287Y4171495D01*
X753313Y4256509D02*
G01*
X826287Y4256509D01*
X753313Y4341497D02*
G01*
X826287Y4341497D01*
X750823Y4446501D02*
G01*
X677849Y4446501D01*
X645820Y4444011D02*
G01*
X645820Y4516986D01*
X677849Y4446501D02*
G01*
X677849Y4484956D01*
X645820Y4516986D01*
X750823Y3046503D02*
G01*
X750823Y3149018D01*
X753313Y3151507D01*
X-840003Y4429991D02*
G01*
X-762025Y4429991D01*
X-649198Y4446501D02*
G01*
X-745515Y4446501D01*
X-762025Y4429991D01*
X-1143000Y2997202D02*
G01*
X-1020038Y2997202D01*
X753313Y3916504D02*
G01*
X680338Y3916504D01*
X753313Y3576500D02*
G01*
X680338Y3576500D01*
X50825Y3911500D02*
G01*
X215823Y3911500D01*
X50825Y3746502D02*
G01*
X215823Y3746502D01*
X50825Y3581504D02*
G01*
X215823Y3581504D01*
X-114198Y3911500D02*
G01*
X50825Y3911500D01*
X-114198Y3746502D02*
G01*
X50825Y3746502D01*
X-114198Y3581504D02*
G01*
X50825Y3581504D01*
X-3159277Y3098802D02*
G01*
X-3071317Y3098802D01*
X-2984500Y3143404D02*
G01*
X-3062478Y3143404D01*
X-3071317Y3098802D02*
G01*
X-3071317Y3134565D01*
X-3062478Y3143404D01*
X2705100Y3829204D02*
G01*
X2627122Y3829204D01*
X2539187Y3821508D02*
G01*
X2619425Y3821508D01*
X2627122Y3829204D01*
X6985000Y3816504D02*
G01*
X6907022Y3816504D01*
X6806387Y3821508D02*
G01*
X6902018Y3821508D01*
X6907022Y3816504D01*
X-3632200Y4611169D02*
G01*
X-3632200Y4520338D01*
X-3632200Y4520338D02*
G01*
X-3422294Y4520338D01*
X-3308857Y4406902D01*
X-3178784Y4406902D01*
X-3178784Y4406902D02*
G01*
X-3178784Y4330702D01*
X4508500Y4087370D02*
G01*
X4508500Y4035986D01*
X4551425Y4017495D02*
G01*
X4532934Y4035986D01*
X4508500Y4035986D01*
X-3594100Y3156104D02*
G01*
X-3594100Y3229079D01*
X-3753078Y3327199D02*
G01*
X-3654958Y3229079D01*
X-3594100Y3229079D01*
X-3753078Y3327199D02*
G01*
X-3544087Y3327199D01*
X-3962095Y3327199D02*
G01*
X-3753078Y3327199D01*
X-3544087Y3327199D02*
G01*
X-3480104Y3391181D01*
X-3480104Y3439213D01*
D11*
X645820Y3112442D02*
G01*
X652018Y3112442D01*
X669061Y3129485D01*
X645820Y3048993D02*
G01*
X645820Y3112442D01*
X1603755Y3816098D02*
G01*
X1569262Y3781605D01*
X1491487Y3781605D01*
X1447393Y4477057D02*
G01*
X1454048Y4470402D01*
X1437970Y4477057D02*
G01*
X1447393Y4477057D01*
X1447393Y4477057D02*
G01*
X1447393Y4535070D01*
X1453210Y4540887D01*
X1830501Y4540887D01*
X1876450Y4494938D01*
X1943100Y4494938D02*
G01*
X1876450Y4494938D01*
X1517497Y4470402D02*
G01*
X1454048Y4470402D01*
X1727200Y3816098D02*
G01*
X1603755Y3816098D01*
X-1338326Y3399360D02*
G01*
X-1342491Y3403526D01*
X-1342491Y3483993D01*
X-1314602Y3314702D02*
G01*
X-1277493Y3351811D01*
X-1277493Y3483993D01*
X-651687Y4341497D02*
G01*
X-715137Y4341497D01*
X-715137Y4341497D02*
G01*
X-732917Y4323717D01*
X-732917Y4137891D01*
X4759350Y3212238D02*
G01*
X4739817Y3231771D01*
X2006777Y3231771D01*
X1854606Y3079600D01*
X964590Y3079600D01*
X936269Y3107921D01*
X862533Y3107921D01*
X847039Y3092427D01*
X4826000Y3212238D02*
G01*
X4759350Y3212238D01*
X-1212494Y3735986D02*
G01*
X-1212494Y3667559D01*
X-1097534Y3657424D02*
G01*
X-1202359Y3657424D01*
X-1212494Y3667559D01*
D10*
X-1619986Y3438603D02*
G01*
X-1568322Y3438603D01*
X-1419936Y3586990D01*
X-1348536Y3586990D01*
X-1277493Y3658034D01*
X-1277493Y3735986D02*
G01*
X-1277493Y3658034D01*
X-1619986Y3365324D02*
G01*
X-1619986Y3438603D01*
X-1619986Y3365324D02*
G01*
X-1619986Y3292020D01*
X-3159277Y3193798D02*
G01*
X-3101619Y3251456D01*
X-1733854Y3251456D01*
X-1693290Y3292020D01*
X-1619986Y3292020D01*
D11*
X-1342491Y3735986D02*
G01*
X-1342491Y3667559D01*
X-1610004Y3699995D02*
G01*
X-1541551Y3699995D01*
X-1541551Y3699995D02*
G01*
X-1506245Y3664689D01*
X-1345361Y3664689D01*
X-1342491Y3667559D01*
X-1407490Y3735986D02*
G01*
X-1467129Y3735986D01*
X-527456Y4363824D02*
G01*
X-544195Y4380562D01*
X-544195Y4444011D02*
G01*
X-544195Y4380562D01*
X129946Y4653384D02*
G01*
X4161180Y4653384D01*
X4523257Y4291307D01*
X5016500Y3809138D02*
G01*
X5016500Y3872918D01*
X5016500Y3872918D02*
G01*
X5013807Y3875610D01*
X5013807Y3889834D01*
X-722807Y4511982D02*
G01*
X-548716Y4511982D01*
X-544195Y4507461D01*
X-544195Y4444011D02*
G01*
X-544195Y4507461D01*
D10*
X-1257300Y4476904D02*
G01*
X-1447800Y4476904D01*
X-1179321Y4508629D02*
G01*
X-1179321Y4476904D01*
X-1117955Y4569995D02*
G01*
X-1179321Y4508629D01*
X-1679600Y4506902D02*
G01*
X-1632305Y4554197D01*
X-1224889Y4554197D01*
X-1179321Y4508629D01*
X-1679600Y4506902D02*
G01*
X-1727327Y4506902D01*
X-1631899Y4506902D02*
G01*
X-1679600Y4506902D01*
X-1257300Y4476904D02*
G01*
X-1179321Y4476904D01*
X-840003Y4569995D02*
G01*
X-426415Y4569995D01*
X-2003932Y4306877D02*
G01*
X-1963801Y4306877D01*
X-1891106Y4379572D01*
X-1891106Y4426943D01*
X-3516121Y3016100D02*
G01*
X-3355670Y3016100D01*
X-3318332Y2978762D01*
X-3318306Y2978762D01*
X-1891106Y4426943D02*
G01*
X-2020239Y4556076D01*
X-2457475Y4556076D01*
X-2502611Y4510940D01*
X-2101900Y4306877D02*
G01*
X-2003932Y4306877D01*
X-1729917Y4504489D02*
G01*
X-1813560Y4504489D01*
X-1891106Y4426943D01*
X1698015Y2984502D02*
G01*
X1826056Y2984502D01*
X2012518Y3170963D01*
X3619500Y3170963D01*
X475818Y4444011D02*
G01*
X475818Y4371037D01*
X475818Y4371037D02*
G01*
X567232Y4371037D01*
X580415Y4357855D01*
X2121331Y4273704D02*
G01*
X2013381Y4165754D01*
X992581Y4165754D01*
X2121331Y4273704D02*
G01*
X2120950Y4273704D01*
X2133676Y4273704D02*
G01*
X2121331Y4273704D01*
X2197125Y4273704D02*
G01*
X2133676Y4273704D01*
X2273274Y4273704D02*
G01*
X2297455Y4249524D01*
X2418384Y4249524D01*
X-2502611Y4510940D02*
G01*
X-2609722Y4510940D01*
X-2619984Y4521202D01*
X-3555111Y3016100D02*
G01*
X-3516121Y3016100D01*
X-3594100Y3016100D02*
G01*
X-3555111Y3016100D01*
X-1729917Y4504489D02*
G01*
X-1729739Y4504489D01*
X-1727327Y4506902D01*
X-1040003Y4569995D02*
G01*
X-840003Y4569995D01*
X2197125Y4273704D02*
G01*
X2273274Y4273704D01*
X3619500Y3170963D02*
G01*
X4504842Y3170963D01*
X4540935Y3134870D01*
X4826000Y3134870D01*
X3619500Y3170963D02*
G01*
X3619500Y3048002D01*
X1943100Y4344266D02*
G01*
X2050389Y4344266D01*
X2120950Y4273704D01*
X1624736Y2984502D02*
G01*
X1698015Y2984502D01*
X4826000Y3061566D02*
G01*
X4826000Y3134870D01*
X5016500Y3658491D02*
G01*
X5016500Y3270404D01*
X4880965Y3134870D01*
X4826000Y3134870D01*
X4603902Y3048002D02*
G01*
X4676876Y3048002D01*
X4826000Y3061566D02*
G01*
X4690440Y3061566D01*
X4676876Y3048002D01*
X-2693263Y4521202D02*
G01*
X-2619984Y4521202D01*
X-3419322Y3003806D02*
G01*
X-3507282Y3003806D01*
X-3507282Y3003806D02*
G01*
X-3507282Y3007260D01*
X-3516121Y3016100D01*
X-1040003Y4569995D02*
G01*
X-1117955Y4569995D01*
X2197125Y4133700D02*
G01*
X2805099Y4133700D01*
X2911170Y4239770D01*
X3958056Y4239770D01*
X3964482Y4233344D01*
X4547260Y4233344D01*
X4551425Y4237509D01*
X5905500Y3658491D02*
G01*
X5981674Y3658491D01*
X5981674Y3658491D02*
G01*
X6034227Y3605938D01*
X6553784Y3605938D01*
X6478346Y3304923D02*
G01*
X6423964Y3359304D01*
X5404484Y3359304D01*
X5147690Y3616098D01*
X5147690Y3731795D01*
X6582663Y3200631D02*
G01*
X6478346Y3304923D01*
X5474563Y3975153D02*
G01*
X5436768Y3937358D01*
X5436768Y3860116D01*
X6877202Y3289302D02*
G01*
X6788505Y3200605D01*
X6582663Y3200605D01*
X6582663Y3200631D01*
X6337300Y3061591D02*
G01*
X6443624Y3061591D01*
X6582663Y3200631D01*
X5147690Y3731795D02*
G01*
X5232400Y3816504D01*
X2705100Y3689200D02*
G01*
X4917033Y3689200D01*
X4959629Y3731795D01*
X5147690Y3731795D01*
X6864502Y3671496D02*
G01*
X6902018Y3671496D01*
X6907022Y3676500D01*
X6806387Y3671496D02*
G01*
X6864502Y3671496D01*
X6864502Y3671496D02*
G01*
X6864502Y3570480D01*
X6864502Y3492502D02*
G01*
X6864502Y3570480D01*
X2363012Y3574569D02*
G01*
X2363012Y3645258D01*
X2352395Y3557399D02*
G01*
X2363012Y3568016D01*
X2363012Y3574569D01*
X2605913Y3574569D02*
G01*
X2610002Y3570480D01*
X2605913Y3671496D02*
G01*
X2605913Y3574569D01*
X2610002Y3492502D02*
G01*
X2610002Y3570480D01*
X2206777Y3557399D02*
G01*
X2352395Y3557399D01*
X2139797Y3479802D02*
G01*
X2139797Y3490419D01*
X2206777Y3557399D01*
X5474563Y4051302D02*
G01*
X5474563Y3975153D01*
X6864502Y3492502D02*
G01*
X6864502Y3414524D01*
X6877202Y3289302D02*
G01*
X6877202Y3401824D01*
X6864502Y3414524D01*
X5474563Y4051302D02*
G01*
X5401284Y4051302D01*
X4804409Y4237509D02*
G01*
X5215077Y4237509D01*
X5401284Y4051302D01*
X4394200Y4142234D02*
G01*
X4508500Y4142234D01*
X2705100Y3689200D02*
G01*
X2627122Y3689200D01*
X6337300Y3061591D02*
G01*
X6261125Y3061591D01*
X6083300Y3048891D02*
G01*
X6248425Y3048891D01*
X6261125Y3061591D01*
X2605913Y3671496D02*
G01*
X2609418Y3671496D01*
X2627122Y3689200D01*
X2539187Y3671496D02*
G01*
X2605913Y3671496D01*
X6985000Y3676500D02*
G01*
X6907022Y3676500D01*
X5905500Y3658491D02*
G01*
X5829325Y3658491D01*
X5232400Y3816504D02*
G01*
X5310377Y3816504D01*
X5436768Y3860116D02*
G01*
X5353989Y3860116D01*
X5310377Y3816504D01*
X4508500Y4142234D02*
G01*
X4508500Y4193618D01*
X4644390Y4237509D02*
G01*
X4551425Y4237509D01*
X4551425Y4237509D02*
G01*
X4551425Y4236544D01*
X4508500Y4193618D01*
X4644390Y4237509D02*
G01*
X4804409Y4237509D01*
D11*
X-1594002Y4152902D02*
G01*
X-1594002Y4221355D01*
X-1631899Y4306902D02*
G01*
X-1543456Y4306902D01*
X-1543456Y4306902D02*
G01*
X-1543456Y4271901D01*
X-1594002Y4221355D01*
X5454497Y3454402D02*
G01*
X5454497Y3522855D01*
X5486806Y3607513D02*
G01*
X5486806Y3555164D01*
X5454497Y3522855D01*
D10*
X50825Y4516986D02*
G01*
X75514Y4516986D01*
X158191Y4599663D01*
X2469819Y4599663D01*
X2630677Y4438804D01*
X50825Y4444011D02*
G01*
X50825Y4516986D01*
X2768600Y4456838D02*
G01*
X2648711Y4456838D01*
X2630677Y4438804D01*
X2768600Y4456838D02*
G01*
X2844774Y4456838D01*
X2984500Y4317138D02*
G01*
X2984500Y4390417D01*
X2984500Y4390417D02*
G01*
X2911195Y4390417D01*
X2844774Y4456838D01*
X2552700Y4438804D02*
G01*
X2630677Y4438804D01*
D11*
X126568Y2969897D02*
G01*
X135813Y2979143D01*
X135813Y3048993D01*
X211556Y2969872D02*
G01*
X220802Y2979117D01*
X220802Y3048993D01*
X2124811Y2946402D02*
G01*
X2056358Y2946402D01*
X-34188Y3048993D02*
G01*
X-34188Y2985569D01*
X-34188Y2985569D02*
G01*
X49148Y2902231D01*
X2012188Y2902231D01*
X2056358Y2946402D01*
X2617063Y2946402D02*
G01*
X2294813Y2946402D01*
X-2843936Y4521202D02*
G01*
X-3090011Y4521202D01*
X-3260013Y4521202D02*
G01*
X-3328441Y4521202D01*
X-3537204Y4611169D02*
G01*
X-3418408Y4611169D01*
X-3328441Y4521202D01*
D10*
X-2101900Y4356889D02*
G01*
X-2006472Y4356889D01*
X-2003882Y4388436D02*
G01*
X-2003882Y4359480D01*
X-2006472Y4356889D01*
X-2003882Y4388436D02*
G01*
X-1971294Y4388436D01*
X-2355646Y2925828D02*
G01*
X-2285822Y2925828D01*
X-2229993Y2869999D01*
X-2029993Y2712036D02*
G01*
X-2033092Y2708937D01*
X-3139592Y2708937D01*
X-2029993Y2869999D02*
G01*
X-2029993Y2712036D01*
D11*
X-3124200Y3631338D02*
G01*
X-3190849Y3631338D01*
X-3480104Y3584196D02*
G01*
X-3237992Y3584196D01*
X-3190849Y3631338D01*
X-3190849Y3848966D02*
G01*
X-3190849Y3857475D01*
X-3217570Y3884195D01*
X-3480104Y3884195D01*
X-3124200Y3848966D02*
G01*
X-3190849Y3848966D01*
X-839063Y3784602D02*
G01*
X-775309Y3784602D01*
X-651687Y3746502D02*
G01*
X-737209Y3746502D01*
X-775309Y3784602D01*
X-3480104Y3834208D02*
G01*
X-3239439Y3834208D01*
X-989736Y3784602D02*
G01*
X-1053490Y3784602D01*
X-3025343Y3992196D02*
G01*
X-2637231Y3992196D01*
X-2493390Y3848356D01*
X-1117244Y3848356D01*
X-1053490Y3784602D01*
X-3480104Y3834208D02*
G01*
X-3568547Y3834208D01*
X-3480104Y3734208D02*
G01*
X-3568547Y3734208D01*
X-3568547Y3734208D02*
G01*
X-3569614Y3735275D01*
X-3569614Y3833141D01*
X-3568547Y3834208D01*
X1340865Y3613406D02*
G01*
X1340865Y3598471D01*
X1224406Y3627249D02*
G01*
X1327022Y3627249D01*
X1340865Y3613406D01*
X1603755Y3613406D02*
G01*
X1340865Y3613406D01*
X916127Y3059330D02*
G01*
X990955Y2984502D01*
X1474063Y2984502D01*
X390804Y4444011D02*
G01*
X390804Y4380562D01*
X390804Y4380562D02*
G01*
X516102Y4255264D01*
X671245Y4255264D01*
X1727200Y3613406D02*
G01*
X1603755Y3613406D01*
X-3402736Y4330702D02*
G01*
X-3466490Y4330702D01*
X-3537204Y4380435D02*
G01*
X-3537204Y4298241D01*
X-3537204Y4298241D02*
G01*
X-3498951Y4298241D01*
X-3466490Y4330702D01*
X6680200Y3790571D02*
G01*
X6659981Y3790571D01*
X6628434Y3759024D01*
X6680200Y3847746D02*
G01*
X6680200Y3790571D01*
X2413000Y3847746D02*
G01*
X2413000Y3790571D01*
X-127863Y2857502D02*
G01*
X1307871Y2857502D01*
X1350289Y2815084D01*
X2413000Y3790571D02*
G01*
X2393365Y3770937D01*
X2361361Y3770937D01*
X-278536Y2857502D02*
G01*
X-342290Y2857502D01*
X-342290Y2857502D02*
G01*
X-342290Y2858721D01*
X-459181Y2975612D01*
X-459181Y3048993D01*
X-289179Y4380562D02*
G01*
X-431952Y4237789D01*
X-503986Y4237789D01*
X-1631899Y4356889D02*
G01*
X-1720342Y4356889D01*
X-1720342Y4356889D02*
G01*
X-1720494Y4356737D01*
X-1720494Y4266669D01*
X-1698752Y4244926D01*
X-1640052Y4244926D01*
X-289179Y4444011D02*
G01*
X-289179Y4380562D01*
X-289179Y4507461D02*
G01*
X-271653Y4524987D01*
X-268808Y4524987D01*
X5586780Y3860116D02*
G01*
X5586780Y3930703D01*
X5557824Y3959659D01*
X5557824Y4096184D01*
X5483225Y4170784D01*
X5472811Y4170784D01*
X4941620Y4701974D01*
X-253339Y4701974D01*
X-289179Y4444011D02*
G01*
X-289179Y4507461D01*
X5905500Y3809138D02*
G01*
X5838850Y3809138D01*
X5586780Y3860116D02*
G01*
X5787872Y3860116D01*
X5838850Y3809138D01*
X-1631899Y4406877D02*
G01*
X-1720342Y4406877D01*
X-1800834Y4400400D02*
G01*
X-1726819Y4400400D01*
X-1720342Y4406877D01*
X-572262Y4086964D02*
G01*
X-497789Y4086964D01*
X-204190Y4380562D01*
X5625211Y4051302D02*
G01*
X5688990Y4051302D01*
X5688990Y4051302D02*
G01*
X5688990Y4019400D01*
X5796991Y3911399D01*
X5930671Y3911399D01*
X5972302Y3869768D01*
X5972302Y3745994D01*
X5969888Y3743581D01*
X5795390Y3743581D01*
X5730138Y3808834D01*
X5638088Y3808834D01*
X5625211Y4051302D02*
G01*
X5625211Y4117952D01*
X5492927Y4219374D02*
G01*
X5594350Y4117952D01*
X5625211Y4117952D01*
X-204190Y4444011D02*
G01*
X-204190Y4380562D01*
X-34188Y4444011D02*
G01*
X-34188Y4380562D01*
X-56692Y4364687D02*
G01*
X-40817Y4380562D01*
X-34188Y4380562D01*
X6730212Y3847746D02*
G01*
X6730212Y3917952D01*
X6732574Y3920314D01*
X6337300Y3212238D02*
G01*
X6403949Y3212238D01*
X6495186Y3202002D02*
G01*
X6414185Y3202002D01*
X6403949Y3212238D01*
X-374192Y4444011D02*
G01*
X-374192Y4374365D01*
X-383463Y4365094D01*
X2903474Y4011602D02*
G01*
X948004Y4011602D01*
X934059Y3997657D01*
X2970022Y3922524D02*
G01*
X2967507Y3925039D01*
X2483104Y3925039D01*
X2463012Y3904947D01*
X2463012Y3847746D02*
G01*
X2463012Y3904947D01*
X6083300Y3263318D02*
G01*
X5074996Y3263318D01*
X6083300Y3199538D02*
G01*
X6083300Y3263318D01*
X6630212Y3847746D02*
G01*
X6630212Y3904947D01*
X6076492Y3937789D02*
G01*
X6597370Y3937789D01*
X6630212Y3904947D01*
X-394309Y2857502D02*
G01*
X-394309Y2825625D01*
X-359384Y2790700D01*
X1255521Y2790700D01*
X-458063Y2857502D02*
G01*
X-394309Y2857502D01*
X2363012Y3847746D02*
G01*
X2363012Y3920822D01*
X2362987Y3920822D01*
X-608736Y2857502D02*
G01*
X-544956Y2857502D01*
X-544195Y3048993D02*
G01*
X-544195Y2858264D01*
X-544956Y2857502D01*
X-839063Y3619502D02*
G01*
X-775309Y3619502D01*
X-651687Y3661514D02*
G01*
X-733297Y3661514D01*
X-775309Y3619502D01*
X-3384930Y3777465D02*
G01*
X-3391662Y3784196D01*
X-3391662Y3684196D02*
G01*
X-3384930Y3690927D01*
X-3384930Y3777465D01*
X-3384930Y3777465D02*
G01*
X-1769338Y3777465D01*
X-1737436Y3809367D01*
X-1179601Y3809367D01*
X-989736Y3619502D01*
X-3480104Y3784196D02*
G01*
X-3391662Y3784196D01*
X-3480104Y3684196D02*
G01*
X-3391662Y3684196D01*
X5763209Y4033547D02*
G01*
X5912027Y4033547D01*
X6274079Y3671496D01*
X6553987Y3671496D01*
X-101041Y4522624D02*
G01*
X-116204Y4507461D01*
X-119176Y4507461D01*
X-119176Y4444011D02*
G01*
X-119176Y4507461D01*
X2286787Y3671496D02*
G01*
X1854987Y3671496D01*
X1836978Y3689504D01*
X943051Y3689504D01*
X884554Y3748001D01*
X-461670Y4364687D02*
G01*
X-459181Y4367176D01*
X-459181Y4444011D01*
X2286787Y3902052D02*
G01*
X1113840Y3902052D01*
X2286787Y3902052D02*
G01*
X2286787Y3915691D01*
X2343531Y3972435D01*
X2873933Y3972435D01*
X2883357Y3963012D01*
X2923616Y3963012D01*
X2933420Y3972816D01*
X4386173Y3972816D01*
X-374192Y3048993D02*
G01*
X-374192Y3112442D01*
X-374192Y3112442D02*
G01*
X-356184Y3130450D01*
X342239Y3130450D01*
X2286787Y3902052D02*
G01*
X2286787Y3821508D01*
X6496786Y3821508D02*
G01*
X6194602Y3821508D01*
X6553987Y3821508D02*
G01*
X6496786Y3821508D01*
X2539187Y3721508D02*
G01*
X2596388Y3721508D01*
X2596388Y3721508D02*
G01*
X2629560Y3754681D01*
X4678527Y3754681D01*
X4905679Y3981833D01*
X4887849Y4017495D02*
G01*
X4905679Y3999664D01*
X4905679Y3981833D01*
X4905679Y3981833D02*
G01*
X5396941Y3981833D01*
X4804409Y4017495D02*
G01*
X4887849Y4017495D01*
X6716242Y3721508D02*
G01*
X6806387Y3721508D01*
D10*
X6553784Y3605936D02*
G01*
X6557848Y3610000D01*
X6633463Y3610000D01*
X2463012Y3645255D02*
G01*
X2413279Y3645255D01*
X2605913Y3574569D02*
G01*
X2363012Y3574569D01*
X2463012Y3645255D02*
G01*
X2438321Y3645255D01*
X2439995Y3646929D01*
X2439995Y3709992D01*
X-2292172Y4493107D02*
G01*
X-2259050Y4459986D01*
X-2173401Y4459986D01*
X-3178784Y4406902D02*
G01*
X-2101900Y4406902D01*
X5536768Y3860114D02*
G01*
X5536768Y3912948D01*
X5474563Y3975153D01*
X5638088Y3658821D02*
G01*
X5828995Y3658821D01*
X5829325Y3658491D01*
X5436870Y3607562D02*
G01*
X5435091Y3627881D01*
X5441950Y3634994D01*
X5441950Y3657092D01*
X5465063Y3679952D01*
X5525008Y3679952D01*
X5536691Y3668268D01*
X5536691Y3607562D01*
D12*
G01*
X-2310003Y4644999D03*
G01*
X-2310003Y4315002D03*
G01*
X-2724988Y3569995D03*
G01*
X-2724988Y3899992D03*
D13*
G01*
X-2984500Y3003397D03*
G01*
X-2984500Y3143402D03*
D14*
G01*
X1517497Y4470400D03*
G01*
X1657502Y4470400D03*
D15*
G01*
X-2755900Y3381730D03*
G01*
X-2755900Y3044469D03*
D17*
G01*
X-1407490Y3483990D03*
G01*
X-1342491Y3483990D03*
G01*
X-1277493Y3483990D03*
G01*
X-1212494Y3483990D03*
G01*
X-1212494Y3735984D03*
G01*
X-1277493Y3735984D03*
G01*
X-1342491Y3735984D03*
G01*
X-1407490Y3735984D03*
D18*
G01*
X-1619996Y3214668D03*
D19*
G01*
X-1619986Y3365322D03*
D13*
G01*
X-3594100Y3016097D03*
G01*
X-3594100Y3156102D03*
G01*
X-840003Y4569993D03*
G01*
X-840003Y4429988D03*
G01*
X-1040003Y4569993D03*
G01*
X-1040003Y4429988D03*
D14*
G01*
X2610002Y3492500D03*
G01*
X2469997Y3492500D03*
G01*
X2139797Y3479800D03*
G01*
X2279802Y3479800D03*
D13*
G01*
X2705100Y3689197D03*
G01*
X2705100Y3829202D03*
D14*
G01*
X-1594002Y4152900D03*
G01*
X-1453997Y4152900D03*
D13*
G01*
X-1257300Y4476902D03*
G01*
X-1257300Y4336897D03*
G01*
X-1447800Y4476902D03*
G01*
X-1447800Y4336897D03*
D14*
G01*
X-1314602Y3314700D03*
G01*
X-1174597Y3314700D03*
D13*
G01*
X-1610004Y3699992D03*
G01*
X-1610004Y3559987D03*
G01*
X5232400Y3816502D03*
G01*
X5232400Y3676522D03*
D14*
G01*
X5594502Y3454400D03*
G01*
X5454497Y3454400D03*
D13*
G01*
X2552700Y4438802D03*
G01*
X2552700Y4298797D03*
G01*
X6985000Y3676497D03*
G01*
X6985000Y3816502D03*
D14*
G01*
X6864502Y3492500D03*
G01*
X6724497Y3492500D03*
G01*
X6877202Y3289300D03*
G01*
X6737197Y3289300D03*
D20*
G01*
X4508500Y4142221D03*
D21*
G01*
X4508500Y4087368D03*
D20*
G01*
X4394200Y4142221D03*
D21*
G01*
X4394200Y4087368D03*
D22*
G01*
X-2949930Y2806700D03*
G01*
X-2612669Y2806700D03*
D14*
G01*
X4463897Y3048000D03*
G01*
X4603902Y3048000D03*
D23*
G01*
X2197125Y4273702D03*
G01*
X2197125Y4133697D03*
D24*
G01*
X2124811Y2946400D03*
G01*
X2294813Y2946400D03*
G01*
X-3090011Y4521200D03*
G01*
X-3260013Y4521200D03*
D25*
G01*
X-2229993Y2869996D03*
G01*
X-2029993Y2869996D03*
D18*
G01*
X-3124200Y3631324D03*
D19*
G01*
X-3124200Y3480663D03*
D18*
G01*
X-3124200Y3848975D03*
D19*
G01*
X-3124200Y3999636D03*
D26*
G01*
X-839075Y3784600D03*
G01*
X-989724Y3784600D03*
D18*
G01*
X1943099Y4494924D03*
D19*
G01*
X1943100Y4344263D03*
D27*
G01*
X1474075Y2984500D03*
G01*
X1624724Y2984500D03*
D18*
G01*
X5016497Y3809137D03*
D19*
G01*
X5016500Y3658488D03*
D18*
G01*
X4826000Y3212224D03*
D19*
G01*
X4826000Y3061563D03*
D26*
G01*
X-3252075Y4330700D03*
G01*
X-3402724Y4330700D03*
D18*
G01*
X2984500Y4166475D03*
D19*
G01*
X2984500Y4317136D03*
D18*
G01*
X2768600Y4456824D03*
D19*
G01*
X2768600Y4306163D03*
D26*
G01*
X-127875Y2857500D03*
G01*
X-278524Y2857500D03*
D18*
G01*
X5905497Y3809137D03*
D19*
G01*
X5905500Y3658488D03*
D27*
G01*
X5474572Y4051312D03*
G01*
X5625222Y4051312D03*
D18*
G01*
X6337297Y3061587D03*
D19*
G01*
X6337300Y3212236D03*
D26*
G01*
X-2693275Y4521200D03*
G01*
X-2843924Y4521200D03*
D18*
G01*
X6083297Y3048887D03*
D19*
G01*
X6083300Y3199536D03*
D26*
G01*
X-458075Y2857500D03*
G01*
X-608724Y2857500D03*
G01*
X2767724Y2946400D03*
G01*
X2617075Y2946400D03*
G01*
X-839075Y3619500D03*
G01*
X-989724Y3619500D03*
D28*
G01*
X1727200Y4261104D03*
G01*
X1727200Y3816095D03*
G01*
X1727200Y3168395D03*
G01*
X1727200Y3613404D03*
D29*
G01*
X645820Y4444009D03*
G01*
X560806Y4444009D03*
G01*
X475818Y4444009D03*
G01*
X390804Y4444009D03*
G01*
X305815Y4444009D03*
G01*
X220802Y4444009D03*
G01*
X135813Y4444009D03*
G01*
X50825Y4444009D03*
G01*
X-34188Y4444009D03*
G01*
X-119176Y4444009D03*
G01*
X-204190Y4444009D03*
G01*
X-289179Y4444009D03*
G01*
X-374192Y4444009D03*
G01*
X-459181Y4444009D03*
G01*
X-544195Y4444009D03*
D30*
G01*
X-651687Y4341495D03*
G01*
X-651687Y4256506D03*
G01*
X-651687Y4171492D03*
G01*
X-651687Y4086504D03*
G01*
X-651687Y4001490D03*
G01*
X-651687Y3916502D03*
G01*
X-651687Y3831488D03*
G01*
X-651687Y3746500D03*
G01*
X-651687Y3661511D03*
G01*
X-651687Y3576497D03*
G01*
X-651687Y3491509D03*
G01*
X-651687Y3406495D03*
G01*
X-651687Y3321507D03*
G01*
X-651687Y3236493D03*
G01*
X-651687Y3151504D03*
D29*
G01*
X-544195Y3048990D03*
G01*
X-459181Y3048990D03*
G01*
X-374192Y3048990D03*
G01*
X-289179Y3048990D03*
G01*
X-204190Y3048990D03*
G01*
X-119176Y3048990D03*
G01*
X-34188Y3048990D03*
G01*
X50825Y3048990D03*
G01*
X135813Y3048990D03*
G01*
X220802Y3048990D03*
G01*
X305815Y3048990D03*
G01*
X390804Y3048990D03*
G01*
X475818Y3048990D03*
G01*
X560806Y3048990D03*
G01*
X645820Y3048990D03*
D30*
G01*
X753313Y3151504D03*
G01*
X753313Y3236493D03*
G01*
X753313Y3321507D03*
G01*
X753313Y3406495D03*
G01*
X753313Y3491509D03*
G01*
X753313Y3576497D03*
G01*
X753313Y3661511D03*
G01*
X753313Y3746500D03*
G01*
X753313Y3831488D03*
G01*
X753313Y3916502D03*
G01*
X753313Y4001490D03*
G01*
X753313Y4086504D03*
G01*
X753313Y4171492D03*
G01*
X753313Y4256506D03*
G01*
X753313Y4341495D03*
D31*
G01*
X750823Y4446498D03*
G01*
X750823Y3046501D03*
G01*
X-649198Y4446498D03*
G01*
X-649198Y3046501D03*
D32*
G01*
X215823Y3911498D03*
G01*
X215823Y3746500D03*
G01*
X215823Y3581501D03*
G01*
X50825Y3911498D03*
G01*
X50825Y3746500D03*
G01*
X50825Y3581501D03*
G01*
X-114198Y3911498D03*
G01*
X-114198Y3746500D03*
G01*
X-114198Y3581501D03*
D33*
G01*
X-3419322Y3003804D03*
G01*
X-3419322Y3193795D03*
G01*
X-3159277Y3193795D03*
G01*
X-3159277Y3098800D03*
G01*
X-3159277Y3003804D03*
D34*
G01*
X2286787Y3821506D03*
G01*
X2286787Y3771493D03*
G01*
X2286787Y3721506D03*
G01*
X2286787Y3671493D03*
D35*
G01*
X2363012Y3645255D03*
G01*
X2413000Y3645255D03*
G01*
X2463012Y3645255D03*
D34*
G01*
X2539187Y3671493D03*
G01*
X2539187Y3721506D03*
G01*
X2539187Y3771493D03*
G01*
X2539187Y3821506D03*
D35*
G01*
X2463012Y3847744D03*
G01*
X2413000Y3847744D03*
G01*
X2363012Y3847744D03*
D34*
G01*
X6553987Y3821506D03*
G01*
X6553987Y3771493D03*
G01*
X6553987Y3721506D03*
G01*
X6553987Y3671493D03*
D35*
G01*
X6630212Y3645255D03*
G01*
X6680200Y3645255D03*
G01*
X6730212Y3645255D03*
D34*
G01*
X6806387Y3671493D03*
G01*
X6806387Y3721506D03*
G01*
X6806387Y3771493D03*
G01*
X6806387Y3821506D03*
D35*
G01*
X6730212Y3847744D03*
G01*
X6680200Y3847744D03*
G01*
X6630212Y3847744D03*
D36*
G01*
X-3537204Y4611166D03*
G01*
X-3632200Y4611166D03*
G01*
X-3727195Y4611166D03*
D37*
G01*
X-3727195Y4380433D03*
G01*
X-3537204Y4380433D03*
D38*
G01*
X-1631899Y4306900D03*
G01*
X-1631899Y4356887D03*
G01*
X-1631899Y4406874D03*
G01*
X-1631899Y4456887D03*
G01*
X-1631899Y4506899D03*
G01*
X-2101900Y4506874D03*
G01*
X-2101900Y4456887D03*
G01*
X-2101900Y4406900D03*
G01*
X-2101900Y4356887D03*
G01*
X-2101900Y4306874D03*
D39*
G01*
X5638088Y3808831D03*
G01*
X5638088Y3758819D03*
G01*
X5638088Y3708831D03*
G01*
X5638088Y3658819D03*
D40*
G01*
X5586806Y3607511D03*
G01*
X5536793Y3607511D03*
G01*
X5486806Y3607511D03*
G01*
X5436793Y3607511D03*
D39*
G01*
X5385485Y3658793D03*
G01*
X5385485Y3708806D03*
G01*
X5385485Y3758793D03*
G01*
X5385485Y3808806D03*
D40*
G01*
X5436768Y3860114D03*
G01*
X5486781Y3860114D03*
G01*
X5536768Y3860114D03*
G01*
X5586780Y3860114D03*
D41*
G01*
X4804409Y4237507D03*
G01*
X4804409Y4017492D03*
G01*
X4644390Y4237507D03*
G01*
X4644390Y4017492D03*
D42*
G01*
X-3480104Y4079189D03*
G01*
X-3480104Y3999204D03*
D38*
G01*
X-3480104Y3934205D03*
G01*
X-3480104Y3884193D03*
G01*
X-3480104Y3834206D03*
G01*
X-3480104Y3784193D03*
G01*
X-3480104Y3734206D03*
G01*
X-3480104Y3684193D03*
G01*
X-3480104Y3634206D03*
G01*
X-3480104Y3584194D03*
D42*
G01*
X-3480104Y3519195D03*
G01*
X-3480104Y3439210D03*
D43*
G01*
X4127500Y3048000D03*
G01*
X3873500Y3048000D03*
G01*
X3619500Y3048000D03*
D44*
G01*
X3365500Y3048000D03*
G01*
X-2552700Y4140200D03*
D43*
G01*
X-2806700Y4140200D03*
D44*
G01*
X-1143000Y2997200D03*
D43*
G01*
X-1397000Y2997200D03*
D45*
G01*
X-3544087Y3327196D03*
D46*
G01*
X-3962095Y3327196D03*
G01*
X-3962095Y4191203D03*
D45*
G01*
X-3544087Y4191203D03*
D47*
G01*
X-2965246Y2917444D03*
G01*
X-2189073Y4635245D03*
G01*
X892327Y4057878D03*
G01*
X-2310003Y4215637D03*
G01*
X-3031870Y3891813D03*
G01*
X-3207537Y2927400D03*
G01*
X-2260904Y3057093D03*
G01*
X-2352649Y3522421D03*
G01*
X2670378Y4286097D03*
G01*
X2839618Y3869562D03*
G01*
X6345351Y2949727D03*
G01*
X6984974Y3903624D03*
G01*
X6779310Y3383686D03*
G01*
X-496112Y3700068D03*
G01*
X2286254Y3386302D03*
D48*
G01*
X669061Y3129483D03*
G01*
X1437970Y4477054D03*
G01*
X1491487Y3781602D03*
G01*
X-1338326Y3399358D03*
G01*
X-732917Y4137888D03*
G01*
X-1097534Y3657422D03*
G01*
X847039Y3092424D03*
G01*
X-527456Y4363821D03*
G01*
X-1467129Y3735984D03*
G01*
X-722807Y4511979D03*
G01*
X129946Y4653381D03*
G01*
X4523257Y4291304D03*
G01*
X5013807Y3889832D03*
D47*
G01*
X-426415Y4569993D03*
G01*
X580415Y4357852D03*
G01*
X992581Y4165752D03*
G01*
X-2502611Y4510938D03*
G01*
X-3318306Y2978759D03*
G01*
X2418384Y4249521D03*
G01*
X6553784Y3605936D03*
G01*
X6478346Y3304920D03*
D48*
G01*
X126568Y2969895D03*
G01*
X211556Y2969869D03*
D47*
G01*
X-2355646Y2925826D03*
G01*
X-1971294Y4388434D03*
G01*
X-2292172Y4493107D03*
G01*
X-3139592Y2708935D03*
D48*
G01*
X-3025343Y3992194D03*
G01*
X-3239439Y3834206D03*
G01*
X916127Y3059328D03*
G01*
X1340865Y3598468D03*
G01*
X1224406Y3627246D03*
G01*
X671245Y4255262D03*
G01*
X6628434Y3759022D03*
G01*
X2361361Y3770934D03*
G01*
X1350289Y2815081D03*
G01*
X-1640052Y4244924D03*
G01*
X-503986Y4237786D03*
G01*
X-253339Y4701971D03*
G01*
X-268808Y4524984D03*
G01*
X-1800834Y4400397D03*
G01*
X5492927Y4219371D03*
G01*
X-572262Y4086961D03*
G01*
X-56692Y4364685D03*
G01*
X6495186Y3202000D03*
G01*
X6732574Y3920312D03*
G01*
X2903474Y4011599D03*
G01*
X934059Y3997655D03*
G01*
X-383463Y4365091D03*
G01*
X5074996Y3263315D03*
G01*
X2970022Y3922521D03*
G01*
X6076492Y3937787D03*
G01*
X2362987Y3920820D03*
G01*
X1255521Y2790697D03*
G01*
X-101041Y4522622D03*
G01*
X5763209Y4033545D03*
G01*
X-461670Y4364685D03*
G01*
X884554Y3747998D03*
G01*
X342239Y3130448D03*
G01*
X1113840Y3902049D03*
G01*
X4386173Y3972813D03*
G01*
X6194602Y3821506D03*
G01*
X6716242Y3721506D03*
G01*
X5396941Y3981830D03*
D47*
G01*
X2440000Y3710000D03*
M02*
