G04 Layer: TopSilkscreenLayer*
G04 EasyEDA v6.5.54, 2026-05-30 19:05:59*
G04 b713acd6552c46cc8e75d456f680c5e3,b6031369c6ef4286a022563aaf79ab08,10*
G04 Gerber Generator version 0.2*
G04 Scale: 100 percent, Rotated: No, Reflected: No *
G04 Dimensions in millimeters *
G04 leading zeros omitted , absolute positions ,4 integer and 5 decimal *
%FSLAX45Y45*%
%MOMM*%

%ADD10C,0.1524*%
%ADD11C,0.2540*%
%ADD12C,0.1200*%
%ADD13C,0.1520*%
%ADD14C,0.1500*%
%ADD15C,0.1000*%
%ADD16C,0.2500*%
%ADD17C,0.0141*%
%ADD18C,0.2000*%
%ADD19C,0.3000*%

%LPD*%
D10*
X-3377013Y4724397D02*
G01*
X-3382347Y4734811D01*
X-3392761Y4745225D01*
X-3402921Y4750305D01*
X-3423749Y4750305D01*
X-3434163Y4745225D01*
X-3444577Y4734811D01*
X-3449911Y4724397D01*
X-3454991Y4708649D01*
X-3454991Y4682741D01*
X-3449911Y4667247D01*
X-3444577Y4656833D01*
X-3434163Y4646419D01*
X-3423749Y4641339D01*
X-3402921Y4641339D01*
X-3392761Y4646419D01*
X-3382347Y4656833D01*
X-3377013Y4667247D01*
X-3342723Y4750305D02*
G01*
X-3342723Y4641339D01*
X-3270079Y4750305D02*
G01*
X-3270079Y4641339D01*
X-3342723Y4698489D02*
G01*
X-3270079Y4698489D01*
X-3235789Y4750305D02*
G01*
X-3235789Y4641339D01*
X-3235789Y4750305D02*
G01*
X-3189053Y4750305D01*
X-3173305Y4745225D01*
X-3168225Y4739891D01*
X-3162891Y4729477D01*
X-3162891Y4719063D01*
X-3168225Y4708649D01*
X-3173305Y4703569D01*
X-3189053Y4698489D01*
X-3235789Y4698489D01*
X-3199467Y4698489D02*
G01*
X-3162891Y4641339D01*
X-3050877Y4724397D02*
G01*
X-3055957Y4734811D01*
X-3066371Y4745225D01*
X-3076785Y4750305D01*
X-3097613Y4750305D01*
X-3108027Y4745225D01*
X-3118441Y4734811D01*
X-3123521Y4724397D01*
X-3128601Y4708649D01*
X-3128601Y4682741D01*
X-3123521Y4667247D01*
X-3118441Y4656833D01*
X-3108027Y4646419D01*
X-3097613Y4641339D01*
X-3076785Y4641339D01*
X-3066371Y4646419D01*
X-3055957Y4656833D01*
X-3050877Y4667247D01*
X-3050877Y4682741D01*
X-3076785Y4682741D02*
G01*
X-3050877Y4682741D01*
X-3016587Y4750305D02*
G01*
X-3016587Y4641339D01*
X-3016587Y4750305D02*
G01*
X-2943689Y4641339D01*
X-2943689Y4750305D02*
G01*
X-2943689Y4641339D01*
X-2831421Y4724397D02*
G01*
X-2836755Y4734811D01*
X-2847169Y4745225D01*
X-2857583Y4750305D01*
X-2878411Y4750305D01*
X-2888571Y4745225D01*
X-2898985Y4734811D01*
X-2904319Y4724397D01*
X-2909399Y4708649D01*
X-2909399Y4682741D01*
X-2904319Y4667247D01*
X-2898985Y4656833D01*
X-2888571Y4646419D01*
X-2878411Y4641339D01*
X-2857583Y4641339D01*
X-2847169Y4646419D01*
X-2836755Y4656833D01*
X-2831421Y4667247D01*
X-2831421Y4682741D01*
X-2857583Y4682741D02*
G01*
X-2831421Y4682741D01*
X-2844995Y4395304D02*
G01*
X-2844995Y4286338D01*
X-2844995Y4395304D02*
G01*
X-2798259Y4395304D01*
X-2782765Y4390224D01*
X-2777431Y4384890D01*
X-2772351Y4374476D01*
X-2772351Y4364062D01*
X-2777431Y4353648D01*
X-2782765Y4348568D01*
X-2798259Y4343488D01*
X-2844995Y4343488D02*
G01*
X-2798259Y4343488D01*
X-2782765Y4338154D01*
X-2777431Y4333074D01*
X-2772351Y4322660D01*
X-2772351Y4306912D01*
X-2777431Y4296498D01*
X-2782765Y4291418D01*
X-2798259Y4286338D01*
X-2844995Y4286338D01*
X-2696405Y4395304D02*
G01*
X-2738061Y4286338D01*
X-2696405Y4395304D02*
G01*
X-2654749Y4286338D01*
X-2722313Y4322660D02*
G01*
X-2670497Y4322660D01*
X-2584137Y4395304D02*
G01*
X-2584137Y4286338D01*
X-2620459Y4395304D02*
G01*
X-2547815Y4395304D01*
X-3001263Y4189221D02*
G01*
X-3001263Y4095750D01*
X-3048000Y4142486D02*
G01*
X-2954528Y4142486D01*
X-2409995Y4153077D02*
G01*
X-2316523Y4153077D01*
X3326891Y4218178D02*
G01*
X3316477Y4212844D01*
X3306063Y4202429D01*
X3300984Y4192270D01*
X3300984Y4171442D01*
X3306063Y4161028D01*
X3316477Y4150613D01*
X3326891Y4145279D01*
X3342640Y4140200D01*
X3368547Y4140200D01*
X3384041Y4145279D01*
X3394456Y4150613D01*
X3404870Y4161028D01*
X3409950Y4171442D01*
X3409950Y4192270D01*
X3404870Y4202429D01*
X3394456Y4212844D01*
X3384041Y4218178D01*
X3368547Y4218178D01*
X3368547Y4192270D02*
G01*
X3368547Y4218178D01*
X3300984Y4252468D02*
G01*
X3409950Y4252468D01*
X3300984Y4252468D02*
G01*
X3409950Y4325112D01*
X3300984Y4325112D02*
G01*
X3409950Y4325112D01*
X3300984Y4359402D02*
G01*
X3409950Y4359402D01*
X3300984Y4359402D02*
G01*
X3300984Y4395723D01*
X3306063Y4411471D01*
X3316477Y4421886D01*
X3326891Y4426965D01*
X3342640Y4432300D01*
X3368547Y4432300D01*
X3384041Y4426965D01*
X3394456Y4421886D01*
X3404870Y4411471D01*
X3409950Y4395723D01*
X3409950Y4359402D01*
X3554984Y4150613D02*
G01*
X3554984Y4207763D01*
X3596640Y4176521D01*
X3596640Y4192270D01*
X3601720Y4202429D01*
X3606800Y4207763D01*
X3622547Y4212844D01*
X3632961Y4212844D01*
X3648456Y4207763D01*
X3658870Y4197350D01*
X3663950Y4181855D01*
X3663950Y4166107D01*
X3658870Y4150613D01*
X3653790Y4145279D01*
X3643375Y4140200D01*
X3554984Y4247134D02*
G01*
X3663950Y4288789D01*
X3554984Y4330445D02*
G01*
X3663950Y4288789D01*
X3554984Y4375150D02*
G01*
X3554984Y4432300D01*
X3596640Y4401057D01*
X3596640Y4416552D01*
X3601720Y4426965D01*
X3606800Y4432300D01*
X3622547Y4437379D01*
X3632961Y4437379D01*
X3648456Y4432300D01*
X3658870Y4421886D01*
X3663950Y4406137D01*
X3663950Y4390644D01*
X3658870Y4375150D01*
X3653790Y4369815D01*
X3643375Y4364736D01*
X3808984Y4176521D02*
G01*
X3917950Y4176521D01*
X3808984Y4140200D02*
G01*
X3808984Y4212844D01*
X3808984Y4247134D02*
G01*
X3917950Y4320031D01*
X3808984Y4320031D02*
G01*
X3917950Y4247134D01*
X4062984Y4152900D02*
G01*
X4171950Y4152900D01*
X4062984Y4152900D02*
G01*
X4062984Y4199636D01*
X4068063Y4215129D01*
X4073397Y4220463D01*
X4083811Y4225544D01*
X4094225Y4225544D01*
X4104640Y4220463D01*
X4109720Y4215129D01*
X4114800Y4199636D01*
X4114800Y4152900D01*
X4114800Y4189221D02*
G01*
X4171950Y4225544D01*
X4062984Y4259834D02*
G01*
X4171950Y4332731D01*
X4062984Y4332731D02*
G01*
X4171950Y4259834D01*
X3924300Y2767584D02*
G01*
X3924300Y2845562D01*
X3919220Y2861055D01*
X3908806Y2871470D01*
X3893058Y2876550D01*
X3882643Y2876550D01*
X3867150Y2871470D01*
X3856736Y2861055D01*
X3851656Y2845562D01*
X3851656Y2767584D01*
X3775709Y2767584D02*
G01*
X3817365Y2876550D01*
X3775709Y2767584D02*
G01*
X3734054Y2876550D01*
X3801618Y2840228D02*
G01*
X3749802Y2840228D01*
X3699763Y2767584D02*
G01*
X3699763Y2876550D01*
X3699763Y2767584D02*
G01*
X3653027Y2767584D01*
X3637534Y2772663D01*
X3632200Y2777997D01*
X3627120Y2788412D01*
X3627120Y2798826D01*
X3632200Y2809239D01*
X3637534Y2814320D01*
X3653027Y2819400D01*
X3699763Y2819400D01*
X3663441Y2819400D02*
G01*
X3627120Y2876550D01*
X3556508Y2767584D02*
G01*
X3556508Y2876550D01*
X3592829Y2767584D02*
G01*
X3520186Y2767584D01*
X1929384Y3225800D02*
G01*
X2038350Y3225800D01*
X1929384Y3225800D02*
G01*
X1929384Y3272536D01*
X1934463Y3288029D01*
X1939797Y3293363D01*
X1950211Y3298444D01*
X1960625Y3298444D01*
X1971040Y3293363D01*
X1976120Y3288029D01*
X1981200Y3272536D01*
X1981200Y3225800D02*
G01*
X1981200Y3272536D01*
X1986534Y3288029D01*
X1991613Y3293363D01*
X2002027Y3298444D01*
X2017775Y3298444D01*
X2028190Y3293363D01*
X2033270Y3288029D01*
X2038350Y3272536D01*
X2038350Y3225800D01*
X1929384Y3363976D02*
G01*
X1934463Y3353562D01*
X1944877Y3343147D01*
X1955291Y3338068D01*
X1971040Y3332734D01*
X1996947Y3332734D01*
X2012441Y3338068D01*
X2022856Y3343147D01*
X2033270Y3353562D01*
X2038350Y3363976D01*
X2038350Y3384804D01*
X2033270Y3395218D01*
X2022856Y3405631D01*
X2012441Y3410712D01*
X1996947Y3416045D01*
X1971040Y3416045D01*
X1955291Y3410712D01*
X1944877Y3405631D01*
X1934463Y3395218D01*
X1929384Y3384804D01*
X1929384Y3363976D01*
X1929384Y3481323D02*
G01*
X1934463Y3470910D01*
X1944877Y3460750D01*
X1955291Y3455415D01*
X1971040Y3450336D01*
X1996947Y3450336D01*
X2012441Y3455415D01*
X2022856Y3460750D01*
X2033270Y3470910D01*
X2038350Y3481323D01*
X2038350Y3502152D01*
X2033270Y3512565D01*
X2022856Y3522979D01*
X2012441Y3528060D01*
X1996947Y3533394D01*
X1971040Y3533394D01*
X1955291Y3528060D01*
X1944877Y3522979D01*
X1934463Y3512565D01*
X1929384Y3502152D01*
X1929384Y3481323D01*
X1929384Y3604005D02*
G01*
X2038350Y3604005D01*
X1929384Y3567684D02*
G01*
X1929384Y3640328D01*
X1916684Y3898900D02*
G01*
X2025650Y3898900D01*
X1916684Y3898900D02*
G01*
X1916684Y3945636D01*
X1921763Y3961129D01*
X1927097Y3966463D01*
X1937511Y3971544D01*
X1947925Y3971544D01*
X1958340Y3966463D01*
X1963420Y3961129D01*
X1968500Y3945636D01*
X1968500Y3898900D01*
X1968500Y3935221D02*
G01*
X2025650Y3971544D01*
X1932177Y4078731D02*
G01*
X1921763Y4068318D01*
X1916684Y4052570D01*
X1916684Y4031995D01*
X1921763Y4016247D01*
X1932177Y4005834D01*
X1942591Y4005834D01*
X1953006Y4011168D01*
X1958340Y4016247D01*
X1963420Y4026662D01*
X1973834Y4057904D01*
X1978913Y4068318D01*
X1984247Y4073397D01*
X1994661Y4078731D01*
X2010156Y4078731D01*
X2020570Y4068318D01*
X2025650Y4052570D01*
X2025650Y4031995D01*
X2020570Y4016247D01*
X2010156Y4005834D01*
X1916684Y4149344D02*
G01*
X2025650Y4149344D01*
X1916684Y4113021D02*
G01*
X1916684Y4185665D01*
X2091943Y2766821D02*
G01*
X2081529Y2777236D01*
X2066036Y2782315D01*
X2045208Y2782315D01*
X2029713Y2777236D01*
X2019300Y2766821D01*
X2019300Y2756407D01*
X2024379Y2745994D01*
X2029713Y2740660D01*
X2040127Y2735579D01*
X2071370Y2725165D01*
X2081529Y2720086D01*
X2086863Y2714752D01*
X2091943Y2704337D01*
X2091943Y2688844D01*
X2081529Y2678429D01*
X2066036Y2673350D01*
X2045208Y2673350D01*
X2029713Y2678429D01*
X2019300Y2688844D01*
X2162809Y2782315D02*
G01*
X2162809Y2673350D01*
X2126234Y2782315D02*
G01*
X2199131Y2782315D01*
X2274824Y2782315D02*
G01*
X2233422Y2673350D01*
X2274824Y2782315D02*
G01*
X2316479Y2673350D01*
X2248915Y2709671D02*
G01*
X2300986Y2709671D01*
X2387091Y2782315D02*
G01*
X2387091Y2673350D01*
X2350770Y2782315D02*
G01*
X2423413Y2782315D01*
X-1409700Y2807715D02*
G01*
X-1409700Y2698750D01*
X-1409700Y2807715D02*
G01*
X-1362963Y2807715D01*
X-1347470Y2802636D01*
X-1342136Y2797302D01*
X-1337055Y2786887D01*
X-1337055Y2776473D01*
X-1342136Y2766060D01*
X-1347470Y2760979D01*
X-1362963Y2755900D01*
X-1409700Y2755900D02*
G01*
X-1362963Y2755900D01*
X-1347470Y2750565D01*
X-1342136Y2745486D01*
X-1337055Y2735071D01*
X-1337055Y2719323D01*
X-1342136Y2708910D01*
X-1347470Y2703829D01*
X-1362963Y2698750D01*
X-1409700Y2698750D01*
X-1266189Y2807715D02*
G01*
X-1266189Y2698750D01*
X-1302765Y2807715D02*
G01*
X-1229868Y2807715D01*
X-1195578Y2807715D02*
G01*
X-1195578Y2698750D01*
X-1195578Y2807715D02*
G01*
X-1122934Y2698750D01*
X-1122934Y2807715D02*
G01*
X-1122934Y2698750D01*
X-1843351Y2899824D02*
G01*
X-1843351Y2806352D01*
X-1890087Y2853088D02*
G01*
X-1796361Y2853088D01*
X-2489962Y2852928D02*
G01*
X-2396489Y2852928D01*
X-2165311Y4574989D02*
G01*
X-2056345Y4574989D01*
X-2165311Y4574989D02*
G01*
X-2165311Y4611311D01*
X-2160231Y4627059D01*
X-2149817Y4637219D01*
X-2139403Y4642553D01*
X-2123655Y4647633D01*
X-2097747Y4647633D01*
X-2082253Y4642553D01*
X-2071839Y4637219D01*
X-2061425Y4627059D01*
X-2056345Y4611311D01*
X-2056345Y4574989D01*
X-2165311Y4692337D02*
G01*
X-2165311Y4749487D01*
X-2123655Y4718499D01*
X-2123655Y4733993D01*
X-2118575Y4744407D01*
X-2113495Y4749487D01*
X-2097747Y4754821D01*
X-2087333Y4754821D01*
X-2071839Y4749487D01*
X-2061425Y4739073D01*
X-2056345Y4723579D01*
X-2056345Y4708085D01*
X-2061425Y4692337D01*
X-2066505Y4687257D01*
X-2076919Y4681923D01*
X-2479677Y3544994D02*
G01*
X-2588643Y3544994D01*
X-2479677Y3544994D02*
G01*
X-2479677Y3508672D01*
X-2484757Y3492924D01*
X-2495171Y3482764D01*
X-2505585Y3477430D01*
X-2521333Y3472350D01*
X-2547241Y3472350D01*
X-2562735Y3477430D01*
X-2573149Y3482764D01*
X-2583563Y3492924D01*
X-2588643Y3508672D01*
X-2588643Y3544994D01*
X-2479677Y3385990D02*
G01*
X-2552321Y3438060D01*
X-2552321Y3360082D01*
X-2479677Y3385990D02*
G01*
X-2588643Y3385990D01*
X-3098292Y2855721D02*
G01*
X-3087878Y2861055D01*
X-3077463Y2871470D01*
X-3072384Y2881629D01*
X-3072384Y2902457D01*
X-3077463Y2912871D01*
X-3087878Y2923286D01*
X-3098292Y2928620D01*
X-3114039Y2933700D01*
X-3139947Y2933700D01*
X-3155442Y2928620D01*
X-3165855Y2923286D01*
X-3176270Y2912871D01*
X-3181350Y2902457D01*
X-3181350Y2881629D01*
X-3176270Y2871470D01*
X-3165855Y2861055D01*
X-3155442Y2855721D01*
X-3093212Y2821431D02*
G01*
X-3087878Y2811018D01*
X-3072384Y2795523D01*
X-3181350Y2795523D01*
X1585721Y4622292D02*
G01*
X1591055Y4611878D01*
X1601470Y4601463D01*
X1611629Y4596384D01*
X1632457Y4596384D01*
X1642871Y4601463D01*
X1653286Y4611878D01*
X1658620Y4622292D01*
X1663700Y4638039D01*
X1663700Y4663947D01*
X1658620Y4679442D01*
X1653286Y4689855D01*
X1642871Y4700270D01*
X1632457Y4705350D01*
X1611629Y4705350D01*
X1601470Y4700270D01*
X1591055Y4689855D01*
X1585721Y4679442D01*
X1489202Y4596384D02*
G01*
X1541018Y4596384D01*
X1546352Y4643120D01*
X1541018Y4638039D01*
X1525523Y4632705D01*
X1510029Y4632705D01*
X1494281Y4638039D01*
X1483868Y4648200D01*
X1478787Y4663947D01*
X1478787Y4674362D01*
X1483868Y4689855D01*
X1494281Y4700270D01*
X1510029Y4705350D01*
X1525523Y4705350D01*
X1541018Y4700270D01*
X1546352Y4695189D01*
X1551431Y4684776D01*
X-2539492Y3135121D02*
G01*
X-2529078Y3140455D01*
X-2518663Y3150870D01*
X-2513584Y3161029D01*
X-2513584Y3181857D01*
X-2518663Y3192271D01*
X-2529078Y3202686D01*
X-2539492Y3208020D01*
X-2555239Y3213100D01*
X-2581147Y3213100D01*
X-2596642Y3208020D01*
X-2607055Y3202686D01*
X-2617470Y3192271D01*
X-2622550Y3181857D01*
X-2622550Y3161029D01*
X-2617470Y3150870D01*
X-2607055Y3140455D01*
X-2596642Y3135121D01*
X-2534412Y3100831D02*
G01*
X-2529078Y3090418D01*
X-2513584Y3074923D01*
X-2622550Y3074923D01*
X-2539492Y3035300D02*
G01*
X-2534412Y3035300D01*
X-2523997Y3030220D01*
X-2518663Y3025139D01*
X-2513584Y3014726D01*
X-2513584Y2993897D01*
X-2518663Y2983484D01*
X-2523997Y2978150D01*
X-2534412Y2973070D01*
X-2544826Y2973070D01*
X-2555239Y2978150D01*
X-2570734Y2988563D01*
X-2622550Y3040634D01*
X-2622550Y2967989D01*
X-1419997Y3985308D02*
G01*
X-1419997Y3907330D01*
X-1414917Y3891836D01*
X-1404503Y3881422D01*
X-1388755Y3876342D01*
X-1378341Y3876342D01*
X-1362847Y3881422D01*
X-1352433Y3891836D01*
X-1347353Y3907330D01*
X-1347353Y3985308D01*
X-1313063Y3964480D02*
G01*
X-1302649Y3969814D01*
X-1286901Y3985308D01*
X-1286901Y3876342D01*
X-1221623Y3985308D02*
G01*
X-1237117Y3980228D01*
X-1247531Y3964480D01*
X-1252611Y3938572D01*
X-1252611Y3923078D01*
X-1247531Y3896916D01*
X-1237117Y3881422D01*
X-1221623Y3876342D01*
X-1211209Y3876342D01*
X-1195461Y3881422D01*
X-1185047Y3896916D01*
X-1179967Y3923078D01*
X-1179967Y3938572D01*
X-1185047Y3964480D01*
X-1195461Y3980228D01*
X-1211209Y3985308D01*
X-1221623Y3985308D01*
X-1554680Y3099993D02*
G01*
X-1663646Y3099993D01*
X-1554680Y3099993D02*
G01*
X-1554680Y3053257D01*
X-1559760Y3037763D01*
X-1565094Y3032429D01*
X-1575508Y3027349D01*
X-1585922Y3027349D01*
X-1596336Y3032429D01*
X-1601416Y3037763D01*
X-1606496Y3053257D01*
X-1606496Y3099993D01*
X-1606496Y3063671D02*
G01*
X-1663646Y3027349D01*
X-1580588Y2987725D02*
G01*
X-1575508Y2987725D01*
X-1565094Y2982645D01*
X-1559760Y2977311D01*
X-1554680Y2966897D01*
X-1554680Y2946323D01*
X-1559760Y2935909D01*
X-1565094Y2930575D01*
X-1575508Y2925495D01*
X-1585922Y2925495D01*
X-1596336Y2930575D01*
X-1611830Y2940989D01*
X-1663646Y2993059D01*
X-1663646Y2920161D01*
X-1554680Y2854883D02*
G01*
X-1559760Y2870377D01*
X-1575508Y2880791D01*
X-1601416Y2885871D01*
X-1616910Y2885871D01*
X-1643072Y2880791D01*
X-1658566Y2870377D01*
X-1663646Y2854883D01*
X-1663646Y2844469D01*
X-1658566Y2828721D01*
X-1643072Y2818307D01*
X-1616910Y2813227D01*
X-1601416Y2813227D01*
X-1575508Y2818307D01*
X-1559760Y2828721D01*
X-1554680Y2844469D01*
X-1554680Y2854883D01*
X-3758692Y3109721D02*
G01*
X-3748278Y3115055D01*
X-3737863Y3125470D01*
X-3732784Y3135629D01*
X-3732784Y3156457D01*
X-3737863Y3166871D01*
X-3748278Y3177286D01*
X-3758692Y3182620D01*
X-3774439Y3187700D01*
X-3800347Y3187700D01*
X-3815842Y3182620D01*
X-3826255Y3177286D01*
X-3836670Y3166871D01*
X-3841750Y3156457D01*
X-3841750Y3135629D01*
X-3836670Y3125470D01*
X-3826255Y3115055D01*
X-3815842Y3109721D01*
X-3758692Y3070352D02*
G01*
X-3753612Y3070352D01*
X-3743197Y3065018D01*
X-3737863Y3059937D01*
X-3732784Y3049523D01*
X-3732784Y3028695D01*
X-3737863Y3018281D01*
X-3743197Y3013202D01*
X-3753612Y3007868D01*
X-3764026Y3007868D01*
X-3774439Y3013202D01*
X-3789934Y3023615D01*
X-3841750Y3075431D01*
X-3841750Y3002787D01*
X-878606Y4222369D02*
G01*
X-889020Y4217035D01*
X-899434Y4206620D01*
X-904514Y4196461D01*
X-904514Y4175632D01*
X-899434Y4165219D01*
X-889020Y4154804D01*
X-878606Y4149470D01*
X-862858Y4144390D01*
X-836950Y4144390D01*
X-821456Y4149470D01*
X-811042Y4154804D01*
X-800628Y4165219D01*
X-795548Y4175632D01*
X-795548Y4196461D01*
X-800628Y4206620D01*
X-811042Y4217035D01*
X-821456Y4222369D01*
X-889020Y4318888D02*
G01*
X-899434Y4313809D01*
X-904514Y4298061D01*
X-904514Y4287901D01*
X-899434Y4272153D01*
X-883686Y4261738D01*
X-857778Y4256659D01*
X-831870Y4256659D01*
X-811042Y4261738D01*
X-800628Y4272153D01*
X-795548Y4287901D01*
X-795548Y4292980D01*
X-800628Y4308475D01*
X-811042Y4318888D01*
X-826536Y4324222D01*
X-831870Y4324222D01*
X-847364Y4318888D01*
X-857778Y4308475D01*
X-862858Y4292980D01*
X-862858Y4287901D01*
X-857778Y4272153D01*
X-847364Y4261738D01*
X-831870Y4256659D01*
X-1053205Y4222369D02*
G01*
X-1063619Y4217035D01*
X-1074033Y4206620D01*
X-1079113Y4196461D01*
X-1079113Y4175632D01*
X-1074033Y4165219D01*
X-1063619Y4154804D01*
X-1053205Y4149470D01*
X-1037457Y4144390D01*
X-1011549Y4144390D01*
X-996055Y4149470D01*
X-985641Y4154804D01*
X-975227Y4165219D01*
X-970147Y4175632D01*
X-970147Y4196461D01*
X-975227Y4206620D01*
X-985641Y4217035D01*
X-996055Y4222369D01*
X-1079113Y4329303D02*
G01*
X-970147Y4277487D01*
X-1079113Y4256659D02*
G01*
X-1079113Y4329303D01*
X2808477Y3518407D02*
G01*
X2803143Y3528821D01*
X2792729Y3539236D01*
X2782570Y3544315D01*
X2761741Y3544315D01*
X2751327Y3539236D01*
X2740913Y3528821D01*
X2735579Y3518407D01*
X2730500Y3502660D01*
X2730500Y3476752D01*
X2735579Y3461257D01*
X2740913Y3450844D01*
X2751327Y3440429D01*
X2761741Y3435350D01*
X2782570Y3435350D01*
X2792729Y3440429D01*
X2803143Y3450844D01*
X2808477Y3461257D01*
X2910331Y3507994D02*
G01*
X2904997Y3492500D01*
X2894584Y3482086D01*
X2879090Y3476752D01*
X2874009Y3476752D01*
X2858261Y3482086D01*
X2847847Y3492500D01*
X2842768Y3507994D01*
X2842768Y3513073D01*
X2847847Y3528821D01*
X2858261Y3539236D01*
X2874009Y3544315D01*
X2879090Y3544315D01*
X2894584Y3539236D01*
X2904997Y3528821D01*
X2910331Y3507994D01*
X2910331Y3482086D01*
X2904997Y3455923D01*
X2894584Y3440429D01*
X2879090Y3435350D01*
X2868675Y3435350D01*
X2853181Y3440429D01*
X2847847Y3450844D01*
X2398522Y3276092D02*
G01*
X2403856Y3265678D01*
X2414270Y3255263D01*
X2424429Y3250184D01*
X2445258Y3250184D01*
X2455672Y3255263D01*
X2466086Y3265678D01*
X2471420Y3276092D01*
X2476500Y3291839D01*
X2476500Y3317747D01*
X2471420Y3333242D01*
X2466086Y3343655D01*
X2455672Y3354070D01*
X2445258Y3359150D01*
X2424429Y3359150D01*
X2414270Y3354070D01*
X2403856Y3343655D01*
X2398522Y3333242D01*
X2364231Y3271012D02*
G01*
X2353818Y3265678D01*
X2338324Y3250184D01*
X2338324Y3359150D01*
X2272791Y3250184D02*
G01*
X2288540Y3255263D01*
X2298700Y3271012D01*
X2304034Y3296920D01*
X2304034Y3312413D01*
X2298700Y3338576D01*
X2288540Y3354070D01*
X2272791Y3359150D01*
X2262377Y3359150D01*
X2246884Y3354070D01*
X2236470Y3338576D01*
X2231390Y3312413D01*
X2231390Y3296920D01*
X2236470Y3271012D01*
X2246884Y3255263D01*
X2262377Y3250184D01*
X2272791Y3250184D01*
X2908808Y3782821D02*
G01*
X2919222Y3788155D01*
X2929636Y3798570D01*
X2934715Y3808729D01*
X2934715Y3829557D01*
X2929636Y3839971D01*
X2919222Y3850386D01*
X2908808Y3855720D01*
X2893059Y3860800D01*
X2867152Y3860800D01*
X2851658Y3855720D01*
X2841243Y3850386D01*
X2830829Y3839971D01*
X2825750Y3829557D01*
X2825750Y3808729D01*
X2830829Y3798570D01*
X2841243Y3788155D01*
X2851658Y3782821D01*
X2913888Y3748531D02*
G01*
X2919222Y3738118D01*
X2934715Y3722623D01*
X2825750Y3722623D01*
X2913888Y3688334D02*
G01*
X2919222Y3677920D01*
X2934715Y3662426D01*
X2825750Y3662426D01*
X-1177975Y4110583D02*
G01*
X-1172641Y4100169D01*
X-1162227Y4089755D01*
X-1152067Y4084675D01*
X-1131239Y4084675D01*
X-1120825Y4089755D01*
X-1110411Y4100169D01*
X-1105077Y4110583D01*
X-1099997Y4126331D01*
X-1099997Y4152239D01*
X-1105077Y4167733D01*
X-1110411Y4178147D01*
X-1120825Y4188561D01*
X-1131239Y4193641D01*
X-1152067Y4193641D01*
X-1162227Y4188561D01*
X-1172641Y4178147D01*
X-1177975Y4167733D01*
X-1212265Y4105503D02*
G01*
X-1222679Y4100169D01*
X-1238173Y4084675D01*
X-1238173Y4193641D01*
X-1282877Y4084675D02*
G01*
X-1340027Y4084675D01*
X-1308785Y4126331D01*
X-1324533Y4126331D01*
X-1334947Y4131411D01*
X-1340027Y4136491D01*
X-1345107Y4152239D01*
X-1345107Y4162653D01*
X-1340027Y4178147D01*
X-1329613Y4188561D01*
X-1314119Y4193641D01*
X-1298371Y4193641D01*
X-1282877Y4188561D01*
X-1277797Y4183481D01*
X-1272463Y4173067D01*
X-1585721Y4674107D02*
G01*
X-1591055Y4684521D01*
X-1601470Y4694936D01*
X-1611629Y4700015D01*
X-1632457Y4700015D01*
X-1642871Y4694936D01*
X-1653286Y4684521D01*
X-1658620Y4674107D01*
X-1663700Y4658360D01*
X-1663700Y4632452D01*
X-1658620Y4616957D01*
X-1653286Y4606544D01*
X-1642871Y4596129D01*
X-1632457Y4591050D01*
X-1611629Y4591050D01*
X-1601470Y4596129D01*
X-1591055Y4606544D01*
X-1585721Y4616957D01*
X-1551431Y4679187D02*
G01*
X-1541018Y4684521D01*
X-1525523Y4700015D01*
X-1525523Y4591050D01*
X-1439163Y4700015D02*
G01*
X-1491234Y4627371D01*
X-1413255Y4627371D01*
X-1439163Y4700015D02*
G01*
X-1439163Y4591050D01*
X-1332019Y4699398D02*
G01*
X-1337353Y4709812D01*
X-1347767Y4720226D01*
X-1357927Y4725306D01*
X-1378755Y4725306D01*
X-1389169Y4720226D01*
X-1399583Y4709812D01*
X-1404917Y4699398D01*
X-1409997Y4683650D01*
X-1409997Y4657742D01*
X-1404917Y4642248D01*
X-1399583Y4631834D01*
X-1389169Y4621420D01*
X-1378755Y4616340D01*
X-1357927Y4616340D01*
X-1347767Y4621420D01*
X-1337353Y4631834D01*
X-1332019Y4642248D01*
X-1297729Y4704478D02*
G01*
X-1287315Y4709812D01*
X-1271821Y4725306D01*
X-1271821Y4616340D01*
X-1175047Y4725306D02*
G01*
X-1227117Y4725306D01*
X-1232197Y4678570D01*
X-1227117Y4683650D01*
X-1211623Y4688984D01*
X-1195875Y4688984D01*
X-1180381Y4683650D01*
X-1169967Y4673490D01*
X-1164887Y4657742D01*
X-1164887Y4647328D01*
X-1169967Y4631834D01*
X-1180381Y4621420D01*
X-1195875Y4616340D01*
X-1211623Y4616340D01*
X-1227117Y4621420D01*
X-1232197Y4626500D01*
X-1237531Y4636914D01*
X-890778Y3225292D02*
G01*
X-885444Y3214878D01*
X-875029Y3204463D01*
X-864870Y3199384D01*
X-844042Y3199384D01*
X-833628Y3204463D01*
X-823213Y3214878D01*
X-817879Y3225292D01*
X-812800Y3241039D01*
X-812800Y3266947D01*
X-817879Y3282442D01*
X-823213Y3292855D01*
X-833628Y3303270D01*
X-844042Y3308350D01*
X-864870Y3308350D01*
X-875029Y3303270D01*
X-885444Y3292855D01*
X-890778Y3282442D01*
X-925068Y3220212D02*
G01*
X-935481Y3214878D01*
X-950976Y3199384D01*
X-950976Y3308350D01*
X-1047750Y3214878D02*
G01*
X-1042415Y3204463D01*
X-1026921Y3199384D01*
X-1016507Y3199384D01*
X-1000760Y3204463D01*
X-990600Y3220212D01*
X-985265Y3246120D01*
X-985265Y3272028D01*
X-990600Y3292855D01*
X-1000760Y3303270D01*
X-1016507Y3308350D01*
X-1021587Y3308350D01*
X-1037336Y3303270D01*
X-1047750Y3292855D01*
X-1052829Y3277362D01*
X-1052829Y3272028D01*
X-1047750Y3256534D01*
X-1037336Y3246120D01*
X-1021587Y3241039D01*
X-1016507Y3241039D01*
X-1000760Y3246120D01*
X-990600Y3256534D01*
X-985265Y3272028D01*
X-1632018Y3929400D02*
G01*
X-1637352Y3939814D01*
X-1647766Y3950228D01*
X-1657926Y3955308D01*
X-1678754Y3955308D01*
X-1689168Y3950228D01*
X-1699582Y3939814D01*
X-1704916Y3929400D01*
X-1709996Y3913652D01*
X-1709996Y3887744D01*
X-1704916Y3872250D01*
X-1699582Y3861836D01*
X-1689168Y3851422D01*
X-1678754Y3846342D01*
X-1657926Y3846342D01*
X-1647766Y3851422D01*
X-1637352Y3861836D01*
X-1632018Y3872250D01*
X-1597728Y3934480D02*
G01*
X-1587314Y3939814D01*
X-1571820Y3955308D01*
X-1571820Y3846342D01*
X-1464886Y3955308D02*
G01*
X-1516702Y3846342D01*
X-1537530Y3955308D02*
G01*
X-1464886Y3955308D01*
X5219189Y3379990D02*
G01*
X5208775Y3374656D01*
X5198361Y3364242D01*
X5193281Y3354082D01*
X5193281Y3333254D01*
X5198361Y3322840D01*
X5208775Y3312426D01*
X5219189Y3307092D01*
X5234937Y3302012D01*
X5260845Y3302012D01*
X5276339Y3307092D01*
X5286753Y3312426D01*
X5297167Y3322840D01*
X5302247Y3333254D01*
X5302247Y3354082D01*
X5297167Y3364242D01*
X5286753Y3374656D01*
X5276339Y3379990D01*
X5214109Y3414280D02*
G01*
X5208775Y3424694D01*
X5193281Y3440188D01*
X5302247Y3440188D01*
X5229603Y3542042D02*
G01*
X5245097Y3536962D01*
X5255511Y3526548D01*
X5260845Y3510800D01*
X5260845Y3505720D01*
X5255511Y3489972D01*
X5245097Y3479812D01*
X5229603Y3474478D01*
X5224523Y3474478D01*
X5208775Y3479812D01*
X5198361Y3489972D01*
X5193281Y3505720D01*
X5193281Y3510800D01*
X5198361Y3526548D01*
X5208775Y3536962D01*
X5229603Y3542042D01*
X5255511Y3542042D01*
X5281673Y3536962D01*
X5297167Y3526548D01*
X5302247Y3510800D01*
X5302247Y3500386D01*
X5297167Y3484892D01*
X5286753Y3479812D01*
X5818375Y3480320D02*
G01*
X5813041Y3490734D01*
X5802627Y3501148D01*
X5792467Y3506228D01*
X5771639Y3506228D01*
X5761225Y3501148D01*
X5750811Y3490734D01*
X5745477Y3480320D01*
X5740397Y3464572D01*
X5740397Y3438664D01*
X5745477Y3423170D01*
X5750811Y3412756D01*
X5761225Y3402342D01*
X5771639Y3397262D01*
X5792467Y3397262D01*
X5802627Y3402342D01*
X5813041Y3412756D01*
X5818375Y3423170D01*
X5857745Y3480320D02*
G01*
X5857745Y3485400D01*
X5863079Y3495814D01*
X5868159Y3501148D01*
X5878573Y3506228D01*
X5899401Y3506228D01*
X5909815Y3501148D01*
X5914895Y3495814D01*
X5920229Y3485400D01*
X5920229Y3474986D01*
X5914895Y3464572D01*
X5904481Y3449078D01*
X5852665Y3397262D01*
X5925309Y3397262D01*
X5990841Y3506228D02*
G01*
X5975347Y3501148D01*
X5964933Y3485400D01*
X5959599Y3459492D01*
X5959599Y3443998D01*
X5964933Y3417836D01*
X5975347Y3402342D01*
X5990841Y3397262D01*
X6001255Y3397262D01*
X6016749Y3402342D01*
X6027163Y3417836D01*
X6032497Y3443998D01*
X6032497Y3459492D01*
X6027163Y3485400D01*
X6016749Y3501148D01*
X6001255Y3506228D01*
X5990841Y3506228D01*
X2361691Y4446778D02*
G01*
X2351277Y4441444D01*
X2340863Y4431029D01*
X2335784Y4420870D01*
X2335784Y4400042D01*
X2340863Y4389628D01*
X2351277Y4379213D01*
X2361691Y4373879D01*
X2377440Y4368800D01*
X2403347Y4368800D01*
X2418841Y4373879D01*
X2429256Y4379213D01*
X2439670Y4389628D01*
X2444750Y4400042D01*
X2444750Y4420870D01*
X2439670Y4431029D01*
X2429256Y4441444D01*
X2418841Y4446778D01*
X2361691Y4486147D02*
G01*
X2356611Y4486147D01*
X2346197Y4491481D01*
X2340863Y4496562D01*
X2335784Y4506976D01*
X2335784Y4527804D01*
X2340863Y4538218D01*
X2346197Y4543297D01*
X2356611Y4548631D01*
X2367025Y4548631D01*
X2377440Y4543297D01*
X2392934Y4532884D01*
X2444750Y4481068D01*
X2444750Y4553712D01*
X2356611Y4588002D02*
G01*
X2351277Y4598415D01*
X2335784Y4613910D01*
X2444750Y4613910D01*
X7214108Y3808221D02*
G01*
X7224522Y3813555D01*
X7234936Y3823970D01*
X7240015Y3834129D01*
X7240015Y3854957D01*
X7234936Y3865371D01*
X7224522Y3875786D01*
X7214108Y3881120D01*
X7198359Y3886200D01*
X7172452Y3886200D01*
X7156958Y3881120D01*
X7146543Y3875786D01*
X7136129Y3865371D01*
X7131050Y3854957D01*
X7131050Y3834129D01*
X7136129Y3823970D01*
X7146543Y3813555D01*
X7156958Y3808221D01*
X7214108Y3768852D02*
G01*
X7219188Y3768852D01*
X7229602Y3763518D01*
X7234936Y3758437D01*
X7240015Y3748023D01*
X7240015Y3727195D01*
X7234936Y3716781D01*
X7229602Y3711702D01*
X7219188Y3706368D01*
X7208774Y3706368D01*
X7198359Y3711702D01*
X7182865Y3722115D01*
X7131050Y3773931D01*
X7131050Y3701287D01*
X7224522Y3604513D02*
G01*
X7234936Y3609847D01*
X7240015Y3625342D01*
X7240015Y3635755D01*
X7234936Y3651250D01*
X7219188Y3661663D01*
X7193279Y3666997D01*
X7167372Y3666997D01*
X7146543Y3661663D01*
X7136129Y3651250D01*
X7131050Y3635755D01*
X7131050Y3630676D01*
X7136129Y3614928D01*
X7146543Y3604513D01*
X7162038Y3599434D01*
X7167372Y3599434D01*
X7182865Y3604513D01*
X7193279Y3614928D01*
X7198359Y3630676D01*
X7198359Y3635755D01*
X7193279Y3651250D01*
X7182865Y3661663D01*
X7167372Y3666997D01*
X7075677Y3518407D02*
G01*
X7070343Y3528821D01*
X7059929Y3539236D01*
X7049770Y3544315D01*
X7028941Y3544315D01*
X7018527Y3539236D01*
X7008113Y3528821D01*
X7002779Y3518407D01*
X6997700Y3502660D01*
X6997700Y3476752D01*
X7002779Y3461257D01*
X7008113Y3450844D01*
X7018527Y3440429D01*
X7028941Y3435350D01*
X7049770Y3435350D01*
X7059929Y3440429D01*
X7070343Y3450844D01*
X7075677Y3461257D01*
X7115047Y3518407D02*
G01*
X7115047Y3523487D01*
X7120381Y3533902D01*
X7125461Y3539236D01*
X7135875Y3544315D01*
X7156704Y3544315D01*
X7167118Y3539236D01*
X7172197Y3533902D01*
X7177531Y3523487D01*
X7177531Y3513073D01*
X7172197Y3502660D01*
X7161784Y3487165D01*
X7109968Y3435350D01*
X7182611Y3435350D01*
X7289800Y3544315D02*
G01*
X7237729Y3435350D01*
X7216902Y3544315D02*
G01*
X7289800Y3544315D01*
X7088377Y3289807D02*
G01*
X7083043Y3300221D01*
X7072629Y3310636D01*
X7062470Y3315715D01*
X7041641Y3315715D01*
X7031227Y3310636D01*
X7020813Y3300221D01*
X7015479Y3289807D01*
X7010400Y3274060D01*
X7010400Y3248152D01*
X7015479Y3232657D01*
X7020813Y3222244D01*
X7031227Y3211829D01*
X7041641Y3206750D01*
X7062470Y3206750D01*
X7072629Y3211829D01*
X7083043Y3222244D01*
X7088377Y3232657D01*
X7127747Y3289807D02*
G01*
X7127747Y3294887D01*
X7133081Y3305302D01*
X7138161Y3310636D01*
X7148575Y3315715D01*
X7169404Y3315715D01*
X7179818Y3310636D01*
X7184897Y3305302D01*
X7190231Y3294887D01*
X7190231Y3284473D01*
X7184897Y3274060D01*
X7174484Y3258565D01*
X7122668Y3206750D01*
X7195311Y3206750D01*
X7255509Y3315715D02*
G01*
X7240015Y3310636D01*
X7234936Y3300221D01*
X7234936Y3289807D01*
X7240015Y3279394D01*
X7250429Y3274060D01*
X7271258Y3268979D01*
X7286752Y3263900D01*
X7297165Y3253486D01*
X7302500Y3243071D01*
X7302500Y3227323D01*
X7297165Y3216910D01*
X7292086Y3211829D01*
X7276338Y3206750D01*
X7255509Y3206750D01*
X7240015Y3211829D01*
X7234936Y3216910D01*
X7229602Y3227323D01*
X7229602Y3243071D01*
X7234936Y3253486D01*
X7245350Y3263900D01*
X7260843Y3268979D01*
X7281672Y3274060D01*
X7292086Y3279394D01*
X7297165Y3289807D01*
X7297165Y3300221D01*
X7292086Y3310636D01*
X7276338Y3315715D01*
X7255509Y3315715D01*
X4469891Y3875278D02*
G01*
X4459477Y3869944D01*
X4449063Y3859529D01*
X4443984Y3849370D01*
X4443984Y3828542D01*
X4449063Y3818128D01*
X4459477Y3807713D01*
X4469891Y3802379D01*
X4485640Y3797300D01*
X4511547Y3797300D01*
X4527041Y3802379D01*
X4537456Y3807713D01*
X4547870Y3818128D01*
X4552950Y3828542D01*
X4552950Y3849370D01*
X4547870Y3859529D01*
X4537456Y3869944D01*
X4527041Y3875278D01*
X4443984Y3919981D02*
G01*
X4443984Y3977131D01*
X4485640Y3945889D01*
X4485640Y3961384D01*
X4490720Y3971797D01*
X4495800Y3977131D01*
X4511547Y3982212D01*
X4521961Y3982212D01*
X4537456Y3977131D01*
X4547870Y3966718D01*
X4552950Y3950970D01*
X4552950Y3935476D01*
X4547870Y3919981D01*
X4542790Y3914647D01*
X4532375Y3909568D01*
X4317491Y3887978D02*
G01*
X4307077Y3882644D01*
X4296663Y3872229D01*
X4291584Y3862070D01*
X4291584Y3841242D01*
X4296663Y3830828D01*
X4307077Y3820413D01*
X4317491Y3815079D01*
X4333240Y3810000D01*
X4359147Y3810000D01*
X4374641Y3815079D01*
X4385056Y3820413D01*
X4395470Y3830828D01*
X4400550Y3841242D01*
X4400550Y3862070D01*
X4395470Y3872229D01*
X4385056Y3882644D01*
X4374641Y3887978D01*
X4291584Y3948176D02*
G01*
X4296663Y3932681D01*
X4307077Y3927347D01*
X4317491Y3927347D01*
X4327906Y3932681D01*
X4333240Y3943095D01*
X4338320Y3963670D01*
X4343400Y3979418D01*
X4353813Y3989831D01*
X4364227Y3994912D01*
X4379975Y3994912D01*
X4390390Y3989831D01*
X4395470Y3984497D01*
X4400550Y3969004D01*
X4400550Y3948176D01*
X4395470Y3932681D01*
X4390390Y3927347D01*
X4379975Y3922268D01*
X4364227Y3922268D01*
X4353813Y3927347D01*
X4343400Y3937762D01*
X4338320Y3953510D01*
X4333240Y3974084D01*
X4327906Y3984497D01*
X4317491Y3989831D01*
X4307077Y3989831D01*
X4296663Y3984497D01*
X4291584Y3969004D01*
X4291584Y3948176D01*
X-3160521Y2731007D02*
G01*
X-3165855Y2741421D01*
X-3176270Y2751836D01*
X-3186429Y2756915D01*
X-3207257Y2756915D01*
X-3217671Y2751836D01*
X-3228086Y2741421D01*
X-3233420Y2731007D01*
X-3238500Y2715260D01*
X-3238500Y2689352D01*
X-3233420Y2673857D01*
X-3228086Y2663444D01*
X-3217671Y2653029D01*
X-3207257Y2647950D01*
X-3186429Y2647950D01*
X-3176270Y2653029D01*
X-3165855Y2663444D01*
X-3160521Y2673857D01*
X-3074415Y2756915D02*
G01*
X-3126231Y2684271D01*
X-3048254Y2684271D01*
X-3074415Y2756915D02*
G01*
X-3074415Y2647950D01*
X4455922Y2856992D02*
G01*
X4461256Y2846578D01*
X4471670Y2836163D01*
X4481829Y2831084D01*
X4502658Y2831084D01*
X4513072Y2836163D01*
X4523486Y2846578D01*
X4528820Y2856992D01*
X4533900Y2872739D01*
X4533900Y2898647D01*
X4528820Y2914142D01*
X4523486Y2924555D01*
X4513072Y2934970D01*
X4502658Y2940050D01*
X4481829Y2940050D01*
X4471670Y2934970D01*
X4461256Y2924555D01*
X4455922Y2914142D01*
X4416552Y2856992D02*
G01*
X4416552Y2851912D01*
X4411218Y2841497D01*
X4406138Y2836163D01*
X4395724Y2831084D01*
X4374895Y2831084D01*
X4364481Y2836163D01*
X4359402Y2841497D01*
X4354068Y2851912D01*
X4354068Y2862326D01*
X4359402Y2872739D01*
X4369815Y2888234D01*
X4421631Y2940050D01*
X4348988Y2940050D01*
X4309363Y2856992D02*
G01*
X4309363Y2851912D01*
X4304284Y2841497D01*
X4298950Y2836163D01*
X4288790Y2831084D01*
X4267961Y2831084D01*
X4257547Y2836163D01*
X4252213Y2841497D01*
X4247134Y2851912D01*
X4247134Y2862326D01*
X4252213Y2872739D01*
X4262627Y2888234D01*
X4314697Y2940050D01*
X4241800Y2940050D01*
X4343400Y3391915D02*
G01*
X4343400Y3282950D01*
X4416043Y3391915D02*
G01*
X4416043Y3282950D01*
X4343400Y3340100D02*
G01*
X4416043Y3340100D01*
X4450334Y3371087D02*
G01*
X4460747Y3376421D01*
X4476495Y3391915D01*
X4476495Y3282950D01*
X2414270Y4205287D02*
G01*
X2305304Y4205287D01*
X2305304Y4205287D02*
G01*
X2305304Y4143057D01*
X2393441Y4108767D02*
G01*
X2398775Y4098353D01*
X2414270Y4082605D01*
X2305304Y4082605D01*
X2200998Y3163315D02*
G01*
X2200998Y3054350D01*
X2200998Y3054350D02*
G01*
X2263228Y3054350D01*
X2297518Y3163315D02*
G01*
X2297518Y3054350D01*
X2297518Y3163315D02*
G01*
X2365082Y3163315D01*
X2297518Y3111500D02*
G01*
X2339174Y3111500D01*
X2297518Y3054350D02*
G01*
X2365082Y3054350D01*
X2399372Y3163315D02*
G01*
X2399372Y3054350D01*
X2399372Y3163315D02*
G01*
X2435948Y3163315D01*
X2451442Y3158236D01*
X2461856Y3147821D01*
X2466936Y3137407D01*
X2472270Y3121660D01*
X2472270Y3095752D01*
X2466936Y3080257D01*
X2461856Y3069844D01*
X2451442Y3059429D01*
X2435948Y3054350D01*
X2399372Y3054350D01*
X2506560Y3142487D02*
G01*
X2516974Y3147821D01*
X2532468Y3163315D01*
X2532468Y3054350D01*
X-3139947Y4415536D02*
G01*
X-3139947Y4348734D01*
X-3139947Y4348734D02*
G01*
X-3101847Y4348734D01*
X-3080765Y4415536D02*
G01*
X-3080765Y4348734D01*
X-3080765Y4415536D02*
G01*
X-3039363Y4415536D01*
X-3080765Y4383786D02*
G01*
X-3055365Y4383786D01*
X-3080765Y4348734D02*
G01*
X-3039363Y4348734D01*
X-3018536Y4415536D02*
G01*
X-3018536Y4348734D01*
X-3018536Y4415536D02*
G01*
X-2996184Y4415536D01*
X-2986531Y4412487D01*
X-2980181Y4406137D01*
X-2977134Y4399787D01*
X-2973831Y4390136D01*
X-2973831Y4374387D01*
X-2977134Y4364736D01*
X-2980181Y4358386D01*
X-2986531Y4352036D01*
X-2996184Y4348734D01*
X-3018536Y4348734D01*
X-2949702Y4399787D02*
G01*
X-2949702Y4402836D01*
X-2946654Y4409186D01*
X-2943352Y4412487D01*
X-2937002Y4415536D01*
X-2924302Y4415536D01*
X-2917952Y4412487D01*
X-2914650Y4409186D01*
X-2911602Y4402836D01*
X-2911602Y4396486D01*
X-2914650Y4390136D01*
X-2921000Y4380737D01*
X-2953004Y4348734D01*
X-2908300Y4348734D01*
X-1759673Y3304989D02*
G01*
X-1868639Y3304989D01*
X-1759673Y3304989D02*
G01*
X-1868639Y3263333D01*
X-1759673Y3221931D02*
G01*
X-1868639Y3263333D01*
X-1759673Y3221931D02*
G01*
X-1868639Y3221931D01*
X-1780501Y3187641D02*
G01*
X-1775167Y3177227D01*
X-1759673Y3161479D01*
X-1868639Y3161479D01*
X-2749946Y4045673D02*
G01*
X-2749946Y3978871D01*
X-2749946Y4045673D02*
G01*
X-2721244Y4045673D01*
X-2711846Y4042371D01*
X-2708544Y4039323D01*
X-2705496Y4032973D01*
X-2705496Y4023321D01*
X-2708544Y4016971D01*
X-2711846Y4013923D01*
X-2721244Y4010621D01*
X-2749946Y4010621D01*
X-2684414Y4032973D02*
G01*
X-2678064Y4036021D01*
X-2668666Y4045673D01*
X-2668666Y3978871D01*
X-825500Y2945384D02*
G01*
X-825500Y3054350D01*
X-825500Y2945384D02*
G01*
X-872236Y2945384D01*
X-887729Y2950463D01*
X-893063Y2955797D01*
X-898144Y2966212D01*
X-898144Y2981705D01*
X-893063Y2992120D01*
X-887729Y2997200D01*
X-872236Y3002534D01*
X-825500Y3002534D01*
X-937768Y2971292D02*
G01*
X-937768Y2966212D01*
X-942847Y2955797D01*
X-948181Y2950463D01*
X-958595Y2945384D01*
X-979170Y2945384D01*
X-989584Y2950463D01*
X-994918Y2955797D01*
X-999997Y2966212D01*
X-999997Y2976626D01*
X-994918Y2987039D01*
X-984504Y3002534D01*
X-932434Y3054350D01*
X-1005331Y3054350D01*
X-2907284Y3632200D02*
G01*
X-3016250Y3632200D01*
X-2907284Y3632200D02*
G01*
X-2907284Y3585463D01*
X-2912363Y3569970D01*
X-2917697Y3564636D01*
X-2928112Y3559555D01*
X-2938526Y3559555D01*
X-2948939Y3564636D01*
X-2954020Y3569970D01*
X-2959100Y3585463D01*
X-2959100Y3632200D01*
X-2959100Y3595878D02*
G01*
X-3016250Y3559555D01*
X-2928112Y3525265D02*
G01*
X-2922778Y3514852D01*
X-2907284Y3499104D01*
X-3016250Y3499104D01*
X-2907284Y3924300D02*
G01*
X-3016250Y3924300D01*
X-2907284Y3924300D02*
G01*
X-2907284Y3877563D01*
X-2912363Y3862070D01*
X-2917697Y3856736D01*
X-2928112Y3851655D01*
X-2938526Y3851655D01*
X-2948939Y3856736D01*
X-2954020Y3862070D01*
X-2959100Y3877563D01*
X-2959100Y3924300D01*
X-2959100Y3887978D02*
G01*
X-3016250Y3851655D01*
X-2933192Y3812031D02*
G01*
X-2928112Y3812031D01*
X-2917697Y3806952D01*
X-2912363Y3801618D01*
X-2907284Y3791204D01*
X-2907284Y3770629D01*
X-2912363Y3760215D01*
X-2917697Y3754881D01*
X-2928112Y3749802D01*
X-2938526Y3749802D01*
X-2948939Y3754881D01*
X-2964434Y3765295D01*
X-3016250Y3817365D01*
X-3016250Y3744468D01*
X-977900Y4001515D02*
G01*
X-977900Y3892550D01*
X-977900Y4001515D02*
G01*
X-931163Y4001515D01*
X-915670Y3996436D01*
X-910336Y3991102D01*
X-905255Y3980687D01*
X-905255Y3970273D01*
X-910336Y3959860D01*
X-915670Y3954779D01*
X-931163Y3949700D01*
X-977900Y3949700D01*
X-941578Y3949700D02*
G01*
X-905255Y3892550D01*
X-860552Y4001515D02*
G01*
X-803402Y4001515D01*
X-834389Y3959860D01*
X-818895Y3959860D01*
X-808481Y3954779D01*
X-803402Y3949700D01*
X-798068Y3933952D01*
X-798068Y3923537D01*
X-803402Y3908044D01*
X-813815Y3897629D01*
X-829310Y3892550D01*
X-844804Y3892550D01*
X-860552Y3897629D01*
X-865631Y3902710D01*
X-870965Y3913123D01*
X1751584Y4521200D02*
G01*
X1860550Y4521200D01*
X1751584Y4521200D02*
G01*
X1751584Y4567936D01*
X1756663Y4583429D01*
X1761997Y4588763D01*
X1772412Y4593844D01*
X1782826Y4593844D01*
X1793239Y4588763D01*
X1798320Y4583429D01*
X1803400Y4567936D01*
X1803400Y4521200D01*
X1803400Y4557521D02*
G01*
X1860550Y4593844D01*
X1751584Y4680204D02*
G01*
X1824228Y4628134D01*
X1824228Y4706112D01*
X1751584Y4680204D02*
G01*
X1860550Y4680204D01*
X1955800Y2919984D02*
G01*
X1955800Y3028950D01*
X1955800Y2919984D02*
G01*
X1909063Y2919984D01*
X1893570Y2925063D01*
X1888236Y2930397D01*
X1883155Y2940812D01*
X1883155Y2951226D01*
X1888236Y2961639D01*
X1893570Y2966720D01*
X1909063Y2971800D01*
X1955800Y2971800D01*
X1919478Y2971800D02*
G01*
X1883155Y3028950D01*
X1786381Y2919984D02*
G01*
X1838452Y2919984D01*
X1843531Y2966720D01*
X1838452Y2961639D01*
X1822704Y2956305D01*
X1807210Y2956305D01*
X1791715Y2961639D01*
X1781302Y2971800D01*
X1775968Y2987547D01*
X1775968Y2997962D01*
X1781302Y3013455D01*
X1791715Y3023870D01*
X1807210Y3028950D01*
X1822704Y3028950D01*
X1838452Y3023870D01*
X1843531Y3018789D01*
X1848865Y3008376D01*
X4964681Y3365512D02*
G01*
X5073647Y3365512D01*
X4964681Y3365512D02*
G01*
X4964681Y3412248D01*
X4969761Y3427742D01*
X4975095Y3433076D01*
X4985509Y3438156D01*
X4995923Y3438156D01*
X5006337Y3433076D01*
X5011417Y3427742D01*
X5016497Y3412248D01*
X5016497Y3365512D01*
X5016497Y3401834D02*
G01*
X5073647Y3438156D01*
X4980175Y3534930D02*
G01*
X4969761Y3529596D01*
X4964681Y3514102D01*
X4964681Y3503688D01*
X4969761Y3488194D01*
X4985509Y3477780D01*
X5011417Y3472446D01*
X5037325Y3472446D01*
X5058153Y3477780D01*
X5068567Y3488194D01*
X5073647Y3503688D01*
X5073647Y3509022D01*
X5068567Y3524516D01*
X5058153Y3534930D01*
X5042659Y3540010D01*
X5037325Y3540010D01*
X5021831Y3534930D01*
X5011417Y3524516D01*
X5006337Y3509022D01*
X5006337Y3503688D01*
X5011417Y3488194D01*
X5021831Y3477780D01*
X5037325Y3472446D01*
X4977384Y3048000D02*
G01*
X5086350Y3048000D01*
X4977384Y3048000D02*
G01*
X4977384Y3094736D01*
X4982463Y3110229D01*
X4987797Y3115563D01*
X4998211Y3120644D01*
X5008625Y3120644D01*
X5019040Y3115563D01*
X5024120Y3110229D01*
X5029200Y3094736D01*
X5029200Y3048000D01*
X5029200Y3084321D02*
G01*
X5086350Y3120644D01*
X4977384Y3227831D02*
G01*
X5086350Y3175762D01*
X4977384Y3154934D02*
G01*
X4977384Y3227831D01*
X-3414991Y4220306D02*
G01*
X-3414991Y4111340D01*
X-3414991Y4220306D02*
G01*
X-3368255Y4220306D01*
X-3352761Y4215226D01*
X-3347427Y4209892D01*
X-3342347Y4199478D01*
X-3342347Y4189064D01*
X-3347427Y4178650D01*
X-3352761Y4173570D01*
X-3368255Y4168490D01*
X-3414991Y4168490D01*
X-3378669Y4168490D02*
G01*
X-3342347Y4111340D01*
X-3281895Y4220306D02*
G01*
X-3297643Y4215226D01*
X-3302723Y4204812D01*
X-3302723Y4194398D01*
X-3297643Y4183984D01*
X-3287229Y4178650D01*
X-3266401Y4173570D01*
X-3250907Y4168490D01*
X-3240493Y4158076D01*
X-3235159Y4147662D01*
X-3235159Y4131914D01*
X-3240493Y4121500D01*
X-3245573Y4116420D01*
X-3261321Y4111340D01*
X-3281895Y4111340D01*
X-3297643Y4116420D01*
X-3302723Y4121500D01*
X-3308057Y4131914D01*
X-3308057Y4147662D01*
X-3302723Y4158076D01*
X-3292309Y4168490D01*
X-3276815Y4173570D01*
X-3255987Y4178650D01*
X-3245573Y4183984D01*
X-3240493Y4194398D01*
X-3240493Y4204812D01*
X-3245573Y4215226D01*
X-3261321Y4220306D01*
X-3281895Y4220306D01*
X3188715Y4064000D02*
G01*
X3079750Y4064000D01*
X3188715Y4064000D02*
G01*
X3188715Y4017263D01*
X3183636Y4001770D01*
X3178302Y3996436D01*
X3167888Y3991355D01*
X3157474Y3991355D01*
X3147059Y3996436D01*
X3141979Y4001770D01*
X3136900Y4017263D01*
X3136900Y4064000D01*
X3136900Y4027678D02*
G01*
X3079750Y3991355D01*
X3152393Y3889502D02*
G01*
X3136900Y3894581D01*
X3126486Y3904995D01*
X3121152Y3920489D01*
X3121152Y3925823D01*
X3126486Y3941318D01*
X3136900Y3951731D01*
X3152393Y3957065D01*
X3157474Y3957065D01*
X3173222Y3951731D01*
X3183636Y3941318D01*
X3188715Y3925823D01*
X3188715Y3920489D01*
X3183636Y3904995D01*
X3173222Y3894581D01*
X3152393Y3889502D01*
X3126486Y3889502D01*
X3100324Y3894581D01*
X3084829Y3904995D01*
X3079750Y3920489D01*
X3079750Y3930904D01*
X3084829Y3946652D01*
X3095243Y3951731D01*
X2894584Y4445000D02*
G01*
X3003550Y4445000D01*
X2894584Y4445000D02*
G01*
X2894584Y4491736D01*
X2899663Y4507229D01*
X2904997Y4512563D01*
X2915411Y4517644D01*
X2925825Y4517644D01*
X2936240Y4512563D01*
X2941320Y4507229D01*
X2946400Y4491736D01*
X2946400Y4445000D01*
X2946400Y4481321D02*
G01*
X3003550Y4517644D01*
X2915411Y4551934D02*
G01*
X2910077Y4562347D01*
X2894584Y4578095D01*
X3003550Y4578095D01*
X2894584Y4643373D02*
G01*
X2899663Y4627879D01*
X2915411Y4617465D01*
X2941320Y4612386D01*
X2956813Y4612386D01*
X2982975Y4617465D01*
X2998470Y4627879D01*
X3003550Y4643373D01*
X3003550Y4653787D01*
X2998470Y4669536D01*
X2982975Y4679950D01*
X2956813Y4685029D01*
X2941320Y4685029D01*
X2915411Y4679950D01*
X2899663Y4669536D01*
X2894584Y4653787D01*
X2894584Y4643373D01*
X12700Y2909315D02*
G01*
X12700Y2800350D01*
X12700Y2909315D02*
G01*
X59436Y2909315D01*
X74929Y2904236D01*
X80263Y2898902D01*
X85344Y2888487D01*
X85344Y2878073D01*
X80263Y2867660D01*
X74929Y2862579D01*
X59436Y2857500D01*
X12700Y2857500D01*
X49021Y2857500D02*
G01*
X85344Y2800350D01*
X119634Y2888487D02*
G01*
X130047Y2893821D01*
X145795Y2909315D01*
X145795Y2800350D01*
X180086Y2888487D02*
G01*
X190500Y2893821D01*
X205994Y2909315D01*
X205994Y2800350D01*
X6031481Y3606812D02*
G01*
X6140447Y3606812D01*
X6031481Y3606812D02*
G01*
X6031481Y3653548D01*
X6036561Y3669042D01*
X6041895Y3674376D01*
X6052309Y3679456D01*
X6062723Y3679456D01*
X6073137Y3674376D01*
X6078217Y3669042D01*
X6083297Y3653548D01*
X6083297Y3606812D01*
X6083297Y3643134D02*
G01*
X6140447Y3679456D01*
X6052309Y3713746D02*
G01*
X6046975Y3724160D01*
X6031481Y3739908D01*
X6140447Y3739908D01*
X6057389Y3779278D02*
G01*
X6052309Y3779278D01*
X6041895Y3784612D01*
X6036561Y3789692D01*
X6031481Y3800106D01*
X6031481Y3820934D01*
X6036561Y3831348D01*
X6041895Y3836428D01*
X6052309Y3841762D01*
X6062723Y3841762D01*
X6073137Y3836428D01*
X6088631Y3826014D01*
X6140447Y3774198D01*
X6140447Y3846842D01*
X5626097Y4202696D02*
G01*
X5626097Y4311662D01*
X5626097Y4202696D02*
G01*
X5579361Y4202696D01*
X5563867Y4207776D01*
X5558533Y4213110D01*
X5553453Y4223524D01*
X5553453Y4233938D01*
X5558533Y4244352D01*
X5563867Y4249432D01*
X5579361Y4254512D01*
X5626097Y4254512D01*
X5589775Y4254512D02*
G01*
X5553453Y4311662D01*
X5519163Y4223524D02*
G01*
X5508749Y4218190D01*
X5493001Y4202696D01*
X5493001Y4311662D01*
X5448297Y4202696D02*
G01*
X5391147Y4202696D01*
X5422389Y4244352D01*
X5406895Y4244352D01*
X5396481Y4249432D01*
X5391147Y4254512D01*
X5386067Y4270260D01*
X5386067Y4280674D01*
X5391147Y4296168D01*
X5401561Y4306582D01*
X5417309Y4311662D01*
X5432803Y4311662D01*
X5448297Y4306582D01*
X5453631Y4301502D01*
X5458711Y4291088D01*
X6554213Y3136912D02*
G01*
X6445247Y3136912D01*
X6554213Y3136912D02*
G01*
X6554213Y3090176D01*
X6549133Y3074682D01*
X6543799Y3069348D01*
X6533385Y3064268D01*
X6522971Y3064268D01*
X6512557Y3069348D01*
X6507477Y3074682D01*
X6502397Y3090176D01*
X6502397Y3136912D01*
X6502397Y3100590D02*
G01*
X6445247Y3064268D01*
X6533385Y3029978D02*
G01*
X6538719Y3019564D01*
X6554213Y3003816D01*
X6445247Y3003816D01*
X6554213Y2917710D02*
G01*
X6481569Y2969526D01*
X6481569Y2891802D01*
X6554213Y2917710D02*
G01*
X6445247Y2917710D01*
X-2684993Y4740305D02*
G01*
X-2684993Y4631339D01*
X-2684993Y4740305D02*
G01*
X-2638257Y4740305D01*
X-2622763Y4735225D01*
X-2617429Y4729891D01*
X-2612349Y4719477D01*
X-2612349Y4709063D01*
X-2617429Y4698649D01*
X-2622763Y4693569D01*
X-2638257Y4688489D01*
X-2684993Y4688489D01*
X-2648671Y4688489D02*
G01*
X-2612349Y4631339D01*
X-2578059Y4719477D02*
G01*
X-2567645Y4724811D01*
X-2551897Y4740305D01*
X-2551897Y4631339D01*
X-2455377Y4740305D02*
G01*
X-2507193Y4740305D01*
X-2512527Y4693569D01*
X-2507193Y4698649D01*
X-2491699Y4703983D01*
X-2476205Y4703983D01*
X-2460457Y4698649D01*
X-2450043Y4688489D01*
X-2444963Y4672741D01*
X-2444963Y4662327D01*
X-2450043Y4646833D01*
X-2460457Y4636419D01*
X-2476205Y4631339D01*
X-2491699Y4631339D01*
X-2507193Y4636419D01*
X-2512527Y4641499D01*
X-2517607Y4651913D01*
X5893813Y3149612D02*
G01*
X5784847Y3149612D01*
X5893813Y3149612D02*
G01*
X5893813Y3102876D01*
X5888733Y3087382D01*
X5883399Y3082048D01*
X5872985Y3076968D01*
X5862571Y3076968D01*
X5852157Y3082048D01*
X5847077Y3087382D01*
X5841997Y3102876D01*
X5841997Y3149612D01*
X5841997Y3113290D02*
G01*
X5784847Y3076968D01*
X5872985Y3042678D02*
G01*
X5878319Y3032264D01*
X5893813Y3016516D01*
X5784847Y3016516D01*
X5878319Y2919996D02*
G01*
X5888733Y2925076D01*
X5893813Y2940824D01*
X5893813Y2951238D01*
X5888733Y2966732D01*
X5872985Y2977146D01*
X5847077Y2982226D01*
X5821169Y2982226D01*
X5800341Y2977146D01*
X5789927Y2966732D01*
X5784847Y2951238D01*
X5784847Y2945904D01*
X5789927Y2930410D01*
X5800341Y2919996D01*
X5815835Y2914662D01*
X5821169Y2914662D01*
X5836663Y2919996D01*
X5847077Y2930410D01*
X5852157Y2945904D01*
X5852157Y2951238D01*
X5847077Y2966732D01*
X5836663Y2977146D01*
X5821169Y2982226D01*
X-927100Y2896615D02*
G01*
X-927100Y2787650D01*
X-927100Y2896615D02*
G01*
X-880363Y2896615D01*
X-864870Y2891536D01*
X-859536Y2886202D01*
X-854455Y2875787D01*
X-854455Y2865373D01*
X-859536Y2854960D01*
X-864870Y2849879D01*
X-880363Y2844800D01*
X-927100Y2844800D01*
X-890778Y2844800D02*
G01*
X-854455Y2787650D01*
X-820165Y2875787D02*
G01*
X-809752Y2881121D01*
X-794004Y2896615D01*
X-794004Y2787650D01*
X-687070Y2896615D02*
G01*
X-739139Y2787650D01*
X-759713Y2896615D02*
G01*
X-687070Y2896615D01*
X2692400Y3163315D02*
G01*
X2692400Y3054350D01*
X2692400Y3163315D02*
G01*
X2739136Y3163315D01*
X2754629Y3158236D01*
X2759963Y3152902D01*
X2765043Y3142487D01*
X2765043Y3132073D01*
X2759963Y3121660D01*
X2754629Y3116579D01*
X2739136Y3111500D01*
X2692400Y3111500D01*
X2728722Y3111500D02*
G01*
X2765043Y3054350D01*
X2799334Y3142487D02*
G01*
X2809747Y3147821D01*
X2825495Y3163315D01*
X2825495Y3054350D01*
X2885693Y3163315D02*
G01*
X2870200Y3158236D01*
X2864865Y3147821D01*
X2864865Y3137407D01*
X2870200Y3126994D01*
X2880359Y3121660D01*
X2901188Y3116579D01*
X2916936Y3111500D01*
X2927350Y3101086D01*
X2932429Y3090671D01*
X2932429Y3074923D01*
X2927350Y3064510D01*
X2922015Y3059429D01*
X2906522Y3054350D01*
X2885693Y3054350D01*
X2870200Y3059429D01*
X2864865Y3064510D01*
X2859786Y3074923D01*
X2859786Y3090671D01*
X2864865Y3101086D01*
X2875279Y3111500D01*
X2890774Y3116579D01*
X2911602Y3121660D01*
X2922015Y3126994D01*
X2927350Y3137407D01*
X2927350Y3147821D01*
X2922015Y3158236D01*
X2906522Y3163315D01*
X2885693Y3163315D01*
X-1016000Y3480815D02*
G01*
X-1016000Y3371850D01*
X-1016000Y3480815D02*
G01*
X-969263Y3480815D01*
X-953770Y3475736D01*
X-948436Y3470402D01*
X-943355Y3459987D01*
X-943355Y3449573D01*
X-948436Y3439160D01*
X-953770Y3434079D01*
X-969263Y3429000D01*
X-1016000Y3429000D01*
X-979678Y3429000D02*
G01*
X-943355Y3371850D01*
X-909065Y3459987D02*
G01*
X-898652Y3465321D01*
X-882904Y3480815D01*
X-882904Y3371850D01*
X-781050Y3444494D02*
G01*
X-786384Y3429000D01*
X-796797Y3418586D01*
X-812292Y3413252D01*
X-817626Y3413252D01*
X-833120Y3418586D01*
X-843534Y3429000D01*
X-848613Y3444494D01*
X-848613Y3449573D01*
X-843534Y3465321D01*
X-833120Y3475736D01*
X-817626Y3480815D01*
X-812292Y3480815D01*
X-796797Y3475736D01*
X-786384Y3465321D01*
X-781050Y3444494D01*
X-781050Y3418586D01*
X-786384Y3392423D01*
X-796797Y3376929D01*
X-812292Y3371850D01*
X-822705Y3371850D01*
X-838200Y3376929D01*
X-843534Y3387344D01*
X1436878Y3971544D02*
G01*
X1426463Y3961129D01*
X1421384Y3945636D01*
X1421384Y3924807D01*
X1426463Y3909313D01*
X1436878Y3898900D01*
X1447292Y3898900D01*
X1457705Y3903979D01*
X1463039Y3909313D01*
X1468120Y3919728D01*
X1478534Y3950970D01*
X1483613Y3961129D01*
X1488947Y3966463D01*
X1499362Y3971544D01*
X1514855Y3971544D01*
X1525270Y3961129D01*
X1530350Y3945636D01*
X1530350Y3924807D01*
X1525270Y3909313D01*
X1514855Y3898900D01*
X1421384Y4005834D02*
G01*
X1530350Y4031995D01*
X1421384Y4057904D02*
G01*
X1530350Y4031995D01*
X1421384Y4057904D02*
G01*
X1530350Y4083812D01*
X1421384Y4109720D02*
G01*
X1530350Y4083812D01*
X1442212Y4144010D02*
G01*
X1436878Y4154423D01*
X1421384Y4170171D01*
X1530350Y4170171D01*
X1411478Y3298444D02*
G01*
X1401063Y3288029D01*
X1395984Y3272536D01*
X1395984Y3251707D01*
X1401063Y3236213D01*
X1411478Y3225800D01*
X1421892Y3225800D01*
X1432305Y3230879D01*
X1437639Y3236213D01*
X1442720Y3246628D01*
X1453134Y3277870D01*
X1458213Y3288029D01*
X1463547Y3293363D01*
X1473962Y3298444D01*
X1489455Y3298444D01*
X1499870Y3288029D01*
X1504950Y3272536D01*
X1504950Y3251707D01*
X1499870Y3236213D01*
X1489455Y3225800D01*
X1395984Y3332734D02*
G01*
X1504950Y3358895D01*
X1395984Y3384804D02*
G01*
X1504950Y3358895D01*
X1395984Y3384804D02*
G01*
X1504950Y3410712D01*
X1395984Y3436620D02*
G01*
X1504950Y3410712D01*
X1421892Y3476244D02*
G01*
X1416812Y3476244D01*
X1406397Y3481323D01*
X1401063Y3486657D01*
X1395984Y3497071D01*
X1395984Y3517900D01*
X1401063Y3528060D01*
X1406397Y3533394D01*
X1416812Y3538473D01*
X1427226Y3538473D01*
X1437639Y3533394D01*
X1453134Y3522979D01*
X1504950Y3470910D01*
X1504950Y3543807D01*
X952500Y4687315D02*
G01*
X952500Y4609337D01*
X957579Y4593844D01*
X967994Y4583429D01*
X983742Y4578350D01*
X994155Y4578350D01*
X1009650Y4583429D01*
X1020063Y4593844D01*
X1025144Y4609337D01*
X1025144Y4687315D01*
X1059434Y4666487D02*
G01*
X1069847Y4671821D01*
X1085595Y4687315D01*
X1085595Y4578350D01*
X-3136900Y3379215D02*
G01*
X-3136900Y3301237D01*
X-3131820Y3285744D01*
X-3121405Y3275329D01*
X-3105657Y3270250D01*
X-3095244Y3270250D01*
X-3079750Y3275329D01*
X-3069336Y3285744D01*
X-3064255Y3301237D01*
X-3064255Y3379215D01*
X-3024631Y3353307D02*
G01*
X-3024631Y3358387D01*
X-3019552Y3368802D01*
X-3014218Y3374136D01*
X-3003804Y3379215D01*
X-2983229Y3379215D01*
X-2972815Y3374136D01*
X-2967481Y3368802D01*
X-2962402Y3358387D01*
X-2962402Y3347973D01*
X-2967481Y3337560D01*
X-2977895Y3322065D01*
X-3029965Y3270250D01*
X-2957068Y3270250D01*
X2387587Y4039615D02*
G01*
X2387587Y3961637D01*
X2392667Y3946144D01*
X2403081Y3935729D01*
X2418829Y3930650D01*
X2429243Y3930650D01*
X2444737Y3935729D01*
X2455151Y3946144D01*
X2460231Y3961637D01*
X2460231Y4039615D01*
X2546591Y4039615D02*
G01*
X2494521Y3966971D01*
X2572499Y3966971D01*
X2546591Y4039615D02*
G01*
X2546591Y3930650D01*
X6654787Y4039615D02*
G01*
X6654787Y3961637D01*
X6659867Y3946144D01*
X6670281Y3935729D01*
X6686029Y3930650D01*
X6696443Y3930650D01*
X6711937Y3935729D01*
X6722351Y3946144D01*
X6727431Y3961637D01*
X6727431Y4039615D01*
X6824205Y4039615D02*
G01*
X6772135Y4039615D01*
X6767055Y3992879D01*
X6772135Y3997960D01*
X6787883Y4003294D01*
X6803377Y4003294D01*
X6818871Y3997960D01*
X6829285Y3987800D01*
X6834619Y3972052D01*
X6834619Y3961637D01*
X6829285Y3946144D01*
X6818871Y3935729D01*
X6803377Y3930650D01*
X6787883Y3930650D01*
X6772135Y3935729D01*
X6767055Y3940810D01*
X6761721Y3951223D01*
X-3848100Y4431284D02*
G01*
X-3848100Y4509262D01*
X-3853179Y4524755D01*
X-3863594Y4535170D01*
X-3879342Y4540250D01*
X-3889755Y4540250D01*
X-3905250Y4535170D01*
X-3915663Y4524755D01*
X-3920744Y4509262D01*
X-3920744Y4431284D01*
X-4017518Y4446778D02*
G01*
X-4012184Y4436363D01*
X-3996689Y4431284D01*
X-3986276Y4431284D01*
X-3970781Y4436363D01*
X-3960368Y4452112D01*
X-3955034Y4478020D01*
X-3955034Y4503928D01*
X-3960368Y4524755D01*
X-3970781Y4535170D01*
X-3986276Y4540250D01*
X-3991610Y4540250D01*
X-4007104Y4535170D01*
X-4017518Y4524755D01*
X-4022597Y4509262D01*
X-4022597Y4503928D01*
X-4017518Y4488434D01*
X-4007104Y4478020D01*
X-3991610Y4472939D01*
X-3986276Y4472939D01*
X-3970781Y4478020D01*
X-3960368Y4488434D01*
X-3955034Y4503928D01*
X-1944115Y4597400D02*
G01*
X-1866137Y4597400D01*
X-1850644Y4602479D01*
X-1840229Y4612894D01*
X-1835150Y4628642D01*
X-1835150Y4639055D01*
X-1840229Y4654550D01*
X-1850644Y4664963D01*
X-1866137Y4670044D01*
X-1944115Y4670044D01*
X-1944115Y4777231D02*
G01*
X-1835150Y4725162D01*
X-1944115Y4704334D02*
G01*
X-1944115Y4777231D01*
X5308597Y3986796D02*
G01*
X5308597Y4064774D01*
X5303517Y4080268D01*
X5293103Y4090682D01*
X5277355Y4095762D01*
X5266941Y4095762D01*
X5251447Y4090682D01*
X5241033Y4080268D01*
X5235953Y4064774D01*
X5235953Y3986796D01*
X5175501Y3986796D02*
G01*
X5191249Y3991876D01*
X5196329Y4002290D01*
X5196329Y4012704D01*
X5191249Y4023118D01*
X5180835Y4028452D01*
X5160007Y4033532D01*
X5144513Y4038612D01*
X5134099Y4049026D01*
X5128765Y4059440D01*
X5128765Y4075188D01*
X5134099Y4085602D01*
X5139179Y4090682D01*
X5154927Y4095762D01*
X5175501Y4095762D01*
X5191249Y4090682D01*
X5196329Y4085602D01*
X5201663Y4075188D01*
X5201663Y4059440D01*
X5196329Y4049026D01*
X5185915Y4038612D01*
X5170421Y4033532D01*
X5149593Y4028452D01*
X5139179Y4023118D01*
X5134099Y4012704D01*
X5134099Y4002290D01*
X5139179Y3991876D01*
X5154927Y3986796D01*
X5175501Y3986796D01*
X5017515Y4127500D02*
G01*
X4939538Y4127500D01*
X4924043Y4122420D01*
X4913629Y4112005D01*
X4908550Y4096257D01*
X4908550Y4085844D01*
X4913629Y4070350D01*
X4924043Y4059936D01*
X4939538Y4054855D01*
X5017515Y4054855D01*
X4981193Y3953002D02*
G01*
X4965700Y3958081D01*
X4955286Y3968495D01*
X4949952Y3983989D01*
X4949952Y3989323D01*
X4955286Y4004818D01*
X4965700Y4015231D01*
X4981193Y4020565D01*
X4986274Y4020565D01*
X5002022Y4015231D01*
X5012436Y4004818D01*
X5017515Y3989323D01*
X5017515Y3983989D01*
X5012436Y3968495D01*
X5002022Y3958081D01*
X4981193Y3953002D01*
X4955286Y3953002D01*
X4929124Y3958081D01*
X4913629Y3968495D01*
X4908550Y3983989D01*
X4908550Y3994404D01*
X4913629Y4010152D01*
X4924043Y4015231D01*
X-3783584Y3962400D02*
G01*
X-3861562Y3962400D01*
X-3877055Y3957320D01*
X-3887470Y3946905D01*
X-3892550Y3931157D01*
X-3892550Y3920744D01*
X-3887470Y3905250D01*
X-3877055Y3894836D01*
X-3861562Y3889755D01*
X-3783584Y3889755D01*
X-3799078Y3782568D02*
G01*
X-3788663Y3792981D01*
X-3783584Y3808729D01*
X-3783584Y3829304D01*
X-3788663Y3845052D01*
X-3799078Y3855465D01*
X-3809492Y3855465D01*
X-3819905Y3850131D01*
X-3825239Y3845052D01*
X-3830320Y3834637D01*
X-3840734Y3803395D01*
X-3845813Y3792981D01*
X-3851147Y3787902D01*
X-3861562Y3782568D01*
X-3877055Y3782568D01*
X-3887470Y3792981D01*
X-3892550Y3808729D01*
X-3892550Y3829304D01*
X-3887470Y3845052D01*
X-3877055Y3855465D01*
X-3783584Y3748278D02*
G01*
X-3892550Y3748278D01*
X-3783584Y3748278D02*
G01*
X-3783584Y3701542D01*
X-3788663Y3686047D01*
X-3793997Y3680713D01*
X-3804412Y3675634D01*
X-3814826Y3675634D01*
X-3825239Y3680713D01*
X-3830320Y3686047D01*
X-3835400Y3701542D01*
X-3835400Y3748278D02*
G01*
X-3835400Y3701542D01*
X-3840734Y3686047D01*
X-3845813Y3680713D01*
X-3856228Y3675634D01*
X-3871976Y3675634D01*
X-3882389Y3680713D01*
X-3887470Y3686047D01*
X-3892550Y3701542D01*
X-3892550Y3748278D01*
X-3804412Y3641344D02*
G01*
X-3799078Y3630929D01*
X-3783584Y3615436D01*
X-3892550Y3615436D01*
G36*
X-2851150Y3418840D02*
G01*
X-2851150Y3373120D01*
X-2835960Y3373120D01*
X-2835960Y3418840D01*
G37*
G36*
X-2675839Y3418840D02*
G01*
X-2675839Y3373120D01*
X-2660650Y3373120D01*
X-2660650Y3418840D01*
G37*
G36*
X-2987040Y2726639D02*
G01*
X-2987040Y2711450D01*
X-2941320Y2711450D01*
X-2941320Y2726639D01*
G37*
G36*
X-2987040Y2901950D02*
G01*
X-2987040Y2886760D01*
X-2941320Y2886760D01*
X-2941320Y2901950D01*
G37*
G36*
X-3252165Y3015081D02*
G01*
X-3255975Y3014472D01*
X-3257803Y3013862D01*
X-3261207Y3012033D01*
X-3264103Y3009493D01*
X-3266440Y3006394D01*
X-3268014Y3002889D01*
X-3268827Y2999130D01*
X-3268827Y2995269D01*
X-3268014Y2991510D01*
X-3266440Y2988005D01*
X-3264103Y2984906D01*
X-3261207Y2982366D01*
X-3257803Y2980537D01*
X-3254095Y2979521D01*
X-3250234Y2979318D01*
X-3246424Y2979928D01*
X-3244596Y2980537D01*
X-3241192Y2982366D01*
X-3238296Y2984906D01*
X-3235960Y2988005D01*
X-3235045Y2989681D01*
X-3233877Y2993339D01*
X-3233521Y2997200D01*
X-3233877Y3001060D01*
X-3235045Y3004718D01*
X-3237026Y3008020D01*
X-3239668Y3010865D01*
X-3242868Y3012998D01*
X-3244596Y3013862D01*
X-3248304Y3014878D01*
G37*
D11*
X-2404648Y4327987D02*
G01*
X-2404648Y4627986D01*
X-2216680Y4329323D02*
G01*
X-2216680Y4629322D01*
X-2309995Y4403791D02*
G01*
X-2309995Y4556191D01*
X-2360795Y4429191D02*
G01*
X-2259195Y4429191D01*
X-2269355Y4530791D02*
G01*
X-2309995Y4429191D01*
X-2350635Y4530791D02*
G01*
X-2269355Y4530791D01*
X-2309995Y4429191D02*
G01*
X-2350635Y4530791D01*
X-2630340Y3886995D02*
G01*
X-2630340Y3586995D01*
X-2818307Y3885658D02*
G01*
X-2818307Y3585659D01*
X-2724993Y3811191D02*
G01*
X-2724993Y3658791D01*
X-2674193Y3785791D02*
G01*
X-2775793Y3785791D01*
X-2765633Y3684191D02*
G01*
X-2724993Y3785791D01*
X-2684353Y3684191D02*
G01*
X-2765633Y3684191D01*
X-2724993Y3785791D02*
G01*
X-2684353Y3684191D01*
X-3055457Y3101418D02*
G01*
X-3055457Y3181416D01*
X-3055503Y3045373D02*
G01*
X-3055503Y2965376D01*
X-2913489Y3101418D02*
G01*
X-2913489Y3181416D01*
X-2913537Y3045373D02*
G01*
X-2913537Y2965376D01*
X-3024474Y3212391D02*
G01*
X-2944469Y3212391D01*
X-2944522Y2934398D02*
G01*
X-3024525Y2934398D01*
X1615518Y4541357D02*
G01*
X1695516Y4541357D01*
X1559473Y4541403D02*
G01*
X1479476Y4541403D01*
X1615518Y4399389D02*
G01*
X1695516Y4399389D01*
X1559473Y4399437D02*
G01*
X1479476Y4399437D01*
X1726491Y4510374D02*
G01*
X1726491Y4430369D01*
X1448498Y4430422D02*
G01*
X1448498Y4510425D01*
D10*
X-2843522Y3045482D02*
G01*
X-2843522Y3380717D01*
X-2668277Y3045482D02*
G01*
X-2668277Y3380717D01*
X-2843522Y3273531D02*
G01*
X-2668277Y3273531D01*
D12*
X-1164993Y3530003D02*
G01*
X-1164993Y3690002D01*
X-1454995Y3530003D02*
G01*
X-1443410Y3530003D01*
X-1176578Y3530003D02*
G01*
X-1164993Y3530003D01*
X-1454995Y3690002D02*
G01*
X-1443410Y3690002D01*
X-1176578Y3690002D02*
G01*
X-1164993Y3690002D01*
X-1454995Y3690002D02*
G01*
X-1454995Y3635402D01*
X-1454995Y3530003D02*
G01*
X-1454995Y3584602D01*
D10*
X-1686057Y3247372D02*
G01*
X-1686057Y3151484D01*
X-1553936Y3151484D01*
X-1553936Y3247372D01*
X-1686057Y3332614D02*
G01*
X-1686057Y3428502D01*
X-1553936Y3428502D01*
X-1553936Y3332614D01*
D11*
X-3665057Y3114118D02*
G01*
X-3665057Y3194116D01*
X-3665103Y3058073D02*
G01*
X-3665103Y2978076D01*
X-3523089Y3114118D02*
G01*
X-3523089Y3194116D01*
X-3523137Y3058073D02*
G01*
X-3523137Y2978076D01*
X-3634074Y3225091D02*
G01*
X-3554069Y3225091D01*
X-3554122Y2947098D02*
G01*
X-3634125Y2947098D01*
X-769040Y4471972D02*
G01*
X-769040Y4391974D01*
X-768995Y4528017D02*
G01*
X-768995Y4608014D01*
X-911009Y4471972D02*
G01*
X-911009Y4391974D01*
X-910960Y4528017D02*
G01*
X-910960Y4608014D01*
X-800023Y4360999D02*
G01*
X-880028Y4360999D01*
X-879975Y4638992D02*
G01*
X-799972Y4638992D01*
X-969040Y4471972D02*
G01*
X-969040Y4391974D01*
X-968994Y4528017D02*
G01*
X-968994Y4608014D01*
X-1111008Y4471972D02*
G01*
X-1111008Y4391974D01*
X-1110960Y4528017D02*
G01*
X-1110960Y4608014D01*
X-1000023Y4360999D02*
G01*
X-1080028Y4360999D01*
X-1079974Y4638992D02*
G01*
X-999972Y4638992D01*
X2511981Y3421542D02*
G01*
X2431983Y3421542D01*
X2568026Y3421496D02*
G01*
X2648023Y3421496D01*
X2511981Y3563510D02*
G01*
X2431983Y3563510D01*
X2568026Y3563462D02*
G01*
X2648023Y3563462D01*
X2401008Y3452525D02*
G01*
X2401008Y3532530D01*
X2679001Y3532477D02*
G01*
X2679001Y3452474D01*
X2237818Y3550757D02*
G01*
X2317816Y3550757D01*
X2181773Y3550803D02*
G01*
X2101776Y3550803D01*
X2237818Y3408789D02*
G01*
X2317816Y3408789D01*
X2181773Y3408837D02*
G01*
X2101776Y3408837D01*
X2348791Y3519774D02*
G01*
X2348791Y3439769D01*
X2070798Y3439822D02*
G01*
X2070798Y3519825D01*
X2634142Y3787218D02*
G01*
X2634142Y3867216D01*
X2634096Y3731173D02*
G01*
X2634096Y3651176D01*
X2776110Y3787218D02*
G01*
X2776110Y3867216D01*
X2776062Y3731173D02*
G01*
X2776062Y3651176D01*
X2665125Y3898191D02*
G01*
X2745130Y3898191D01*
X2745077Y3620198D02*
G01*
X2665074Y3620198D01*
X-1495981Y4223857D02*
G01*
X-1415983Y4223857D01*
X-1552026Y4223903D02*
G01*
X-1632023Y4223903D01*
X-1495981Y4081889D02*
G01*
X-1415983Y4081889D01*
X-1552026Y4081937D02*
G01*
X-1632023Y4081937D01*
X-1385008Y4192874D02*
G01*
X-1385008Y4112869D01*
X-1663001Y4112922D02*
G01*
X-1663001Y4192925D01*
X-1186342Y4378881D02*
G01*
X-1186342Y4298883D01*
X-1186296Y4434926D02*
G01*
X-1186296Y4514923D01*
X-1328310Y4378881D02*
G01*
X-1328310Y4298883D01*
X-1328262Y4434926D02*
G01*
X-1328262Y4514923D01*
X-1217325Y4267908D02*
G01*
X-1297330Y4267908D01*
X-1297277Y4545901D02*
G01*
X-1217274Y4545901D01*
X-1376842Y4378881D02*
G01*
X-1376842Y4298883D01*
X-1376796Y4434926D02*
G01*
X-1376796Y4514923D01*
X-1518810Y4378881D02*
G01*
X-1518810Y4298883D01*
X-1518762Y4434926D02*
G01*
X-1518762Y4514923D01*
X-1407825Y4267908D02*
G01*
X-1487830Y4267908D01*
X-1487777Y4545901D02*
G01*
X-1407774Y4545901D01*
X-1216581Y3385657D02*
G01*
X-1136583Y3385657D01*
X-1272626Y3385703D02*
G01*
X-1352623Y3385703D01*
X-1216581Y3243689D02*
G01*
X-1136583Y3243689D01*
X-1272626Y3243737D02*
G01*
X-1352623Y3243737D01*
X-1105608Y3354674D02*
G01*
X-1105608Y3274669D01*
X-1383601Y3274722D02*
G01*
X-1383601Y3354725D01*
X-1539039Y3601973D02*
G01*
X-1539039Y3521976D01*
X-1538993Y3658019D02*
G01*
X-1538993Y3738016D01*
X-1681007Y3601973D02*
G01*
X-1681007Y3521976D01*
X-1680959Y3658019D02*
G01*
X-1680959Y3738016D01*
X-1570022Y3491001D02*
G01*
X-1650027Y3491001D01*
X-1649973Y3768994D02*
G01*
X-1569971Y3768994D01*
X5303354Y3718493D02*
G01*
X5303354Y3638496D01*
X5303400Y3774539D02*
G01*
X5303400Y3854536D01*
X5161386Y3718493D02*
G01*
X5161386Y3638496D01*
X5161434Y3774539D02*
G01*
X5161434Y3854536D01*
X5272371Y3607521D02*
G01*
X5192367Y3607521D01*
X5192420Y3885514D02*
G01*
X5272422Y3885514D01*
X5496478Y3383455D02*
G01*
X5416481Y3383455D01*
X5552523Y3383409D02*
G01*
X5632521Y3383409D01*
X5496478Y3525423D02*
G01*
X5416481Y3525423D01*
X5552523Y3525375D02*
G01*
X5632521Y3525375D01*
X5385506Y3414438D02*
G01*
X5385506Y3494443D01*
X5663498Y3494389D02*
G01*
X5663498Y3414387D01*
X2623657Y4340781D02*
G01*
X2623657Y4260783D01*
X2623703Y4396826D02*
G01*
X2623703Y4476823D01*
X2481689Y4340781D02*
G01*
X2481689Y4260783D01*
X2481737Y4396826D02*
G01*
X2481737Y4476823D01*
X2592674Y4229808D02*
G01*
X2512669Y4229808D01*
X2512722Y4507801D02*
G01*
X2592725Y4507801D01*
X6914042Y3774518D02*
G01*
X6914042Y3854516D01*
X6913996Y3718473D02*
G01*
X6913996Y3638476D01*
X7056010Y3774518D02*
G01*
X7056010Y3854516D01*
X7055962Y3718473D02*
G01*
X7055962Y3638476D01*
X6945025Y3885491D02*
G01*
X7025030Y3885491D01*
X7024977Y3607498D02*
G01*
X6944974Y3607498D01*
X6766481Y3421542D02*
G01*
X6686483Y3421542D01*
X6822526Y3421496D02*
G01*
X6902523Y3421496D01*
X6766481Y3563510D02*
G01*
X6686483Y3563510D01*
X6822526Y3563462D02*
G01*
X6902523Y3563462D01*
X6655508Y3452525D02*
G01*
X6655508Y3532530D01*
X6933501Y3532477D02*
G01*
X6933501Y3452474D01*
X6779181Y3218342D02*
G01*
X6699183Y3218342D01*
X6835226Y3218296D02*
G01*
X6915223Y3218296D01*
X6779181Y3360310D02*
G01*
X6699183Y3360310D01*
X6835226Y3360262D02*
G01*
X6915223Y3360262D01*
X6668208Y3249325D02*
G01*
X6668208Y3329330D01*
X6946201Y3329277D02*
G01*
X6946201Y3249274D01*
D10*
X4469439Y4168264D02*
G01*
X4469439Y4131419D01*
X4547560Y4131419D02*
G01*
X4547560Y4168264D01*
X4532320Y4183504D02*
G01*
X4484679Y4183504D01*
X4469439Y4061335D02*
G01*
X4469439Y4098180D01*
X4547560Y4098180D02*
G01*
X4547560Y4061335D01*
X4532320Y4046095D02*
G01*
X4484679Y4046095D01*
X4355139Y4168264D02*
G01*
X4355139Y4131419D01*
X4433260Y4131419D02*
G01*
X4433260Y4168264D01*
X4418020Y4183504D02*
G01*
X4370379Y4183504D01*
X4355139Y4061335D02*
G01*
X4355139Y4098180D01*
X4433260Y4098180D02*
G01*
X4433260Y4061335D01*
X4418020Y4046095D02*
G01*
X4370379Y4046095D01*
X-2613682Y2719077D02*
G01*
X-2948917Y2719077D01*
X-2613682Y2894322D02*
G01*
X-2948917Y2894322D01*
X-2841731Y2719077D02*
G01*
X-2841731Y2894322D01*
D11*
X4561918Y3118957D02*
G01*
X4641916Y3118957D01*
X4505873Y3119003D02*
G01*
X4425876Y3119003D01*
X4561918Y2976989D02*
G01*
X4641916Y2976989D01*
X4505873Y2977037D02*
G01*
X4425876Y2977037D01*
X4672891Y3087974D02*
G01*
X4672891Y3007969D01*
X4394898Y3008022D02*
G01*
X4394898Y3088025D01*
X3365500Y3451999D02*
G01*
X3365500Y4052001D01*
X3873500Y3451999D02*
G01*
X3873500Y4052001D01*
X3619500Y3451999D02*
G01*
X3619500Y4052001D01*
X4127500Y3451999D02*
G01*
X4127500Y4052001D01*
X3238500Y3452012D02*
G01*
X4254500Y3452012D01*
X4254500Y3198012D01*
X3238500Y3198012D01*
X3238500Y3452012D01*
D10*
X2131964Y4330700D02*
G01*
X2147199Y4346110D01*
X2248842Y4346110D01*
X2262098Y4330700D01*
X2262098Y4076700D02*
G01*
X2246998Y4061284D01*
X2145355Y4061284D01*
X2132098Y4076700D01*
D13*
X2262098Y4330900D02*
G01*
X2262098Y4254700D01*
X2132098Y4076494D02*
G01*
X2132098Y4152694D01*
X2132098Y4330900D02*
G01*
X2132098Y4254700D01*
X2262098Y4076494D02*
G01*
X2262098Y4152694D01*
D14*
X2384806Y2981401D02*
G01*
X2384806Y2991403D01*
X2354811Y3021406D01*
X2384806Y2911408D02*
G01*
X2384806Y2901393D01*
X2354811Y2871398D01*
X2384806Y2911408D02*
G01*
X2384806Y2981401D01*
X2054804Y2871411D02*
G01*
X2054804Y3019402D01*
X2239810Y3021406D02*
G01*
X2354811Y3021406D01*
X2239810Y2871398D02*
G01*
X2354811Y2871398D01*
X2179807Y3021406D02*
G01*
X2054804Y3021406D01*
X2179807Y2871398D02*
G01*
X2054804Y2871398D01*
X2197100Y2984500D02*
G01*
X2197100Y2908300D01*
X2197100Y2945759D02*
G01*
X2222500Y2945759D01*
X-3350005Y4486198D02*
G01*
X-3350005Y4476196D01*
X-3320011Y4446193D01*
X-3350005Y4556191D02*
G01*
X-3350005Y4566206D01*
X-3320011Y4596201D01*
X-3350005Y4556191D02*
G01*
X-3350005Y4486198D01*
X-3020004Y4596188D02*
G01*
X-3020004Y4448197D01*
X-3205010Y4446193D02*
G01*
X-3320011Y4446193D01*
X-3205010Y4596201D02*
G01*
X-3320011Y4596201D01*
X-3145007Y4446193D02*
G01*
X-3020004Y4446193D01*
X-3145007Y4596201D02*
G01*
X-3020004Y4596201D01*
X-3162300Y4483100D02*
G01*
X-3162300Y4559300D01*
X-3162300Y4521840D02*
G01*
X-3187700Y4521840D01*
D11*
X-2345895Y3428794D02*
G01*
X-2345895Y2717594D01*
X-1926795Y2717594D01*
X-1926795Y3428794D01*
D10*
X-3058139Y3598621D02*
G01*
X-3058139Y3694508D01*
X-3190260Y3694508D01*
X-3190260Y3598621D01*
X-3058139Y3513378D02*
G01*
X-3058139Y3417491D01*
X-3190260Y3417491D01*
X-3190260Y3513378D01*
X-3190260Y3881678D02*
G01*
X-3190260Y3785791D01*
X-3058139Y3785791D01*
X-3058139Y3881678D01*
X-3190260Y3966921D02*
G01*
X-3190260Y4062808D01*
X-3058139Y4062808D01*
X-3058139Y3966921D01*
X-871778Y3718539D02*
G01*
X-775891Y3718539D01*
X-775891Y3850660D01*
X-871778Y3850660D01*
X-957021Y3718539D02*
G01*
X-1052908Y3718539D01*
X-1052908Y3850660D01*
X-957021Y3850660D01*
X2009160Y4462221D02*
G01*
X2009160Y4558108D01*
X1877039Y4558108D01*
X1877039Y4462221D01*
X2009160Y4376978D02*
G01*
X2009160Y4281091D01*
X1877039Y4281091D01*
X1877039Y4376978D01*
X1506778Y3050560D02*
G01*
X1410891Y3050560D01*
X1410891Y2918439D01*
X1506778Y2918439D01*
X1592021Y3050560D02*
G01*
X1687908Y3050560D01*
X1687908Y2918439D01*
X1592021Y2918439D01*
X5082557Y3776433D02*
G01*
X5082557Y3872321D01*
X4950437Y3872321D01*
X4950437Y3776433D01*
X5082557Y3691191D02*
G01*
X5082557Y3595303D01*
X4950437Y3595303D01*
X4950437Y3691191D01*
X4892060Y3179521D02*
G01*
X4892060Y3275408D01*
X4759939Y3275408D01*
X4759939Y3179521D01*
X4892060Y3094278D02*
G01*
X4892060Y2998391D01*
X4759939Y2998391D01*
X4759939Y3094278D01*
X-3284778Y4264639D02*
G01*
X-3188891Y4264639D01*
X-3188891Y4396760D01*
X-3284778Y4396760D01*
X-3370021Y4264639D02*
G01*
X-3465908Y4264639D01*
X-3465908Y4396760D01*
X-3370021Y4396760D01*
X2918439Y4199178D02*
G01*
X2918439Y4103291D01*
X3050560Y4103291D01*
X3050560Y4199178D01*
X2918439Y4284421D02*
G01*
X2918439Y4380308D01*
X3050560Y4380308D01*
X3050560Y4284421D01*
X2834660Y4424121D02*
G01*
X2834660Y4520008D01*
X2702539Y4520008D01*
X2702539Y4424121D01*
X2834660Y4338878D02*
G01*
X2834660Y4242991D01*
X2702539Y4242991D01*
X2702539Y4338878D01*
X-160578Y2791439D02*
G01*
X-64691Y2791439D01*
X-64691Y2923560D01*
X-160578Y2923560D01*
X-245821Y2791439D02*
G01*
X-341708Y2791439D01*
X-341708Y2923560D01*
X-245821Y2923560D01*
X5971557Y3776433D02*
G01*
X5971557Y3872321D01*
X5839437Y3872321D01*
X5839437Y3776433D01*
X5971557Y3691191D02*
G01*
X5971557Y3595303D01*
X5839437Y3595303D01*
X5839437Y3691191D01*
X5507276Y4117373D02*
G01*
X5411388Y4117373D01*
X5411388Y3985252D01*
X5507276Y3985252D01*
X5592518Y4117373D02*
G01*
X5688406Y4117373D01*
X5688406Y3985252D01*
X5592518Y3985252D01*
X6271237Y3094291D02*
G01*
X6271237Y2998403D01*
X6403357Y2998403D01*
X6403357Y3094291D01*
X6271237Y3179533D02*
G01*
X6271237Y3275421D01*
X6403357Y3275421D01*
X6403357Y3179533D01*
X-2725978Y4455139D02*
G01*
X-2630091Y4455139D01*
X-2630091Y4587260D01*
X-2725978Y4587260D01*
X-2811221Y4455139D02*
G01*
X-2907108Y4455139D01*
X-2907108Y4587260D01*
X-2811221Y4587260D01*
X6017237Y3081591D02*
G01*
X6017237Y2985703D01*
X6149357Y2985703D01*
X6149357Y3081591D01*
X6017237Y3166833D02*
G01*
X6017237Y3262721D01*
X6149357Y3262721D01*
X6149357Y3166833D01*
X-490778Y2791439D02*
G01*
X-394891Y2791439D01*
X-394891Y2923560D01*
X-490778Y2923560D01*
X-576021Y2791439D02*
G01*
X-671908Y2791439D01*
X-671908Y2923560D01*
X-576021Y2923560D01*
X2735021Y2880339D02*
G01*
X2830908Y2880339D01*
X2830908Y3012460D01*
X2735021Y3012460D01*
X2649778Y2880339D02*
G01*
X2553891Y2880339D01*
X2553891Y3012460D01*
X2649778Y3012460D01*
X-871778Y3553439D02*
G01*
X-775891Y3553439D01*
X-775891Y3685560D01*
X-871778Y3685560D01*
X-957021Y3553439D02*
G01*
X-1052908Y3553439D01*
X-1052908Y3685560D01*
X-957021Y3685560D01*
D11*
X1577200Y4233598D02*
G01*
X1577200Y3843599D01*
X1877199Y4233598D02*
G01*
X1877199Y3843599D01*
X1604086Y3843599D02*
G01*
X1577200Y3843599D01*
X1877199Y3843599D02*
G01*
X1850313Y3843599D01*
X1604086Y4233598D02*
G01*
X1577200Y4233598D01*
X1877199Y4233598D02*
G01*
X1850313Y4233598D01*
X1877199Y3195901D02*
G01*
X1877199Y3585900D01*
X1577200Y3195901D02*
G01*
X1577200Y3585900D01*
X1850313Y3585900D02*
G01*
X1877199Y3585900D01*
X1577200Y3585900D02*
G01*
X1604086Y3585900D01*
X1850313Y3195901D02*
G01*
X1877199Y3195901D01*
X1577200Y3195901D02*
G01*
X1604086Y3195901D01*
X1260812Y4236499D02*
G01*
X1260812Y4086499D01*
X1100813Y4086499D01*
X1100813Y3866499D01*
X1260812Y3866499D01*
X1260812Y3646500D01*
X1100813Y3646500D01*
X1100813Y3426500D01*
X1260812Y3426500D01*
X1260812Y3216498D01*
X990813Y3216498D01*
X990813Y4396501D02*
G01*
X1260812Y4396501D01*
X1260812Y4236499D01*
X990813Y4236499D01*
X825774Y4516501D02*
G01*
X825774Y2966499D01*
X829401Y2966499D01*
X1330812Y4516501D02*
G01*
X1330812Y2966499D01*
X-719188Y2966499D01*
X-719188Y4516501D01*
X1330812Y4516501D01*
D15*
X-3199302Y2958388D02*
G01*
X-3199302Y2943793D01*
X-3199302Y3053387D02*
G01*
X-3199302Y3049219D01*
X-3199302Y3148380D02*
G01*
X-3199302Y3144215D01*
X-3199302Y3253795D02*
G01*
X-3199302Y3239211D01*
X-3379304Y2958388D02*
G01*
X-3379304Y2943793D01*
X-3379304Y3148380D02*
G01*
X-3379304Y3049216D01*
X-3379304Y3253795D02*
G01*
X-3379304Y3239208D01*
X-3379304Y3253795D02*
G01*
X-3199302Y3253795D01*
X-3379304Y2943793D02*
G01*
X-3199302Y2943793D01*
D10*
X2496037Y3879121D02*
G01*
X2570606Y3879121D01*
X2570606Y3854549D01*
X2496037Y3613878D02*
G01*
X2570606Y3613878D01*
X2570606Y3638450D01*
X2329936Y3879121D02*
G01*
X2255367Y3879121D01*
X2255367Y3854549D01*
X2329936Y3613878D02*
G01*
X2255367Y3613878D01*
X2255367Y3638450D01*
X6763237Y3879121D02*
G01*
X6837806Y3879121D01*
X6837806Y3854549D01*
X6763237Y3613878D02*
G01*
X6837806Y3613878D01*
X6837806Y3638450D01*
X6597136Y3879121D02*
G01*
X6522567Y3879121D01*
X6522567Y3854549D01*
X6597136Y3613878D02*
G01*
X6522567Y3613878D01*
X6522567Y3638450D01*
X-3479579Y4580920D02*
G01*
X-3479579Y4410679D01*
X-3784820Y4580920D02*
G01*
X-3784820Y4410679D01*
X-3679840Y4410679D02*
G01*
X-3584559Y4410679D01*
D14*
X-2020552Y4249051D02*
G01*
X-2020552Y4559058D01*
X-1710545Y4559058D02*
G01*
X-2020552Y4559058D01*
X-1710672Y4249051D02*
G01*
X-1710672Y4559058D01*
X-2020552Y4246638D02*
G01*
X-1936732Y4246638D01*
X-1794492Y4246638D02*
G01*
X-1710672Y4246638D01*
D13*
X5351797Y3853812D02*
G01*
X5351797Y3894442D01*
X5392417Y3894442D01*
X5631797Y3893812D02*
G01*
X5672429Y3893812D01*
X5672429Y3853192D01*
X5671797Y3573813D02*
G01*
X5631174Y3573813D01*
X5391797Y3573813D02*
G01*
X5351167Y3573813D01*
X5351167Y3573813D02*
G01*
X5351167Y3614432D01*
X5671797Y3614440D02*
G01*
X5671797Y3573813D01*
D11*
X4599398Y4144383D02*
G01*
X4599398Y4110616D01*
X4849401Y4144385D02*
G01*
X4849401Y4110614D01*
X-3861219Y3309198D02*
G01*
X-3669931Y3309198D01*
X-4222074Y3309198D02*
G01*
X-4062930Y3309198D01*
X-3861219Y4209196D02*
G01*
X-3669924Y4209196D01*
X-4222074Y4209196D02*
G01*
X-4062930Y4209196D01*
X-4222074Y4209196D02*
G01*
X-4222074Y3309198D01*
G75*
G01*
X-2913537Y2965381D02*
G02*
X-2944523Y2934399I-30983J0D01*
G75*
G01*
X-3024520Y2934399D02*
G02*
X-3055503Y2965381I0J30982D01*
G75*
G01*
X-3055457Y3181411D02*
G02*
X-3024475Y3212391I30982J-3D01*
G75*
G01*
X-2944477Y3212391D02*
G02*
X-2913489Y3181411I5J-30983D01*
G75*
G01*
X1479481Y4399437D02*
G02*
X1448499Y4430423I0J30983D01*
G75*
G01*
X1448499Y4510420D02*
G02*
X1479481Y4541403I30982J0D01*
G75*
G01*
X1695511Y4541357D02*
G02*
X1726491Y4510375I-3J-30982D01*
G75*
G01*
X1726491Y4430377D02*
G02*
X1695511Y4399389I-30983J-5D01*
D12*
G75*
G01*
X-1454996Y3635403D02*
G02*
X-1455069Y3584478I-288J-25462D01*
D11*
G75*
G01*
X-3523137Y2978081D02*
G02*
X-3554123Y2947099I-30983J0D01*
G75*
G01*
X-3634120Y2947099D02*
G02*
X-3665103Y2978081I0J30982D01*
G75*
G01*
X-3665057Y3194111D02*
G02*
X-3634075Y3225091I30982J-3D01*
G75*
G01*
X-3554077Y3225091D02*
G02*
X-3523089Y3194111I5J-30983D01*
G75*
G01*
X-910961Y4608010D02*
G02*
X-879975Y4638992I30983J0D01*
G75*
G01*
X-799978Y4638992D02*
G02*
X-768995Y4608010I0J-30982D01*
G75*
G01*
X-769041Y4391980D02*
G02*
X-800024Y4361000I-30983J3D01*
G75*
G01*
X-880021Y4361000D02*
G02*
X-911009Y4391980I-5J30983D01*
G75*
G01*
X-1110960Y4608010D02*
G02*
X-1079975Y4638992I30982J0D01*
G75*
G01*
X-999978Y4638992D02*
G02*
X-968995Y4608010I0J-30982D01*
G75*
G01*
X-969040Y4391980D02*
G02*
X-1000023Y4361000I-30983J3D01*
G75*
G01*
X-1080021Y4361000D02*
G02*
X-1111009Y4391980I-5J30983D01*
G75*
G01*
X2648019Y3563463D02*
G02*
X2679001Y3532477I0J-30983D01*
G75*
G01*
X2679001Y3452480D02*
G02*
X2648019Y3421497I-30982J0D01*
G75*
G01*
X2431989Y3421543D02*
G02*
X2401009Y3452525I3J30982D01*
G75*
G01*
X2401009Y3532523D02*
G02*
X2431989Y3563511I30983J5D01*
G75*
G01*
X2101781Y3408837D02*
G02*
X2070799Y3439823I0J30983D01*
G75*
G01*
X2070799Y3519820D02*
G02*
X2101781Y3550803I30982J0D01*
G75*
G01*
X2317811Y3550757D02*
G02*
X2348791Y3519775I-3J-30982D01*
G75*
G01*
X2348791Y3439777D02*
G02*
X2317811Y3408789I-30983J-5D01*
G75*
G01*
X2776063Y3651181D02*
G02*
X2745077Y3620199I-30983J0D01*
G75*
G01*
X2665080Y3620199D02*
G02*
X2634097Y3651181I0J30982D01*
G75*
G01*
X2634143Y3867211D02*
G02*
X2665125Y3898191I30982J-3D01*
G75*
G01*
X2745123Y3898191D02*
G02*
X2776111Y3867211I5J-30983D01*
G75*
G01*
X-1632019Y4081937D02*
G02*
X-1663001Y4112923I0J30983D01*
G75*
G01*
X-1663001Y4192920D02*
G02*
X-1632019Y4223903I30982J0D01*
G75*
G01*
X-1415989Y4223857D02*
G02*
X-1385009Y4192875I-3J-30982D01*
G75*
G01*
X-1385009Y4112877D02*
G02*
X-1415989Y4081889I-30983J-5D01*
G75*
G01*
X-1328263Y4514919D02*
G02*
X-1297277Y4545901I30983J0D01*
G75*
G01*
X-1217280Y4545901D02*
G02*
X-1186297Y4514919I0J-30982D01*
G75*
G01*
X-1186343Y4298889D02*
G02*
X-1217325Y4267909I-30982J3D01*
G75*
G01*
X-1297323Y4267909D02*
G02*
X-1328311Y4298889I-5J30983D01*
G75*
G01*
X-1518763Y4514919D02*
G02*
X-1487777Y4545901I30983J0D01*
G75*
G01*
X-1407780Y4545901D02*
G02*
X-1376797Y4514919I0J-30982D01*
G75*
G01*
X-1376843Y4298889D02*
G02*
X-1407825Y4267909I-30982J3D01*
G75*
G01*
X-1487823Y4267909D02*
G02*
X-1518811Y4298889I-5J30983D01*
G75*
G01*
X-1352619Y3243737D02*
G02*
X-1383601Y3274723I0J30983D01*
G75*
G01*
X-1383601Y3354720D02*
G02*
X-1352619Y3385703I30982J0D01*
G75*
G01*
X-1136589Y3385657D02*
G02*
X-1105609Y3354675I-3J-30982D01*
G75*
G01*
X-1105609Y3274677D02*
G02*
X-1136589Y3243689I-30983J-5D01*
G75*
G01*
X-1680959Y3738011D02*
G02*
X-1649974Y3768994I30983J0D01*
G75*
G01*
X-1569977Y3768994D02*
G02*
X-1538994Y3738011I0J-30983D01*
G75*
G01*
X-1539039Y3521982D02*
G02*
X-1570022Y3491001I-30983J2D01*
G75*
G01*
X-1650020Y3491001D02*
G02*
X-1681008Y3521982I-5J30983D01*
G75*
G01*
X5161435Y3854531D02*
G02*
X5192420Y3885514I30983J0D01*
G75*
G01*
X5272418Y3885514D02*
G02*
X5303401Y3854531I0J-30983D01*
G75*
G01*
X5303355Y3638502D02*
G02*
X5272372Y3607521I-30983J2D01*
G75*
G01*
X5192375Y3607521D02*
G02*
X5161387Y3638502I-5J30983D01*
G75*
G01*
X5632516Y3525375D02*
G02*
X5663499Y3494390I0J-30983D01*
G75*
G01*
X5663499Y3414392D02*
G02*
X5632516Y3383410I-30983J0D01*
G75*
G01*
X5416487Y3383455D02*
G02*
X5385506Y3414438I2J30983D01*
G75*
G01*
X5385506Y3494435D02*
G02*
X5416487Y3525423I30983J6D01*
G75*
G01*
X2481737Y4476819D02*
G02*
X2512723Y4507801I30983J0D01*
G75*
G01*
X2592720Y4507801D02*
G02*
X2623703Y4476819I0J-30982D01*
G75*
G01*
X2623657Y4260789D02*
G02*
X2592675Y4229809I-30982J3D01*
G75*
G01*
X2512677Y4229809D02*
G02*
X2481689Y4260789I-5J30983D01*
G75*
G01*
X7055963Y3638481D02*
G02*
X7024977Y3607499I-30983J0D01*
G75*
G01*
X6944980Y3607499D02*
G02*
X6913997Y3638481I0J30982D01*
G75*
G01*
X6914043Y3854511D02*
G02*
X6945025Y3885491I30982J-3D01*
G75*
G01*
X7025023Y3885491D02*
G02*
X7056011Y3854511I5J-30983D01*
G75*
G01*
X6902519Y3563463D02*
G02*
X6933501Y3532477I0J-30983D01*
G75*
G01*
X6933501Y3452480D02*
G02*
X6902519Y3421497I-30982J0D01*
G75*
G01*
X6686489Y3421543D02*
G02*
X6655509Y3452525I3J30982D01*
G75*
G01*
X6655509Y3532523D02*
G02*
X6686489Y3563511I30983J5D01*
G75*
G01*
X6915219Y3360263D02*
G02*
X6946201Y3329277I0J-30983D01*
G75*
G01*
X6946201Y3249280D02*
G02*
X6915219Y3218297I-30982J0D01*
G75*
G01*
X6699189Y3218343D02*
G02*
X6668209Y3249325I3J30982D01*
G75*
G01*
X6668209Y3329323D02*
G02*
X6699189Y3360311I30983J5D01*
D10*
G75*
G01*
X4547560Y4168264D02*
G03*
X4532320Y4183504I-15240J0D01*
G75*
G01*
X4484680Y4183504D02*
G03*
X4469440Y4168264I0J-15240D01*
G75*
G01*
X4547560Y4061336D02*
G02*
X4532320Y4046096I-15240J0D01*
G75*
G01*
X4484680Y4046096D02*
G02*
X4469440Y4061336I0J15240D01*
G75*
G01*
X4433260Y4168264D02*
G03*
X4418020Y4183504I-15240J0D01*
G75*
G01*
X4370380Y4183504D02*
G03*
X4355140Y4168264I0J-15240D01*
G75*
G01*
X4433260Y4061336D02*
G02*
X4418020Y4046096I-15240J0D01*
G75*
G01*
X4370380Y4046096D02*
G02*
X4355140Y4061336I0J15240D01*
D11*
G75*
G01*
X4425881Y2977037D02*
G02*
X4394899Y3008023I0J30983D01*
G75*
G01*
X4394899Y3088020D02*
G02*
X4425881Y3119003I30982J0D01*
G75*
G01*
X4641911Y3118957D02*
G02*
X4672891Y3087975I-3J-30982D01*
G75*
G01*
X4672891Y3007977D02*
G02*
X4641911Y2976989I-30983J-5D01*
D14*
G75*
G01*
X-1934192Y4246639D02*
G02*
X-1794492Y4246639I69850J-21730D01*
D16*
G75*
G01*
X5591797Y3903812D02*
G03*
X5591543Y3903812I-127J12499D01*
D18*
G75*
G01
X-1452372Y3482975D02*
G03X-1452372Y3482975I-10008J0D01*
D11*
G75*
G01
X-1729994Y3771697D02*
G03X-1729994Y3771697I-399999J0D01*
G75*
G01
X1817192Y4038600D02*
G03X1817192Y4038600I-89992J0D01*
G75*
G01
X1817192Y3390900D02*
G03X1817192Y3390900I-89992J0D01*
G75*
G01
X694969Y4566488D02*
G03X694969Y4566488I-14148J0D01*
D14*
G75*
G01
X2229993Y3822700D02*
G03X2229993Y3822700I-7493J0D01*
G75*
G01
X6497193Y3822700D02*
G03X6497193Y3822700I-7493J0D01*
D19*
G75*
G01
X-3452089Y4610100D02*
G03X-3452089Y4610100I-15011J0D01*
D18*
G75*
G01
X-1658772Y4254500D02*
G03X-1658772Y4254500I-10008J0D01*
D11*
G75*
G01
X4559300Y4241800D02*
G03X4559300Y4241800I-12700J0D01*
M02*
