G04 Layer: BottomLayer*
G04 EasyEDA v6.5.54, 2026-05-30 19:05:59*
G04 b713acd6552c46cc8e75d456f680c5e3,b6031369c6ef4286a022563aaf79ab08,10*
G04 Gerber Generator version 0.2*
G04 Scale: 100 percent, Rotated: No, Reflected: No *
G04 Dimensions in millimeters *
G04 leading zeros omitted , absolute positions ,4 integer and 5 decimal *
%FSLAX45Y45*%
%MOMM*%

%ADD10C,0.2000*%
%ADD11C,0.3500*%
%ADD12C,1.8000*%
%ADD13R,1.8000X1.8000*%
%ADD14O,2.099996X0.999998*%
%ADD15O,1.599997X0.999998*%
%ADD16O,0.0159X0.999998*%
%ADD17C,0.6000*%
%ADD18C,0.5000*%

%LPD*%
G36*
X3717645Y3116021D02*
G01*
X3713581Y3117088D01*
X3710279Y3119729D01*
X3703980Y3127349D01*
X3693363Y3137306D01*
X3681577Y3145840D01*
X3668826Y3152851D01*
X3655314Y3158236D01*
X3641191Y3161842D01*
X3626764Y3163671D01*
X3612235Y3163671D01*
X3597808Y3161842D01*
X3583686Y3158236D01*
X3580587Y3156966D01*
X3576726Y3156254D01*
X3572916Y3157067D01*
X3569665Y3159252D01*
X2890418Y3838448D01*
X2883712Y3843477D01*
X2876550Y3847033D01*
X2868879Y3849217D01*
X2860446Y3850030D01*
X2835757Y3850030D01*
X2831846Y3850792D01*
X2828544Y3852976D01*
X2469642Y4211929D01*
X2467356Y4215333D01*
X2466644Y4219397D01*
X2467610Y4223410D01*
X2470861Y4230420D01*
X2473401Y4239818D01*
X2474264Y4249521D01*
X2473401Y4259224D01*
X2470861Y4268622D01*
X2466746Y4277461D01*
X2461158Y4285437D01*
X2457907Y4288739D01*
X2455672Y4292041D01*
X2454910Y4295902D01*
X2455672Y4299813D01*
X2457907Y4303115D01*
X2461209Y4305300D01*
X2465070Y4306062D01*
X4462424Y4306062D01*
X4466336Y4305300D01*
X4469638Y4303115D01*
X4471822Y4299813D01*
X4472584Y4295902D01*
X4472584Y4286758D01*
X4474210Y4277766D01*
X4477410Y4269232D01*
X4482084Y4261408D01*
X4488129Y4254550D01*
X4495241Y4248861D01*
X4503267Y4244543D01*
X4511954Y4241698D01*
X4520996Y4240479D01*
X4530090Y4240885D01*
X4538980Y4242917D01*
X4547362Y4246524D01*
X4554982Y4251553D01*
X4559300Y4254652D01*
X4563110Y4255414D01*
X4593234Y4255414D01*
X4597146Y4254601D01*
X4600448Y4252417D01*
X4960162Y3892702D01*
X4962347Y3889400D01*
X4964785Y3876294D01*
X4966716Y3871163D01*
X4967376Y3867302D01*
X4966512Y3863492D01*
X4964277Y3860292D01*
X4961026Y3858158D01*
X4957216Y3857396D01*
X4556556Y3857396D01*
X4552696Y3858209D01*
X4549394Y3860393D01*
X4439666Y3970121D01*
X4437634Y3973017D01*
X4436719Y3976370D01*
X4436211Y3981907D01*
X4433773Y3990695D01*
X4429861Y3998925D01*
X4424476Y4006291D01*
X4417872Y4012590D01*
X4410303Y4017619D01*
X4401870Y4021175D01*
X4392980Y4023207D01*
X4383887Y4023614D01*
X4374845Y4022394D01*
X4366158Y4019600D01*
X4358132Y4015282D01*
X4351020Y4009593D01*
X4345025Y4002735D01*
X4340352Y3994912D01*
X4337151Y3986326D01*
X4335526Y3977386D01*
X4335526Y3968242D01*
X4337151Y3959301D01*
X4340352Y3950766D01*
X4345025Y3942892D01*
X4351020Y3936034D01*
X4358132Y3930345D01*
X4366158Y3926027D01*
X4374845Y3923233D01*
X4383176Y3922115D01*
X4386326Y3921150D01*
X4389018Y3919220D01*
X4511700Y3796487D01*
X4517948Y3791458D01*
X4524654Y3788054D01*
X4532020Y3786073D01*
X4537862Y3785615D01*
X5300980Y3785615D01*
X5304891Y3784803D01*
X5308244Y3782517D01*
X5310428Y3779164D01*
X5311140Y3775201D01*
X5304993Y3531006D01*
X5306060Y3529990D01*
X5684012Y3529990D01*
X5685688Y3530701D01*
X5714288Y3559301D01*
X5715000Y3560978D01*
X5715000Y3775456D01*
X5715762Y3779316D01*
X5717946Y3782618D01*
X5721248Y3784803D01*
X5725160Y3785615D01*
X6154826Y3785615D01*
X6158179Y3785006D01*
X6161176Y3783380D01*
X6166561Y3779062D01*
X6174587Y3774744D01*
X6183274Y3771900D01*
X6192316Y3770680D01*
X6201410Y3771087D01*
X6210300Y3773119D01*
X6218732Y3776726D01*
X6226302Y3781755D01*
X6232906Y3788054D01*
X6238290Y3795420D01*
X6242202Y3803650D01*
X6244640Y3812438D01*
X6245453Y3821531D01*
X6244640Y3830574D01*
X6242202Y3839362D01*
X6238290Y3847592D01*
X6232906Y3854958D01*
X6226302Y3861257D01*
X6218732Y3866286D01*
X6210300Y3869893D01*
X6201410Y3871925D01*
X6192316Y3872331D01*
X6183274Y3871112D01*
X6174587Y3868267D01*
X6166561Y3863949D01*
X6161176Y3859631D01*
X6158179Y3858006D01*
X6154826Y3857396D01*
X5725160Y3857396D01*
X5721248Y3858209D01*
X5717946Y3860393D01*
X5715762Y3863695D01*
X5715000Y3867556D01*
X5715000Y3869842D01*
X5715762Y3873703D01*
X5717946Y3877005D01*
X5721248Y3879189D01*
X5725160Y3880002D01*
X6054090Y3880002D01*
X6062065Y3880815D01*
X6069279Y3883202D01*
X6074359Y3885946D01*
X6078778Y3887165D01*
X6083300Y3887368D01*
X6092190Y3889400D01*
X6100622Y3893007D01*
X6108192Y3898036D01*
X6114796Y3904335D01*
X6120180Y3911701D01*
X6124092Y3919931D01*
X6126530Y3928719D01*
X6127343Y3937812D01*
X6127191Y3939387D01*
X6127699Y3943553D01*
X6129832Y3947160D01*
X6133236Y3949598D01*
X6137351Y3950462D01*
X6456070Y3950462D01*
X6459982Y3949700D01*
X6463284Y3947515D01*
X6597294Y3813454D01*
X6599631Y3809898D01*
X6600291Y3805682D01*
X6599174Y3801618D01*
X6596481Y3798315D01*
X6593281Y3795776D01*
X6587286Y3788918D01*
X6582613Y3781094D01*
X6579412Y3772560D01*
X6576974Y3759454D01*
X6574790Y3756151D01*
X6064859Y3246221D01*
X6061557Y3244037D01*
X6057696Y3243275D01*
X5135168Y3243275D01*
X5131054Y3244138D01*
X5127701Y3246577D01*
X5125567Y3250184D01*
X5125059Y3254349D01*
X5125872Y3263341D01*
X5125059Y3272383D01*
X5122621Y3281172D01*
X5118658Y3289401D01*
X5113324Y3296767D01*
X5106720Y3303066D01*
X5099100Y3308096D01*
X5090718Y3311702D01*
X5081828Y3313734D01*
X5072735Y3314141D01*
X5063693Y3312922D01*
X5055006Y3310077D01*
X5046980Y3305759D01*
X5041544Y3301441D01*
X5038547Y3299815D01*
X5035194Y3299206D01*
X3648303Y3299206D01*
X3644442Y3300018D01*
X3641140Y3302203D01*
X3023514Y3919829D01*
X3021482Y3922725D01*
X3020568Y3926078D01*
X3020060Y3931615D01*
X3017621Y3940403D01*
X3013710Y3948633D01*
X3008325Y3955999D01*
X3002026Y3961993D01*
X2999079Y3966057D01*
X2995117Y3970731D01*
X2956966Y4008882D01*
X2954934Y4011777D01*
X2954020Y4015181D01*
X2953512Y4020667D01*
X2951073Y4029456D01*
X2947162Y4037685D01*
X2941777Y4045051D01*
X2935173Y4051350D01*
X2927604Y4056379D01*
X2919171Y4059986D01*
X2910281Y4062018D01*
X2901188Y4062425D01*
X2892145Y4061206D01*
X2883458Y4058361D01*
X2875432Y4054043D01*
X2868320Y4048353D01*
X2862326Y4041495D01*
X2857652Y4033672D01*
X2854452Y4025137D01*
X2852826Y4016146D01*
X2852826Y4007053D01*
X2854452Y3998061D01*
X2857652Y3989527D01*
X2862326Y3981704D01*
X2868320Y3974846D01*
X2875432Y3969156D01*
X2883458Y3964838D01*
X2892145Y3961993D01*
X2900476Y3960876D01*
X2903626Y3959910D01*
X2906318Y3957980D01*
X2918358Y3945940D01*
X2920238Y3943299D01*
X2921203Y3940200D01*
X2921152Y3936949D01*
X2919374Y3927094D01*
X2919374Y3917950D01*
X2921000Y3909009D01*
X2924200Y3900474D01*
X2928874Y3892600D01*
X2934868Y3885742D01*
X2941980Y3880053D01*
X2950006Y3875735D01*
X2958693Y3872941D01*
X2967024Y3871823D01*
X2970174Y3870858D01*
X2972866Y3868928D01*
X3603447Y3238296D01*
X3609695Y3233267D01*
X3616401Y3229864D01*
X3623767Y3227882D01*
X3629609Y3227425D01*
X3809187Y3227425D01*
X3813048Y3226612D01*
X3816350Y3224428D01*
X3818534Y3221126D01*
X3819347Y3217265D01*
X3818534Y3213354D01*
X3816350Y3210052D01*
X3725316Y3119018D01*
X3721760Y3116732D01*
G37*

%LPD*%
G36*
X2673705Y2968447D02*
G01*
X2669844Y2969209D01*
X2666542Y2971393D01*
X2265476Y3372459D01*
X2263292Y3375761D01*
X2262530Y3379622D01*
X2262530Y3617112D01*
X2263292Y3620973D01*
X2265476Y3624275D01*
X2358644Y3717442D01*
X2361742Y3719525D01*
X2365349Y3720388D01*
X2368194Y3720541D01*
X2377084Y3722573D01*
X2385466Y3726129D01*
X2393086Y3731158D01*
X2399690Y3737457D01*
X2405024Y3744823D01*
X2408986Y3753053D01*
X2411425Y3761841D01*
X2412238Y3770934D01*
X2411425Y3780028D01*
X2408986Y3788816D01*
X2405024Y3797046D01*
X2399690Y3804412D01*
X2393086Y3810711D01*
X2385466Y3815740D01*
X2377084Y3819296D01*
X2368194Y3821328D01*
X2361336Y3821633D01*
X2357526Y3822547D01*
X2354376Y3824833D01*
X2352294Y3828135D01*
X2351633Y3831945D01*
X2352395Y3835755D01*
X2354580Y3839006D01*
X2388108Y3872484D01*
X2392019Y3877106D01*
X2395118Y3881475D01*
X2401316Y3887368D01*
X2406650Y3894734D01*
X2410612Y3902964D01*
X2413050Y3911752D01*
X2413863Y3920845D01*
X2413050Y3929887D01*
X2410612Y3938676D01*
X2406650Y3946906D01*
X2398166Y3958386D01*
X2397353Y3962400D01*
X2397353Y4136847D01*
X2398166Y4140758D01*
X2400350Y4144060D01*
X2403652Y4146245D01*
X2407513Y4147007D01*
X2411425Y4146245D01*
X2414727Y4144060D01*
X2784043Y3774744D01*
X2790748Y3769715D01*
X2797911Y3766159D01*
X2805582Y3763975D01*
X2814015Y3763213D01*
X2838704Y3763213D01*
X2842615Y3762400D01*
X2845917Y3760215D01*
X3424885Y3181248D01*
X3427069Y3177946D01*
X3427831Y3174085D01*
X3427069Y3170174D01*
X3424885Y3166872D01*
X3421583Y3164687D01*
X3416858Y3163925D01*
X3416858Y3099358D01*
X3481425Y3099358D01*
X3482187Y3104083D01*
X3484372Y3107385D01*
X3487674Y3109569D01*
X3491585Y3110331D01*
X3495446Y3109569D01*
X3498748Y3107385D01*
X3508248Y3097834D01*
X3510330Y3094786D01*
X3511194Y3091180D01*
X3510737Y3087522D01*
X3507232Y3076803D01*
X3504539Y3062528D01*
X3503625Y3048000D01*
X3504539Y3033471D01*
X3507232Y3019196D01*
X3511753Y3005328D01*
X3517950Y2992170D01*
X3523081Y2984042D01*
X3524605Y2979978D01*
X3524250Y2975711D01*
X3522167Y2971952D01*
X3518712Y2969361D01*
X3514547Y2968447D01*
X3491585Y2968447D01*
X3487674Y2969209D01*
X3484372Y2971393D01*
X3482187Y2974695D01*
X3481425Y2978607D01*
X3481425Y2996641D01*
X3416858Y2996641D01*
X3416858Y2978607D01*
X3416096Y2974695D01*
X3413861Y2971393D01*
X3410559Y2969209D01*
X3406698Y2968447D01*
X3324301Y2968447D01*
X3320440Y2969209D01*
X3317138Y2971393D01*
X3314903Y2974695D01*
X3314141Y2978607D01*
X3314141Y2996641D01*
X3249574Y2996641D01*
X3249574Y2978607D01*
X3248812Y2974695D01*
X3246628Y2971393D01*
X3243326Y2969209D01*
X3239414Y2968447D01*
G37*

%LPC*%
G36*
X3249574Y3099358D02*
G01*
X3314141Y3099358D01*
X3314141Y3163925D01*
X3276092Y3163925D01*
X3269742Y3163214D01*
X3264306Y3161284D01*
X3259378Y3158185D01*
X3255314Y3154121D01*
X3252215Y3149193D01*
X3250285Y3143758D01*
X3249574Y3137408D01*
G37*

%LPD*%
G36*
X-1184198Y2917647D02*
G01*
X-1188059Y2918409D01*
X-1191361Y2920593D01*
X-1193596Y2923895D01*
X-1194358Y2927807D01*
X-1194358Y2945841D01*
X-1213256Y2945841D01*
X-1217168Y2946603D01*
X-1220470Y2948838D01*
X-1222654Y2952140D01*
X-1223416Y2956001D01*
X-1223416Y3038398D01*
X-1222654Y3042259D01*
X-1220470Y3045561D01*
X-1217168Y3047796D01*
X-1213256Y3048558D01*
X-1194358Y3048558D01*
X-1194358Y3113125D01*
X-1213256Y3113125D01*
X-1217168Y3113887D01*
X-1220470Y3116072D01*
X-1222654Y3119374D01*
X-1223416Y3123285D01*
X-1223416Y3633927D01*
X-1222654Y3637787D01*
X-1220470Y3641090D01*
X-813460Y4048099D01*
X-810158Y4050284D01*
X-806297Y4051046D01*
X-612038Y4051046D01*
X-608685Y4050487D01*
X-605688Y4048861D01*
X-600303Y4044492D01*
X-592277Y4040174D01*
X-583590Y4037380D01*
X-574548Y4036161D01*
X-565454Y4036568D01*
X-556564Y4038600D01*
X-548132Y4042156D01*
X-540562Y4047185D01*
X-533958Y4053484D01*
X-525830Y4064863D01*
X-522579Y4066895D01*
X-518769Y4067556D01*
X-515010Y4066743D01*
X-511809Y4064558D01*
X-471271Y4024020D01*
X-469087Y4020718D01*
X-468274Y4016806D01*
X-468274Y3685692D01*
X-469087Y3681780D01*
X-471271Y3678478D01*
X-474573Y3676294D01*
X-478434Y3675532D01*
X-1043635Y3675532D01*
X-1047343Y3676243D01*
X-1050544Y3678224D01*
X-1052779Y3681272D01*
X-1053846Y3683508D01*
X-1059230Y3690874D01*
X-1065834Y3697173D01*
X-1073404Y3702202D01*
X-1081836Y3705809D01*
X-1090726Y3707841D01*
X-1099820Y3708247D01*
X-1108862Y3707028D01*
X-1117549Y3704183D01*
X-1125575Y3699865D01*
X-1132687Y3694176D01*
X-1138682Y3687318D01*
X-1143355Y3679494D01*
X-1146556Y3670960D01*
X-1148181Y3661968D01*
X-1148181Y3652875D01*
X-1146556Y3643884D01*
X-1143355Y3635349D01*
X-1138682Y3627526D01*
X-1132687Y3620668D01*
X-1125575Y3614978D01*
X-1117549Y3610660D01*
X-1108862Y3607815D01*
X-1099820Y3606596D01*
X-1096670Y3606749D01*
X-1093571Y3606393D01*
X-1085189Y3604158D01*
X-1079347Y3603701D01*
X-451459Y3603701D01*
X-447598Y3602939D01*
X-444296Y3600754D01*
X72796Y3083661D01*
X74980Y3080359D01*
X75742Y3076498D01*
X74980Y3072587D01*
X72796Y3069285D01*
X69494Y3067100D01*
X65582Y3066338D01*
X-372160Y3066338D01*
X-380136Y3065475D01*
X-387248Y3063189D01*
X-393852Y3059379D01*
X-398322Y3055518D01*
X-533247Y2920593D01*
X-536549Y2918409D01*
X-540461Y2917647D01*
X-1016914Y2917647D01*
X-1020826Y2918409D01*
X-1024128Y2920593D01*
X-1026312Y2923895D01*
X-1027074Y2927807D01*
X-1027074Y2945841D01*
X-1091641Y2945841D01*
X-1091641Y2927807D01*
X-1092403Y2923895D01*
X-1094638Y2920593D01*
X-1097940Y2918409D01*
X-1101801Y2917647D01*
G37*

%LPC*%
G36*
X-1091641Y3048558D02*
G01*
X-1027074Y3048558D01*
X-1027074Y3086608D01*
X-1027785Y3092958D01*
X-1029716Y3098393D01*
X-1032814Y3103321D01*
X-1036878Y3107385D01*
X-1041806Y3110484D01*
X-1047242Y3112414D01*
X-1053592Y3113125D01*
X-1091641Y3113125D01*
G37*

%LPD*%
G36*
X-3799687Y2625902D02*
G01*
X-3821887Y2626817D01*
X-3843274Y2629357D01*
X-3864356Y2633624D01*
X-3885082Y2639466D01*
X-3905250Y2646934D01*
X-3924757Y2655976D01*
X-3943502Y2666542D01*
X-3961384Y2678531D01*
X-3978300Y2691841D01*
X-3994048Y2706471D01*
X-4008628Y2722321D01*
X-4021937Y2739237D01*
X-4033875Y2757119D01*
X-4044340Y2775915D01*
X-4053332Y2795473D01*
X-4060748Y2815691D01*
X-4066590Y2836418D01*
X-4070756Y2857500D01*
X-4073245Y2878886D01*
X-4074058Y2900680D01*
X-4074058Y3280206D01*
X-4073194Y3284372D01*
X-4070654Y3287826D01*
X-4066895Y3289909D01*
X-4062679Y3290265D01*
X-4058615Y3288893D01*
X-4055516Y3285947D01*
X-4051401Y3279901D01*
X-4043679Y3271570D01*
X-4034840Y3264509D01*
X-4024985Y3258820D01*
X-4014470Y3254705D01*
X-4008424Y3253333D01*
X-4008424Y3295853D01*
X-4063898Y3295853D01*
X-4067810Y3296615D01*
X-4071112Y3298799D01*
X-4073296Y3302101D01*
X-4074058Y3306013D01*
X-4074058Y3348380D01*
X-4073296Y3352292D01*
X-4071112Y3355594D01*
X-4067810Y3357778D01*
X-4063898Y3358540D01*
X-4008424Y3358540D01*
X-4008424Y3401060D01*
X-4014470Y3399688D01*
X-4024985Y3395573D01*
X-4034840Y3389884D01*
X-4043679Y3382822D01*
X-4051401Y3374491D01*
X-4055516Y3368446D01*
X-4058615Y3365500D01*
X-4062679Y3364128D01*
X-4066895Y3364484D01*
X-4070654Y3366566D01*
X-4073194Y3370021D01*
X-4074058Y3374186D01*
X-4074058Y4144213D01*
X-4073194Y4148378D01*
X-4070654Y4151833D01*
X-4066895Y4153915D01*
X-4062679Y4154271D01*
X-4058615Y4152849D01*
X-4055516Y4149902D01*
X-4051401Y4143857D01*
X-4043679Y4135577D01*
X-4034840Y4128515D01*
X-4024985Y4122826D01*
X-4014470Y4118660D01*
X-4008424Y4117289D01*
X-4008424Y4159859D01*
X-4063898Y4159859D01*
X-4067810Y4160621D01*
X-4071112Y4162806D01*
X-4073296Y4166108D01*
X-4074058Y4170019D01*
X-4074058Y4212386D01*
X-4073296Y4216247D01*
X-4071112Y4219549D01*
X-4067810Y4221784D01*
X-4063898Y4222546D01*
X-4008424Y4222546D01*
X-4008424Y4265066D01*
X-4014470Y4263694D01*
X-4024985Y4259580D01*
X-4034840Y4253890D01*
X-4043679Y4246829D01*
X-4051401Y4238498D01*
X-4055516Y4232452D01*
X-4058615Y4229506D01*
X-4062679Y4228084D01*
X-4066895Y4228490D01*
X-4070654Y4230573D01*
X-4073194Y4234027D01*
X-4074058Y4238193D01*
X-4074058Y4499305D01*
X-4073194Y4521911D01*
X-4070604Y4543247D01*
X-4066387Y4564380D01*
X-4060494Y4585055D01*
X-4053027Y4605223D01*
X-4043984Y4624781D01*
X-4033469Y4643526D01*
X-4021480Y4661408D01*
X-4008120Y4678273D01*
X-3993489Y4694072D01*
X-3977690Y4708652D01*
X-3960774Y4721961D01*
X-3942842Y4733848D01*
X-3924046Y4744364D01*
X-3904487Y4753356D01*
X-3884320Y4760772D01*
X-3863594Y4766564D01*
X-3842461Y4770729D01*
X-3821074Y4773218D01*
X-3799179Y4774082D01*
X-536041Y4774082D01*
X-532130Y4773320D01*
X-528828Y4771085D01*
X-526643Y4767834D01*
X-525881Y4763922D01*
X-526643Y4760010D01*
X-528828Y4756759D01*
X-719988Y4565599D01*
X-722680Y4563668D01*
X-725830Y4562703D01*
X-734110Y4561586D01*
X-742797Y4558741D01*
X-750824Y4554423D01*
X-757936Y4548733D01*
X-763981Y4541875D01*
X-768654Y4534052D01*
X-771855Y4525518D01*
X-773480Y4516526D01*
X-773379Y4506772D01*
X-773531Y4502404D01*
X-775563Y4498441D01*
X-779068Y4495749D01*
X-783336Y4494834D01*
X-1750771Y4494834D01*
X-1755292Y4495901D01*
X-1761185Y4498797D01*
X-1768856Y4500981D01*
X-1777288Y4501794D01*
X-2135479Y4501794D01*
X-2139391Y4502556D01*
X-2142693Y4504740D01*
X-2144877Y4508042D01*
X-2145639Y4511954D01*
X-2145639Y4596993D01*
X-2145182Y4600041D01*
X-2143810Y4602835D01*
X-2140712Y4607306D01*
X-2136597Y4616145D01*
X-2134057Y4625543D01*
X-2133193Y4635246D01*
X-2134057Y4644948D01*
X-2136597Y4654346D01*
X-2140712Y4663186D01*
X-2146300Y4671161D01*
X-2153158Y4678070D01*
X-2161133Y4683607D01*
X-2169972Y4687773D01*
X-2179370Y4690262D01*
X-2189073Y4691126D01*
X-2198776Y4690262D01*
X-2208174Y4687773D01*
X-2217013Y4683607D01*
X-2224989Y4678070D01*
X-2231847Y4671161D01*
X-2237435Y4663186D01*
X-2241550Y4654346D01*
X-2244090Y4644948D01*
X-2244953Y4635246D01*
X-2244090Y4625543D01*
X-2241550Y4616145D01*
X-2237435Y4607306D01*
X-2234336Y4602835D01*
X-2232964Y4600041D01*
X-2232456Y4596993D01*
X-2232456Y4536643D01*
X-2233269Y4532782D01*
X-2235454Y4529480D01*
X-2238756Y4527296D01*
X-2242616Y4526483D01*
X-2246528Y4527296D01*
X-2249830Y4529480D01*
X-2256282Y4535932D01*
X-2264257Y4541469D01*
X-2273046Y4545634D01*
X-2285847Y4549038D01*
X-2288743Y4551070D01*
X-2353868Y4616145D01*
X-2360574Y4621174D01*
X-2367737Y4624781D01*
X-2375408Y4626965D01*
X-2383840Y4627727D01*
X-2647391Y4627676D01*
X-2655671Y4626559D01*
X-2663240Y4623968D01*
X-2670251Y4620107D01*
X-2676753Y4614672D01*
X-3419348Y3872077D01*
X-3424377Y3865372D01*
X-3427933Y3858209D01*
X-3430117Y3850538D01*
X-3430879Y3842105D01*
X-3430879Y3398570D01*
X-3431794Y3394456D01*
X-3434283Y3391052D01*
X-3437940Y3388918D01*
X-3442106Y3388461D01*
X-3446119Y3389782D01*
X-3456127Y3395573D01*
X-3466693Y3399688D01*
X-3477768Y3402228D01*
X-3485235Y3402787D01*
X-3485235Y3358540D01*
X-3441039Y3358540D01*
X-3437178Y3357778D01*
X-3433876Y3355594D01*
X-3431692Y3352292D01*
X-3430879Y3348380D01*
X-3430879Y3306013D01*
X-3431692Y3302101D01*
X-3433876Y3298799D01*
X-3437178Y3296615D01*
X-3441039Y3295853D01*
X-3485235Y3295853D01*
X-3485235Y3251606D01*
X-3477768Y3252165D01*
X-3466693Y3254705D01*
X-3456127Y3258820D01*
X-3446119Y3264611D01*
X-3442106Y3265932D01*
X-3437940Y3265474D01*
X-3434283Y3263341D01*
X-3431794Y3259937D01*
X-3430879Y3255822D01*
X-3430879Y2955188D01*
X-3429711Y2946908D01*
X-3427171Y2939338D01*
X-3423259Y2932328D01*
X-3417874Y2925826D01*
X-3197555Y2705506D01*
X-3195523Y2702610D01*
X-3192068Y2689809D01*
X-3187954Y2681020D01*
X-3182366Y2673045D01*
X-3175508Y2666136D01*
X-3167532Y2660548D01*
X-3158693Y2656433D01*
X-3149295Y2653893D01*
X-3139592Y2653080D01*
X-3129889Y2653893D01*
X-3120491Y2656433D01*
X-3111652Y2660548D01*
X-3103676Y2666136D01*
X-3096818Y2673045D01*
X-3091230Y2681020D01*
X-3087116Y2689809D01*
X-3084576Y2699258D01*
X-3083712Y2708960D01*
X-3084576Y2718663D01*
X-3087116Y2728061D01*
X-3091230Y2736850D01*
X-3096818Y2744825D01*
X-3103676Y2751734D01*
X-3111652Y2757322D01*
X-3120491Y2761437D01*
X-3133293Y2764891D01*
X-3136138Y2766872D01*
X-3224225Y2854960D01*
X-3226511Y2858414D01*
X-3227222Y2862478D01*
X-3226257Y2866440D01*
X-3223818Y2869742D01*
X-3220262Y2871825D01*
X-3216198Y2872282D01*
X-3207512Y2871520D01*
X-3197860Y2872384D01*
X-3188411Y2874924D01*
X-3179622Y2879039D01*
X-3171647Y2884627D01*
X-3164738Y2891485D01*
X-3159150Y2899460D01*
X-3155035Y2908300D01*
X-3151581Y2921101D01*
X-3149600Y2923946D01*
X-3143808Y2929737D01*
X-3140506Y2931922D01*
X-3136646Y2932734D01*
X-3132734Y2931922D01*
X-3129432Y2929737D01*
X-3011627Y2811983D01*
X-3004972Y2806954D01*
X-2997809Y2803398D01*
X-2990088Y2801162D01*
X-2981655Y2800400D01*
X-2916885Y2800451D01*
X-2908604Y2801620D01*
X-2901035Y2804160D01*
X-2894025Y2808020D01*
X-2887522Y2813456D01*
X-2257856Y3443173D01*
X-2252827Y3449828D01*
X-2249220Y3456990D01*
X-2247036Y3464712D01*
X-2246274Y3473145D01*
X-2246325Y4196994D01*
X-2247493Y4205224D01*
X-2250033Y4212844D01*
X-2253589Y4219346D01*
X-2254808Y4223359D01*
X-2254961Y4225340D01*
X-2257501Y4234738D01*
X-2261616Y4243578D01*
X-2267204Y4251553D01*
X-2274112Y4258462D01*
X-2282088Y4263999D01*
X-2290876Y4268165D01*
X-2300325Y4270654D01*
X-2309977Y4271518D01*
X-2319680Y4270654D01*
X-2329129Y4268165D01*
X-2337917Y4263999D01*
X-2345893Y4258462D01*
X-2352802Y4251553D01*
X-2358390Y4243578D01*
X-2362504Y4234738D01*
X-2365044Y4225340D01*
X-2365857Y4215638D01*
X-2365044Y4205935D01*
X-2362504Y4196537D01*
X-2358390Y4187698D01*
X-2352802Y4179722D01*
X-2345893Y4172864D01*
X-2337409Y4166920D01*
X-2335123Y4164634D01*
X-2333599Y4161790D01*
X-2333091Y4158589D01*
X-2333091Y3494836D01*
X-2333853Y3490976D01*
X-2336088Y3487674D01*
X-2894888Y2928823D01*
X-2898444Y2926537D01*
X-2902610Y2925876D01*
X-2906674Y2926943D01*
X-2909976Y2929636D01*
X-2911906Y2933395D01*
X-2912770Y2936544D01*
X-2916885Y2945384D01*
X-2919984Y2949854D01*
X-2921355Y2952648D01*
X-2921812Y2955696D01*
X-2921812Y3959453D01*
X-2921050Y3963365D01*
X-2918866Y3966667D01*
X-2856534Y4028948D01*
X-2853283Y4031132D01*
X-2849473Y4031945D01*
X-2845612Y4031234D01*
X-2842514Y4029964D01*
X-2828391Y4026357D01*
X-2813964Y4024528D01*
X-2799435Y4024528D01*
X-2785008Y4026357D01*
X-2770886Y4029964D01*
X-2757373Y4035348D01*
X-2744622Y4042359D01*
X-2732836Y4050893D01*
X-2722219Y4060850D01*
X-2712923Y4072077D01*
X-2705150Y4084370D01*
X-2698953Y4097528D01*
X-2694432Y4111396D01*
X-2691739Y4125671D01*
X-2690825Y4140200D01*
X-2691739Y4154728D01*
X-2694432Y4169003D01*
X-2697937Y4179722D01*
X-2698394Y4183379D01*
X-2697530Y4186986D01*
X-2695448Y4190034D01*
X-2685948Y4199585D01*
X-2682646Y4201769D01*
X-2678785Y4202531D01*
X-2674874Y4201769D01*
X-2671572Y4199585D01*
X-2669387Y4196283D01*
X-2668625Y4191558D01*
X-2604058Y4191558D01*
X-2604058Y4256125D01*
X-2608783Y4256887D01*
X-2612085Y4259072D01*
X-2614269Y4262374D01*
X-2615031Y4266285D01*
X-2614269Y4270146D01*
X-2612085Y4273448D01*
X-2501747Y4383735D01*
X-2498445Y4385970D01*
X-2494584Y4386732D01*
X-2215642Y4386783D01*
X-2207361Y4387951D01*
X-2199792Y4390491D01*
X-2192782Y4394352D01*
X-2186279Y4399788D01*
X-2174087Y4411980D01*
X-2170785Y4414164D01*
X-2166874Y4414977D01*
X-2035048Y4414977D01*
X-2031390Y4414266D01*
X-2028240Y4412335D01*
X-2026005Y4409389D01*
X-2024938Y4405833D01*
X-2025243Y4402175D01*
X-2026310Y4398162D01*
X-2027174Y4388459D01*
X-2026310Y4378756D01*
X-2023770Y4369308D01*
X-2019655Y4360519D01*
X-2016556Y4355998D01*
X-2015185Y4353255D01*
X-2014677Y4350207D01*
X-2014677Y3279851D01*
X-2015489Y3275939D01*
X-2017674Y3272637D01*
X-2314854Y2975457D01*
X-2317699Y2973476D01*
X-2321052Y2972562D01*
X-2324506Y2972816D01*
X-2336546Y2978353D01*
X-2345944Y2980842D01*
X-2355646Y2981706D01*
X-2365349Y2980842D01*
X-2374747Y2978353D01*
X-2383586Y2974187D01*
X-2391562Y2968650D01*
X-2398420Y2961741D01*
X-2404008Y2953766D01*
X-2408123Y2944926D01*
X-2410663Y2935528D01*
X-2411526Y2925826D01*
X-2410663Y2916123D01*
X-2408123Y2906725D01*
X-2404008Y2897886D01*
X-2398420Y2889910D01*
X-2391562Y2883052D01*
X-2383586Y2877464D01*
X-2374747Y2873349D01*
X-2365349Y2870809D01*
X-2355646Y2869946D01*
X-2345944Y2870809D01*
X-2336546Y2873349D01*
X-2327706Y2877464D01*
X-2323236Y2880563D01*
X-2320493Y2881934D01*
X-2317445Y2882442D01*
X-2301392Y2882493D01*
X-2293213Y2883611D01*
X-2285593Y2886151D01*
X-2278634Y2890062D01*
X-2272080Y2895447D01*
X-1939442Y3228136D01*
X-1934413Y3234842D01*
X-1930857Y3242005D01*
X-1928672Y3249676D01*
X-1927860Y3258108D01*
X-1927860Y4350207D01*
X-1927402Y4353255D01*
X-1926031Y4355998D01*
X-1922932Y4360519D01*
X-1918817Y4369308D01*
X-1916277Y4378756D01*
X-1915414Y4388459D01*
X-1916277Y4398162D01*
X-1917344Y4402175D01*
X-1917649Y4405833D01*
X-1916582Y4409389D01*
X-1914347Y4412335D01*
X-1911197Y4414266D01*
X-1907539Y4414977D01*
X-1861667Y4414977D01*
X-1857756Y4414164D01*
X-1854454Y4411980D01*
X-1852269Y4408678D01*
X-1851507Y4404817D01*
X-1851507Y4395825D01*
X-1849882Y4386884D01*
X-1846681Y4378350D01*
X-1842007Y4370476D01*
X-1839264Y4367377D01*
X-1837385Y4364278D01*
X-1836724Y4360672D01*
X-1836724Y3992778D01*
X-1835912Y3984802D01*
X-1833575Y3977640D01*
X-1829765Y3971036D01*
X-1825955Y3966565D01*
X-1487373Y3627983D01*
X-1481124Y3622954D01*
X-1474419Y3619550D01*
X-1467053Y3617569D01*
X-1461211Y3617112D01*
X-1305407Y3617112D01*
X-1301496Y3616299D01*
X-1298194Y3614115D01*
X-1296009Y3610813D01*
X-1295247Y3606952D01*
X-1295247Y3450488D01*
X-1296162Y3446272D01*
X-1298803Y3442817D01*
X-1302613Y3440734D01*
X-1306931Y3440480D01*
X-1310995Y3442004D01*
X-1314196Y3444138D01*
X-1322628Y3447745D01*
X-1331518Y3449777D01*
X-1340612Y3450183D01*
X-1349654Y3448964D01*
X-1358341Y3446119D01*
X-1366367Y3441801D01*
X-1373479Y3436112D01*
X-1379474Y3429254D01*
X-1384147Y3421430D01*
X-1387348Y3412896D01*
X-1389786Y3399790D01*
X-1391970Y3396487D01*
X-1421993Y3366465D01*
X-1427073Y3360216D01*
X-1430477Y3353511D01*
X-1432458Y3346145D01*
X-1432915Y3340303D01*
X-1432915Y3114294D01*
X-1433677Y3110331D01*
X-1435963Y3107029D01*
X-1439316Y3104845D01*
X-1446326Y3102051D01*
X-1459077Y3095040D01*
X-1470863Y3086506D01*
X-1481480Y3076549D01*
X-1490776Y3065322D01*
X-1498549Y3053029D01*
X-1504746Y3039872D01*
X-1509268Y3026003D01*
X-1511960Y3011728D01*
X-1512874Y2997200D01*
X-1511960Y2982671D01*
X-1509268Y2968396D01*
X-1504746Y2954528D01*
X-1498549Y2941370D01*
X-1490776Y2929077D01*
X-1481480Y2917850D01*
X-1470863Y2907893D01*
X-1459077Y2899359D01*
X-1446326Y2892348D01*
X-1432814Y2886964D01*
X-1418691Y2883357D01*
X-1404264Y2881528D01*
X-1389735Y2881528D01*
X-1375308Y2883357D01*
X-1361186Y2886964D01*
X-1347673Y2892348D01*
X-1334922Y2899359D01*
X-1323136Y2907893D01*
X-1312367Y2918002D01*
X-1309065Y2920085D01*
X-1305204Y2920796D01*
X-1301343Y2919933D01*
X-1298143Y2917748D01*
X-1296009Y2914446D01*
X-1295247Y2910636D01*
X-1295247Y2888081D01*
X-1294384Y2880106D01*
X-1292098Y2872943D01*
X-1288288Y2866339D01*
X-1284427Y2861868D01*
X-1279296Y2856738D01*
X-1273048Y2851658D01*
X-1266342Y2848254D01*
X-1258976Y2846273D01*
X-1253134Y2845816D01*
X-521868Y2845816D01*
X-513892Y2846679D01*
X-506780Y2848965D01*
X-500176Y2852775D01*
X-495706Y2856636D01*
X-360781Y2991561D01*
X-357479Y2993745D01*
X-353568Y2994507D01*
X67360Y2994507D01*
X71678Y2993542D01*
X75184Y2990850D01*
X77216Y2986938D01*
X77368Y2982518D01*
X75895Y2974441D01*
X75895Y2965348D01*
X77520Y2956356D01*
X80721Y2947822D01*
X85394Y2939999D01*
X91440Y2933141D01*
X98552Y2927451D01*
X106578Y2923133D01*
X115265Y2920288D01*
X123545Y2919171D01*
X126695Y2918206D01*
X129387Y2916275D01*
X370687Y2674975D01*
X376936Y2669946D01*
X383641Y2666542D01*
X391007Y2664561D01*
X396849Y2664104D01*
X3778961Y2664104D01*
X3786936Y2664917D01*
X3794099Y2667254D01*
X3800703Y2671064D01*
X3805174Y2674874D01*
X4070045Y2939745D01*
X4073296Y2941929D01*
X4077106Y2942742D01*
X4080967Y2942031D01*
X4091686Y2937764D01*
X4105808Y2934157D01*
X4120235Y2932328D01*
X4134764Y2932328D01*
X4149191Y2934157D01*
X4163314Y2937764D01*
X4176826Y2943148D01*
X4189577Y2950159D01*
X4201363Y2958693D01*
X4211980Y2968650D01*
X4221276Y2979877D01*
X4229049Y2992170D01*
X4235246Y3005328D01*
X4239768Y3019196D01*
X4242460Y3033471D01*
X4243374Y3048000D01*
X4242460Y3062528D01*
X4239768Y3076803D01*
X4235246Y3090672D01*
X4229049Y3103829D01*
X4221276Y3116122D01*
X4211980Y3127349D01*
X4201363Y3137306D01*
X4189577Y3145840D01*
X4177690Y3152394D01*
X4174388Y3155340D01*
X4172610Y3159404D01*
X4172762Y3163824D01*
X4174744Y3167786D01*
X4178249Y3170478D01*
X4182567Y3171444D01*
X6076238Y3171444D01*
X6084214Y3172307D01*
X6091377Y3174593D01*
X6097981Y3178403D01*
X6102451Y3182264D01*
X6493052Y3572814D01*
X6496304Y3575050D01*
X6500215Y3575812D01*
X6504127Y3575050D01*
X6507378Y3572814D01*
X6509613Y3569563D01*
X6510375Y3565651D01*
X6510375Y3402533D01*
X6509613Y3398672D01*
X6507378Y3395370D01*
X6474917Y3362858D01*
X6472021Y3360877D01*
X6459220Y3357422D01*
X6450431Y3353308D01*
X6442456Y3347720D01*
X6435547Y3340811D01*
X6429959Y3332835D01*
X6425844Y3324047D01*
X6423304Y3314649D01*
X6422491Y3304946D01*
X6423304Y3295243D01*
X6425844Y3285794D01*
X6429959Y3277006D01*
X6435547Y3269030D01*
X6442456Y3262122D01*
X6450431Y3256534D01*
X6456019Y3253943D01*
X6459067Y3251758D01*
X6461099Y3248609D01*
X6461912Y3244951D01*
X6461302Y3241243D01*
X6459372Y3238042D01*
X6454038Y3231896D01*
X6449364Y3224072D01*
X6446164Y3215538D01*
X6444538Y3206546D01*
X6444538Y3197453D01*
X6446164Y3188462D01*
X6449364Y3179927D01*
X6454038Y3172104D01*
X6460032Y3165246D01*
X6467144Y3159556D01*
X6475171Y3155238D01*
X6483858Y3152394D01*
X6492900Y3151174D01*
X6501993Y3151581D01*
X6510883Y3153613D01*
X6519316Y3157220D01*
X6526885Y3162249D01*
X6533489Y3168548D01*
X6538874Y3175914D01*
X6542785Y3184144D01*
X6545224Y3192932D01*
X6545732Y3198418D01*
X6546646Y3201822D01*
X6548678Y3204718D01*
X6792975Y3449015D01*
X6798056Y3455263D01*
X6801459Y3461969D01*
X6803440Y3469335D01*
X6803898Y3475177D01*
X6803898Y3884371D01*
X6803034Y3892346D01*
X6800748Y3899509D01*
X6796938Y3906113D01*
X6793077Y3910584D01*
X6786067Y3917594D01*
X6784035Y3920490D01*
X6783120Y3923893D01*
X6782612Y3929379D01*
X6780174Y3938168D01*
X6776262Y3946398D01*
X6770878Y3953764D01*
X6764274Y3960063D01*
X6756704Y3965092D01*
X6748272Y3968699D01*
X6739381Y3970731D01*
X6736588Y3970832D01*
X6732930Y3971696D01*
X6729831Y3973829D01*
X6085586Y4618075D01*
X6079337Y4623155D01*
X6072632Y4626559D01*
X6065266Y4628540D01*
X6059424Y4628997D01*
X189128Y4628997D01*
X185470Y4629658D01*
X182270Y4631639D01*
X180035Y4634585D01*
X179019Y4638141D01*
X179324Y4641850D01*
X179984Y4644288D01*
X180797Y4653381D01*
X179984Y4662474D01*
X177546Y4671263D01*
X173634Y4679492D01*
X168249Y4686858D01*
X161645Y4693158D01*
X154076Y4698187D01*
X145643Y4701743D01*
X136753Y4703775D01*
X133959Y4703927D01*
X130302Y4704791D01*
X127203Y4706874D01*
X77368Y4756759D01*
X75184Y4760010D01*
X74422Y4763922D01*
X75184Y4767834D01*
X77368Y4771085D01*
X80670Y4773320D01*
X84582Y4774082D01*
X7281316Y4774082D01*
X7303871Y4773168D01*
X7325258Y4770628D01*
X7346340Y4766360D01*
X7367066Y4760518D01*
X7387234Y4753051D01*
X7406741Y4744008D01*
X7425537Y4733442D01*
X7443368Y4721453D01*
X7460284Y4708144D01*
X7476032Y4693513D01*
X7490663Y4677664D01*
X7503922Y4660747D01*
X7515859Y4642866D01*
X7526375Y4624070D01*
X7535316Y4604512D01*
X7542733Y4584293D01*
X7548575Y4563567D01*
X7552740Y4542485D01*
X7555230Y4521098D01*
X7556093Y4499610D01*
X7556550Y4495698D01*
X7556550Y2900680D01*
X7555687Y2878124D01*
X7553096Y2856738D01*
X7548880Y2835656D01*
X7542987Y2814929D01*
X7535519Y2794762D01*
X7526477Y2775254D01*
X7515961Y2756458D01*
X7503972Y2738577D01*
X7490612Y2721711D01*
X7475981Y2705912D01*
X7460183Y2691333D01*
X7443266Y2678074D01*
X7425334Y2666136D01*
X7406538Y2655620D01*
X7386980Y2646680D01*
X7366812Y2639263D01*
X7346086Y2633421D01*
X7324953Y2629255D01*
X7303566Y2626766D01*
X7281773Y2625902D01*
G37*

%LPC*%
G36*
X-3602939Y3251606D02*
G01*
X-3602939Y3295853D01*
X-3667963Y3295853D01*
X-3664762Y3289249D01*
X-3658412Y3279901D01*
X-3650691Y3271570D01*
X-3641801Y3264509D01*
X-3631996Y3258820D01*
X-3621430Y3254705D01*
X-3610356Y3252165D01*
G37*
G36*
X-3915714Y3253333D02*
G01*
X-3909720Y3254705D01*
X-3899154Y3258820D01*
X-3889349Y3264509D01*
X-3880459Y3271570D01*
X-3872737Y3279901D01*
X-3866387Y3289249D01*
X-3863187Y3295853D01*
X-3915714Y3295853D01*
G37*
G36*
X-3915714Y3358540D02*
G01*
X-3863187Y3358540D01*
X-3866387Y3365144D01*
X-3872737Y3374491D01*
X-3880459Y3382822D01*
X-3889349Y3389884D01*
X-3899154Y3395573D01*
X-3909720Y3399688D01*
X-3915714Y3401060D01*
G37*
G36*
X-3667963Y3358540D02*
G01*
X-3602939Y3358540D01*
X-3602939Y3401771D01*
X-3602126Y3405733D01*
X-3599789Y3409086D01*
X-3596335Y3411270D01*
X-3581806Y3413150D01*
X-3572357Y3416046D01*
X-3563518Y3420516D01*
X-3555542Y3426358D01*
X-3548735Y3433521D01*
X-3543147Y3441750D01*
X-3539083Y3450742D01*
X-3536594Y3460343D01*
X-3535730Y3470198D01*
X-3536594Y3480054D01*
X-3539083Y3489655D01*
X-3543147Y3498646D01*
X-3548735Y3506876D01*
X-3555542Y3514039D01*
X-3563518Y3519881D01*
X-3572357Y3524351D01*
X-3581806Y3527247D01*
X-3591661Y3528517D01*
X-3601516Y3528110D01*
X-3611219Y3526028D01*
X-3620414Y3522319D01*
X-3628847Y3517137D01*
X-3636264Y3510584D01*
X-3642461Y3502863D01*
X-3647338Y3494227D01*
X-3650589Y3484930D01*
X-3652265Y3475126D01*
X-3652265Y3465271D01*
X-3650589Y3455466D01*
X-3647338Y3446170D01*
X-3642461Y3437534D01*
X-3636264Y3429812D01*
X-3628847Y3423259D01*
X-3619906Y3417773D01*
X-3616706Y3414674D01*
X-3615182Y3410458D01*
X-3615588Y3406038D01*
X-3617823Y3402177D01*
X-3621532Y3399688D01*
X-3631996Y3395573D01*
X-3641801Y3389884D01*
X-3650691Y3382822D01*
X-3658412Y3374491D01*
X-3664762Y3365144D01*
G37*
G36*
X-3591610Y3989882D02*
G01*
X-3581806Y3991152D01*
X-3572357Y3994048D01*
X-3563518Y3998518D01*
X-3555542Y4004360D01*
X-3548684Y4011523D01*
X-3543147Y4019753D01*
X-3539083Y4028744D01*
X-3536543Y4038346D01*
X-3535730Y4048201D01*
X-3536543Y4058056D01*
X-3539083Y4067657D01*
X-3543147Y4076649D01*
X-3548684Y4084878D01*
X-3555542Y4092041D01*
X-3563518Y4097883D01*
X-3572357Y4102354D01*
X-3581806Y4105249D01*
X-3592322Y4106468D01*
X-3596335Y4107129D01*
X-3599789Y4109313D01*
X-3602075Y4112666D01*
X-3602888Y4116628D01*
X-3602888Y4159859D01*
X-3667963Y4159859D01*
X-3664762Y4153255D01*
X-3658362Y4143857D01*
X-3650691Y4135577D01*
X-3641801Y4128515D01*
X-3631996Y4122826D01*
X-3621532Y4118711D01*
X-3617823Y4116222D01*
X-3615537Y4112361D01*
X-3615182Y4107942D01*
X-3616706Y4103725D01*
X-3619906Y4100626D01*
X-3628796Y4095140D01*
X-3636264Y4088587D01*
X-3642461Y4080865D01*
X-3647287Y4072229D01*
X-3650589Y4062933D01*
X-3652265Y4053128D01*
X-3652265Y4043273D01*
X-3650589Y4033469D01*
X-3647287Y4024172D01*
X-3642461Y4015536D01*
X-3636264Y4007815D01*
X-3628796Y4001262D01*
X-3620363Y3996080D01*
X-3611168Y3992372D01*
X-3601516Y3990289D01*
G37*
G36*
X-2501341Y4024274D02*
G01*
X-2463292Y4024274D01*
X-2456942Y4024985D01*
X-2451506Y4026915D01*
X-2446578Y4030014D01*
X-2442514Y4034078D01*
X-2439416Y4039006D01*
X-2437485Y4044442D01*
X-2436774Y4050792D01*
X-2436774Y4088841D01*
X-2501341Y4088841D01*
G37*
G36*
X-2642108Y4024274D02*
G01*
X-2604058Y4024274D01*
X-2604058Y4088841D01*
X-2668625Y4088841D01*
X-2668625Y4050792D01*
X-2667914Y4044442D01*
X-2665984Y4039006D01*
X-2662885Y4034078D01*
X-2658821Y4030014D01*
X-2653893Y4026915D01*
X-2648458Y4024985D01*
G37*
G36*
X-3485184Y4115612D02*
G01*
X-3477768Y4116171D01*
X-3466693Y4118660D01*
X-3456127Y4122826D01*
X-3446322Y4128515D01*
X-3437432Y4135577D01*
X-3429711Y4143857D01*
X-3423361Y4153255D01*
X-3420160Y4159859D01*
X-3485184Y4159859D01*
G37*
G36*
X-3915714Y4117289D02*
G01*
X-3909720Y4118660D01*
X-3899154Y4122826D01*
X-3889349Y4128515D01*
X-3880459Y4135577D01*
X-3872737Y4143857D01*
X-3866387Y4153255D01*
X-3863187Y4159859D01*
X-3915714Y4159859D01*
G37*
G36*
X-2501341Y4191558D02*
G01*
X-2436774Y4191558D01*
X-2436774Y4229608D01*
X-2437485Y4235958D01*
X-2439416Y4241393D01*
X-2442514Y4246321D01*
X-2446578Y4250385D01*
X-2451506Y4253484D01*
X-2456942Y4255414D01*
X-2463292Y4256125D01*
X-2501341Y4256125D01*
G37*
G36*
X-3915714Y4222546D02*
G01*
X-3863187Y4222546D01*
X-3866387Y4229150D01*
X-3872737Y4238498D01*
X-3880459Y4246829D01*
X-3889349Y4253890D01*
X-3899154Y4259580D01*
X-3909720Y4263694D01*
X-3915714Y4265066D01*
G37*
G36*
X-3667963Y4222546D02*
G01*
X-3602888Y4222546D01*
X-3602888Y4266793D01*
X-3610356Y4266234D01*
X-3621430Y4263694D01*
X-3631996Y4259580D01*
X-3641801Y4253890D01*
X-3650691Y4246829D01*
X-3658362Y4238498D01*
X-3664762Y4229150D01*
G37*
G36*
X-3485184Y4222546D02*
G01*
X-3420160Y4222546D01*
X-3423361Y4229150D01*
X-3429711Y4238498D01*
X-3437432Y4246829D01*
X-3446322Y4253890D01*
X-3456127Y4259580D01*
X-3466693Y4263694D01*
X-3477768Y4266234D01*
X-3485184Y4266793D01*
G37*

%LPD*%
D10*
X4127500Y3048002D02*
G01*
X3779494Y2699997D01*
X396468Y2699997D01*
X126568Y2969897D01*
X3873500Y3048002D02*
G01*
X3566693Y2741195D01*
X440232Y2741195D01*
X211556Y2969872D01*
D11*
X-2189073Y4458362D02*
G01*
X-2189073Y4635248D01*
X-2806700Y4140202D02*
G01*
X-2516759Y4430143D01*
X-2217293Y4430143D01*
X-2189073Y4458362D01*
X892327Y4057881D02*
G01*
X14351Y4057881D01*
X-379171Y4451403D01*
X-1769871Y4451403D01*
X-1776831Y4458362D01*
X-2189073Y4458362D01*
X-2806700Y4140202D02*
G01*
X-2965246Y3981655D01*
X-2965246Y2917446D01*
X-3031870Y3891815D02*
G01*
X-3031870Y3069211D01*
X-3119704Y2981378D01*
X-2310003Y4215640D02*
G01*
X-2289682Y4195320D01*
X-2289682Y3472665D01*
X-2918536Y2843811D01*
X-2982137Y2843811D01*
X-3119704Y2981378D01*
X-3119704Y2981378D02*
G01*
X-3153562Y2981378D01*
X-3207537Y2927403D01*
X-2552700Y4140202D02*
G01*
X-2429738Y4140202D01*
X-2552700Y4140202D02*
G01*
X-2552700Y3722474D01*
X-2352649Y3522423D01*
X-1143000Y2997202D02*
G01*
X-1143000Y3120163D01*
X2839618Y3869565D02*
G01*
X2839618Y4116859D01*
X2670378Y4286100D01*
X-1143000Y3120163D02*
G01*
X-1161161Y3138324D01*
X-1161161Y3687726D01*
X-1121587Y3727300D01*
X-523341Y3727300D01*
X-496112Y3700071D01*
X6779310Y3383688D02*
G01*
X6345351Y2949729D01*
X6779310Y3383688D02*
G01*
X6984974Y3589352D01*
X6984974Y3903626D01*
X3365500Y3048002D02*
G01*
X2624556Y3048002D01*
X2286254Y3386305D01*
X-3962095Y3327199D02*
G01*
X-3962095Y4191205D01*
X-3544087Y4191205D02*
G01*
X-3962095Y4191205D01*
D10*
X1491487Y3781605D02*
G01*
X1455293Y3781605D01*
X803173Y3129485D01*
X669061Y3129485D01*
X1491487Y3781605D02*
G01*
X1491487Y4423539D01*
X1437970Y4477057D01*
X-1397000Y2997202D02*
G01*
X-1397000Y3340686D01*
X-1338326Y3399360D01*
X-432384Y3639619D02*
G01*
X127635Y3079600D01*
X834212Y3079600D01*
X847039Y3092427D01*
X-732917Y4137891D02*
G01*
X-534365Y4137891D01*
X-432384Y4035910D01*
X-432384Y3639619D01*
X-432384Y3639619D02*
G01*
X-1079728Y3639619D01*
X-1097534Y3657424D01*
X-527456Y4363824D02*
G01*
X-527456Y4339109D01*
X-455371Y4267024D01*
X-455371Y4206140D01*
X-472719Y4188792D01*
X-509752Y4188792D01*
X-510133Y4189173D01*
X-589610Y4189173D01*
X-589991Y4188792D01*
X-1014323Y4188792D01*
X-1467129Y3735986D01*
X4523257Y4291307D02*
G01*
X4612335Y4291307D01*
X5013807Y3889834D01*
X129946Y4653384D02*
G01*
X29006Y4754323D01*
X-480466Y4754323D01*
X-722807Y4511982D01*
D11*
X-2502611Y4510940D02*
G01*
X-2647772Y4510940D01*
X-3318306Y3840406D01*
X-3318306Y2978762D01*
X580415Y4357855D02*
G01*
X528980Y4306420D01*
X-162839Y4306420D01*
X-426415Y4569995D01*
X2418384Y4249524D02*
G01*
X2418384Y4201772D01*
X2813558Y3806598D01*
X2860903Y3806598D01*
X3619500Y3048002D01*
X992581Y4165754D02*
G01*
X800480Y4357855D01*
X580415Y4357855D01*
X6553784Y3605938D02*
G01*
X6553784Y3380361D01*
X6478346Y3304923D01*
X-2355646Y2925828D02*
G01*
X-2303119Y2925828D01*
X-1971294Y3257654D01*
X-1971294Y4388436D01*
X-2292172Y4493110D02*
G01*
X-2383383Y4584321D01*
X-2645740Y4584321D01*
X-3387496Y3842565D01*
X-3387496Y2956841D01*
X-3139592Y2708937D01*
D10*
X-3025343Y3992196D02*
G01*
X-3183331Y3834208D01*
X-3239439Y3834208D01*
X1340865Y3598471D02*
G01*
X1340865Y3484069D01*
X916127Y3059330D01*
X671245Y4255264D02*
G01*
X821944Y4255264D01*
X1026413Y4050794D01*
X1060348Y4050794D01*
X1224406Y3886735D01*
X1224406Y3627249D01*
X2361361Y3770937D02*
G01*
X2226614Y3636190D01*
X2226614Y3360549D01*
X2654630Y2932534D01*
X3669817Y2932534D01*
X3747820Y3010537D01*
X3747820Y3090750D01*
X3864432Y3207362D01*
X6076772Y3207362D01*
X6628434Y3759024D01*
X2361361Y3770937D02*
G01*
X2306142Y3770937D01*
X1350289Y2815084D01*
X-1640052Y4244926D02*
G01*
X-511530Y4244926D01*
X-503986Y4237382D01*
X-503986Y4237789D01*
X-253339Y4701974D02*
G01*
X-253339Y4540455D01*
X-268808Y4524987D01*
X-1259331Y3653005D02*
G01*
X-1259331Y2887550D01*
X-1253515Y2881734D01*
X-521360Y2881734D01*
X-372668Y3030425D01*
X876325Y3030425D01*
X896010Y3010740D01*
X936269Y3010740D01*
X2303221Y4377692D01*
X5334609Y4377692D01*
X5492927Y4219374D01*
X-572262Y4086964D02*
G01*
X-825372Y4086964D01*
X-1259331Y3653005D01*
X-1259331Y3653005D02*
G01*
X-1461592Y3653005D01*
X-1800834Y3992247D01*
X-1800834Y4400400D01*
X-56692Y4364687D02*
G01*
X-152780Y4460775D01*
X-152780Y4545942D01*
X-105638Y4593084D01*
X6059804Y4593084D01*
X6732574Y3920314D01*
X6495186Y3202002D02*
G01*
X6767982Y3474798D01*
X6767982Y3884907D01*
X6732574Y3920314D01*
X934059Y3997657D02*
G01*
X-16027Y3997657D01*
X-383463Y4365094D01*
X2903474Y4011602D02*
G01*
X2970022Y3945054D01*
X2970022Y3922524D01*
X5074996Y3263318D02*
G01*
X3629228Y3263318D01*
X2970022Y3922524D01*
X2362987Y3920822D02*
G01*
X2361463Y3922346D01*
X2361463Y4275254D01*
X2428189Y4341980D01*
X4959299Y4341980D01*
X5385384Y3915895D01*
X6054597Y3915895D01*
X6076492Y3937789D01*
X2362987Y3920822D02*
G01*
X2362987Y3898165D01*
X1255521Y2790700D01*
X-101041Y4522624D02*
G01*
X-78130Y4545535D01*
X5251221Y4545535D01*
X5763209Y4033547D01*
X-461670Y4364687D02*
G01*
X155016Y3748001D01*
X884554Y3748001D01*
X342239Y3130450D02*
G01*
X1113840Y3902052D01*
X6194602Y3821508D02*
G01*
X4537481Y3821508D01*
X4386173Y3972816D01*
X6716242Y3721508D02*
G01*
X6716242Y3745308D01*
X6475171Y3986380D01*
X6056375Y3986380D01*
X6051829Y3981833D01*
X5396941Y3981833D01*
D11*
X-2429738Y4140202D02*
G01*
X-2429738Y4201695D01*
X-2347010Y4284423D01*
X-2273376Y4284423D01*
X-2223871Y4234919D01*
X-2223871Y3094128D01*
X-2260904Y3057095D01*
X2439995Y3709992D02*
G01*
X2286254Y3556251D01*
X2286254Y3386305D01*
D12*
G01*
X4127500Y3048000D03*
G01*
X3873500Y3048000D03*
G01*
X3619500Y3048000D03*
D13*
G01*
X3365500Y3048000D03*
G01*
X-2552700Y4140200D03*
D12*
G01*
X-2806700Y4140200D03*
D13*
G01*
X-1143000Y2997200D03*
D12*
G01*
X-1397000Y2997200D03*
D14*
G01*
X-3544087Y3327196D03*
D15*
G01*
X-3962095Y3327196D03*
G01*
X-3962095Y4191203D03*
D14*
G01*
X-3544087Y4191203D03*
D17*
G01*
X-2965246Y2917444D03*
G01*
X-2189073Y4635245D03*
G01*
X892327Y4057878D03*
G01*
X-2310003Y4215637D03*
G01*
X-3031870Y3891813D03*
G01*
X-3207537Y2927400D03*
G01*
X-2260904Y3057093D03*
G01*
X-2352649Y3522421D03*
G01*
X2670378Y4286097D03*
G01*
X2839618Y3869562D03*
G01*
X6345351Y2949727D03*
G01*
X6984974Y3903624D03*
G01*
X6779310Y3383686D03*
G01*
X-496112Y3700068D03*
G01*
X2286254Y3386302D03*
D18*
G01*
X669061Y3129483D03*
G01*
X1437970Y4477054D03*
G01*
X1491487Y3781602D03*
G01*
X-1338326Y3399358D03*
G01*
X-732917Y4137888D03*
G01*
X-1097534Y3657422D03*
G01*
X847039Y3092424D03*
G01*
X-527456Y4363821D03*
G01*
X-1467129Y3735984D03*
G01*
X-722807Y4511979D03*
G01*
X129946Y4653381D03*
G01*
X4523257Y4291304D03*
G01*
X5013807Y3889832D03*
D17*
G01*
X-426415Y4569993D03*
G01*
X580415Y4357852D03*
G01*
X992581Y4165752D03*
G01*
X-2502611Y4510938D03*
G01*
X-3318306Y2978759D03*
G01*
X2418384Y4249521D03*
G01*
X6553784Y3605936D03*
G01*
X6478346Y3304920D03*
D18*
G01*
X126568Y2969895D03*
G01*
X211556Y2969869D03*
D17*
G01*
X-2355646Y2925826D03*
G01*
X-1971294Y4388434D03*
G01*
X-2292172Y4493107D03*
G01*
X-3139592Y2708935D03*
D18*
G01*
X-3025343Y3992194D03*
G01*
X-3239439Y3834206D03*
G01*
X916127Y3059328D03*
G01*
X1340865Y3598468D03*
G01*
X1224406Y3627246D03*
G01*
X671245Y4255262D03*
G01*
X6628434Y3759022D03*
G01*
X2361361Y3770934D03*
G01*
X1350289Y2815081D03*
G01*
X-1640052Y4244924D03*
G01*
X-503986Y4237786D03*
G01*
X-253339Y4701971D03*
G01*
X-268808Y4524984D03*
G01*
X-1800834Y4400397D03*
G01*
X5492927Y4219371D03*
G01*
X-572262Y4086961D03*
G01*
X-56692Y4364685D03*
G01*
X6495186Y3202000D03*
G01*
X6732574Y3920312D03*
G01*
X2903474Y4011599D03*
G01*
X934059Y3997655D03*
G01*
X-383463Y4365091D03*
G01*
X5074996Y3263315D03*
G01*
X2970022Y3922521D03*
G01*
X6076492Y3937787D03*
G01*
X2362987Y3920820D03*
G01*
X1255521Y2790697D03*
G01*
X-101041Y4522622D03*
G01*
X5763209Y4033545D03*
G01*
X-461670Y4364685D03*
G01*
X884554Y3747998D03*
G01*
X342239Y3130448D03*
G01*
X1113840Y3902049D03*
G01*
X4386173Y3972813D03*
G01*
X6194602Y3821506D03*
G01*
X6716242Y3721506D03*
G01*
X5396941Y3981830D03*
D17*
G01*
X2440000Y3710000D03*
M02*
