G04 Layer: BottomSilkscreenLayer*
G04 EasyEDA v6.5.54, 2026-05-30 19:05:59*
G04 b713acd6552c46cc8e75d456f680c5e3,b6031369c6ef4286a022563aaf79ab08,10*
G04 Gerber Generator version 0.2*
G04 Scale: 100 percent, Rotated: No, Reflected: No *
G04 Dimensions in millimeters *
G04 leading zeros omitted , absolute positions ,4 integer and 5 decimal *
%FSLAX45Y45*%
%MOMM*%

%ADD10C,0.0129*%

%LPD*%
G36*
X2557475Y3799332D02*
G01*
X2483104Y3794963D01*
X2447493Y3786835D01*
X2439974Y3782568D01*
X2416454Y3773576D01*
X2388920Y3752342D01*
X2380183Y3738422D01*
X2372156Y3726891D01*
X2370632Y3608324D01*
X2373223Y3603142D01*
X2505252Y3603193D01*
X2512822Y3606800D01*
X2515311Y3714902D01*
X2540304Y3731717D01*
X2572816Y3731717D01*
X2591765Y3721709D01*
X2601976Y3705555D01*
X2602077Y3607917D01*
X2606090Y3603040D01*
X2743911Y3604056D01*
X2745282Y3715359D01*
X2737154Y3734562D01*
X2726334Y3751834D01*
X2706268Y3768699D01*
X2686151Y3778504D01*
X2658516Y3788714D01*
X2632862Y3795014D01*
G37*
G36*
X4409795Y3798874D02*
G01*
X3753764Y3796487D01*
X3747515Y3790492D01*
X3747515Y3638397D01*
X3795217Y3638397D01*
X3795217Y3645357D01*
X3813556Y3664813D01*
X3826306Y3662375D01*
X3831640Y3657346D01*
X3865879Y3648201D01*
X3889451Y3658209D01*
X3890975Y3674262D01*
X3880256Y3687521D01*
X3854246Y3704082D01*
X3829151Y3716223D01*
X3809034Y3723843D01*
X3800043Y3729380D01*
X3801516Y3761435D01*
X3948684Y3762451D01*
X3948202Y3751834D01*
X3980637Y3751834D01*
X3991559Y3762400D01*
X4025392Y3762400D01*
X4036364Y3751072D01*
X4036364Y3740912D01*
X4019296Y3727856D01*
X3997451Y3728008D01*
X3983278Y3736898D01*
X3980637Y3751834D01*
X3948202Y3751834D01*
X3947210Y3728821D01*
X3901186Y3727754D01*
X3894632Y3721658D01*
X3917137Y3707739D01*
X3936695Y3689299D01*
X3948480Y3669893D01*
X3948480Y3657803D01*
X4052874Y3657803D01*
X4052874Y3719220D01*
X4064000Y3734511D01*
X4064000Y3738778D01*
X4085386Y3754780D01*
X4105097Y3762806D01*
X4154881Y3762705D01*
X4163263Y3757117D01*
X4173626Y3754729D01*
X4188917Y3742283D01*
X4199382Y3726891D01*
X4207205Y3695801D01*
X4207154Y3680866D01*
X4198010Y3646322D01*
X4185208Y3630929D01*
X4173321Y3622649D01*
X4143806Y3612692D01*
X4110482Y3613048D01*
X4083862Y3622649D01*
X4064000Y3638448D01*
X4064000Y3642512D01*
X4052874Y3657803D01*
X3948480Y3657803D01*
X3948480Y3647744D01*
X3936085Y3630929D01*
X3919169Y3620770D01*
X3885133Y3612692D01*
X3854246Y3613099D01*
X3824122Y3621481D01*
X3809034Y3628745D01*
X3795217Y3638397D01*
X3747515Y3638397D01*
X3747515Y3608628D01*
X3752697Y3601212D01*
X4269841Y3601212D01*
X4280052Y3609594D01*
X4308957Y3647744D01*
X4320082Y3661664D01*
X4328160Y3673195D01*
X4359198Y3712819D01*
X4370476Y3726891D01*
X4378198Y3738422D01*
X4400397Y3765296D01*
X4407662Y3777284D01*
X4412843Y3779723D01*
X4418888Y3793744D01*
G37*
G36*
X3422192Y3795877D02*
G01*
X3384346Y3787749D01*
X3340963Y3771239D01*
X3316325Y3753764D01*
X3313429Y3745280D01*
X3320186Y3741013D01*
X3354374Y3735324D01*
X3393592Y3730294D01*
X3394268Y3729736D01*
X3430727Y3729736D01*
X3459886Y3739946D01*
X3540251Y3740353D01*
X3554374Y3737356D01*
X3552799Y3728821D01*
X3530193Y3726230D01*
X3433775Y3725926D01*
X3430727Y3729736D01*
X3394268Y3729736D01*
X3403549Y3722115D01*
X3399586Y3722014D01*
X3363772Y3718458D01*
X3344316Y3712057D01*
X3318916Y3703015D01*
X3308705Y3694277D01*
X3298444Y3680866D01*
X3295446Y3667404D01*
X3296505Y3663950D01*
X3440836Y3663950D01*
X3449269Y3669284D01*
X3555339Y3671671D01*
X3565398Y3668826D01*
X3550310Y3663797D01*
X3541115Y3657904D01*
X3457346Y3657092D01*
X3442715Y3659733D01*
X3440836Y3663950D01*
X3296505Y3663950D01*
X3299663Y3653485D01*
X3317798Y3632606D01*
X3344316Y3618890D01*
X3368954Y3610762D01*
X3389528Y3608527D01*
X3409848Y3602888D01*
X3462375Y3599840D01*
X3515156Y3599332D01*
X3574440Y3603091D01*
X3584194Y3607104D01*
X3611727Y3610965D01*
X3634130Y3618534D01*
X3666439Y3634790D01*
X3679647Y3646830D01*
X3680917Y3655822D01*
X3660851Y3659022D01*
X3638245Y3664458D01*
X3603091Y3668623D01*
X3588512Y3675634D01*
X3603040Y3677716D01*
X3633215Y3680155D01*
X3661206Y3687826D01*
X3685946Y3701999D01*
X3697528Y3720490D01*
X3698036Y3734562D01*
X3689400Y3756507D01*
X3667556Y3772966D01*
X3630676Y3787292D01*
X3590493Y3795776D01*
G37*
G36*
X3125165Y3795115D02*
G01*
X3118205Y3788714D01*
X3116427Y3741318D01*
X3109874Y3741318D01*
X3108198Y3744772D01*
X3082493Y3767226D01*
X3051403Y3795064D01*
X3000146Y3795064D01*
X2985109Y3783482D01*
X2977134Y3776827D01*
X2951530Y3752951D01*
X2932785Y3737457D01*
X2928569Y3737457D01*
X2928569Y3790442D01*
X2922524Y3795064D01*
X2793288Y3795064D01*
X2785364Y3789019D01*
X2785364Y3607409D01*
X2791663Y3603548D01*
X2801721Y3601465D01*
X2913735Y3602177D01*
X2944317Y3628491D01*
X2977540Y3658666D01*
X3004058Y3680612D01*
X3020263Y3697020D01*
X3026206Y3697173D01*
X3054146Y3675481D01*
X3054146Y3672687D01*
X3062478Y3667404D01*
X3097936Y3634790D01*
X3113176Y3621582D01*
X3136747Y3602177D01*
X3251352Y3601008D01*
X3261410Y3606647D01*
X3262833Y3781602D01*
X3258565Y3794099D01*
G37*
G36*
X-78536Y3795064D02*
G01*
X-81076Y3789984D01*
X-77165Y3782060D01*
X-61010Y3767226D01*
X25857Y3681323D01*
X40474Y3665321D01*
X103733Y3665321D01*
X103733Y3691026D01*
X113792Y3699510D01*
X137261Y3708603D01*
X174040Y3712921D01*
X177850Y3714648D01*
X172821Y3721811D01*
X156464Y3725722D01*
X127152Y3728364D01*
X113995Y3737000D01*
X128727Y3746652D01*
X148945Y3754323D01*
X177596Y3762705D01*
X239369Y3766058D01*
X304698Y3762349D01*
X332333Y3754323D01*
X353110Y3746449D01*
X366166Y3731006D01*
X369316Y3718255D01*
X361442Y3705606D01*
X352196Y3699205D01*
X329742Y3690061D01*
X282092Y3685794D01*
X209245Y3683406D01*
X190093Y3679698D01*
X191668Y3671366D01*
X211734Y3666744D01*
X246888Y3666591D01*
X277063Y3672078D01*
X287985Y3682441D01*
X317246Y3673703D01*
X349910Y3669131D01*
X351485Y3658768D01*
X346506Y3658768D01*
X339547Y3653434D01*
X317246Y3645052D01*
X300248Y3640582D01*
X403860Y3640582D01*
X405180Y3763365D01*
X490575Y3763365D01*
X490811Y3760266D01*
X626973Y3760266D01*
X630326Y3764330D01*
X708558Y3764330D01*
X732282Y3745128D01*
X832713Y3745128D01*
X855878Y3764330D01*
X931621Y3764330D01*
X934618Y3758387D01*
X923899Y3749700D01*
X923899Y3747414D01*
X891489Y3709619D01*
X877062Y3694277D01*
X865667Y3678936D01*
X937717Y3678936D01*
X937717Y3719220D01*
X949858Y3734562D01*
X960323Y3743706D01*
X979830Y3753154D01*
X1008075Y3760774D01*
X1035710Y3764635D01*
X1111046Y3763213D01*
X1141222Y3754323D01*
X1163472Y3746093D01*
X1183030Y3730751D01*
X1187805Y3721658D01*
X1182268Y3716578D01*
X1156309Y3712667D01*
X1105560Y3710127D01*
X1093470Y3719880D01*
X1065072Y3726129D01*
X1050798Y3723487D01*
X1036015Y3717798D01*
X1027074Y3709619D01*
X1026921Y3688283D01*
X1040739Y3678377D01*
X1066393Y3671519D01*
X1093470Y3680307D01*
X1102868Y3686606D01*
X1147470Y3685540D01*
X1183284Y3682085D01*
X1188313Y3678275D01*
X1185367Y3669284D01*
X1163828Y3652621D01*
X1143711Y3644544D01*
X1139471Y3643172D01*
X1222857Y3643172D01*
X1222857Y3760571D01*
X1235760Y3764330D01*
X1440992Y3764330D01*
X1448968Y3761994D01*
X1448968Y3737762D01*
X1445920Y3731717D01*
X1329639Y3731666D01*
X1317040Y3726789D01*
X1317040Y3717340D01*
X1442669Y3716324D01*
X1448968Y3709873D01*
X1448968Y3691128D01*
X1443736Y3683711D01*
X1321460Y3683711D01*
X1315364Y3678174D01*
X1315605Y3677208D01*
X1571853Y3677208D01*
X1573276Y3725011D01*
X1741627Y3726129D01*
X1761743Y3723944D01*
X1778050Y3712311D01*
X1777796Y3686606D01*
X1762810Y3673195D01*
X1574495Y3672027D01*
X1571853Y3677208D01*
X1315605Y3677208D01*
X1317091Y3671315D01*
X1337157Y3668522D01*
X1444650Y3668776D01*
X1449171Y3662629D01*
X1447698Y3636721D01*
X1228090Y3635705D01*
X1222857Y3643172D01*
X1139471Y3643172D01*
X1116076Y3635603D01*
X1033170Y3634232D01*
X1010564Y3635959D01*
X978204Y3645763D01*
X960323Y3654501D01*
X949858Y3663594D01*
X937717Y3678936D01*
X865667Y3678936D01*
X862787Y3675075D01*
X854252Y3667404D01*
X841298Y3650132D01*
X824026Y3635756D01*
X740765Y3635756D01*
X722376Y3652570D01*
X711657Y3666236D01*
X687019Y3694277D01*
X634187Y3755694D01*
X626973Y3760266D01*
X490811Y3760266D01*
X493674Y3721862D01*
X498093Y3718661D01*
X608634Y3716934D01*
X633780Y3708298D01*
X652627Y3689858D01*
X652627Y3665270D01*
X641299Y3653586D01*
X626262Y3644036D01*
X593852Y3635756D01*
X406247Y3635756D01*
X403860Y3640582D01*
X300248Y3640582D01*
X282092Y3635756D01*
X174040Y3636111D01*
X143916Y3643833D01*
X116281Y3653536D01*
X103733Y3665321D01*
X40474Y3665321D01*
X48463Y3658971D01*
X81127Y3625951D01*
X104851Y3603396D01*
X118821Y3601720D01*
X1779270Y3602177D01*
X1804416Y3608476D01*
X1831035Y3610965D01*
X1849628Y3616960D01*
X1879854Y3629609D01*
X1898243Y3642512D01*
X1910130Y3655923D01*
X1922475Y3675075D01*
X1922475Y3725011D01*
X1912569Y3738422D01*
X1896364Y3757929D01*
X1874723Y3771442D01*
X1844598Y3781856D01*
X1831390Y3787292D01*
X1779270Y3795014D01*
G37*
G36*
X1967026Y3795064D02*
G01*
X1960168Y3788714D01*
X1959138Y3670300D01*
X2200046Y3670300D01*
X2200046Y3662730D01*
X2190343Y3658768D01*
X2107946Y3658768D01*
X2104593Y3661359D01*
X2104593Y3670300D01*
X1959138Y3670300D01*
X1958695Y3616706D01*
X1962962Y3604056D01*
X1977745Y3601465D01*
X2246528Y3602482D01*
X2268524Y3608882D01*
X2278684Y3608882D01*
X2304288Y3618179D01*
X2322017Y3632860D01*
X2334412Y3646322D01*
X2335885Y3677005D01*
X2328468Y3686606D01*
X2321255Y3698443D01*
X2306828Y3707079D01*
X2303780Y3713479D01*
X2323134Y3728313D01*
X2323134Y3732834D01*
X2333548Y3748024D01*
X2334463Y3788664D01*
X2327554Y3795064D01*
X2213559Y3795064D01*
X2203805Y3789629D01*
X2201316Y3737152D01*
X2184755Y3725875D01*
X2105863Y3726891D01*
X2103323Y3790238D01*
X2099259Y3795064D01*
G37*
G36*
X216154Y3733647D02*
G01*
X180441Y3722217D01*
X183388Y3716375D01*
X269798Y3716375D01*
X279552Y3722115D01*
X263144Y3733647D01*
G37*
G36*
X4125976Y3729786D02*
G01*
X4114495Y3724046D01*
X4108805Y3709619D01*
X4110482Y3659733D01*
X4122165Y3647236D01*
X4133392Y3647236D01*
X4141876Y3652062D01*
X4150156Y3675075D01*
X4150410Y3701948D01*
X4144873Y3715410D01*
X4141927Y3725570D01*
G37*
G36*
X803402Y3712667D02*
G01*
X761949Y3711549D01*
X760272Y3704793D01*
X778662Y3685641D01*
X784199Y3685641D01*
X798322Y3695954D01*
X798322Y3699764D01*
X806450Y3706622D01*
G37*
G36*
X499211Y3686606D02*
G01*
X494284Y3680866D01*
X495604Y3671417D01*
X508152Y3668522D01*
X561289Y3669792D01*
X572211Y3674262D01*
X572211Y3679799D01*
X558647Y3686606D01*
G37*
M02*
